<svg width="1920" height="1162" viewBox="0 0 1920 1162" fill="none" xmlns="http://www.w3.org/2000/svg">
<path d="M341.318 187.243C221.737 40.4189 63.2803 1.23767 -1 0V935.152C28.0792 998.98 60.2438 1034.87 140.315 1034.87C227.042 1034.87 266.89 1051.08 342.339 1093.75C406.109 1129.82 469.879 1214.69 891.273 1115.5C1312.67 1016.31 1236.53 1136.38 1529.99 1107.01C1842.72 1075.72 1802.93 1148.92 1957 1153.69V734.648C1912.11 683.727 1858.03 702.822 1773.34 719.266C1613.33 750.335 1591.25 590.371 1454.49 590.371C1338.17 590.371 1212.16 620.605 1085.64 482.693C959.124 344.781 772.915 318.79 687.718 327.807C602.521 336.824 490.796 370.772 341.318 187.243Z" fill="#EC615B" fill-opacity="0.5"/>
<path d="M335.675 211.446C218.414 73.0884 63.0328 36.1663 0 35V916.232C28.5149 976.38 60.0552 1010.2 138.572 1010.2C223.616 1010.2 262.69 1025.47 336.675 1065.69C399.208 1099.68 461.74 1179.65 874.956 1086.18C1288.17 992.708 1213.51 1105.86 1501.28 1078.18C1807.94 1048.69 1768.92 1117.67 1920 1122.17V727.289C1875.98 679.304 1822.95 697.298 1739.91 712.794C1583 742.072 1561.35 591.331 1427.24 591.331C1313.18 591.331 1189.62 619.822 1065.55 489.861C941.49 359.901 758.895 335.409 675.352 343.906C591.808 352.403 482.251 384.394 335.675 211.446Z" fill="#29323C"/>
</svg>
