<svg width="32" height="32" viewBox="0 0 32 32" fill="none" xmlns="http://www.w3.org/2000/svg">
<g clip-path="url(#clip0)">
<path d="M29.0883 22.8173L14.4216 10.8173C14.1363 10.5846 13.7163 10.6273 13.4836 10.9126C13.3867 11.0315 13.3337 11.18 13.3336 11.3333V31.3333C13.3333 31.6273 13.5256 31.8868 13.8069 31.972C13.8696 31.9909 13.9348 32.0003 14.0002 32C14.2232 31.9999 14.4314 31.8883 14.5549 31.7027L19.691 24H28.667C29.0352 23.9996 29.3333 23.7008 29.3329 23.3326C29.3326 23.1329 29.2429 22.9438 29.0883 22.8173Z" fill="#2D3540"/>
<path d="M14.0003 6.66669C13.6321 6.66669 13.3336 6.36819 13.3336 6V0.666687C13.3337 0.2985 13.6321 0 14.0003 0C14.3685 0 14.667 0.2985 14.667 0.666687V6C14.667 6.36819 14.3685 6.66669 14.0003 6.66669Z" fill="#E5E5E5"/>
<path d="M8.66699 12H3.33368C2.96549 12 2.66699 11.7015 2.66699 11.3333C2.66699 10.9651 2.96549 10.6666 3.33368 10.6666H8.66699C9.03518 10.6666 9.33368 10.9651 9.33368 11.3333C9.33368 11.7015 9.03518 12 8.66699 12Z" fill="#E5E5E5"/>
<path d="M24.667 12H19.3337C18.9655 12 18.667 11.7015 18.667 11.3333C18.667 10.9651 18.9655 10.6666 19.3337 10.6666H24.667C25.0352 10.6666 25.3337 10.9651 25.3337 11.3333C25.3337 11.7015 25.0352 12 24.667 12Z" fill="#E5E5E5"/>
<path d="M10.2297 8.2293C10.0527 8.22961 9.88291 8.15961 9.75766 8.03461L5.98567 4.26667C5.72385 4.00486 5.72385 3.58049 5.98567 3.31867C6.24748 3.05686 6.67185 3.05686 6.93366 3.31867L10.7003 7.09067C10.961 7.35067 10.9615 7.7728 10.7015 8.03349C10.5762 8.15917 10.4058 8.22967 10.2283 8.22936H10.2297V8.2293Z" fill="#E5E5E5"/>
<path d="M6.45755 19.5426C6.08936 19.5433 5.79036 19.2453 5.78967 18.8771C5.78936 18.6996 5.85986 18.5293 5.98555 18.4039L9.75755 14.6319C10.0224 14.3762 10.4444 14.3835 10.7002 14.6483C10.9497 14.9067 10.9497 15.3163 10.7002 15.5746L6.93355 19.3479C6.8073 19.4739 6.63586 19.544 6.45755 19.5426Z" fill="#E5E5E5"/>
<path d="M17.7709 8.22931C17.4027 8.22999 17.1037 7.93199 17.103 7.56381C17.1027 7.38631 17.1732 7.21599 17.2989 7.09062L21.0669 3.31862C21.3317 3.06281 21.7538 3.07018 22.0096 3.33499C22.2591 3.59337 22.2591 4.00293 22.0096 4.26124L18.2429 8.03324C18.1178 8.15874 17.948 8.22931 17.7709 8.22931Z" fill="#E5E5E5"/>
</g>
<defs>
<clipPath id="clip0">
<rect width="32" height="32" fill="white"/>
</clipPath>
</defs>
</svg>
