<svg width="36" height="34" viewBox="0 0 36 34" fill="none" xmlns="http://www.w3.org/2000/svg">
<rect width="36" height="33.6" rx="5" fill="#E5E5E5"/>
<path d="M14.7313 4.80029H32.7313C31.3873 8.54429 29.4913 9.84029 26.4913 10.6803H22.1713L20.4913 16.8003H29.6113C27.6913 21.2163 24.5713 22.4803 23.2513 22.5603H19.1713C17.0593 27.4563 13.0913 28.7603 11.3713 28.8003L13.2913 22.5603H8.25129C2.97134 21.4803 2.93129 16.9603 3.21129 14.8803C4.43987 6.96029 11.5713 4.88029 14.7313 4.80029Z" fill="#EC615B"/>
<path d="M9.64217 13.6279C10.2182 10.6519 14.2822 10.3879 16.2422 10.6279L14.6822 16.6279C10.0742 17.2999 9.40217 14.9079 9.64217 13.6279Z" fill="#E5E5E5"/>
</svg>
