<svg width="36" height="36" viewBox="0 0 36 36" fill="none" xmlns="http://www.w3.org/2000/svg">
<g clip-path="url(#clip0)">
<path d="M35.6604 18.3462C35.6604 28.4785 27.8491 37.0385 18 36.6923C7.81132 37.0385 0 28.4785 0 18.3462C0 8.21385 8.05887 0 18 0C27.9411 0 35.6604 8.21385 35.6604 18.3462Z" fill="#E5E5E5"/>
<path d="M17.9304 0C8.02898 0 0 8.25203 0 18.4317C0 26.5755 5.13759 33.4844 12.2619 35.9217C13.158 36.0923 13.4871 35.5218 13.4871 35.035C13.4871 34.5955 13.4703 33.1434 13.4627 31.6033C8.47435 32.7183 7.42177 29.4286 7.42177 29.4286C6.60614 27.2981 5.43094 26.7318 5.43094 26.7318C3.80419 25.5877 5.55356 25.6112 5.55356 25.6112C7.35413 25.7413 8.30222 27.5106 8.30222 27.5106C9.90141 30.3285 12.4968 29.5138 13.52 29.0429C13.6808 27.8515 14.1456 27.0385 14.6583 26.5782C10.6758 26.112 6.48914 24.5316 6.48914 17.4691C6.48914 15.4569 7.18959 13.8126 8.33667 12.5218C8.15049 12.0575 7.5368 10.1829 8.51034 7.64403C8.51034 7.64403 10.016 7.14863 13.4425 9.53339C14.8726 9.12487 16.4066 8.92018 17.9304 8.91324C19.4542 8.92018 20.9893 9.12487 22.4222 9.53339C25.8446 7.14863 27.3482 7.64403 27.3482 7.64403C28.3241 10.1829 27.7102 12.0575 27.524 12.5218C28.6736 13.8126 29.3693 15.4568 29.3693 17.4691C29.3693 24.5484 25.1747 26.1073 21.1821 26.5635C21.8251 27.1355 22.3982 28.2573 22.3982 29.9768C22.3982 32.4429 22.3774 34.4278 22.3774 35.035C22.3774 35.5254 22.7001 36.1002 23.6091 35.9192C30.7295 33.4792 35.8606 26.5727 35.8606 18.4317C35.8606 8.25203 27.8328 0 17.9304 0Z" fill="#EC615B"/>
<path d="M6.71559 26.2564C6.67622 26.3479 6.53587 26.3754 6.40833 26.3126C6.27825 26.2525 6.20512 26.1276 6.24731 26.0357C6.28598 25.9414 6.42633 25.9151 6.55612 25.9784C6.68648 26.0384 6.76073 26.1645 6.71559 26.2564ZM7.59759 27.0653C7.51209 27.1469 7.34489 27.109 7.23141 26.9802C7.11412 26.8517 7.09219 26.68 7.17895 26.5971C7.26712 26.5157 7.42926 26.5538 7.54683 26.6824C7.66411 26.8124 7.68689 26.9831 7.59745 27.0655L7.59759 27.0653ZM8.2027 28.1004C8.09273 28.1789 7.91301 28.1053 7.80206 27.9414C7.69223 27.7776 7.69223 27.581 7.80445 27.5022C7.91583 27.4234 8.09273 27.4942 8.20523 27.6569C8.31492 27.8235 8.31492 28.0201 8.20256 28.1005L8.2027 28.1004ZM9.22589 29.2992C9.12759 29.4105 8.91834 29.3807 8.76506 29.2286C8.6084 29.08 8.56467 28.8691 8.66325 28.7577C8.76267 28.6461 8.97318 28.6774 9.12759 28.8282C9.28326 28.9765 9.33079 29.189 9.22603 29.2992H9.22589ZM10.5483 29.7039C10.5052 29.8482 10.3035 29.9138 10.1004 29.8526C9.89765 29.7894 9.7649 29.6202 9.80583 29.4744C9.84801 29.3291 10.0505 29.2607 10.2551 29.3264C10.4576 29.3892 10.5907 29.5571 10.5485 29.7039H10.5483ZM12.0536 29.8755C12.0586 30.0276 11.8864 30.1537 11.6732 30.1564C11.4587 30.1612 11.2853 30.0382 11.2831 29.8887C11.2831 29.7352 11.4514 29.6103 11.6657 29.6067C11.8789 29.6023 12.0536 29.7245 12.0536 29.8755ZM13.5321 29.8173C13.5577 29.9656 13.4095 30.118 13.1978 30.1584C12.9897 30.1975 12.7971 30.106 12.7705 29.9589C12.7446 29.8069 12.8956 29.6547 13.1033 29.6152C13.3154 29.5773 13.5051 29.6665 13.5321 29.8173Z" fill="#EC615B"/>
</g>
<defs>
<clipPath id="clip0">
<rect width="36" height="36" fill="white"/>
</clipPath>
</defs>
</svg>
