<svg width="49" height="26" viewBox="0 0 49 26" fill="none" xmlns="http://www.w3.org/2000/svg">
<g clip-path="url(#clip0)">
<path d="M40.3582 26.0003H8.84927C8.25236 26.0003 7.6799 25.7746 7.25783 25.373C6.83575 24.9713 6.59863 24.4266 6.59863 23.8586V2.44151C6.59863 1.8735 6.83575 1.32874 7.25783 0.927096C7.6799 0.525448 8.25236 0.299805 8.84927 0.299805H40.3582C40.9551 0.299805 41.5275 0.525448 41.9496 0.927096C42.3717 1.32874 42.6088 1.8735 42.6088 2.44151V23.8586C42.6088 24.4266 42.3717 24.9713 41.9496 25.373C41.5275 25.7746 40.9551 26.0003 40.3582 26.0003Z" fill="#EAEAEA"/>
<path d="M11.0999 26.0003H8.84927C8.25237 26.0003 7.67991 25.7746 7.25783 25.373C6.83575 24.9713 6.59863 24.4266 6.59863 23.8586V2.44151C6.59863 2.16026 6.65685 1.88176 6.76995 1.62192C6.88306 1.36207 7.04884 1.12597 7.25783 0.927096C7.46682 0.72822 7.71493 0.570463 7.98799 0.462832C8.26105 0.355201 8.55371 0.299805 8.84927 0.299805C9.14483 0.299805 9.4375 0.355201 9.71056 0.462832C9.98362 0.570463 10.2317 0.72822 10.4407 0.927096C10.6497 1.12597 10.8155 1.36207 10.9286 1.62192C11.0417 1.88176 11.0999 2.16026 11.0999 2.44151V26.0003Z" fill="#EC615B"/>
<path d="M38.1074 26.0003H40.3581C40.955 26.0003 41.5274 25.7746 41.9495 25.373C42.3716 24.9713 42.6087 24.4266 42.6087 23.8586V2.44151C42.6087 1.8735 42.3716 1.32874 41.9495 0.927096C41.5274 0.525448 40.955 0.299805 40.3581 0.299805C39.7612 0.299805 39.1887 0.525448 38.7666 0.927096C38.3445 1.32874 38.1074 1.8735 38.1074 2.44151V26.0003Z" fill="#EC615B"/>
<path d="M41.6473 4.1976C41.8896 4.03654 42.0963 3.83162 42.2554 3.59456C42.4145 3.3575 42.5231 3.09293 42.5747 2.81597C42.6264 2.539 42.6203 2.25506 42.5567 1.98035C42.493 1.70564 42.3732 1.44555 42.2039 1.21492C42.0347 0.984292 41.8193 0.787647 41.5702 0.636212C41.3211 0.484776 41.0431 0.381517 40.752 0.332328C40.461 0.283139 40.1626 0.288985 39.8739 0.349532C39.5852 0.410079 39.3119 0.52414 39.0695 0.685204L24.6054 10.7062L24.6039 10.707L24.6024 10.7062L10.1383 0.685204C9.64883 0.359921 9.04362 0.232987 8.45581 0.332328C7.868 0.431669 7.34573 0.749146 7.0039 1.21492C6.66208 1.68069 6.52869 2.25661 6.63308 2.81597C6.73747 3.37533 7.0711 3.87232 7.56056 4.1976L7.50055 4.15548L24.6039 16.0055L41.6473 4.1976ZM41.708 4.15548L24.6039 16.0055L41.708 4.15548Z" fill="#EC615B"/>
<path d="M40.358 0.299319C39.8787 0.299319 39.4338 0.442099 39.0692 0.684826L24.6051 10.7059L24.6036 10.7066L24.6021 10.7059L10.138 0.684826C9.76025 0.43325 9.31018 0.298632 8.84912 0.299319H40.358Z" fill="#E5E5E5"/>
<path d="M11.1007 7.57278L7.30765 3.99756L7.30615 4.00041C7.38567 4.0718 7.47045 4.13748 7.56047 4.19745L7.50046 4.15533L11.1015 6.65042L11.1007 7.59848" fill="#EC615B"/>
<path d="M22.1039 17.855L11.0999 25.9999L11.1006 7.4834L22.1017 17.8521" fill="#E3E3E3"/>
<path d="M22.1039 17.8551L24.6037 16.0054L11.1006 6.65039V7.48351L22.1017 17.8522L22.1039 17.8551Z" fill="url(#paint0_linear)"/>
<path d="M30.651 25.9997H38.1074V6.64941L24.6035 16.0051L22.1016 17.852L30.651 25.9997Z" fill="url(#paint1_linear)"/>
</g>
<defs>
<linearGradient id="paint0_linear" x1="11.1006" y1="12.2531" x2="24.6037" y2="12.2531" gradientUnits="userSpaceOnUse">
<stop stop-color="#C8C8C8"/>
<stop offset="1" stop-color="#CDCDCD"/>
</linearGradient>
<linearGradient id="paint1_linear" x1="22.1016" y1="16.3242" x2="38.1074" y2="16.3242" gradientUnits="userSpaceOnUse">
<stop stop-color="#D9D9D9"/>
<stop offset="1" stop-color="#E2E2E2"/>
</linearGradient>
<clipPath id="clip0">
<rect width="49" height="26" fill="white"/>
</clipPath>
</defs>
</svg>
