<svg width="578" height="434" viewBox="0 0 578 434" fill="none" xmlns="http://www.w3.org/2000/svg">
<path d="M337.01 46.9444C328.159 52.1885 325.631 61.2302 324.583 64.9554C324.33 65.8595 321.368 76.9627 326.498 88.536C328.015 91.9719 329.641 95.5162 333.325 97.216C335.457 98.2287 337.371 98.1564 344.885 97.5054C348.389 97.216 352.183 96.8544 356.229 96.4204C359.082 92.7675 363.995 85.4619 365.44 75.1905C365.693 73.2737 368.656 50.4164 356.229 44.3404C348.1 40.3259 338.311 46.1487 337.01 46.9444Z" fill="#EC615B"/>
<path d="M173.581 100.869C178.09 100.869 181.745 96.8208 181.745 91.8272C181.745 86.8336 178.09 82.7855 173.581 82.7855C169.072 82.7855 165.416 86.8336 165.416 91.8272C165.416 96.8208 169.072 100.869 173.581 100.869Z" fill="#EC615B"/>
<path d="M358.721 245.753C362.073 245.753 364.79 243.129 364.79 239.894C364.79 236.658 362.073 234.035 358.721 234.035C355.369 234.035 352.652 236.658 352.652 239.894C352.652 243.129 355.369 245.753 358.721 245.753Z" fill="#EC615B"/>
<path d="M173.653 210.382C176.147 210.382 178.168 208.357 178.168 205.861C178.168 203.364 176.147 201.34 173.653 201.34C171.159 201.34 169.137 203.364 169.137 205.861C169.137 208.357 171.159 210.382 173.653 210.382Z" fill="#EC615B"/>
<path d="M165.236 97.8671C169.206 97.8671 172.425 94.4829 172.425 90.3082C172.425 86.1336 169.206 82.7494 165.236 82.7494C161.265 82.7494 158.047 86.1336 158.047 90.3082C158.047 94.4829 161.265 97.8671 165.236 97.8671Z" fill="#195C99"/>
<path d="M357.059 236.494C359.513 236.494 361.503 234.421 361.503 231.864C361.503 229.308 359.513 227.235 357.059 227.235C354.605 227.235 352.616 229.308 352.616 231.864C352.616 234.421 354.605 236.494 357.059 236.494Z" fill="#195C99"/>
<path d="M416.449 108.826C419.142 108.826 421.326 106.494 421.326 103.618C421.326 100.741 419.142 98.4095 416.449 98.4095C413.756 98.4095 411.572 100.741 411.572 103.618C411.572 106.494 413.756 108.826 416.449 108.826Z" fill="#195C99"/>
<path d="M310.531 141.014C309.736 139.748 308.435 140.942 307.893 141.81C306.774 143.618 306.051 145.86 306.882 147.922C307.496 149.477 309.013 150.779 310.783 150.526C312.409 150.309 313.637 148.971 313.601 147.343C313.601 146.909 312.987 146.584 312.662 146.945C310.747 149.368 308.399 152.804 310.314 155.915C311.65 158.048 314.938 158.338 316.238 156.023C315.913 155.987 315.588 155.951 315.263 155.878C315.444 156.891 315.624 157.904 315.769 158.916C315.877 159.604 316.925 159.314 316.816 158.627C316.636 157.614 316.455 156.602 316.311 155.589C316.238 155.119 315.516 155.083 315.335 155.444C314.757 156.457 313.457 156.819 312.409 156.312C311.253 155.734 310.747 154.432 310.747 153.166C310.747 151.068 312.228 149.224 313.457 147.669C313.132 147.524 312.843 147.415 312.517 147.271C312.554 148.645 311.217 149.658 309.88 149.368C308.869 149.151 308.219 148.283 307.857 147.343C307.496 146.367 307.532 145.39 307.821 144.414C307.857 144.341 309.338 141.122 309.555 141.484C309.953 142.135 310.892 141.593 310.531 141.014Z" fill="#EC615B"/>
<path d="M163.032 144.269C163.827 142.099 166.464 143.039 167.295 144.558C167.584 145.065 167.728 145.643 167.801 146.222C167.945 147.307 167.837 147.741 166.898 148.392C165.886 149.405 165.633 149.007 166.175 147.198C166.428 147.09 166.717 146.981 166.97 146.873C167.656 146.692 168.451 146.728 169.137 146.945C170.871 147.524 171.738 149.368 171.485 151.068C171.413 151.502 171.847 151.936 172.28 151.683C174.628 150.345 177.735 151.828 178.277 154.468C178.421 155.155 179.469 154.866 179.325 154.179C178.638 150.851 174.701 149.115 171.738 150.779C171.991 150.996 172.28 151.177 172.533 151.394C173.003 148.211 170.582 145.245 167.223 145.752C166.067 145.933 164.333 146.656 164.188 148.03C164.08 149.151 165.127 149.983 166.175 150.092C169.282 150.381 169.21 145.86 168.198 144.052C166.825 141.593 163.032 140.978 161.948 144.016C161.732 144.631 162.779 144.92 163.032 144.269Z" fill="#EC615B"/>
<path d="M353.23 280.4C356.012 282.245 358.36 284.595 360.238 287.344C360.636 287.923 361.575 287.38 361.178 286.802C359.191 283.908 356.734 281.449 353.808 279.496C353.194 279.062 352.652 280.002 353.23 280.4Z" fill="#195C99"/>
<path d="M360.275 282.389C360.853 283.077 361.394 283.8 361.972 284.487C362.406 285.03 363.165 284.27 362.731 283.728C362.153 283.04 361.611 282.317 361.033 281.63C360.6 281.087 359.841 281.883 360.275 282.389Z" fill="#195C99"/>
<path d="M356.951 272.263C359.444 274.577 361.503 277.218 363.092 280.219C363.417 280.834 364.357 280.292 364.032 279.677C362.406 276.603 360.275 273.854 357.71 271.503C357.204 270.997 356.445 271.792 356.951 272.263Z" fill="#195C99"/>
<path d="M107.183 312.986C107.978 320.835 109.35 328.574 111.265 336.242C111.446 336.929 112.493 336.639 112.313 335.952C110.434 328.393 109.061 320.726 108.267 312.986C108.194 312.299 107.111 312.299 107.183 312.986Z" fill="white"/>
<path d="M111.482 336.603C118.598 338.448 126.004 338.448 133.121 336.603C133.807 336.422 133.518 335.374 132.832 335.554C125.896 337.363 118.707 337.363 111.771 335.554C111.121 335.374 110.832 336.422 111.482 336.603Z" fill="white"/>
<path d="M133.952 335.518C134.421 327.815 135.035 320.111 135.758 312.408C135.83 311.721 134.746 311.721 134.674 312.408C133.952 320.111 133.337 327.815 132.868 335.518C132.832 336.205 133.915 336.205 133.952 335.518Z" fill="white"/>
<path d="M107.797 313.565C116.792 315.41 126.04 315.337 135.035 313.312C135.722 313.167 135.433 312.118 134.746 312.263C125.968 314.216 116.901 314.325 108.086 312.516C107.4 312.372 107.111 313.42 107.797 313.565Z" fill="white"/>
<path d="M107.689 316.169C107.978 317.652 109.856 317.58 111.012 317.688C113.938 317.941 116.901 318.014 119.827 317.941C122.644 317.869 125.462 317.652 128.28 317.326C130.52 317.037 132.687 316.748 134.674 315.627C135.288 315.301 134.746 314.361 134.132 314.686C130.556 316.675 125.607 316.603 121.597 316.784C119.61 316.856 117.587 316.892 115.6 316.856C114.552 316.82 108.953 317.073 108.736 315.88C108.592 315.193 107.58 315.482 107.689 316.169Z" fill="white"/>
<path d="M109.748 328.719C111.482 331.793 113.685 334.506 116.323 336.856C116.828 337.327 117.623 336.567 117.081 336.097C114.48 333.818 112.349 331.178 110.687 328.176C110.362 327.562 109.423 328.104 109.748 328.719Z" fill="white"/>
<path d="M108.339 320.364C112.024 326.585 116.503 332.299 121.633 337.435C122.139 337.941 122.897 337.146 122.392 336.675C117.334 331.612 112.927 325.97 109.278 319.822C108.917 319.243 107.978 319.786 108.339 320.364Z" fill="white"/>
<path d="M114.372 317.76C118.201 324.596 122.644 331.07 127.666 337.11C128.099 337.652 128.858 336.893 128.424 336.35C123.475 330.383 119.068 323.981 115.311 317.218C114.986 316.603 114.047 317.146 114.372 317.76Z" fill="white"/>
<path d="M121.272 318.014C124.993 323.583 128.75 329.117 132.543 334.65C132.94 335.229 133.879 334.686 133.482 334.108C129.689 328.574 125.932 323.041 122.211 317.471C121.814 316.892 120.874 317.435 121.272 318.014Z" fill="white"/>
<path d="M127.052 317.688C128.93 320.726 130.953 323.692 133.048 326.585C133.446 327.128 134.385 326.585 133.988 326.043C131.892 323.149 129.869 320.184 127.991 317.146C127.63 316.567 126.69 317.109 127.052 317.688Z" fill="white"/>
<path d="M95.8036 281.16C96.2371 283.655 96.6706 286.187 97.1402 288.682C97.2847 289.37 97.3931 290.093 97.9711 290.527C98.3685 290.852 99.669 290.816 99.9218 291.178C99.958 290.961 99.9941 290.744 99.9941 290.527C99.4522 291.069 98.9103 291.612 98.3323 292.118C98.1878 292.263 98.1517 292.48 98.1878 292.661C98.5129 293.637 98.7297 295.084 99.38 295.916C99.7051 296.35 100.283 296.277 100.536 296.531C100.753 296.748 100.68 296.603 100.572 297.254C100.5 297.796 100.5 298.375 100.572 298.954C100.68 299.822 100.933 300.654 101.258 301.449C103.137 306.006 106.786 309.695 110.29 313.095C110.795 313.565 111.554 312.806 111.048 312.335C108.809 310.165 106.569 307.923 104.726 305.391C102.92 302.896 100.789 299.532 101.909 296.35C101.981 296.169 101.909 295.916 101.764 295.807C101.078 295.265 100.391 295.482 99.9218 294.614C99.0187 292.986 99.5245 292.444 100.68 291.323C100.861 291.178 100.897 290.852 100.753 290.672C100.464 290.238 100.247 290.093 99.7773 289.948C99.4883 289.84 99.0548 289.948 98.7658 289.804C98.1517 289.478 98.1517 288.682 98.0433 288.104C97.6098 285.717 97.1763 283.294 96.7789 280.907C96.7067 280.183 95.6591 280.473 95.8036 281.16Z" fill="white"/>
<path d="M96.5982 281.015C110.687 285.717 120.332 298.881 120.621 313.782C120.621 314.469 121.705 314.469 121.705 313.782C121.416 298.411 111.446 284.849 96.8872 279.966C96.237 279.749 95.948 280.798 96.5982 281.015Z" fill="white"/>
<path d="M118.237 298.954C121.741 289.225 126.907 279.821 135.18 273.42C135.722 272.986 135.18 272.046 134.638 272.48C126.112 279.098 120.802 288.646 117.19 298.664C116.973 299.315 118.02 299.605 118.237 298.954Z" fill="white"/>
<path d="M134.241 273.203C134.493 276.53 134.782 279.858 135.035 283.221C135.108 283.908 136.191 283.908 136.119 283.221C135.866 279.894 135.577 276.567 135.324 273.203C135.288 272.516 134.204 272.516 134.241 273.203Z" fill="white"/>
<path d="M135.505 282.86C135.035 282.968 134.566 283.077 134.132 283.221C133.446 283.402 133.735 284.451 134.421 284.27C134.891 284.162 135.36 284.053 135.794 283.908C136.48 283.728 136.191 282.715 135.505 282.86Z" fill="white"/>
<path d="M133.59 284.198C133.735 284.885 134.313 285.319 134.963 285.391C135.252 285.427 135.505 285.138 135.505 284.849C135.505 284.523 135.252 284.342 134.963 284.306C135.071 284.306 134.963 284.306 134.927 284.306C134.891 284.306 134.819 284.27 134.891 284.306C134.855 284.27 134.819 284.27 134.782 284.234C134.71 284.198 134.855 284.306 134.746 284.198C134.71 284.162 134.71 284.162 134.674 284.125C134.746 284.198 134.674 284.125 134.674 284.089C134.638 284.053 134.638 283.981 134.638 284.053C134.638 284.017 134.602 283.945 134.602 283.908C134.53 283.619 134.204 283.438 133.952 283.547C133.663 283.619 133.518 283.908 133.59 284.198Z" fill="white"/>
<path d="M134.421 284.993C134.457 287.055 134.385 289.08 134.168 291.106C134.096 291.757 134.204 293.276 133.771 293.782C133.735 293.818 133.085 293.927 132.94 294.035C132.398 294.469 133.157 295.229 133.699 294.795C133.879 294.65 134.313 294.795 134.602 294.469C135.035 294.035 134.963 293.022 135.035 292.516C135.36 290.021 135.505 287.489 135.469 284.957C135.505 284.306 134.421 284.306 134.421 284.993Z" fill="white"/>
<path d="M132.507 294.975C133.663 296.35 133.337 298.628 133.229 300.292C133.085 302.209 132.759 303.981 131.82 305.645C130.484 308.104 128.605 310.165 127.63 312.842C127.377 313.493 128.424 313.782 128.677 313.131C129.978 309.623 132.976 307.019 133.879 303.33C134.53 300.69 135.144 296.458 133.265 294.216C132.832 293.71 132.073 294.469 132.507 294.975Z" fill="white"/>
<path d="M123.981 313.348C124.993 303.077 127.702 293.059 132.037 283.728C132.326 283.113 131.387 282.534 131.098 283.185C126.69 292.733 123.909 302.896 122.897 313.384C122.825 314.071 123.909 314.035 123.981 313.348Z" fill="white"/>
<path d="M102.667 287.055C108.989 295.012 113.613 304.162 116.323 313.927C116.503 314.614 117.551 314.325 117.37 313.637C114.589 303.655 109.856 294.397 103.426 286.295C102.992 285.753 102.234 286.512 102.667 287.055Z" fill="white"/>
<path d="M103.354 300.4C106.388 300.22 109.206 300.943 111.771 302.534C112.349 302.896 112.927 301.956 112.313 301.594C109.603 299.93 106.533 299.135 103.354 299.315C102.631 299.352 102.631 300.437 103.354 300.4Z" fill="white"/>
<path d="M109.965 295.554C109.748 293.565 110.001 291.648 110.759 289.767C111.012 289.116 109.965 288.827 109.712 289.478C108.917 291.431 108.664 293.456 108.881 295.554C108.953 296.241 110.037 296.241 109.965 295.554Z" fill="white"/>
<path d="M121.669 289.55C122.861 292.48 124.595 295.59 125.029 298.701C125.137 299.388 126.185 299.098 126.076 298.411C125.607 295.265 123.873 292.154 122.717 289.261C122.464 288.61 121.416 288.899 121.669 289.55Z" fill="white"/>
<path d="M128.316 292.986C129.364 291.793 130.375 290.382 131.712 289.478C132.832 288.719 134.06 288.212 134.927 287.163C135.36 286.621 134.602 285.861 134.168 286.404C133.229 287.525 131.856 287.995 130.736 288.863C129.508 289.804 128.569 291.069 127.557 292.227C127.088 292.769 127.846 293.529 128.316 292.986Z" fill="white"/>
<path d="M128.677 312.986C130.411 312.516 132.181 312.335 133.988 312.444C134.674 312.48 134.674 311.395 133.988 311.359C132.073 311.25 130.231 311.431 128.388 311.938C127.738 312.118 127.991 313.167 128.677 312.986Z" fill="white"/>
<path d="M128.533 313.42C130.556 313.601 132.507 313.348 134.457 312.733C135.108 312.516 134.819 311.467 134.168 311.684C132.326 312.263 130.447 312.48 128.533 312.335C127.846 312.299 127.846 313.384 128.533 313.42Z" fill="white"/>
<path d="M108.267 313.24C108.736 313.24 109.17 313.24 109.639 313.24C110.326 313.24 110.326 312.155 109.639 312.155C109.17 312.155 108.736 312.155 108.267 312.155C107.58 312.155 107.58 313.24 108.267 313.24Z" fill="white"/>
<path d="M134.746 321.992C146.198 321.992 157.686 321.992 169.137 321.992C169.824 321.992 169.824 320.907 169.137 320.907C157.686 320.907 146.198 320.907 134.746 320.907C134.06 320.907 134.06 321.992 134.746 321.992Z" fill="white"/>
<path d="M328.593 314.831C335.421 314.831 342.212 314.831 349.04 314.831C349.726 314.831 349.726 313.746 349.04 313.746C342.212 313.746 335.421 313.746 328.593 313.746C327.907 313.746 327.907 314.831 328.593 314.831Z" fill="white"/>
<path d="M390.584 315.482C420.025 315.482 449.467 315.482 478.909 315.482C487.29 315.482 495.671 315.482 504.052 315.482C504.739 315.482 504.739 314.397 504.052 314.397C474.61 314.397 445.168 314.397 415.727 314.397C407.346 314.397 398.965 314.397 390.584 314.397C389.897 314.397 389.897 315.482 390.584 315.482Z" fill="white"/>
<path d="M346.981 196.747C344.235 202.425 341.273 207.995 338.13 213.456C337.986 213.745 338.094 214.215 338.455 214.251C353.953 216.602 367.825 224.306 381.191 232.082C381.805 232.443 382.347 231.503 381.733 231.141C368.258 223.329 354.314 215.59 338.708 213.203C338.816 213.456 338.925 213.745 339.033 213.998C342.212 208.537 345.138 202.967 347.884 197.289C348.209 196.674 347.306 196.096 346.981 196.747Z" fill="white"/>
<path d="M349.365 216.457C350.449 213.347 351.532 210.201 352.616 207.09C353.086 205.788 353.411 204.342 354.025 203.076C354.17 202.316 354.639 201.738 355.362 201.304C355.795 201.412 356.229 201.521 356.662 201.629C357.312 201.81 357.963 201.955 358.577 202.135C360.058 202.497 362.442 202.497 362.189 204.486C362.009 205.897 361.178 207.416 360.708 208.79C359.624 211.864 358.577 214.938 357.493 218.013C357.276 218.664 358.324 218.953 358.541 218.302C359.95 214.251 361.358 210.164 362.767 206.114C363.092 205.173 363.996 203.582 363.273 202.569C362.478 201.484 360.094 201.412 358.866 201.087C357.674 200.797 355.578 199.712 354.35 200.291C353.303 200.761 353.086 202.569 352.761 203.474C351.28 207.705 349.798 211.973 348.317 216.204C348.101 216.819 349.148 217.108 349.365 216.457Z" fill="white"/>
<path d="M363.309 220.327C365.621 215.445 367.969 210.526 370.281 205.644C371.437 203.184 372.593 200.761 373.785 198.302C374.327 197.181 374.761 195.843 375.447 194.794C376.025 193.89 376.17 193.673 377.181 194.07C377.723 194.287 378.373 194.83 378.843 195.155C379.457 195.589 380.432 196.06 380.866 196.638C381.408 197.325 381.191 198.049 380.866 198.917C380.432 200.074 379.782 201.195 379.24 202.316C378.048 204.776 376.856 207.235 375.592 209.694C373.207 214.36 370.715 218.989 368.15 223.582C367.789 224.197 368.728 224.74 369.089 224.125C372.232 218.555 375.23 212.913 378.048 207.199C379.457 204.378 381.01 201.485 382.203 198.555C383.033 196.421 381.227 195.553 379.638 194.432C378.373 193.564 376.386 191.575 375.014 193.202C374.147 194.215 373.677 195.915 373.099 197.145C372.377 198.627 371.69 200.11 370.968 201.629C368.078 207.705 365.188 213.781 362.334 219.857C362.081 220.4 363.02 220.978 363.309 220.327Z" fill="white"/>
<path d="M375.303 227.85C378.409 222.968 381.913 218.338 385.779 214.071C385.562 214.107 385.345 214.143 385.129 214.143C386.501 215.083 387.838 215.987 389.211 216.928C389.138 216.675 389.066 216.421 389.03 216.168C385.959 220.978 382.889 225.752 379.818 230.563C379.457 231.141 380.36 231.684 380.757 231.105C383.828 226.295 386.899 221.521 389.969 216.711C390.15 216.458 390.005 216.132 389.789 215.951C388.416 215.011 387.079 214.107 385.707 213.166C385.526 213.022 385.201 213.094 385.056 213.239C381.119 217.615 377.542 222.28 374.399 227.235C374.002 227.922 374.941 228.465 375.303 227.85Z" fill="white"/>
<path d="M418.4 193.455C414.787 192.081 412.511 188.464 413.162 184.595C413.812 180.652 417.677 177.144 421.651 179.495C424.396 181.123 425.805 184.812 424.758 187.813C423.674 191.032 420.134 192.949 416.846 192.443C416.16 192.334 415.871 193.383 416.557 193.492C420.423 194.07 424.505 191.936 425.805 188.103C427.106 184.269 425.011 179.64 421.254 178.085C416.846 176.276 412.837 180.074 412.078 184.305C411.283 188.79 413.92 192.913 418.075 194.504C418.761 194.757 419.05 193.709 418.4 193.455Z" fill="white"/>
<path d="M425.805 192.768C418.617 192.551 421.326 181.014 427.684 181.448C434.042 181.918 431.441 194.902 424.469 192.515C423.819 192.298 423.53 193.347 424.18 193.564C432.236 196.313 435.848 181.629 428.154 180.399C424.397 179.784 421.001 183.329 420.423 186.837C419.845 190.309 422.193 193.709 425.805 193.817C426.492 193.889 426.492 192.804 425.805 192.768Z" fill="white"/>
<path d="M420.423 160.038C419.809 159.387 419.52 158.338 419.989 157.542C420.459 156.783 421.615 156.421 422.337 157C422.988 157.506 423.132 158.591 422.518 159.133C421.795 159.784 420.639 159.459 419.953 158.916C419.411 158.482 418.653 159.242 419.195 159.676C420.314 160.544 422.048 160.978 423.24 159.929C424.324 158.953 424.216 157.144 423.132 156.204C422.012 155.227 420.242 155.517 419.303 156.602C418.255 157.831 418.544 159.676 419.628 160.797C420.134 161.303 420.892 160.544 420.423 160.038Z" fill="white"/>
<path d="M315.588 187.271C314.576 181.123 318.153 173.709 325.089 173.781C328.629 173.817 332.061 175.264 335.637 174.757C338.166 174.396 340.334 172.949 341.851 170.96C343.368 168.971 344.235 166.475 344.38 163.98C344.56 160.291 343.151 156.529 344.163 152.877C344.669 151.032 345.752 149.332 347.595 148.645C349.365 148.03 351.28 148.392 353.122 148.32C355.795 148.211 357.89 147.054 359.227 144.703C361.106 141.412 360.672 137.47 361.973 133.998C363.526 129.802 367.897 126.222 372.521 128.283C373.135 128.573 373.713 127.632 373.063 127.343C366.777 124.522 361.539 130.2 360.311 135.914C359.516 139.64 359.661 145.426 355.217 146.909C352.11 147.958 348.606 146.33 345.752 148.464C343.404 150.2 342.718 153.383 342.754 156.168C342.862 160.255 344.127 164.233 342.321 168.139C340.659 171.828 337.371 174.034 333.289 173.781C329.677 173.564 326.1 172.081 322.452 173.021C316.274 174.577 313.637 181.882 314.613 187.597C314.685 188.211 315.732 187.922 315.588 187.271Z" fill="white"/>
<path d="M361.25 161.484C359.913 158.446 361.756 155.553 364.682 154.576C366.813 153.853 369.161 153.817 371.004 152.37C372.449 151.249 372.918 149.839 372.738 148.03C372.557 146.33 372.557 144.992 373.894 143.835C375.014 142.858 376.495 142.497 377.94 142.424C381.913 142.28 387.368 144.305 390.258 140.435C391.595 138.627 391.198 136.385 391.812 134.359C392.643 131.538 395.352 129.802 398.242 129.947C398.928 129.983 398.928 128.898 398.242 128.862C396.038 128.753 393.907 129.585 392.39 131.177C390.511 133.166 390.764 135.408 390.186 137.904C388.633 144.739 379.132 139.929 374.652 142.063C372.991 142.858 371.654 144.269 371.509 146.15C371.329 148.356 372.34 150.164 370.101 151.683C368.908 152.479 367.536 152.732 366.163 153.057C363.887 153.6 361.647 154.287 360.491 156.493C359.552 158.229 359.552 160.218 360.347 161.991C360.6 162.678 361.503 162.099 361.25 161.484Z" fill="white"/>
<path d="M425.625 113.31C425.48 112.985 425.336 112.623 425.227 112.261C425.697 111.719 426.131 111.176 426.6 110.634C426.745 110.598 427.395 111.032 427.612 111.032C428.154 111.104 428.623 110.959 429.057 110.634C430.393 109.585 429.924 107.921 430.321 106.511C430.971 104.088 433.825 105.751 435.126 103.943C436.426 102.171 435.957 98.4096 439.425 99.4222C440.111 99.6031 440.4 98.5542 439.714 98.3734C437.727 97.7947 435.92 98.7351 435.198 100.652C434.981 101.194 434.909 101.809 434.692 102.352C434.223 103.618 433.717 103.798 432.344 103.871C431.333 103.943 430.538 103.871 429.851 104.739C429.273 105.498 429.273 106.475 429.165 107.379C429.057 108.717 429.165 109.838 427.178 109.694C426.781 109.657 426.456 109.296 426.022 109.296C423.638 109.26 424.035 112.189 424.613 113.6C424.83 114.251 425.914 113.961 425.625 113.31Z" fill="white"/>
<path d="M432.416 116.312C431.838 115.552 430.863 113.346 432.561 112.768C433.175 112.551 433.97 112.804 434.62 112.804C435.198 112.804 435.704 112.804 436.173 112.406C437.618 111.249 436.571 109.187 437.329 107.741C438.558 105.39 441.014 107.234 442.748 106.005C443.976 105.137 444.301 103.473 444.518 102.099C444.627 101.411 443.579 101.122 443.471 101.809C443.218 103.437 442.929 105.245 440.906 105.426C439.858 105.534 439.063 105.173 438.088 105.643C436.498 106.402 435.993 107.813 435.957 109.44C435.92 110.815 436.246 111.502 433.934 111.61C433.645 111.61 433.356 111.538 433.067 111.538C432.236 111.61 431.513 112.044 431.044 112.732C430.032 114.178 430.61 115.842 431.622 117.108C432.091 117.65 432.85 116.854 432.416 116.312Z" fill="white"/>
<path d="M125.282 135.914C128.28 132.298 132.543 129.332 137.456 129.838C142.802 130.381 145.439 134.649 145.945 139.64C146.812 147.922 144.789 157.831 150.388 164.884C152.592 167.669 155.879 169.152 159.42 168.284C163.682 167.271 167.006 163.907 170.799 161.918C175.279 159.567 181.456 158.302 185.502 162.244C188.464 165.137 189.114 169.549 190.09 173.383C190.993 176.855 192.546 180.689 195.653 182.75C197.532 183.98 199.591 184.088 201.758 183.944C204.179 183.763 209.128 183.618 208.622 187.416C208.55 188.103 209.633 188.103 209.706 187.416C209.886 185.933 209.2 184.739 208.008 183.871C206.129 182.497 203.962 182.714 201.758 182.859C199.266 183.04 197.134 182.823 195.22 181.05C193.486 179.459 192.438 177.217 191.679 175.011C190.415 171.213 190.054 167.054 187.886 163.582C185.755 160.146 182.07 158.482 178.096 158.627C173.075 158.808 168.848 161.701 164.838 164.378C162.924 165.643 160.865 166.982 158.517 167.379C155.699 167.85 153.206 166.62 151.4 164.522C148.004 160.544 147.462 154.866 147.282 149.875C147.101 145.209 147.715 140.146 146.162 135.625C144.753 131.502 141.177 128.934 136.878 128.717C131.892 128.464 127.521 131.466 124.451 135.155C124.053 135.697 124.812 136.457 125.282 135.914Z" fill="white"/>
<path d="M107.038 191.72C112.674 201.123 117.695 210.852 122.139 220.87C122.428 221.521 123.367 220.942 123.078 220.327C118.635 210.309 113.577 200.58 107.978 191.177C107.616 190.562 106.677 191.105 107.038 191.72Z" fill="white"/>
<path d="M107.725 191.286C116.503 185.824 125.534 180.725 134.818 176.096C135.433 175.77 134.891 174.83 134.277 175.155C125.029 179.785 115.997 184.884 107.183 190.345C106.569 190.743 107.111 191.683 107.725 191.286Z" fill="white"/>
<path d="M134.168 175.625C138.756 185.282 143.597 194.794 148.727 204.161C149.052 204.776 149.991 204.233 149.666 203.618C144.536 194.251 139.659 184.739 135.108 175.083C134.782 174.432 133.879 174.974 134.168 175.625Z" fill="white"/>
<path d="M123.367 221.087C132.001 215.879 140.526 210.526 148.979 205.029C149.557 204.667 149.016 203.727 148.438 204.089C139.984 209.586 131.459 214.939 122.825 220.147C122.247 220.508 122.789 221.449 123.367 221.087Z" fill="white"/>
<path d="M122.681 188.103C122.464 195.047 122.861 201.955 123.873 208.826C123.981 209.514 125.029 209.224 124.92 208.537C123.909 201.774 123.548 194.938 123.764 188.103C123.8 187.416 122.717 187.416 122.681 188.103Z" fill="white"/>
<path d="M122.717 187.741C127.738 191.683 132.759 195.553 137.853 199.387C138.395 199.821 138.937 198.88 138.395 198.446C133.374 194.685 128.388 190.851 123.475 186.982C122.933 186.548 122.175 187.307 122.717 187.741Z" fill="white"/>
<path d="M124.993 209.043C129.147 205.318 134.566 203.329 138.503 199.315C139.009 198.808 138.214 198.049 137.745 198.555C133.807 202.533 128.424 204.559 124.234 208.284C123.692 208.718 124.487 209.477 124.993 209.043Z" fill="white"/>
<path d="M108.483 197.398C109.639 196.819 110.795 196.276 111.951 195.698C112.566 195.408 112.024 194.468 111.41 194.758C110.254 195.336 109.098 195.879 107.942 196.457C107.327 196.783 107.869 197.687 108.483 197.398Z" fill="white"/>
<path d="M112.204 203.546C113.18 202.895 114.227 202.353 115.311 201.882C115.961 201.629 115.672 200.58 115.022 200.834C113.83 201.34 112.71 201.919 111.626 202.606C111.084 203.004 111.626 203.944 112.204 203.546Z" fill="white"/>
<path d="M116.286 210.635C117.298 210.128 118.309 209.622 119.321 209.152C119.935 208.826 119.393 207.922 118.779 208.212C117.768 208.718 116.756 209.224 115.745 209.694C115.13 209.984 115.672 210.924 116.286 210.635Z" fill="white"/>
<path d="M118.382 217.723C119.502 216.747 120.658 215.915 121.958 215.192C122.572 214.83 122.03 213.926 121.416 214.251C120.08 215.011 118.815 215.915 117.623 216.964C117.081 217.434 117.84 218.193 118.382 217.723Z" fill="white"/>
<path d="M136.227 182.75C137.058 182.172 137.925 181.774 138.901 181.521C139.587 181.34 139.298 180.327 138.612 180.472C137.564 180.725 136.552 181.159 135.649 181.81C135.107 182.208 135.649 183.148 136.227 182.75Z" fill="white"/>
<path d="M139.443 188.935C140.599 188.211 141.755 187.488 142.874 186.729C143.452 186.367 142.911 185.427 142.333 185.788C141.177 186.512 140.021 187.235 138.901 187.994C138.287 188.392 138.828 189.333 139.443 188.935Z" fill="white"/>
<path d="M143.127 196.349C144.356 195.806 145.62 195.264 146.848 194.721C147.498 194.432 146.92 193.492 146.306 193.781C145.078 194.324 143.814 194.866 142.585 195.409C141.935 195.698 142.513 196.638 143.127 196.349Z" fill="white"/>
<path d="M145.764 201.195C146.74 200.255 147.823 199.459 149.016 198.772C149.63 198.446 149.088 197.506 148.474 197.832C147.209 198.555 146.053 199.387 145.006 200.4C144.5 200.906 145.259 201.665 145.764 201.195Z" fill="white"/>
<path d="M126.438 216.313C127.341 217.651 128.099 219.062 128.677 220.544C128.93 221.195 129.978 220.906 129.725 220.255C129.111 218.664 128.352 217.145 127.377 215.734C126.979 215.192 126.04 215.734 126.438 216.313Z" fill="white"/>
<path d="M131.965 213.311C132.651 214.541 133.301 215.734 133.988 216.964C134.313 217.579 135.252 217.036 134.927 216.421C134.241 215.192 133.59 213.998 132.904 212.769C132.579 212.154 131.64 212.696 131.965 213.311Z" fill="white"/>
<path d="M138.359 208.718C139.081 210.02 139.804 211.322 140.526 212.624C140.851 213.239 141.791 212.696 141.466 212.081C140.743 210.779 140.021 209.477 139.298 208.175C138.973 207.561 138.034 208.103 138.359 208.718Z" fill="white"/>
<path d="M144.103 205.282C144.681 206.656 145.259 208.031 145.873 209.369C146.162 210.02 147.065 209.441 146.812 208.826C146.234 207.452 145.656 206.078 145.042 204.74C144.753 204.125 143.814 204.667 144.103 205.282Z" fill="white"/>
<path d="M111.337 185.716C112.024 186.837 112.674 187.958 113.36 189.043C113.722 189.658 114.661 189.079 114.3 188.501C113.613 187.38 112.963 186.258 112.277 185.173C111.915 184.595 110.976 185.137 111.337 185.716Z" fill="white"/>
<path d="M117.551 182.099C118.201 183.546 118.851 184.993 119.501 186.439C119.79 187.09 120.73 186.512 120.441 185.897C119.79 184.45 119.14 183.003 118.49 181.557C118.165 180.906 117.262 181.448 117.551 182.099Z" fill="white"/>
<path d="M123.15 178.627C124.126 179.929 124.884 181.34 125.39 182.859C125.607 183.51 126.654 183.22 126.438 182.569C125.896 180.942 125.137 179.423 124.089 178.085C123.692 177.542 122.753 178.049 123.15 178.627Z" fill="white"/>
<path d="M129.183 175.842C129.942 177 130.664 178.121 131.423 179.278C131.784 179.857 132.723 179.314 132.362 178.736C131.603 177.578 130.881 176.457 130.122 175.3C129.725 174.721 128.786 175.264 129.183 175.842Z" fill="white"/>
<path d="M185.357 104.124C181.853 103.039 181.673 99.3137 183.334 96.5288C184.96 93.8163 188.103 93.093 190.559 95.3353C192.582 97.216 192.763 100.435 190.885 102.496C189.006 104.594 185.935 104.558 183.768 102.967C183.226 102.533 182.684 103.473 183.226 103.907C185.972 105.932 189.981 105.607 192.041 102.75C194.172 99.8562 193.413 95.8055 190.415 93.8525C183.19 89.187 176.976 102.641 185.068 105.173C185.755 105.39 186.044 104.341 185.357 104.124Z" fill="white"/>
<path d="M191.174 105.064C188.464 105.896 187.814 102.641 189.006 100.905C189.981 99.4945 191.896 98.6627 193.63 99.1329C195.292 99.5669 196.484 101.267 196.05 102.967C195.509 105.1 193.269 105.86 191.282 105.534C190.596 105.426 190.307 106.475 190.993 106.583C193.666 107.053 196.556 105.896 197.134 103.003C197.64 100.507 195.689 98.2287 193.269 97.9394C190.596 97.6139 187.669 99.5669 187.308 102.316C186.983 104.703 189.151 106.836 191.535 106.077C192.149 105.896 191.86 104.847 191.174 105.064Z" fill="white"/>
<path d="M168.126 128.609C167.259 130.381 168.487 132.153 170.293 132.623C171.666 132.985 173.111 132.659 174.52 132.732C176.037 132.804 177.554 133.166 178.927 133.781C181.962 135.155 183.912 137.65 184.021 141.014C184.129 143.835 183.298 146.764 184.526 149.441C187.127 155.083 194.28 150.779 197.965 154.432C201.036 157.506 199.771 163.112 203.889 165.463C204.504 165.824 205.045 164.884 204.431 164.522C200.747 162.425 201.614 156.963 199.013 153.925C197.64 152.334 195.653 151.9 193.63 151.755C191.173 151.611 187.994 152.117 186.188 150.019C184.093 147.56 185.213 143.871 185.104 140.978C185.032 138.699 184.274 136.638 182.684 135.01C181.275 133.6 179.433 132.623 177.518 132.117C176.543 131.864 175.531 131.683 174.52 131.647C173.219 131.574 167.584 132.225 169.101 129.151C169.39 128.536 168.451 127.994 168.126 128.609Z" fill="white"/>
<path d="M83.6655 323.836C90.2042 323.836 96.7067 323.836 103.245 323.836C103.932 323.836 103.932 322.751 103.245 322.751C96.7067 322.751 90.2042 322.751 83.6655 322.751C82.943 322.751 82.943 323.836 83.6655 323.836Z" fill="white"/>
<path d="M94.214 348.357C106.785 348.357 119.321 348.357 131.892 348.357C132.579 348.357 132.579 347.272 131.892 347.272C119.321 347.272 106.785 347.272 94.214 347.272C93.4915 347.272 93.4915 348.357 94.214 348.357Z" fill="white"/>
<path d="M130.375 341.558C142.044 341.558 153.748 341.558 165.416 341.558C166.103 341.558 166.103 340.473 165.416 340.473C153.748 340.473 142.044 340.473 130.375 340.473C129.653 340.473 129.653 341.558 130.375 341.558Z" fill="white"/>
<path d="M324.692 339.677C330.58 338.231 336.504 338.086 342.501 339.026C345.03 339.424 347.595 339.822 350.16 339.605C352.652 339.388 355.073 338.629 357.493 337.978C360.239 337.218 362.984 336.639 365.874 336.856C368.836 337.073 371.69 337.905 374.58 338.556C377.073 339.135 379.602 339.533 382.166 339.497C384.876 339.424 387.549 338.954 390.186 338.556C397.411 337.399 404.203 338.122 411.355 339.316C412.042 339.424 412.331 338.375 411.644 338.267C405.864 337.327 400.048 336.35 394.16 336.929C388.019 337.544 382.311 339.063 376.097 337.797C370.895 336.748 365.946 335.12 360.6 336.133C357.746 336.676 355.037 337.688 352.183 338.231C349.004 338.846 345.933 338.484 342.754 337.978C336.577 337.037 330.472 337.11 324.366 338.629C323.752 338.809 324.041 339.858 324.692 339.677Z" fill="white"/>
<path d="M380.179 328.683C391.523 328.068 402.866 327.453 414.209 326.874C419.809 326.585 425.227 326.694 430.791 327.453C433.283 327.779 435.668 327.851 438.16 327.562C440.942 327.236 443.832 326.802 446.433 328.14C447.047 328.466 447.589 327.525 446.975 327.2C442.567 324.958 437.474 327.055 432.741 326.621C429.924 326.368 427.178 325.826 424.36 325.681C421.434 325.536 418.508 325.609 415.582 325.753C403.769 326.296 391.956 327.019 380.143 327.634C379.493 327.634 379.493 328.719 380.179 328.683Z" fill="white"/>
<path d="M158.047 359.75C163.393 360.256 168.776 360.763 174.123 360.148C176.615 359.858 178.999 359.316 181.42 358.593C184.563 357.652 187.38 357.399 190.632 357.978C193.124 358.412 195.581 359.027 198.073 359.244C200.711 359.461 203.348 359.316 205.985 359.063C211.512 358.52 217.039 357.58 222.53 358.81C223.216 358.954 223.505 357.905 222.819 357.761C217.545 356.603 212.271 357.363 206.96 357.905C204.323 358.159 201.686 358.412 199.049 358.267C196.05 358.122 193.16 357.327 190.234 356.857C187.778 356.459 185.43 356.459 183.009 357.037C180.408 357.688 177.952 358.556 175.279 358.954C169.571 359.786 163.755 359.207 158.047 358.701C157.324 358.593 157.361 359.678 158.047 359.75Z" fill="white"/>
<path d="M215.197 67.921C213.788 66.9445 211.873 65.3894 212.451 63.4364C213.065 61.411 214.582 62.3875 215.991 61.9174C217.87 61.3025 217.761 59.024 217.22 57.5412C216.678 56.0945 215.522 52.5864 218.52 53.7799C219.206 54.0692 219.712 54.5394 220.507 54.2862C221.229 54.0692 221.591 53.4182 221.771 52.731C221.916 52.1162 221.807 51.4652 221.771 50.8142C221.699 50.3802 221.663 49.91 221.663 49.476C221.518 48.4272 222.169 47.9932 223.541 48.174C223.578 48.8612 224.661 48.8612 224.625 48.174C224.553 47.1614 223.794 46.438 222.711 46.4742C221.446 46.5104 220.76 47.74 220.615 48.8974C220.507 49.693 221.157 51.5375 220.796 52.1885C220.362 52.4779 219.929 52.8034 219.459 53.0927C219.279 52.9842 219.098 52.8757 218.917 52.7672C218.592 52.6587 218.339 52.4417 218.014 52.3694C216.894 52.1162 215.991 52.8034 215.594 53.816C214.908 55.552 216.136 56.9987 216.497 58.6262C216.967 60.8685 215.269 60.6154 213.788 60.8685C213.137 60.977 212.596 61.3025 212.162 61.7727C209.886 64.4129 212.523 67.3424 214.691 68.8614C215.233 69.2592 215.775 68.3189 215.197 67.921Z" fill="white"/>
<path d="M222.313 66.9084C221.121 65.534 220.218 63.6534 222.53 62.93C223.108 62.7492 223.758 62.8215 224.3 62.4599C225.492 61.628 224.987 60.5069 224.77 59.3495C224.661 58.6985 224.409 57.8305 224.806 57.1795C225.095 56.7094 226.143 56.5285 226.684 56.42C227.443 56.2392 228.238 56.1307 228.888 55.6967C229.863 55.0095 230.225 53.7799 229.574 52.731C229.213 52.1524 228.274 52.6949 228.635 53.2735C229.719 55.0095 224.661 55.4797 223.794 56.7455C222.783 58.2284 224.914 60.8324 223.144 61.7727C222.458 62.1344 221.591 61.8812 220.941 62.3514C220.471 62.6769 220.146 63.1832 220.001 63.7257C219.604 65.2809 220.652 66.619 221.591 67.704C222.024 68.2104 222.783 67.4509 222.313 66.9084Z" fill="white"/>
<path d="M179.65 58.3368C178.71 57.6858 178.602 56.5285 178.891 55.5158C179.072 54.8287 179.939 52.948 180.77 52.8757C182.142 52.731 182.829 54.467 183.19 55.4797C183.515 56.4562 183.623 57.4327 183.66 58.4453C183.66 59.1325 184.743 59.1325 184.743 58.4453C184.707 56.42 183.371 50.1993 180.047 52.0077C178.783 52.6948 177.843 54.684 177.699 56.0583C177.554 57.3603 178.06 58.5177 179.108 59.2772C179.65 59.675 180.192 58.7347 179.65 58.3368Z" fill="white"/>
<path d="M179.216 58.9155C177.916 59.241 176.615 59.5665 175.279 59.892C174.52 60.0729 173.219 60.1452 172.605 60.7239C171.558 61.7004 171.847 64.7022 171.847 65.968C171.847 66.3297 172.208 66.5829 172.533 66.4744C172.714 66.4382 172.894 66.3659 173.111 66.3297C174.05 65.8234 174.52 66.1489 174.556 67.2339C175.279 67.9572 175.279 68.3912 174.556 68.4635C174.123 68.6444 173.689 68.7167 173.219 68.7167C172.93 68.7529 172.678 68.9337 172.678 69.2592C172.75 71.5739 172.93 73.8524 173.183 76.167C173.256 76.8542 174.339 76.8542 174.267 76.167C174.014 73.8524 173.834 71.5739 173.761 69.2592C173.581 69.44 173.4 69.6209 173.219 69.8017C174.737 69.6209 177.157 69.006 176.832 66.9445C176.471 64.7384 173.797 64.9915 172.28 65.4255C172.497 65.6064 172.75 65.7872 172.967 65.9319C172.967 65.1 172.967 64.3044 173.039 63.4725C173.147 62.1705 173.075 61.7004 174.267 61.2302C175.893 60.5792 177.807 60.3622 179.505 59.9282C180.192 59.8197 179.903 58.7709 179.216 58.9155Z" fill="white"/>
<path d="M184.418 59.2411C185.935 59.1687 187.489 59.1687 189.006 59.3496C190.451 59.5304 190.379 59.7474 190.595 61.0132C190.74 61.8089 190.776 62.6407 190.848 63.4364C191.137 66.5467 191.354 69.6571 191.535 72.7674C191.571 73.4546 192.655 73.4546 192.618 72.7674C192.402 68.5359 192.257 64.1959 191.571 60.0006C191.39 58.9517 191.21 58.6262 190.126 58.4454C188.247 58.0837 186.297 58.0837 184.418 58.1922C183.732 58.1922 183.732 59.2772 184.418 59.2411Z" fill="white"/>
<path d="M173.978 76.9265C176.109 76.5649 178.241 76.2032 180.336 75.8415C182.756 75.4437 185.068 75.6245 187.489 75.4437C188.609 75.3352 193.919 74.7927 191.968 72.5865C191.499 72.0802 190.74 72.8397 191.21 73.346C191.499 73.6715 186.586 74.3949 186.477 74.3949C184.96 74.431 183.443 74.3587 181.926 74.5395C179.18 74.865 176.435 75.4437 173.689 75.9139C173.003 75.9862 173.292 77.035 173.978 76.9265Z" fill="white"/>
<path d="M365.874 285.21C365.766 289.008 365.657 292.805 365.549 296.639C370.353 296.965 375.122 297.254 379.927 297.579C379.927 293.673 379.927 289.767 379.927 285.861C375.23 285.644 370.57 285.427 365.874 285.21Z" fill="white" stroke="#161616" stroke-width="2" stroke-miterlimit="10"/>
<path d="M372.124 327.417C372.774 331.612 373.063 335.084 373.207 337.58C373.677 345.862 373.316 347.779 372.593 349.298C370.823 353.023 367.608 354.578 367.897 355.084C368.114 355.41 369.703 355.048 376.784 351.323C376.35 343.077 375.953 334.867 375.519 326.621C374.399 326.91 373.28 327.164 372.124 327.417Z" fill="white" stroke="#161616" stroke-width="2" stroke-miterlimit="10"/>
<path d="M362.767 300.834C368.909 300.871 375.05 300.943 381.191 300.979C380.505 309.225 379.854 317.435 379.168 325.681C373.822 325.247 368.439 324.849 363.092 324.415C362.948 316.567 362.84 308.719 362.767 300.834Z" fill="white" stroke="#161616" stroke-width="2" stroke-miterlimit="10"/>
<path d="M365.26 327.127C367.211 331.865 367.861 335.952 368.078 338.701C368.403 342.751 368.619 345.862 366.669 347.923C365.946 348.719 364.754 349.478 362.442 351.034C360.383 352.408 359.408 352.914 359.48 353.059C359.588 353.276 361.575 352.842 370.245 349.768C370.823 346.838 371.293 343.077 371.184 338.665C371.04 333.963 370.281 329.948 369.45 326.947C368.078 327.019 366.669 327.055 365.26 327.127Z" fill="white" stroke="#161616" stroke-width="2" stroke-miterlimit="10"/>
<path d="M368.403 355.41C369.486 354.506 370.498 353.529 371.473 352.48C372.593 351.251 374.255 349.37 375.989 350.997C376.025 350.708 376.061 350.419 376.097 350.129C373.533 351.395 371.004 352.661 368.439 353.891C367.933 354.144 368.186 354.903 368.728 354.903C371.148 354.94 372.666 350.708 375.158 351.504C375.808 351.721 376.097 350.672 375.447 350.455C374.363 350.129 373.533 350.419 372.629 351.07C371.582 351.829 370.101 353.818 368.764 353.818C368.872 354.144 368.945 354.506 369.053 354.831C371.618 353.565 374.147 352.299 376.712 351.07C377.037 350.925 377.073 350.455 376.82 350.202C375.845 349.298 374.111 348.972 372.882 349.551C371.979 349.949 371.401 350.997 370.751 351.685C369.776 352.733 368.764 353.674 367.68 354.614C367.102 355.084 367.861 355.88 368.403 355.41Z" fill="#161616"/>
<path d="M372.846 349.768C373.93 349.804 374.977 350.021 375.989 350.455C376.603 350.744 377.181 349.804 376.531 349.515C375.339 348.972 374.147 348.683 372.846 348.647C372.16 348.683 372.16 349.768 372.846 349.768Z" fill="#161616"/>
<path d="M366.922 348.502C367.752 348.719 368.475 349.153 369.053 349.804C369.522 350.31 370.281 349.551 369.811 349.045C369.089 348.285 368.186 347.743 367.174 347.489C366.56 347.272 366.271 348.321 366.922 348.502Z" fill="#161616"/>
<path d="M361.069 352.878C362.189 352.046 363.345 351.287 364.537 350.563C365.079 350.238 365.657 349.804 366.235 349.623C367.138 349.298 367.68 349.515 368.511 349.876C368.511 349.551 368.511 349.261 368.511 348.936C367.355 349.442 366.055 349.406 364.862 349.912C363.706 350.383 362.623 351.54 361.431 351.757C361.575 352.082 361.72 352.408 361.864 352.733C363.995 351.685 366.38 351.504 368.511 350.455C369.125 350.129 368.583 349.225 367.969 349.515C365.838 350.563 363.454 350.744 361.322 351.793C360.744 352.082 361.178 352.878 361.756 352.77C363.056 352.553 364.104 351.359 365.332 350.889C366.56 350.419 367.897 350.383 369.089 349.876C369.45 349.732 369.45 349.081 369.089 348.936C367.716 348.321 367.102 347.959 365.729 348.683C363.923 349.623 362.225 350.744 360.6 351.938C359.949 352.336 360.491 353.276 361.069 352.878Z" fill="#161616"/>
<path d="M367.247 332.661C368.15 332.335 369.053 332.372 369.884 332.806C370.498 333.131 371.04 332.191 370.426 331.865C369.342 331.287 368.114 331.178 366.958 331.612C366.307 331.865 366.596 332.914 367.247 332.661Z" fill="#161616"/>
<path d="M368.15 336.278C368.908 336.205 369.631 336.386 370.209 336.892C370.751 337.326 371.51 336.567 370.968 336.133C370.173 335.482 369.197 335.12 368.15 335.193C367.463 335.229 367.463 336.314 368.15 336.278Z" fill="#161616"/>
<path d="M368.547 340.798C369.234 340.726 369.884 340.979 370.281 341.558C370.642 342.137 371.582 341.594 371.22 341.015C370.679 340.111 369.631 339.569 368.583 339.713C368.294 339.75 368.041 339.93 368.041 340.256C368.005 340.509 368.258 340.835 368.547 340.798Z" fill="#161616"/>
<path d="M373.207 332.408C373.858 332.046 374.688 332.082 375.303 332.589C375.844 333.023 376.603 332.263 376.061 331.829C375.086 331.033 373.785 330.853 372.665 331.467C372.051 331.829 372.593 332.77 373.207 332.408Z" fill="#161616"/>
<path d="M373.822 339.243C374.4 338.99 375.05 339.099 375.519 339.533C376.025 340.003 376.82 339.243 376.278 338.773C375.447 338.014 374.291 337.833 373.243 338.339C372.629 338.592 373.207 339.533 373.822 339.243Z" fill="#161616"/>
<path d="M373.966 345.03C374.544 344.668 375.266 344.668 375.808 345.102C376.35 345.536 377.109 344.777 376.567 344.343C375.664 343.583 374.399 343.475 373.424 344.126C372.846 344.487 373.388 345.428 373.966 345.03Z" fill="#161616"/>
<path d="M382.058 300.943C381.335 309.261 380.613 317.58 379.89 325.898" stroke="#161616" stroke-width="6" stroke-miterlimit="10"/>
<path d="M362.984 324.74C369.017 325.175 375.05 325.572 381.083 326.006" stroke="#161616" stroke-width="6" stroke-miterlimit="10"/>
<path d="M381.119 285.536C380.974 289.659 380.794 293.746 380.649 297.869" stroke="#161616" stroke-width="6" stroke-miterlimit="10"/>
<path d="M381.877 305.825C385.237 305.21 388.813 307.851 389.066 311.323C389.427 315.663 384.478 316.422 381.227 315.952C380.541 315.843 380.252 316.892 380.938 317.001C384.912 317.579 390.511 316.458 390.15 311.323C389.861 307.091 385.634 304.017 381.588 304.776C380.902 304.885 381.191 305.934 381.877 305.825Z" fill="#161616"/>
<path d="M381.083 317.869C382.491 318.158 383.611 319.171 384.009 320.545C384.189 321.232 385.237 320.943 385.056 320.256C384.587 318.52 383.178 317.146 381.408 316.82C380.685 316.712 380.396 317.724 381.083 317.869Z" fill="#161616"/>
<path d="M380.541 317.507C381.408 318.773 381.805 320.184 381.661 321.739C381.624 322.426 382.708 322.426 382.744 321.739C382.853 320.039 382.419 318.375 381.444 316.965C381.083 316.386 380.143 316.929 380.541 317.507Z" fill="#161616"/>
<path d="M362.731 305.319C360.347 303.8 355.976 308.176 355.434 310.31C354.35 314.65 359.913 314.144 362.225 315.59C362.803 315.952 363.345 315.012 362.767 314.65C361.105 313.601 358.649 313.999 357.204 312.697C355.434 311.106 357.059 309.189 358.288 308.068C358.938 307.489 361.142 305.572 362.189 306.223C362.767 306.657 363.345 305.717 362.731 305.319Z" fill="#161616"/>
<path d="M362.153 315.084C361.214 315.446 360.347 315.988 359.624 316.748C359.082 317.326 358.396 318.231 358.938 319.026C359.335 319.605 360.275 319.062 359.877 318.484C359.624 318.122 360.564 317.326 360.816 317.109C361.286 316.675 361.828 316.35 362.442 316.133C363.092 315.88 362.839 314.831 362.153 315.084Z" fill="#161616"/>
<path d="M361.72 315.844C361.033 316.929 360.816 318.158 361.069 319.388C361.214 320.075 362.261 319.786 362.117 319.099C361.9 318.122 362.117 317.218 362.659 316.386C363.056 315.807 362.117 315.265 361.72 315.844Z" fill="#161616"/>
<path d="M365.151 304.632C364.971 307.272 365.007 309.948 365.188 312.588C365.26 313.276 366.344 313.276 366.271 312.588C366.055 309.948 366.055 307.272 366.235 304.632C366.307 303.945 365.224 303.945 365.151 304.632Z" fill="#161616"/>
<path d="M365.946 304.921C369.775 305.138 373.569 305.283 377.398 305.355C377.217 305.174 377.037 304.993 376.856 304.813C376.748 307.525 376.639 310.274 376.495 312.986C376.459 313.674 377.542 313.674 377.578 312.986C377.687 310.274 377.795 307.525 377.94 304.813C377.94 304.523 377.687 304.27 377.398 304.27C373.569 304.198 369.775 304.053 365.946 303.836C365.26 303.8 365.26 304.885 365.946 304.921Z" fill="#161616"/>
<path d="M365.513 313.059C367.102 313.493 368.872 313.384 370.462 313.493C372.413 313.601 374.399 313.746 376.35 313.854C377.037 313.89 377.037 312.806 376.35 312.769C374.616 312.661 372.882 312.552 371.148 312.444C369.414 312.335 367.463 312.444 365.766 312.01C365.151 311.829 364.862 312.878 365.513 313.059Z" fill="#161616"/>
<path d="M366.741 318.665C367.391 320.075 368.8 318.845 369.884 319.352C370.39 319.569 370.281 319.894 370.968 319.93C371.762 319.967 373.713 318.375 374.11 319.858C374.219 320.256 374.725 320.364 375.014 320.111C375.375 320.003 375.772 319.894 376.133 319.822C376.567 320.364 377.362 319.569 376.892 319.062C376.061 318.086 375.014 318.628 374.219 319.352C374.508 319.424 374.833 319.496 375.122 319.605C374.797 318.339 373.46 317.507 372.196 318.086C371.582 318.375 371.509 318.918 370.57 318.556C370.39 318.484 370.317 318.194 370.137 318.122C369.739 317.977 367.644 318.194 367.644 318.158C367.391 317.471 366.452 318.014 366.741 318.665Z" fill="#161616"/>
<path d="M368.656 290.201C368.728 289.803 369.197 289.695 369.523 289.84C369.992 290.02 370.245 290.563 370.462 290.961C370.751 291.576 371.69 291.033 371.401 290.418C371.004 289.623 370.39 288.791 369.414 288.682C368.619 288.61 367.789 289.08 367.644 289.876C367.463 290.599 368.511 290.888 368.656 290.201Z" fill="#161616"/>
<path d="M375.303 290.708C375.375 290.346 375.7 290.129 376.061 290.274C376.495 290.418 376.675 290.961 376.748 291.359C376.856 292.046 377.904 291.756 377.795 291.069C377.651 290.201 377.073 289.297 376.133 289.152C375.303 289.044 374.399 289.55 374.255 290.418C374.147 291.105 375.194 291.395 375.303 290.708Z" fill="#161616"/>
<path d="M369.197 292.48C370.426 294.65 373.352 294.975 374.941 293.022C375.375 292.48 374.616 291.72 374.183 292.263C373.027 293.673 371.04 293.565 370.137 291.937C369.812 291.323 368.872 291.865 369.197 292.48Z" fill="#161616"/>
<path d="M331.302 95.9502C326.751 94.1057 324.005 89.6933 322.343 85.281C320.573 80.6878 319.815 75.6968 320.067 70.7782C320.501 61.7003 324.366 52.514 331.519 46.7273C338.274 41.23 348.281 39.6748 355.795 44.6658C363.634 49.8738 365.043 60.6153 365.115 69.2592C365.188 78.8795 362.948 88.97 355.831 95.8778C355.326 96.348 356.084 97.1437 356.59 96.6373C363.345 90.055 365.91 80.6517 366.163 71.4653C366.416 62.4598 365.332 51.0673 357.927 44.8828C350.99 39.0961 340.695 39.3855 333.289 44.0871C325.089 49.2951 320.248 58.7347 319.2 68.2465C318.55 74.1417 319.273 80.2538 321.44 85.8235C323.283 90.5252 326.209 95.0098 331.049 96.9628C331.664 97.2522 331.916 96.2033 331.302 95.9502Z" fill="#161616"/>
<path d="M330.797 96.6373C329.568 98.3733 329.821 100.941 331.628 102.243C333 103.22 335.023 103.364 336.649 103.581C338.6 103.871 340.587 103.979 342.573 103.979C346.114 103.943 350.16 103.69 353.447 102.315C355.831 101.303 357.638 98.9158 356.373 96.348C356.084 95.7331 355.145 96.2756 355.434 96.8905C358.143 102.424 345.319 102.894 342.537 102.894C339.972 102.894 337.408 102.677 334.915 102.207C333.723 101.99 332.386 101.773 331.628 100.724C330.869 99.6391 331.013 98.2286 331.736 97.216C332.133 96.6011 331.194 96.0586 330.797 96.6373Z" fill="#161616"/>
<path d="M331.953 102.496C331.953 104.305 331.989 106.149 332.205 107.958C332.314 108.789 332.494 109.513 333.181 110.019C334.156 110.742 335.782 110.706 336.938 110.815C338.889 110.959 340.875 110.959 342.826 110.887C344.669 110.815 346.511 110.67 348.353 110.489C349.437 110.381 350.665 110.417 351.496 109.585C353.339 107.777 353.375 104.341 352.905 102.062C352.761 101.375 351.713 101.665 351.857 102.352C352.11 103.581 352.183 104.811 351.93 106.077C351.568 107.849 351.063 109.006 349.076 109.368C346.764 109.802 344.163 109.802 341.815 109.838C339.503 109.874 336.902 109.983 334.626 109.44C332.531 108.934 333.073 104.232 333.073 102.496C333.036 101.809 331.953 101.809 331.953 102.496Z" fill="#161616"/>
<path d="M341.779 73.7439C342.32 81.1942 342.573 88.6446 342.465 96.0949C342.465 96.7821 343.549 96.7821 343.549 96.0949C343.657 88.6446 343.404 81.1581 342.862 73.7439C342.79 73.0206 341.706 73.0206 341.779 73.7439Z" fill="#161616"/>
<path d="M338.771 72.4951C338.229 79.9455 337.976 87.3958 338.085 94.8461C338.085 95.5333 337.001 95.5333 337.001 94.8461C336.893 87.3958 337.145 79.9093 337.687 72.4951C337.76 71.7718 338.843 71.7718 338.771 72.4951Z" fill="#161616"/>
<path d="M299.476 91.9718C304.281 90.3443 309.049 88.7168 313.854 87.0893C314.504 86.8723 314.215 85.8235 313.565 86.0405C308.76 87.668 303.992 89.2955 299.187 90.923C298.501 91.14 298.79 92.1888 299.476 91.9718Z" fill="#161616"/>
<path d="M304.967 84.7386C306.629 84.2684 308.291 83.762 309.953 83.2919C310.603 83.111 310.35 82.0622 309.664 82.243C308.002 82.7132 306.34 83.2195 304.678 83.6897C304.028 83.9067 304.281 84.9556 304.967 84.7386Z" fill="#161616"/>
<path d="M292.938 72.6951C299.296 72.6228 305.618 72.8036 311.939 73.2014C312.626 73.2376 312.626 72.1526 311.939 72.1164C305.618 71.7186 299.26 71.5739 292.938 71.6101C292.251 71.6101 292.251 72.6951 292.938 72.6951Z" fill="#161616"/>
<path d="M306.376 67.7764C307.893 68.1742 309.447 68.355 311 68.3912C311.686 68.3912 311.686 67.3062 311 67.3062C309.519 67.27 308.074 67.0892 306.665 66.7275C305.979 66.5467 305.69 67.5955 306.376 67.7764Z" fill="#161616"/>
<path d="M304.028 34.1052C309.7 38.9877 314.865 44.3404 319.526 50.1994C319.959 50.7419 320.718 49.9824 320.284 49.4399C315.624 43.5809 310.458 38.192 304.787 33.3457C304.281 32.8755 303.486 33.635 304.028 34.1052Z" fill="#161616"/>
<path d="M319.887 44.3766C320.862 45.3892 321.801 46.4019 322.777 47.4507C323.246 47.9571 324.005 47.1976 323.535 46.6912C322.56 45.6786 321.621 44.6659 320.645 43.6171C320.176 43.1107 319.417 43.8702 319.887 44.3766Z" fill="#161616"/>
<path d="M297.887 46.4018C299.657 47.4506 301.463 48.4271 303.306 49.3313C303.92 49.6568 304.462 48.7165 303.847 48.391C302.005 47.4506 300.199 46.4741 298.429 45.4615C297.814 45.0998 297.273 46.0401 297.887 46.4018Z" fill="#161616"/>
<path d="M360.744 38.1559C366.091 32.8032 371.437 27.4505 376.784 22.0979C377.289 21.5915 376.495 20.832 376.025 21.3384C370.679 26.691 365.332 32.0437 359.986 37.3964C359.48 37.9027 360.239 38.6622 360.744 38.1559Z" fill="#161616"/>
<path d="M366.127 40.6513C367.5 39.6387 368.872 38.6622 370.245 37.6495C370.787 37.2517 370.281 36.3113 369.703 36.7092C368.33 37.7218 366.958 38.6983 365.585 39.711C365.007 40.1088 365.549 41.0492 366.127 40.6513Z" fill="#161616"/>
<path d="M344.054 31.0672C345.138 25.823 345.969 20.5427 346.475 15.2262C346.547 14.539 345.463 14.539 345.391 15.2262C344.885 20.4342 344.091 25.6422 343.007 30.7779C342.862 31.465 343.91 31.7544 344.054 31.0672Z" fill="#161616"/>
<path d="M374.436 64.3405C384.262 63.4363 394.051 62.5322 403.877 61.628C404.564 61.5557 404.564 60.4707 403.877 60.543C394.051 61.4472 384.262 62.3513 374.436 63.2555C373.749 63.2917 373.713 64.3767 374.436 64.3405Z" fill="#161616"/>
<path d="M333.145 97.9394C339.25 99.2776 345.463 99.2414 351.532 97.8671C352.219 97.7224 351.93 96.6736 351.243 96.8182C345.355 98.1564 339.322 98.1926 333.434 96.8906C332.747 96.7459 332.458 97.7947 333.145 97.9394Z" fill="#161616"/>
<path d="M334.048 107.126C338.708 107.741 343.368 107.885 348.064 107.56C348.751 107.524 348.751 106.439 348.064 106.475C343.368 106.8 338.708 106.656 334.048 106.041C333.361 105.968 333.361 107.053 334.048 107.126Z" fill="#161616"/>
<path d="M367.608 94.2865C374.941 99.4583 382.419 104.449 390.005 109.259C390.583 109.621 391.125 108.681 390.547 108.319C382.961 103.509 375.483 98.518 368.15 93.3461C367.572 92.9483 367.03 93.8886 367.608 94.2865Z" fill="#161616"/>
<path d="M275.309 348.683C268.445 357.11 261.617 365.5 254.753 373.927C262.809 402.282 267.361 409.732 270.07 409.334C272.021 409.045 272.96 404.813 274.008 400.076C276.609 388.249 275.056 378.086 273.466 371.757C277.801 366.911 282.1 362.028 286.435 357.182C282.714 354.361 279.029 351.54 275.309 348.683Z" fill="#161616" stroke="#161616" stroke-width="2" stroke-miterlimit="10"/>
<path d="M249.985 305.283C254.284 308.61 258.402 307.417 266.928 308.863C274.189 310.093 282.353 312.805 291.023 318.23C281.775 329.08 272.527 340.545 263.351 352.625C261.148 355.554 258.944 358.484 256.813 361.413C260.353 362.245 264.616 363.547 269.24 365.645C273.755 367.67 277.44 369.949 280.366 372.01C294.13 360.003 306.412 348.393 317.358 337.435C322.416 332.372 329.568 324.632 330.688 313.673C330.76 313.059 330.76 312.516 330.76 311.974C330.508 293.782 307.64 280.617 293.732 275.771C278.524 270.49 252.369 267.633 245.072 280.255C240.773 287.706 243.302 300.111 249.985 305.283Z" fill="#195C99"/>
<path opacity="0.26" d="M276.681 287.091C276.428 290.527 275.814 294.614 274.55 299.134C273.647 302.353 272.563 305.21 271.479 307.634C270.287 308.104 269.131 308.574 267.939 309.044C275.706 312.118 283.509 315.192 291.276 318.267C285.496 324.885 279.68 331.829 273.827 339.062C267.795 346.513 262.051 353.818 256.596 361.016C260.461 362.281 264.29 363.547 268.156 364.777C281.992 349.515 295.828 334.216 309.663 318.954C311.108 314.795 311.036 311.54 310.603 309.261C308.616 298.122 294.997 289.044 276.681 287.091Z" fill="#6D6C6C"/>
<path opacity="0.23" d="M291.204 318.194C292.468 320.111 293.696 322.064 294.961 323.981C284.195 336.965 273.43 349.912 262.665 362.896C260.75 362.39 258.8 361.847 256.885 361.341C263.785 351.865 271.227 342.137 279.282 332.335C283.292 327.453 287.266 322.751 291.204 318.194Z" fill="#6D6C6C"/>
<path d="M255.259 334.939C265.916 336.892 276.609 338.809 287.266 340.762C299.585 367.67 300.957 376.35 298.645 377.833C296.984 378.882 293.516 376.278 289.65 373.349C279.969 366.007 274.586 357.254 271.66 351.359C265.23 350.491 258.799 349.587 252.369 348.719C253.308 344.126 254.284 339.533 255.259 334.939Z" fill="#161616" stroke="#161616" stroke-width="2" stroke-miterlimit="10"/>
<path d="M233.295 275.011C213.86 280.726 202.011 292.588 194.389 300.4C184.093 310.997 171.449 323.981 175.098 333.565C176.976 338.448 182.684 341.45 209.272 346.079C229.358 349.587 246.77 351.468 260.353 352.517C262.051 346.296 263.749 340.111 265.41 333.891C251.755 329.478 238.136 325.102 224.481 320.69C232.862 318.918 241.676 316.82 250.852 314.252C257.824 312.299 264.471 310.274 270.793 308.14C276.645 296.314 277.91 283.547 271.804 276.313C263.279 266.187 244.169 271.793 233.295 275.011Z" fill="#195C99"/>
<path opacity="0.29" d="M276.537 287.525C276.356 291.106 275.742 295.699 274.08 300.762C273.069 303.836 271.913 306.513 270.757 308.719C269.781 308.791 268.806 308.9 267.831 308.972C259.594 311.684 250.816 314.252 241.532 316.639C235.535 318.194 229.683 319.533 224.011 320.762C237.702 325.066 251.394 329.334 265.085 333.637C264.796 335.12 264.435 336.676 264.001 338.303C263.496 340.184 262.918 341.92 262.376 343.511C243.482 338.845 224.589 334.18 205.696 329.514C204.829 328.466 201.975 324.668 202.408 319.641C202.878 314.18 208.08 310.31 214.727 306.766C233.945 296.567 266.169 289.659 276.537 287.525Z" fill="#6D6C6C"/>
<path opacity="0.24" d="M214.293 321.522C217.725 321.269 221.193 321.015 224.625 320.726C238.1 325.211 251.574 329.732 265.049 334.216C264.471 336.35 263.893 338.52 263.315 340.654C246.987 334.252 230.622 327.887 214.293 321.522Z" fill="#6D6C6C"/>
<path d="M228.202 193.058C233.548 189.911 242.832 185.427 255.187 184.125C274.117 182.135 288.639 188.935 294.383 192.009C293.335 206.222 291.709 217.579 290.409 225.391C288.856 234.722 287.591 239.894 287.013 248.465C286.291 259.207 287.194 268.031 288.025 273.818C281.739 275.771 272.238 277.905 260.534 277.652C249.263 277.398 240.159 274.939 234.054 272.805C235.68 259.858 235.138 249.586 234.343 242.606C233.44 234.83 232.212 231.033 230.73 221.629C228.816 209.477 228.31 199.532 228.202 193.058Z" fill="white" stroke="#161616" stroke-width="2" stroke-miterlimit="10"/>
<path opacity="0.14" d="M267.289 188.428C268.048 191.177 268.915 194.975 269.493 199.532C269.89 202.606 271.516 216.53 266.458 234.903C263.351 246.223 260.064 258.194 249.299 268.031C245.831 271.214 242.471 273.348 240.015 274.686C245.469 276.096 252.586 277.435 261.003 277.507C272.021 277.615 281.125 275.626 287.447 273.673C287.085 270.961 286.616 266.874 286.435 261.955C286.291 257.651 286.291 250.78 289.253 231.431C291.601 216.204 293.263 209.658 294.094 195.879C294.202 194.287 294.238 192.949 294.31 192.045C291.673 190.49 288.241 188.79 284.015 187.416C280.113 186.15 276.609 185.499 273.719 185.21C271.624 186.258 269.456 187.343 267.289 188.428Z" fill="#6D6C6C"/>
<path opacity="0.17" d="M293.263 197.94C291.24 209.405 288.567 218.664 286.471 225.101C280.33 243.908 276.031 256.566 264.435 265.825C257.246 271.576 249.768 273.999 244.964 275.156C249.84 276.53 256.74 277.868 265.085 277.688C274.695 277.471 282.461 275.301 287.555 273.456C286.869 269.044 286.074 262.425 286.291 254.36C286.544 243.908 288.241 237.615 290.12 226.15C291.168 219.423 292.504 209.803 293.263 197.94Z" fill="#6D6C6C"/>
<path d="M227.985 192.877C223.289 196.132 217.256 201.267 211.981 208.899C200.096 226.186 200.421 244.523 200.891 251.286C203.059 257.109 206.779 264.74 213.282 272.227C217.075 276.603 222.638 282.896 232.139 286.946C235.318 288.321 238.1 289.08 240.123 289.514C241.857 287.959 243.555 286.404 245.289 284.849C239.725 278.339 234.126 271.503 228.527 264.451C224.228 259.062 220.11 253.709 216.136 248.429C216.28 243.98 217.22 235.915 222.06 227.488C224.806 222.714 228.021 219.242 230.586 216.892C229.719 208.899 228.852 200.906 227.985 192.877Z" fill="white" stroke="#161616" stroke-width="2" stroke-miterlimit="10"/>
<path opacity="0.13" d="M228.671 200.942C218.267 212.696 213.318 223.836 210.862 230.852C206.563 243.004 207.466 249.369 208.116 252.407C208.658 254.794 209.85 258.881 214.221 265.102C218.014 270.491 225.998 280.147 241.207 288.104C242.543 286.802 243.88 285.536 245.216 284.234C240.918 279.388 236.583 274.288 232.211 268.972C226.468 261.991 221.121 255.12 216.172 248.393C216.316 244.74 216.931 239.64 219.062 233.926C222.277 225.355 227.335 219.713 230.477 216.711C229.827 211.467 229.249 206.222 228.671 200.942Z" fill="#6D6C6C"/>
<path opacity="0.16" d="M216.136 248.863C216.786 253.094 218.123 258.483 220.94 264.306C227.154 276.964 236.872 283.944 241.821 286.982C242.796 286.114 243.735 285.283 244.711 284.415C235.174 272.552 225.673 260.689 216.136 248.863Z" fill="#6D6C6C"/>
<path d="M294.925 192.226C300.199 195.445 306.99 200.472 312.879 207.958C326.245 224.92 325.848 242.931 325.342 249.586C322.885 255.3 318.731 262.787 311.434 270.165C307.171 274.433 300.921 280.617 290.264 284.632C286.688 285.97 283.545 286.729 281.269 287.163C279.355 285.644 277.404 284.125 275.489 282.606C281.703 276.205 288.025 269.514 294.31 262.57C299.115 257.253 303.739 252.009 308.219 246.837C308.038 242.497 307.026 234.577 301.572 226.259C298.465 221.557 294.888 218.157 291.998 215.843C293.01 207.958 293.985 200.11 294.925 192.226Z" fill="white" stroke="#161616" stroke-width="2" stroke-miterlimit="10"/>
<path opacity="0.16" d="M294.672 201.014C299.26 205.824 305.509 213.528 310.386 224.269C312.698 229.369 316.455 237.651 316.527 245.463C316.78 269.225 283.184 285.572 281.233 286.512C279.319 285.283 277.44 284.089 275.525 282.859C286.399 270.924 297.237 258.989 308.11 247.054C307.893 243.148 306.99 235.879 302.655 228.139C299.079 221.774 294.636 217.651 291.709 215.372C292.721 210.598 293.696 205.824 294.672 201.014Z" fill="#6D6C6C"/>
<path opacity="0.12" d="M308.471 247.163C307.929 250.309 307.026 253.745 305.617 257.29C299.259 273.348 286.399 282.136 279.896 285.897C278.343 284.885 276.826 283.872 275.272 282.859C286.327 270.961 297.381 259.062 308.471 247.163Z" fill="#6D6C6C"/>
<path d="M303.233 249.839H214.402V306.151H303.233V249.839Z" fill="white" stroke="#161616" stroke-width="2" stroke-miterlimit="10"/>
<path d="M257.535 283.366C252.839 283.944 250.563 278.23 251.791 274.433C252.983 270.671 257.427 268.899 261.039 270.201C264.616 271.503 266.35 275.879 265.085 279.387C263.676 283.293 258.763 284.885 255.151 283.149C254.537 282.859 253.959 283.8 254.609 284.089C257.824 285.644 261.762 285.066 264.327 282.534C266.819 280.038 267.18 276.096 265.627 273.022C262.087 266.006 251.141 268.248 250.382 275.952C249.985 280.075 252.947 285.029 257.535 284.487C258.221 284.378 258.221 283.293 257.535 283.366Z" fill="#161616"/>
<path opacity="0.14" d="M247.745 249.695C259.775 253.89 267.975 264.632 268.228 276.169C268.553 290.635 256.415 304.234 239.87 305.608C260.931 305.789 281.992 305.97 303.089 306.151C303.016 287.272 302.98 268.393 302.908 249.55C284.52 249.55 266.133 249.622 247.745 249.695Z" fill="#6D6C6C"/>
<path opacity="0.26" d="M303.089 249.514C302.764 261.015 300.488 269.984 298.573 275.879C295.755 284.451 293.732 290.708 287.916 296.241C280.005 303.836 270.143 305.247 265.808 305.608C278.126 305.717 290.445 305.825 302.764 305.97C302.8 295.229 302.872 284.487 302.944 273.709C302.944 265.644 303.016 257.579 303.089 249.514Z" fill="#6D6C6C"/>
<path d="M256.199 163.871C254.212 166.294 256.126 169.26 255.765 177.181C255.584 181.123 254.934 184.305 254.428 186.439C256.126 187.235 259.125 188.356 262.99 188.465C267.759 188.573 271.371 187.09 273.141 186.222C272.346 184.631 271.299 182.172 270.649 178.989C269.023 170.888 271.913 167.09 269.529 164.088C266.747 160.616 258.872 160.58 256.199 163.871Z" fill="white" stroke="#161616" stroke-width="2" stroke-miterlimit="10"/>
<path d="M243.591 129.079C241.315 134.938 242.182 140.218 242.688 142.497C242.471 142.533 238.244 143.437 237.088 146.692C235.932 149.983 238.317 154.649 243.302 156.168C245.108 160.58 249.479 169.115 258.691 173.781C260.245 174.54 261.726 175.155 263.207 175.589C264.543 175.083 266.35 174.287 268.409 173.094C274.839 169.369 278.416 164.739 279.246 163.618C280.764 161.593 282.823 158.338 284.268 153.853C285.063 153.998 286.471 154.07 287.844 153.383C290.951 151.792 292.504 146.837 290.337 143.618C288.531 140.942 285.026 140.833 284.593 140.833C285.062 138.952 286.508 132.189 282.859 125.498C278.668 117.795 269.673 113.744 261.22 114.901C248.721 116.529 243.808 128.5 243.591 129.079Z" fill="white" stroke="#161616" stroke-width="2" stroke-miterlimit="10"/>
<path d="M255.729 173.455C257.933 174.757 260.353 176.783 263.062 176.566C265.302 176.385 267.795 175.083 269.493 173.708C270.034 173.274 269.276 172.515 268.734 172.949C267.144 174.215 264.58 175.553 262.484 175.517C260.281 175.481 258.041 173.636 256.235 172.515C255.693 172.153 255.151 173.094 255.729 173.455Z" fill="#161616"/>
<path d="M255.584 173.926C257.644 175.698 259.992 177.687 262.882 177.542C265.699 177.398 268.337 175.517 270.179 173.492C270.649 172.985 269.89 172.226 269.42 172.732C267.831 174.468 265.591 176.168 263.135 176.421C260.425 176.674 258.258 174.83 256.343 173.166C255.837 172.696 255.079 173.455 255.584 173.926Z" fill="#161616"/>
<path d="M256.957 174.142C256.957 174.106 256.957 174.106 256.957 174.142C256.74 173.817 256.343 173.745 256.09 173.998C256.09 173.998 256.09 173.998 256.054 174.034C255.837 174.215 255.837 174.613 256.054 174.793C260.028 178.591 267.325 179.821 270.179 173.998C270.468 173.383 269.565 172.804 269.24 173.455C266.711 178.663 260.317 177.397 256.849 174.034C256.849 174.287 256.849 174.54 256.849 174.793C256.849 174.793 256.849 174.793 256.885 174.757C256.596 174.721 256.307 174.685 256.018 174.649V174.685C256.379 175.264 257.318 174.721 256.957 174.142Z" fill="#161616"/>
<path d="M261.292 140.688C260.823 146.547 261.075 152.37 262.015 158.157C262.051 158.446 262.412 158.627 262.665 158.518C264.074 158.048 265.085 157.217 265.844 155.951C266.205 155.336 265.266 154.793 264.905 155.408C264.291 156.457 263.532 157.072 262.376 157.47C262.593 157.578 262.809 157.723 263.026 157.831C262.087 152.153 261.87 146.403 262.34 140.652C262.448 139.965 261.364 139.965 261.292 140.688Z" fill="#161616"/>
<path d="M254.862 146.439C254.934 146.764 255.476 148.79 254.862 149.115C254.248 149.441 252.514 148.139 251.972 146.439C251.538 144.992 251.9 143.184 252.586 143.039C253.309 142.858 254.428 144.848 254.862 146.439Z" fill="#161616" stroke="#161616" stroke-miterlimit="10"/>
<path d="M273.502 146.439C273.575 146.764 274.116 148.79 273.502 149.115C272.888 149.441 271.154 148.139 270.612 146.439C270.179 144.992 270.54 143.184 271.226 143.039C271.949 142.858 273.069 144.848 273.502 146.439Z" fill="#161616" stroke="#161616" stroke-miterlimit="10"/>
<path d="M259.992 162.931C264.399 164.812 268.409 162.171 271.66 159.314C272.202 158.844 271.407 158.085 270.901 158.555C268.084 161.014 264.471 163.654 260.57 161.991C259.883 161.737 259.341 162.678 259.992 162.931Z" fill="#161616"/>
<path d="M272.708 152.189C273.394 152.189 273.394 151.104 272.708 151.104C272.021 151.104 272.021 152.189 272.708 152.189Z" fill="#161616"/>
<path d="M276.718 150.164C276.754 150.128 276.79 150.092 276.826 150.056C277.043 149.839 277.043 149.513 276.826 149.296C276.609 149.079 276.284 149.079 276.067 149.296C276.031 149.332 275.995 149.368 275.959 149.405C275.742 149.622 275.742 149.947 275.959 150.164C276.176 150.381 276.501 150.381 276.718 150.164Z" fill="#161616"/>
<path d="M275.525 152.804C275.562 152.804 275.598 152.804 275.634 152.804C275.923 152.804 276.176 152.551 276.176 152.262C276.176 151.972 275.923 151.719 275.634 151.719C275.598 151.719 275.562 151.719 275.525 151.719C275.236 151.719 274.984 151.972 274.984 152.262C274.984 152.551 275.2 152.804 275.525 152.804Z" fill="#161616"/>
<path d="M250.599 139.965C251.972 138.808 253.995 138.771 255.368 139.893C255.91 140.327 256.668 139.567 256.126 139.133C254.248 137.614 251.647 137.614 249.804 139.205C249.299 139.639 250.093 140.399 250.599 139.965Z" fill="#161616"/>
<path d="M268.228 139.567C269.781 138.193 271.985 137.94 273.828 138.916C274.442 139.242 274.984 138.301 274.369 137.976C272.093 136.746 269.384 137.072 267.47 138.808C266.928 139.278 267.686 140.037 268.228 139.567Z" fill="#161616"/>
<path d="M250.888 152.081C251.575 152.081 251.575 150.996 250.888 150.996C250.202 150.996 250.202 152.081 250.888 152.081Z" fill="#161616"/>
<path d="M254.717 151.574C255.404 151.574 255.404 150.49 254.717 150.49C254.031 150.49 254.031 151.574 254.717 151.574Z" fill="#161616"/>
<path d="M252.803 152.406C252.767 152.442 252.731 152.479 252.694 152.515C252.478 152.732 252.478 153.057 252.694 153.274C252.911 153.491 253.236 153.491 253.453 153.274C253.489 153.238 253.525 153.202 253.561 153.166C253.778 152.949 253.778 152.623 253.561 152.406C253.345 152.189 253.02 152.189 252.803 152.406Z" fill="#161616"/>
<path d="M249.479 117.325C247.312 118.663 242.579 121.592 239.364 127.596C236.149 133.564 236.185 139.206 236.33 141.629C231.056 151.141 228.671 159.531 227.515 165.246C225.637 174.323 226.648 177.651 227.949 179.857C231.128 185.282 237.522 186.62 239.075 186.946C247.059 188.645 253.417 184.559 254.862 183.618C255.259 182.425 255.657 180.942 255.873 179.278C256.271 176.421 256.054 173.962 255.729 172.19C253.923 170.707 251.827 168.718 249.804 166.114C246.734 162.135 245 158.229 244.024 155.408C240.845 155.083 238.461 152.913 238.244 150.49C238.028 148.211 239.617 145.282 241.712 145.282C243.266 145.282 244.386 146.873 244.602 147.162C245.795 146.475 247.456 145.282 248.937 143.401C251.069 140.688 251.43 138.265 252.405 135.734C253.345 133.274 255.151 129.875 259.052 126.33C262.809 127.668 265.808 128.97 267.867 129.947C274.478 133.021 278.235 134.829 281.161 138.772C282.787 140.942 283.617 143.075 284.051 144.414C287.411 141.846 288.783 142.533 289.072 142.678C291.204 143.871 291.131 150.417 287.808 152.226C286.544 152.913 285.099 152.732 284.195 152.515C283.148 156.168 280.836 162.135 275.525 167.416C273.755 169.188 271.949 170.562 270.323 171.611C270.179 172.949 270.107 174.794 270.468 176.964C270.793 178.953 271.371 180.58 271.913 181.738C280.691 187.524 291.601 186.475 297.525 180.255C302.8 174.685 302.8 166.258 300.813 160.508C299.007 155.264 295.503 152.117 293.769 150.743C294.238 148.717 296.839 136.71 289.289 125.679C287.338 122.822 281.883 115.914 272.057 113.527C261.653 110.995 253.092 115.119 249.479 117.325Z" fill="#EC615B"/>
<path opacity="0.17" d="M272.383 132.189C276.465 137.325 277.548 142.063 277.91 144.522C279.391 154.866 273.394 163.256 270.36 167.56C267.867 171.068 265.302 173.564 263.46 175.191C265.049 179.459 266.603 183.691 268.192 187.958C269.818 187.416 271.443 186.873 273.069 186.331C272.31 184.993 271.516 183.329 270.901 181.304C269.782 177.687 269.709 174.504 269.818 172.334C271.805 170.924 274.117 169.007 276.356 166.475C280.836 161.412 283.076 156.204 284.232 152.696C284.954 152.84 286.508 153.021 287.989 152.189C291.095 150.417 290.59 146.005 290.553 145.716C290.445 144.775 290.228 143.256 289.145 142.641C287.88 141.954 285.785 142.605 284.123 144.558C283.617 142.786 282.172 138.699 278.271 135.444C276.103 133.636 273.9 132.696 272.383 132.189Z" fill="#6D6C6C"/>
<path opacity="0.19" d="M261.798 141.014C261.581 140.978 260.859 144.124 258.655 158.012C259.919 158.012 261.184 158.012 262.448 158.012C262.195 156.168 261.906 153.491 261.762 150.236C261.581 144.667 262.015 141.05 261.798 141.014Z" fill="#6D6C6C"/>
<path opacity="0.54" d="M293.552 151.104C292.938 151.466 295.25 154.576 294.925 159.206C294.816 160.652 294.599 163.944 291.998 166.15C291.818 166.294 287.952 169.477 284.123 167.452C281.847 166.258 280.474 163.727 280.547 160.978C279.463 163.003 277.693 165.68 274.911 168.284C273.177 169.911 271.479 171.105 269.998 172.009C269.89 173.6 269.89 175.77 270.468 178.229C270.793 179.568 271.19 180.725 271.588 181.665C272.708 182.389 274.369 183.365 276.537 184.125C277.91 184.595 285.46 187.235 292.829 183.582C294.13 182.931 297.02 181.448 299.115 178.266C299.368 177.868 300.307 176.457 300.994 174.07C303.45 165.897 299.837 158.519 299.512 157.904C297.525 153.889 294.31 150.67 293.552 151.104Z" fill="#8D3633"/>
<path opacity="0.35" d="M243.988 155.553C243.663 155.589 244.386 158.555 243.591 161.484C243.013 163.654 241.171 167.198 238.028 167.922C234.74 168.645 230.658 166.222 228.78 161.701C227.913 163.69 226.757 166.873 226.576 170.924C226.468 173.564 226.323 176.385 227.624 179.17C230.55 185.39 239.148 187.813 245.542 187.235C249.804 186.837 253.02 185.173 254.754 184.052C255.187 182.822 255.621 181.34 255.91 179.64C256.379 176.71 256.271 174.142 256.018 172.262C253.164 170.2 251.213 168.066 249.985 166.511C248.251 164.305 245.903 161.339 244.711 157.216C244.53 156.746 244.205 155.517 243.988 155.553Z" fill="#8D3633"/>
</svg>
