<svg width="382" height="286" viewBox="0 0 382 286" fill="none" xmlns="http://www.w3.org/2000/svg">
<g clip-path="url(#clip0)">
<path d="M49.9944 189.57C50.639 191.477 49.9466 193.384 49.6601 195.266C49.4214 196.863 49.6124 198.269 50.4958 199.652C50.9733 200.391 51.6418 201.153 51.8328 202.035C52.0715 203.131 51.2598 203.894 50.9016 204.847C50.5435 205.801 50.7823 207.159 51.976 207.326C51.9283 207.136 51.8805 206.921 51.8089 206.73C51.2598 207.326 51.0926 208.208 51.594 208.899C51.976 209.423 52.7878 209.471 53.0026 210.162C53.2175 210.853 52.8594 211.735 52.74 212.403C52.2864 215.191 53.9815 217.622 55.987 219.362C58.3268 221.412 60.9053 223.08 63.0063 225.392C65.2028 227.799 67.0173 230.564 68.3782 233.519C68.5692 233.924 69.1899 233.567 68.9989 233.162C66.7069 228.228 63.245 224.033 58.8998 220.744C56.4884 218.933 53.4801 216.788 53.3608 213.451C53.3369 212.379 53.8621 211.306 53.7189 210.234C53.6711 209.9 53.5756 209.567 53.3369 209.304C52.8116 208.685 51.2598 208.303 52.2864 207.207C52.4535 207.04 52.4058 206.659 52.1193 206.611C50.4958 206.373 51.976 204.323 52.2386 203.68C52.4535 203.203 52.5729 202.726 52.5251 202.202C52.4058 200.843 51.3075 199.819 50.7106 198.651C49.1826 195.695 51.6895 192.406 50.639 189.332C50.5435 188.951 49.8511 189.141 49.9944 189.57Z" fill="#E8E8E8"/>
<path d="M50.4958 190.261C66.9456 197.531 70.9805 216.812 73.8455 232.685C73.9171 233.138 74.6095 232.947 74.5379 232.494C72.1743 219.314 69.4286 205.11 59.3773 195.41C56.8943 193.002 54.0293 191.024 50.8539 189.642C50.448 189.451 50.066 190.071 50.4958 190.261Z" fill="#E8E8E8"/>
<path d="M51.6896 191.93C60.4756 203.06 66.7308 216.097 69.9301 229.896C70.0256 230.349 70.718 230.159 70.6225 229.706C67.3993 215.763 61.0725 202.655 52.2148 191.405C51.9044 191.048 51.4031 191.572 51.6896 191.93Z" fill="#E8E8E8"/>
<path d="M53.6234 203.87C58.8043 206.23 62.9585 210.377 65.346 215.549C65.537 215.978 66.1578 215.596 65.9668 215.191C63.5554 209.924 59.2818 205.658 54.0054 203.251C53.5518 203.06 53.1937 203.68 53.6234 203.87Z" fill="#E8E8E8"/>
<path d="M71.4579 216.931C69.8821 210.139 75.2779 204.657 78.6204 199.414C80.2439 196.863 81.6047 194.123 82.6314 191.286C83.1327 189.904 83.4909 188.474 83.9206 187.068C84.3265 185.733 84.8756 184.232 86.332 183.827C86.1887 183.779 86.0694 183.707 85.9261 183.66C86.4752 184.732 86.7617 185.9 86.6424 187.116C86.5707 187.878 85.9977 188.712 86.0694 189.427C86.1171 189.856 86.4991 190.524 86.6424 190.953C86.8095 191.501 86.9289 192.049 87.0005 192.597C87.096 193.265 87.1437 193.932 87.1437 194.599C87.1437 195.1 86.8095 196.458 86.9766 196.84C86.7856 196.434 86.2604 196.744 86.332 197.126C87.0005 201.177 87.9555 205.3 88.1942 209.376C88.433 213.475 86.7856 216.955 84.7085 220.387C81.0317 226.464 77.1163 232.947 77.8564 240.359C77.9041 240.812 78.6204 240.812 78.5726 240.359C77.7609 232.232 82.6314 225.702 86.3797 218.981C88.1465 215.811 89.1731 212.57 88.8866 208.923C88.5762 204.919 87.669 200.915 87.0244 196.935C86.8095 197.03 86.5946 197.126 86.3797 197.221C86.4036 197.269 86.4275 197.316 86.4514 197.364C86.4991 197.483 86.6424 197.531 86.7617 197.531C87.6451 197.555 87.7406 196.554 87.8122 195.886C88.0032 194.242 87.86 192.573 87.4303 191C87.2631 190.405 86.8572 189.737 86.9289 189.118C87.0005 188.546 87.3109 187.95 87.3825 187.33C87.5496 185.924 87.2393 184.565 86.5946 183.326C86.523 183.183 86.332 183.112 86.1887 183.159C83.7296 183.874 83.3476 186.782 82.7269 188.879C81.6525 192.478 80.0767 195.91 78.0474 199.08C74.5616 204.538 69.1659 210.091 70.8133 217.146C70.8849 217.575 71.5772 217.384 71.4579 216.931Z" fill="#E8E8E8"/>
<path d="M84.7325 189.642C84.3266 196.84 81.4139 203.489 79.0503 210.186C76.6628 216.979 75.1586 223.986 74.6334 231.16C74.6095 231.612 75.3258 231.612 75.3496 231.16C75.8988 223.747 77.5461 216.55 80.0291 209.567C82.345 203.06 85.0429 196.601 85.4488 189.642C85.4726 189.189 84.7564 189.189 84.7325 189.642Z" fill="#E8E8E8"/>
<path d="M74.6095 206.015C74.9437 209.28 75.8271 212.426 77.2835 215.382C77.4983 215.787 78.0952 215.429 77.9042 215.024C76.5195 212.188 75.6361 209.161 75.3257 206.039C75.278 205.562 74.5617 205.562 74.6095 206.015Z" fill="#E8E8E8"/>
<path d="M80.22 209.424C82.703 207.922 84.804 205.968 86.4752 203.608C86.7379 203.227 86.1171 202.869 85.8545 203.251C84.2548 205.515 82.2255 207.374 79.838 208.804C79.456 209.042 79.8141 209.662 80.22 209.424Z" fill="#E8E8E8"/>
<path d="M67.4708 231.612C68.9988 234.448 69.9538 237.499 70.3119 240.693C70.3597 241.146 71.0759 241.146 71.0282 240.693C70.6462 237.38 69.6673 234.21 68.0916 231.255C67.8767 230.85 67.2559 231.207 67.4708 231.612Z" fill="#E8E8E8"/>
<path d="M73.4636 231.159C74.0605 234.091 74.3947 237.07 74.4425 240.073C74.4425 240.526 75.1587 240.526 75.1587 240.073C75.111 236.999 74.7767 233.972 74.156 230.969C74.0605 230.516 73.3681 230.707 73.4636 231.159Z" fill="#E8E8E8"/>
<path d="M313.312 210.997C313.025 211.95 312.572 212.975 312.428 213.976C312.357 214.381 312.333 214.762 312.596 215.096C312.93 215.501 313.503 215.549 313.98 215.62C315.055 215.811 316.129 215.978 317.203 216.121C321.071 216.645 324.987 216.86 328.878 216.931C332.913 217.003 336.948 216.883 341.007 216.74C342.057 216.693 343.251 216.812 344.254 216.621C344.54 216.574 344.851 216.574 345.042 216.311C345.472 215.763 344.875 215.287 344.326 215.573C344.206 215.644 344.111 215.835 344.158 215.978C344.182 216.002 344.182 216.049 344.206 216.073C344.373 216.502 345.066 216.311 344.899 215.882C344.875 215.859 344.875 215.811 344.851 215.787C344.803 215.93 344.731 216.049 344.684 216.192C344.54 216.097 344.397 216.002 344.254 215.906C344.015 215.906 343.8 215.93 343.562 215.93C343.18 215.954 342.798 215.954 342.392 215.978C341.699 216.002 340.983 216.025 340.291 216.049C338.882 216.097 337.497 216.145 336.089 216.168C333.128 216.24 330.191 216.264 327.231 216.168C324.366 216.097 321.501 215.906 318.66 215.573C317.156 215.406 315.652 215.191 314.147 214.929C313.169 214.762 313.049 214.333 313.312 213.404C313.527 212.665 313.765 211.902 313.98 211.163C314.124 210.734 313.431 210.544 313.312 210.997Z" fill="#E8E8E8"/>
<path d="M313.98 211.378C314.362 210.21 316.988 210.496 317.919 210.472C319.233 210.425 320.57 210.377 321.883 210.353C324.676 210.305 327.469 210.305 330.287 210.401C333.008 210.472 335.73 210.615 338.428 210.83C339.717 210.925 341.126 210.901 342.367 211.187C343.657 211.497 343.657 212.117 343.848 213.142C343.991 213.88 344.134 214.619 344.277 215.358C344.373 215.811 345.065 215.62 344.97 215.167C344.803 214.286 344.612 213.38 344.445 212.498C344.349 211.974 344.277 211.378 343.872 210.973C343.108 210.21 341.46 210.401 340.481 210.305C336.996 209.996 333.51 209.781 330 209.686C326.586 209.59 323.148 209.59 319.734 209.71C318.23 209.757 316.678 209.733 315.174 209.924C314.314 210.043 313.526 210.329 313.24 211.211C313.144 211.64 313.837 211.807 313.98 211.378Z" fill="#E8E8E8"/>
<path d="M314.673 215.334C315.723 221.102 316.463 226.917 316.917 232.756C316.941 232.971 317.06 233.09 317.275 233.114C324.294 233.757 331.337 233.924 338.357 233.614C338.81 233.591 338.81 232.876 338.357 232.899C331.313 233.209 324.27 233.042 317.275 232.399C317.394 232.518 317.514 232.637 317.633 232.756C317.179 226.846 316.439 220.983 315.365 215.144C315.269 214.691 314.577 214.881 314.673 215.334Z" fill="#E8E8E8"/>
<path d="M342.248 216.764C341.293 222.198 340.123 227.608 338.715 232.947C338.595 233.4 339.288 233.591 339.407 233.138C340.792 227.799 341.986 222.389 342.941 216.955C343.012 216.502 342.32 216.311 342.248 216.764Z" fill="#E8E8E8"/>
<path d="M298.581 172.458C300.157 176.724 301.303 181.109 302.043 185.566C302.067 185.685 302.186 185.781 302.282 185.805C303.046 186.019 303.81 186.234 304.55 186.448C304.478 186.305 304.383 186.162 304.311 186.019C303.881 187.973 303.69 190.095 305.529 191.334C306.125 191.739 306.746 191.977 306.889 192.764C306.985 193.336 306.937 193.908 307.057 194.48C307.295 195.695 307.797 196.863 308.513 197.864C310.113 200.081 312.619 201.034 314.864 202.44C317.347 204.013 319.281 206.277 320.57 208.899C320.761 209.304 321.382 208.947 321.191 208.542C320.14 206.397 318.66 204.466 316.798 202.965C314.744 201.296 312.094 200.438 310.16 198.651C309.134 197.721 308.394 196.482 307.964 195.171C307.749 194.504 307.63 193.813 307.606 193.121C307.582 192.74 307.653 192.43 307.486 192.097C307.08 191.191 305.911 190.929 305.29 190.214C304.359 189.141 304.717 187.473 304.979 186.21C305.027 186.019 304.932 185.828 304.741 185.781C304.263 185.638 303.308 185.566 302.926 185.28C302.449 184.923 302.473 183.969 302.377 183.397C302.138 182.134 301.852 180.895 301.541 179.632C300.921 177.129 300.157 174.698 299.273 172.291C299.13 171.838 298.438 172.029 298.581 172.458Z" fill="#E8E8E8"/>
<path d="M299.345 172.482C307.558 174.889 314.601 180.49 318.803 187.926C319.018 188.331 319.639 187.974 319.424 187.568C315.15 179.966 307.94 174.246 299.536 171.791C299.082 171.648 298.891 172.339 299.345 172.482Z" fill="#E8E8E8"/>
<path d="M317.944 186.901C322.36 193.455 325.321 200.867 326.658 208.661C326.73 209.114 327.422 208.923 327.35 208.47C326.013 200.629 323.005 193.145 318.564 186.544C318.302 186.162 317.681 186.52 317.944 186.901Z" fill="#E8E8E8"/>
<path d="M300.921 174.484C310.113 183.779 317.753 194.48 323.602 206.158C323.817 206.564 324.438 206.206 324.223 205.801C318.373 194.075 310.662 183.326 301.446 173.983C301.088 173.674 300.586 174.174 300.921 174.484Z" fill="#E8E8E8"/>
<path d="M302.616 182.825C308.704 186.496 314.052 191.262 318.373 196.911C318.66 197.268 319.28 196.911 318.994 196.553C314.601 190.786 309.181 185.924 302.974 182.206C302.592 181.967 302.234 182.587 302.616 182.825Z" fill="#E8E8E8"/>
<path d="M308.68 176.533C310.232 179.894 311.211 183.469 311.64 187.163C311.688 187.616 312.404 187.616 312.357 187.163C311.927 183.35 310.9 179.679 309.301 176.176C309.086 175.747 308.489 176.104 308.68 176.533Z" fill="#E8E8E8"/>
<path d="M325.345 199.223C324.676 183.35 339.789 173.197 346.665 160.446C346.45 160.375 346.212 160.327 345.997 160.255C345.997 162.257 345.973 164.259 345.973 166.261C345.973 167.191 345.973 168.12 345.949 169.026C345.949 169.979 346.307 173.221 344.397 172.625C344.111 172.53 343.824 172.887 343.991 173.149C344.994 174.675 345.233 176.557 344.588 178.297C344.278 179.131 343.943 179.441 343.848 180.347C343.752 181.348 343.657 182.373 343.561 183.374C343.37 185.4 343.156 187.402 342.965 189.427C342.774 191.334 342.797 193.431 342.248 195.267C341.723 197.078 340.219 198.103 338.643 198.985C337.258 199.795 335.874 200.581 334.608 201.559C332.221 203.441 330.382 206.087 330.454 209.209C330.454 209.662 331.17 209.662 331.17 209.209C331.075 205.062 334.417 202.274 337.688 200.343C339.001 199.557 340.434 198.889 341.532 197.793C342.606 196.72 343.012 195.41 343.203 193.932C343.729 189.785 344.015 185.614 344.421 181.467C344.516 180.49 344.684 179.751 345.089 178.869C345.352 178.273 345.519 177.63 345.615 176.986C345.782 175.485 345.424 174.031 344.588 172.768C344.445 172.935 344.325 173.125 344.182 173.292C346.522 174.055 346.617 170.933 346.617 169.479C346.641 166.404 346.641 163.33 346.665 160.232C346.665 159.874 346.164 159.731 345.997 160.041C339.049 172.911 323.888 183.112 324.581 199.175C324.629 199.676 325.345 199.676 325.345 199.223Z" fill="#E8E8E8"/>
<path d="M344.636 166.881C341.007 172.982 337.378 179.084 334.226 185.447C332.698 188.522 331.313 191.644 330.072 194.837C328.854 198.031 327.899 201.344 328.09 204.776C328.114 205.229 328.83 205.229 328.807 204.776C328.592 201.249 329.642 197.864 330.908 194.599C332.173 191.334 333.629 188.116 335.205 184.994C338.261 178.917 341.747 173.054 345.209 167.215C345.495 166.833 344.875 166.476 344.636 166.881Z" fill="#E8E8E8"/>
<path d="M330.621 184.541C330.048 187.044 329.929 189.57 330.287 192.097C330.359 192.549 331.051 192.359 330.979 191.906C330.645 189.499 330.764 187.092 331.314 184.732C331.409 184.279 330.717 184.089 330.621 184.541Z" fill="#E8E8E8"/>
<path d="M337.664 172.315C337.306 174.365 337.354 176.414 337.808 178.44C337.903 178.893 338.595 178.702 338.5 178.249C338.07 176.343 338.022 174.436 338.357 172.506C338.428 172.053 337.76 171.862 337.664 172.315Z" fill="#E8E8E8"/>
<path d="M344.015 189.284C347.906 184.708 351.249 179.727 353.995 174.388C353.78 174.365 353.565 174.341 353.35 174.293C354.639 178.75 354.377 183.35 353.398 187.83C352.92 189.999 352.299 192.144 351.631 194.265C351.321 195.243 350.986 196.22 350.652 197.221C350.294 198.293 349.96 199.819 348.647 200.057C348.479 200.081 348.384 200.248 348.384 200.391C348.336 201.606 348.265 202.917 347.715 204.037C347.023 205.467 345.638 205.848 344.206 206.254C342.057 206.849 339.861 207.469 338.356 209.209C338.046 209.543 338.571 210.067 338.858 209.709C339.908 208.494 341.293 207.874 342.797 207.398C344.063 206.992 345.495 206.826 346.665 206.158C348.718 205.014 348.981 202.488 349.076 200.391C348.981 200.51 348.909 200.629 348.814 200.724C350.676 200.414 351.106 198.031 351.607 196.553C352.467 194.027 353.278 191.477 353.875 188.879C355.021 184.017 355.427 178.941 354.018 174.079C353.947 173.793 353.517 173.721 353.374 173.983C350.676 179.274 347.381 184.208 343.513 188.736C343.203 189.141 343.704 189.642 344.015 189.284Z" fill="#E8E8E8"/>
<path d="M351.941 181.729C350.103 187.568 347.023 193.002 342.941 197.554C339.622 201.225 334.537 204.418 333.987 209.781C333.94 210.234 334.656 210.234 334.704 209.781C334.99 206.849 336.9 204.585 338.906 202.583C340.887 200.605 342.941 198.746 344.707 196.577C348.265 192.24 350.939 187.258 352.61 181.92C352.777 181.491 352.085 181.3 351.941 181.729Z" fill="#E8E8E8"/>
<path d="M271.125 62.9676C269.668 75.0273 265.228 86.6103 258.28 96.5965C258.017 96.9778 258.638 97.3353 258.901 96.954C265.92 86.8725 270.361 75.1465 271.841 62.9676C271.889 62.491 271.173 62.5148 271.125 62.9676Z" fill="#E8E8E8"/>
<path d="M271.244 63.1583C281.749 64.493 292.373 64.5407 302.878 63.3252C303.332 63.2775 303.332 62.5625 302.878 62.6102C292.373 63.8257 281.749 63.778 271.244 62.4433C270.79 62.3957 270.79 63.1107 271.244 63.1583Z" fill="#E8E8E8"/>
<path d="M302.902 63.7542C305.6 76.3381 303.929 89.6371 298.247 101.196C298.032 101.601 298.653 101.959 298.867 101.554C304.645 89.8278 306.34 76.362 303.595 63.5635C303.499 63.1107 302.807 63.3013 302.902 63.7542Z" fill="#E8E8E8"/>
<path d="M258.733 97.2399C271.363 101.911 285.02 101.697 298.294 101.435C298.748 101.435 298.748 100.72 298.294 100.72C285.091 100.982 271.507 101.196 258.924 96.5487C258.495 96.3819 258.304 97.0731 258.733 97.2399Z" fill="#E8E8E8"/>
<path d="M304.86 78.3402C310.877 75.9092 317.227 74.3362 323.697 73.7165C323.578 73.5974 323.459 73.4782 323.339 73.359C323.53 82.5587 327.279 91.4724 333.701 98.0742C334.011 98.4079 334.537 97.9074 334.202 97.5737C327.899 91.1149 324.247 82.3919 324.056 73.359C324.056 73.1684 323.888 72.9777 323.697 73.0015C317.156 73.645 310.757 75.1942 304.669 77.649C304.239 77.8397 304.43 78.5309 304.86 78.3402Z" fill="#E8E8E8"/>
<path d="M291.8 101.935C292.755 105.2 293.782 108.465 295 111.635C295.978 114.185 297.244 116.664 299.369 118.452C299.727 118.738 300.228 118.237 299.87 117.951C297.65 116.068 296.408 113.447 295.429 110.753C294.355 107.798 293.4 104.795 292.493 101.768C292.349 101.315 291.681 101.506 291.8 101.935Z" fill="#E8E8E8"/>
<path d="M300.157 118.499C310.948 111.04 322.432 104.604 334.393 99.2182C334.823 99.0275 334.441 98.4078 334.035 98.5985C322.05 103.961 310.59 110.42 299.799 117.88C299.417 118.142 299.775 118.762 300.157 118.499Z" fill="#E8E8E8"/>
<path d="M273.393 66.2567C282.226 67.353 291.108 68.1395 299.989 68.5924C300.443 68.6162 300.443 67.9012 299.989 67.8774C291.084 67.4245 282.226 66.638 273.393 65.5417C272.939 65.494 272.939 66.209 273.393 66.2567Z" fill="#E8E8E8"/>
<path d="M273.202 69.784C274.419 70.5228 276.067 70.4037 277.427 70.499C279.385 70.642 281.343 70.785 283.301 70.928C283.754 70.9518 283.754 70.2368 283.301 70.213C281.653 70.0938 280.006 69.9747 278.359 69.8555C276.878 69.7363 274.849 69.9508 273.56 69.1643C273.178 68.926 272.82 69.5457 273.202 69.784Z" fill="#E8E8E8"/>
<path d="M271.96 73.3351C276.401 73.6449 280.842 73.9548 285.259 74.2646C289.508 74.5506 293.925 75.2179 298.175 74.7889C298.629 74.7412 298.629 74.0262 298.175 74.0739C293.925 74.5029 289.508 73.8594 285.259 73.5496C280.818 73.2398 276.377 72.9299 271.96 72.6201C271.507 72.5963 271.507 73.3113 271.96 73.3351Z" fill="#E8E8E8"/>
<path d="M271.172 79.3412C275.04 80.6281 279.123 80.6996 283.181 80.652C287.646 80.6281 292.087 80.5805 296.551 80.5328C297.005 80.5328 297.005 79.8178 296.551 79.8178C292.23 79.8417 287.933 79.8893 283.611 79.9132C279.481 79.937 275.326 79.937 271.363 78.6262C270.91 78.507 270.719 79.1982 271.172 79.3412Z" fill="#E8E8E8"/>
<path d="M266.254 90.1377C266.254 90.9004 266.182 91.7107 266.254 92.4972C266.302 92.8785 266.469 93.2599 266.923 93.2837C267.472 93.3075 267.901 92.6879 268.236 92.3542C268.785 91.7822 269.286 91.1864 269.788 90.5905C270.074 90.2331 269.573 89.7326 269.286 90.09C268.689 90.8527 268.045 91.5677 267.352 92.235C267.281 92.3065 267.209 92.378 267.114 92.4495C266.97 92.5925 266.923 92.5687 266.97 92.3542C266.899 92.1874 266.97 91.8537 266.97 91.6869C266.97 91.1625 266.97 90.6621 266.97 90.1377C266.97 89.6849 266.254 89.6849 266.254 90.1377Z" fill="#E8E8E8"/>
<path d="M272.032 84.656C279.72 86.3005 287.598 86.8725 295.429 86.372C295.883 86.3482 295.883 85.6332 295.429 85.657C287.646 86.1575 279.839 85.5855 272.223 83.9648C271.769 83.8695 271.578 84.5607 272.032 84.656Z" fill="#E8E8E8"/>
<path d="M300.324 109.824C309.945 106.321 319.137 101.745 327.708 96.1437C328.09 95.8815 327.732 95.2619 327.35 95.524C318.827 101.101 309.707 105.677 300.133 109.133C299.703 109.3 299.894 109.991 300.324 109.824Z" fill="#E8E8E8"/>
<path d="M298.103 105.367C305.266 103.294 312.261 100.767 319.113 97.8358C319.543 97.6451 319.161 97.0493 318.755 97.2161C311.975 100.148 305.003 102.626 297.912 104.676C297.483 104.819 297.65 105.51 298.103 105.367Z" fill="#E8E8E8"/>
<path d="M301.207 99.6472C305.29 97.955 309.372 96.239 313.455 94.5468C317.036 93.0453 320.713 91.6868 323.888 89.3988C324.246 89.1367 323.912 88.517 323.53 88.7792C320.283 91.1148 316.487 92.521 312.834 94.0463C308.895 95.6908 304.955 97.3353 301.016 98.9798C300.61 99.1467 300.801 99.8378 301.207 99.6472Z" fill="#E8E8E8"/>
<path d="M304.526 92.3542C306.293 91.6154 308.083 90.9004 309.85 90.1615C310.28 89.9947 310.089 89.3035 309.659 89.4704C307.892 90.2092 306.102 90.9242 304.335 91.663C303.905 91.8299 304.096 92.521 304.526 92.3542Z" fill="#E8E8E8"/>
<path d="M305.505 83.1069C307.868 83.1784 310.256 82.0344 312.428 81.1764C314.697 80.2708 316.917 79.2698 319.09 78.1734C319.495 77.9589 319.137 77.3392 318.731 77.5538C316.607 78.6263 314.458 79.6034 312.237 80.4853C310.16 81.3194 307.797 82.4634 305.505 82.3919C305.027 82.3681 305.027 83.0831 305.505 83.1069Z" fill="#E8E8E8"/>
<path d="M275.852 101.268C273.154 109.586 268.642 117.236 262.697 123.671C262.482 123.91 262.625 124.267 262.959 124.291C273.99 124.648 284.208 129.272 294.021 133.943C294.427 134.134 294.809 133.514 294.379 133.324C284.447 128.605 274.133 123.957 262.959 123.576C263.055 123.79 263.126 123.981 263.222 124.196C269.262 117.689 273.822 109.919 276.568 101.482C276.687 101.03 275.995 100.839 275.852 101.268Z" fill="#E8E8E8"/>
<path d="M294.833 133.705C298.056 127.461 301.541 121.359 305.266 115.377C305.505 114.996 304.884 114.614 304.645 115.02C300.921 120.978 297.435 127.103 294.212 133.347C293.997 133.753 294.618 134.134 294.833 133.705Z" fill="#E8E8E8"/>
<path d="M293.782 125.459C294.236 125.459 294.236 124.744 293.782 124.744C293.304 124.744 293.304 125.459 293.782 125.459Z" fill="#E8E8E8"/>
<path d="M269.024 120.334C272.748 120.072 275.9 122.313 279.314 123.433C281.176 124.029 283.11 124.338 284.972 124.958C286.858 125.554 288.601 126.46 290.249 127.58C290.631 127.842 290.989 127.222 290.607 126.96C289.103 125.935 287.479 125.077 285.76 124.481C283.731 123.766 281.558 123.433 279.505 122.765C276.019 121.621 272.844 119.357 269.024 119.643C268.546 119.643 268.546 120.358 269.024 120.334Z" fill="#E8E8E8"/>
<path d="M272.796 117.284C278.383 118.714 283.731 120.93 288.673 123.886C289.079 124.124 289.437 123.504 289.031 123.266C284.041 120.263 278.645 118.023 272.987 116.593C272.533 116.497 272.342 117.165 272.796 117.284Z" fill="#E8E8E8"/>
<path d="M274.61 113.113C277.093 113.637 279.385 114.638 281.486 116.068C281.868 116.331 282.226 115.711 281.844 115.449C279.696 113.995 277.332 112.97 274.801 112.422C274.348 112.327 274.157 113.018 274.61 113.113Z" fill="#E8E8E8"/>
<path d="M276.091 109.3C280.125 110.801 284.113 112.398 288.076 114.09C288.506 114.281 288.864 113.661 288.434 113.47C284.423 111.754 280.364 110.11 276.282 108.608C275.828 108.465 275.661 109.157 276.091 109.3Z" fill="#E8E8E8"/>
<path d="M73.0337 72.4295C72.6517 78.1018 72.5562 83.8218 70.7417 89.2796C69.0466 94.3561 66.2055 99.0036 62.481 102.841C62.1706 103.174 62.672 103.675 62.9823 103.341C66.7068 99.5041 69.5718 94.8805 71.3147 89.8278C73.2486 84.227 73.3441 78.2925 73.75 72.4295C73.7738 71.9766 73.0576 71.9766 73.0337 72.4295Z" fill="#E8E8E8"/>
<path d="M73.535 72.644C82.894 72.5248 92.2769 72.5487 101.636 72.7393C104.023 72.787 106.411 72.8585 108.775 72.93C109.992 72.9777 111.854 72.6202 112.499 73.9072C112.953 74.8128 112.929 76.2667 113.072 77.2677C113.693 81.653 113.812 86.1098 113.478 90.519C113.096 95.524 112.093 100.457 110.541 105.224C110.398 105.653 111.09 105.844 111.234 105.415C114.146 96.4773 115.078 86.944 113.836 77.6252C113.717 76.648 113.55 75.6708 113.382 74.7175C113.263 74.0263 113.191 73.1445 112.571 72.6917C111.974 72.2388 111.138 72.3103 110.446 72.2865C109.085 72.2388 107.748 72.1912 106.387 72.1673C101.23 72.0243 96.073 71.929 90.916 71.9052C85.1144 71.8575 79.3128 71.8813 73.535 71.9528C73.0814 71.9528 73.0814 72.6678 73.535 72.644Z" fill="#E8E8E8"/>
<path d="M62.648 103.723C74.7766 107.107 87.5974 107.464 99.9169 104.819C100.371 104.724 100.18 104.033 99.7259 104.128C87.5497 106.773 74.8482 106.392 62.8391 103.032C62.3854 102.912 62.1944 103.58 62.648 103.723Z" fill="#E8E8E8"/>
<path d="M111.234 74.36C110.685 84.7752 107.82 94.952 102.854 104.104C102.639 104.509 103.26 104.867 103.474 104.461C108.488 95.1903 111.401 84.8943 111.95 74.36C111.974 73.9072 111.258 73.9072 111.234 74.36Z" fill="#E8E8E8"/>
<path d="M111.234 76.3381C111.902 79.508 111.616 82.7016 111.067 85.8476C110.589 88.5885 110.04 91.3293 109.419 94.0701C108.202 99.4326 106.554 104.724 103.403 109.276C103.14 109.657 103.761 110.015 104.024 109.633C107.294 104.914 108.966 99.4088 110.207 93.8556C111.473 88.1833 113.168 81.9628 111.926 76.1475C111.831 75.6946 111.138 75.8853 111.234 76.3381Z" fill="#E8E8E8"/>
<path d="M111.759 78.6261C112.595 89.4465 110.828 100.338 106.602 110.348C106.435 110.777 107.127 110.968 107.294 110.539C111.52 100.481 113.311 89.518 112.475 78.6261C112.451 78.1733 111.735 78.1733 111.759 78.6261Z" fill="#E8E8E8"/>
<path d="M67.2081 109.633C79.1695 111.683 91.3935 111.611 103.331 109.443C103.785 109.371 103.594 108.68 103.14 108.751C91.3457 110.896 79.2172 110.968 67.3991 108.942C66.9455 108.871 66.7545 109.562 67.2081 109.633Z" fill="#E8E8E8"/>
<path d="M68.784 105.582C68.2349 106.487 67.5187 107.25 66.6592 107.87C66.2772 108.132 66.6353 108.752 67.0173 108.489C67.9723 107.798 68.784 106.964 69.3809 105.963C69.6435 105.558 69.0228 105.2 68.784 105.582Z" fill="#E8E8E8"/>
<path d="M70.4553 110.801C70.1449 111.397 69.7868 111.969 69.357 112.493C69.0705 112.851 69.5719 113.351 69.8584 112.994C70.3359 112.422 70.7418 111.826 71.0521 111.159C71.267 110.754 70.6701 110.372 70.4553 110.801Z" fill="#E8E8E8"/>
<path d="M69.7628 113.471C81.772 114.877 93.9721 114.114 105.719 111.206C106.172 111.087 105.981 110.396 105.528 110.515C93.8527 113.399 81.7242 114.138 69.7628 112.732C69.3092 112.708 69.3092 113.423 69.7628 113.471Z" fill="#E8E8E8"/>
<path d="M75.6122 82.0105C85.9262 80.6044 96.3357 81.2717 106.674 81.9867C107.127 82.0105 107.127 81.2955 106.674 81.2717C96.2641 80.5567 85.8069 79.8894 75.4212 81.3194C74.9676 81.3671 75.1586 82.0582 75.6122 82.0105Z" fill="#E8E8E8"/>
<path d="M72.6516 92.6878C82.321 92.8308 91.9665 93.2836 101.588 94.0463C102.042 94.094 102.042 93.379 101.588 93.3313C91.9665 92.5448 82.321 92.0919 72.6516 91.9728C72.1741 91.9728 72.1741 92.6878 72.6516 92.6878Z" fill="#E8E8E8"/>
<path d="M69.7628 98.2172C80.4588 98.7177 91.1548 99.242 101.851 99.7425C102.304 99.7663 102.304 99.0513 101.851 99.0275C91.1548 98.527 80.4588 98.0027 69.7628 97.5022C69.3092 97.4783 69.3092 98.1933 69.7628 98.2172Z" fill="#E8E8E8"/>
<path d="M78.5966 88.4931C76.5672 93.3075 74.6333 98.1456 72.8427 103.055C72.6756 103.484 73.368 103.675 73.5351 103.246C75.3257 98.4078 77.2118 93.6173 79.2173 88.8745C79.3845 88.4455 78.7637 88.0641 78.5966 88.4931Z" fill="#E8E8E8"/>
<path d="M86.6902 89.3273C84.3266 94.0939 82.3688 99.0036 80.6737 104.009C80.5304 104.438 81.2228 104.628 81.3661 104.199C83.0373 99.242 84.9712 94.38 87.3109 89.6848C87.5258 89.2796 86.9051 88.9221 86.6902 89.3273Z" fill="#E8E8E8"/>
<path d="M95.7627 89.8994C93.0409 94.3085 91.0116 99.099 89.7462 104.128C89.6268 104.581 90.3192 104.771 90.4386 104.319C91.6801 99.3373 93.6856 94.6184 96.3835 90.2569C96.6222 89.8755 96.0014 89.518 95.7627 89.8994Z" fill="#E8E8E8"/>
<path d="M102.925 90.2329C100.681 94.5706 98.7709 99.0751 97.1952 103.723C97.0519 104.152 97.7443 104.342 97.8876 103.913C99.4394 99.3373 101.326 94.9043 103.546 90.6143C103.737 90.1853 103.14 89.8278 102.925 90.2329Z" fill="#E8E8E8"/>
<path d="M71.6491 94.4276C72.6996 94.9043 73.583 95.5478 74.3708 96.382C74.6812 96.7156 75.1826 96.2151 74.8722 95.8815C74.0605 94.9996 73.1055 94.3084 72.0072 93.8079C71.5775 93.6411 71.2193 94.2369 71.6491 94.4276Z" fill="#E8E8E8"/>
<path d="M74.8959 93.2122C73.3679 94.1178 72.0309 95.2618 70.9088 96.6203C70.6223 96.9778 71.1237 97.4783 71.4102 97.1208C72.5084 95.7862 73.7738 94.6898 75.254 93.8318C75.6599 93.5935 75.3018 92.9738 74.8959 93.2122Z" fill="#E8E8E8"/>
<path d="M84.4697 100.696C85.8067 101.482 86.9527 102.46 87.9555 103.627C88.242 103.985 88.7672 103.461 88.4569 103.127C87.4302 101.911 86.2126 100.887 84.8278 100.076C84.4458 99.8379 84.0877 100.458 84.4697 100.696Z" fill="#E8E8E8"/>
<path d="M88.5286 99.6949C87.0006 100.839 85.592 102.126 84.3027 103.532C83.9924 103.866 84.4937 104.39 84.8041 104.033C86.0456 102.65 87.4065 101.411 88.8868 100.291C89.2449 100.052 88.8868 99.4328 88.5286 99.6949Z" fill="#E8E8E8"/>
<path d="M77.8087 93.3552C79.0502 94.4992 80.2917 95.6193 81.5332 96.7633C81.8675 97.0732 82.3688 96.5727 82.0346 96.2628C80.7931 95.1188 79.5516 93.9987 78.3101 92.8547C77.9758 92.521 77.4745 93.0215 77.8087 93.3552Z" fill="#E8E8E8"/>
<path d="M81.8914 92.7831C80.1485 93.7841 78.6205 95.0711 77.379 96.6441C77.0925 97.0016 77.5939 97.5021 77.8804 97.1446C79.098 95.6193 80.5544 94.3799 82.2495 93.4028C82.6554 93.1644 82.2734 92.5448 81.8914 92.7831Z" fill="#E8E8E8"/>
<path d="M86.8336 98.1218C85.1146 97.1923 84.8759 94.8805 86.5232 93.6888C87.7647 92.807 90.2955 92.0681 91.2505 93.6888C92.0861 95.1426 91.0833 96.9063 89.8896 97.7881C88.0274 99.1466 86.7142 97.6451 85.8547 96.096C85.6399 95.6908 85.0191 96.0483 85.234 96.4535C86.3322 98.4316 88.099 99.9808 90.2955 98.384C91.919 97.2161 93.0411 94.7375 91.6563 92.9738C90.2238 91.1625 86.953 92.1158 85.5682 93.5458C84.0164 95.1665 84.5894 97.669 86.4755 98.6938C86.8814 98.956 87.2395 98.3363 86.8336 98.1218Z" fill="#E8E8E8"/>
<path d="M76.7106 74.3124C76.257 75.9569 76.1137 77.6252 76.3525 79.3412C76.4002 79.794 77.1404 79.794 77.0687 79.3412C76.8539 77.6967 76.9494 76.0999 77.403 74.503C77.5224 74.074 76.83 73.8834 76.7106 74.3124Z" fill="#E8E8E8"/>
<path d="M77.1642 74.7413C86.1412 73.7403 95.1898 73.502 104.215 74.0502C104.095 73.931 103.976 73.8118 103.856 73.6927C103.976 75.0988 103.952 76.4812 103.713 77.8635C103.642 78.3163 104.334 78.507 104.406 78.0542C104.644 76.6003 104.716 75.1703 104.573 73.6927C104.549 73.502 104.429 73.359 104.215 73.3352C95.1898 72.787 86.1412 73.0253 77.1642 74.0263C76.7106 74.074 76.7106 74.789 77.1642 74.7413Z" fill="#E8E8E8"/>
<path d="M77.8563 79.1028C86.4513 78.9121 95.0463 78.7215 103.641 78.5308C104.095 78.5308 104.095 77.8158 103.641 77.8158C95.0463 78.0065 86.4513 78.1971 77.8563 78.3878C77.4027 78.4116 77.4027 79.1266 77.8563 79.1028Z" fill="#E8E8E8"/>
<path d="M221.871 219.91C235.288 219.91 248.682 219.91 262.1 219.91C263.485 219.91 263.485 217.765 262.1 217.765C248.682 217.765 235.288 217.765 221.871 217.765C220.486 217.765 220.486 219.91 221.871 219.91Z" fill="#161616"/>
<path d="M266.97 219.91C269.859 219.91 272.724 219.91 275.613 219.91C276.998 219.91 276.998 217.765 275.613 217.765C272.724 217.765 269.859 217.765 266.97 217.765C265.586 217.765 265.586 219.91 266.97 219.91Z" fill="#161616"/>
<path d="M284.28 218.409C286.023 218.409 287.789 218.409 289.532 218.409C290.917 218.409 290.917 216.264 289.532 216.264C287.789 216.264 286.023 216.264 284.28 216.264C282.895 216.264 282.895 218.409 284.28 218.409Z" fill="#161616"/>
<path d="M267.353 237.928C283.397 237.928 299.44 237.928 315.484 237.928C316.869 237.928 316.869 235.783 315.484 235.783C299.44 235.783 283.397 235.783 267.353 235.783C265.968 235.783 265.968 237.928 267.353 237.928Z" fill="#161616"/>
<path d="M318.493 237.928C322.504 237.928 326.515 237.928 330.526 237.928C331.91 237.928 331.91 235.783 330.526 235.783C326.515 235.783 322.504 235.783 318.493 235.783C317.108 235.783 317.108 237.928 318.493 237.928Z" fill="#161616"/>
<path d="M338.046 237.571C343.944 237.571 349.817 237.571 355.714 237.571C357.099 237.571 357.099 235.426 355.714 235.426C349.817 235.426 343.944 235.426 338.046 235.426C336.662 235.426 336.662 237.571 338.046 237.571Z" fill="#161616"/>
<path d="M362.852 236.427C364.094 236.427 365.359 236.427 366.601 236.427C367.985 236.427 367.985 234.282 366.601 234.282C365.359 234.282 364.094 234.282 362.852 234.282C361.468 234.282 361.468 236.427 362.852 236.427Z" fill="#161616"/>
<path d="M36.3379 242.504C55.6766 242.027 75.0154 241.67 94.3541 241.455C99.8931 241.384 105.456 241.336 110.995 241.289C111.449 241.289 111.449 240.574 110.995 240.574C91.6562 240.717 72.3175 241.003 52.9787 241.408C47.4397 241.527 41.8769 241.646 36.3379 241.789C35.8604 241.813 35.8604 242.528 36.3379 242.504Z" fill="#161616"/>
<path d="M88.5525 246.484C103.212 245.865 117.895 245.96 132.53 246.77C132.984 246.794 132.984 246.079 132.53 246.055C117.895 245.245 103.212 245.15 88.5525 245.769C88.075 245.793 88.075 246.508 88.5525 246.484Z" fill="#161616"/>
<path d="M320.331 216.716C319.4 218.909 318.182 220.935 316.678 222.794C316.392 223.151 316.893 223.652 317.179 223.294C318.779 221.34 320.044 219.219 321.023 216.907C321.19 216.478 320.498 216.287 320.331 216.716Z" fill="#E8E8E8"/>
<path d="M324.843 216.192C322.957 220.363 320.259 224.105 316.893 227.227C316.559 227.537 317.06 228.037 317.394 227.727C320.808 224.581 323.53 220.792 325.464 216.55C325.655 216.144 325.034 215.787 324.843 216.192Z" fill="#E8E8E8"/>
<path d="M329.523 216.43C326.539 222.484 322.265 227.775 316.941 231.946C316.583 232.232 317.084 232.732 317.442 232.446C322.79 228.228 327.112 222.865 330.12 216.764C330.335 216.383 329.714 216.025 329.523 216.43Z" fill="#E8E8E8"/>
<path d="M333.892 216.621C330.645 222.508 326.61 227.87 321.835 232.613C321.501 232.947 322.026 233.447 322.336 233.114C327.135 228.347 331.242 222.913 334.489 216.979C334.751 216.573 334.131 216.216 333.892 216.621Z" fill="#E8E8E8"/>
<path d="M337.784 216.454C334.68 222.46 330.836 228.037 326.276 233.042C325.966 233.376 326.467 233.9 326.777 233.543C331.361 228.49 335.277 222.889 338.404 216.812C338.619 216.407 337.998 216.049 337.784 216.454Z" fill="#E8E8E8"/>
<path d="M340.935 216.478C338.094 222.532 334.393 228.156 329.929 233.138C329.618 233.471 330.12 233.996 330.43 233.638C334.942 228.585 338.691 222.937 341.556 216.812C341.771 216.43 341.15 216.049 340.935 216.478Z" fill="#E8E8E8"/>
<path d="M341.317 221.102C339.097 225.535 336.375 229.682 333.2 233.495C332.913 233.853 333.414 234.353 333.701 233.996C336.924 230.135 339.694 225.94 341.938 221.459C342.153 221.054 341.532 220.697 341.317 221.102Z" fill="#E8E8E8"/>
<path d="M132.698 16.3735C132.698 20.4252 132.698 24.4768 132.698 28.5047C132.698 28.9575 133.414 28.9575 133.414 28.5047C133.414 24.453 133.414 20.4013 133.414 16.3735C133.414 15.8968 132.698 15.8968 132.698 16.3735Z" fill="#E8E8E8"/>
<path d="M119.662 29.172C131.623 29.172 143.561 29.172 155.522 29.172C155.976 29.172 155.976 28.457 155.522 28.457C143.561 28.457 131.623 28.457 119.662 28.457C119.184 28.457 119.184 29.172 119.662 29.172Z" fill="#E8E8E8"/>
<path d="M144.874 30.0539C144.874 33.7957 144.874 37.5137 144.874 41.2555C144.874 41.7084 145.59 41.7084 145.59 41.2555C145.59 37.5137 145.59 33.7957 145.59 30.0539C145.59 29.601 144.874 29.601 144.874 30.0539Z" fill="#E8E8E8"/>
<path d="M126.204 42.5663C137.855 42.5663 149.482 42.5663 161.133 42.5663C161.586 42.5663 161.586 41.8513 161.133 41.8513C149.482 41.8513 137.855 41.8513 126.204 41.8513C125.75 41.8513 125.75 42.5663 126.204 42.5663Z" fill="#E8E8E8"/>
<path d="M125.535 42.8285C125.535 45.6408 125.535 48.4293 125.535 51.2417C125.535 51.6945 126.251 51.6945 126.251 51.2417C126.251 48.4293 126.251 45.6408 126.251 42.8285C126.251 42.3756 125.535 42.3518 125.535 42.8285Z" fill="#E8E8E8"/>
<path d="M298.772 142.07C306.006 142.07 313.216 142.07 320.45 142.07C320.904 142.07 320.904 141.355 320.45 141.355C313.216 141.355 306.006 141.355 298.772 141.355C298.294 141.355 298.294 142.07 298.772 142.07Z" fill="#E8E8E8"/>
<path d="M310.232 142.356C310.232 145.193 310.232 148.029 310.232 150.889C310.232 151.342 310.948 151.342 310.948 150.889C310.948 148.053 310.948 145.216 310.948 142.356C310.948 141.904 310.232 141.904 310.232 142.356Z" fill="#E8E8E8"/>
<path d="M297.124 151.246C305.457 151.246 313.765 151.246 322.098 151.246C322.551 151.246 322.551 150.531 322.098 150.531C313.765 150.531 305.457 150.531 297.124 150.531C296.671 150.531 296.671 151.246 297.124 151.246Z" fill="#E8E8E8"/>
<path d="M303.666 151.222C303.666 153.63 303.666 156.037 303.666 158.444C303.666 158.897 304.383 158.897 304.383 158.444C304.383 156.037 304.383 153.63 304.383 151.222C304.383 150.746 303.666 150.746 303.666 151.222Z" fill="#E8E8E8"/>
<path d="M319.424 151.532C319.424 153.939 319.424 156.347 319.424 158.754C319.424 159.207 320.14 159.207 320.14 158.754C320.14 156.347 320.14 153.939 320.14 151.532C320.14 151.079 319.424 151.079 319.424 151.532Z" fill="#E8E8E8"/>
<path d="M86.2605 220.196C97.0997 220.196 107.939 220.196 118.778 220.196C119.232 220.196 119.232 219.481 118.778 219.481C107.939 219.481 97.0997 219.481 86.2605 219.481C85.783 219.481 85.783 220.196 86.2605 220.196Z" fill="#E8E8E8"/>
<path d="M36.3379 220.649C43.1661 220.649 49.9944 220.649 56.8226 220.649C57.2762 220.649 57.2762 219.934 56.8226 219.934C49.9944 219.934 43.1661 219.934 36.3379 219.934C35.8604 219.934 35.8604 220.649 36.3379 220.649Z" fill="#E8E8E8"/>
<path d="M79.4323 164.069C90.2716 164.069 101.111 164.069 111.95 164.069C112.404 164.069 112.404 163.354 111.95 163.354C101.111 163.354 90.2716 163.354 79.4323 163.354C78.9548 163.354 78.9548 164.069 79.4323 164.069Z" fill="#E8E8E8"/>
<path d="M97.6011 164.355C97.6011 166.833 97.6011 169.336 97.6011 171.814C97.6011 172.267 98.3173 172.267 98.3173 171.814C98.3173 169.336 98.3173 166.833 98.3173 164.355C98.3173 163.902 97.6011 163.902 97.6011 164.355Z" fill="#E8E8E8"/>
<path d="M91.4653 172.172C99.9171 172.172 108.369 172.172 116.821 172.172C117.274 172.172 117.274 171.457 116.821 171.457C108.369 171.457 99.9171 171.457 91.4653 171.457C90.9878 171.457 90.9878 172.172 91.4653 172.172Z" fill="#E8E8E8"/>
<path d="M110.613 172.458C110.613 175.151 110.613 177.868 110.613 180.561C110.613 181.014 111.329 181.014 111.329 180.561C111.329 177.868 111.329 175.151 111.329 172.458C111.329 172.005 110.613 172.005 110.613 172.458Z" fill="#E8E8E8"/>
<path d="M286.023 222.746C295.215 222.746 304.383 222.746 313.574 222.746C314.028 222.746 314.028 222.031 313.574 222.031C304.383 222.031 295.215 222.031 286.023 222.031C285.545 222.031 285.545 222.746 286.023 222.746Z" fill="#E8E8E8"/>
<path d="M344.994 220.149C354.759 220.149 364.5 220.149 374.265 220.149C374.718 220.149 374.718 219.434 374.265 219.434C364.5 219.434 354.759 219.434 344.994 219.434C344.54 219.434 344.54 220.149 344.994 220.149Z" fill="#E8E8E8"/>
<path d="M251.213 152.343C251.213 156.919 251.213 161.518 251.213 166.094C251.213 166.547 251.929 166.547 251.929 166.094C251.929 161.518 251.929 156.919 251.929 152.343C251.929 151.866 251.213 151.866 251.213 152.343Z" fill="#E8E8E8"/>
<path d="M252.001 159.135C256.298 159.135 260.619 159.135 264.917 159.135C265.371 159.135 265.371 158.42 264.917 158.42C260.619 158.42 256.298 158.42 252.001 158.42C251.547 158.42 251.547 159.135 252.001 159.135Z" fill="#E8E8E8"/>
<path d="M264.129 154.059C264.129 158.349 264.129 162.663 264.129 166.953C264.129 167.405 264.845 167.405 264.845 166.953C264.845 162.663 264.845 158.349 264.845 154.059C264.845 153.582 264.129 153.582 264.129 154.059Z" fill="#E8E8E8"/>
<path d="M255.892 168.168C262.625 168.168 269.382 168.168 276.114 168.168C276.568 168.168 276.568 167.453 276.114 167.453C269.382 167.453 262.625 167.453 255.892 167.453C255.415 167.453 255.415 168.168 255.892 168.168Z" fill="#E8E8E8"/>
<path d="M269.74 169.097C269.74 172.386 269.74 175.675 269.74 178.988C269.74 179.441 270.456 179.441 270.456 178.988C270.456 175.699 270.456 172.41 270.456 169.097C270.456 168.621 269.74 168.621 269.74 169.097Z" fill="#E8E8E8"/>
<path d="M215.257 34.5106C215.257 41.9705 215.257 49.4303 215.257 56.8901C215.257 57.343 215.973 57.343 215.973 56.8901C215.973 49.4303 215.973 41.9705 215.973 34.5106C215.973 34.0578 215.257 34.0578 215.257 34.5106Z" fill="#E8E8E8"/>
<path d="M215.997 34.4629C227.744 34.4629 239.49 34.4629 251.213 34.4629C251.666 34.4629 251.666 33.7479 251.213 33.7479C239.466 33.7479 227.72 33.7479 215.997 33.7479C215.544 33.7479 215.544 34.4629 215.997 34.4629Z" fill="#E8E8E8"/>
<path d="M250.903 34.3915C250.903 41.7798 250.903 49.1682 250.903 56.5327C250.903 56.9855 251.619 56.9855 251.619 56.5327C251.619 49.1443 251.619 41.756 251.619 34.3915C251.619 33.9387 250.903 33.9387 250.903 34.3915Z" fill="#E8E8E8"/>
<path d="M215.925 57.486C227.791 57.486 239.681 57.486 251.547 57.486C252 57.486 252 56.771 251.547 56.771C239.681 56.771 227.791 56.771 215.925 56.771C215.472 56.771 215.472 57.486 215.925 57.486Z" fill="#E8E8E8"/>
<path d="M231.229 33.7242C231.11 33.0807 231.086 32.4372 231.205 31.7937C231.325 31.2217 231.611 30.0777 232.28 30.7927C232.614 31.1502 232.638 31.9367 232.733 32.3895C232.853 32.9854 232.972 33.605 233.092 34.2009C233.187 34.6537 233.879 34.463 233.784 34.0102C233.569 32.9615 233.474 31.7937 233.068 30.7927C232.853 30.2684 232.447 29.6487 231.802 29.6725C231.086 29.6964 230.8 30.459 230.632 31.0549C230.346 31.9844 230.346 32.9377 230.537 33.8672C230.609 34.3677 231.301 34.177 231.229 33.7242Z" fill="#E8E8E8"/>
<path d="M217.334 37.0847C217.334 42.8762 217.334 48.6677 217.334 54.4592C217.334 54.912 218.05 54.912 218.05 54.4592C218.05 48.6677 218.05 42.8762 218.05 37.0847C218.05 36.608 217.334 36.608 217.334 37.0847Z" fill="#E8E8E8"/>
<path d="M217.883 37.037C228.197 37.037 238.511 37.037 248.802 37.037C249.255 37.037 249.255 36.322 248.802 36.322C238.488 36.322 228.174 36.322 217.883 36.322C217.43 36.322 217.43 37.037 217.883 37.037Z" fill="#E8E8E8"/>
<path d="M248.849 36.4888C248.849 42.6616 248.849 48.8345 248.849 55.0073C248.849 55.4601 249.565 55.4601 249.565 55.0073C249.565 48.8345 249.565 42.6616 249.565 36.4888C249.565 36.036 248.849 36.036 248.849 36.4888Z" fill="#E8E8E8"/>
<path d="M218.265 54.9836C228.508 54.9836 238.75 54.9836 248.993 54.9836C249.446 54.9836 249.446 54.2686 248.993 54.2686C238.75 54.2686 228.508 54.2686 218.265 54.2686C217.812 54.2686 217.812 54.9836 218.265 54.9836Z" fill="#E8E8E8"/>
<path d="M217.859 48.763C222.539 47.4999 227.218 46.4035 232.017 47.762C235.981 48.906 239.61 51.0272 243.716 51.7184C244.17 51.7899 244.361 51.0987 243.907 51.0272C239.538 50.2884 235.718 47.9289 231.444 46.8802C226.789 45.7362 222.181 46.8564 217.692 48.0719C217.215 48.191 217.406 48.8822 217.859 48.763Z" fill="#E8E8E8"/>
<path d="M234.286 48.7154C238.702 48.2149 243.095 46.475 247.56 47.4045C248.014 47.4999 248.205 46.8087 247.751 46.7134C243.191 45.76 238.774 47.476 234.286 47.9765C233.832 48.048 233.832 48.7869 234.286 48.7154Z" fill="#E8E8E8"/>
<path d="M235.049 43.6388C234.5 43.1145 234.453 42.185 235.026 41.6606C235.646 41.0648 236.768 41.2316 237.246 41.9228C237.747 42.614 237.628 43.6626 236.983 44.2108C236.195 44.8781 235.145 44.3538 234.596 43.6626C234.333 43.3051 233.689 43.6626 233.975 44.0201C234.739 45.045 236.148 45.7123 237.294 44.8781C238.368 44.0916 238.535 42.4471 237.723 41.4223C237.007 40.5166 235.527 40.326 234.62 41.0648C233.665 41.8275 233.641 43.3528 234.524 44.187C234.882 44.4491 235.384 43.9486 235.049 43.6388Z" fill="#E8E8E8"/>
<path d="M263.485 202.655C264.249 201.082 265.514 199.151 267.567 198.579C270.719 197.697 272.963 200.843 277.666 203.131C286.166 207.278 293.567 204.18 294.26 206.492C294.809 208.327 290.392 211.306 287.527 212.736C281.773 215.596 270.91 217.908 265.896 211.783C265.156 210.877 263.103 208.041 263.485 202.655Z" fill="#161616" stroke="#161616" stroke-width="3" stroke-miterlimit="10"/>
<path d="M256.991 205.753C255.964 204.776 255.51 203.537 255.319 202.631C257.11 196.649 260.834 192.097 265.18 191.596C267.973 191.286 270.719 192.669 272.867 193.765C276.377 195.529 276.449 196.696 279.839 198.794C285.545 202.345 289.604 201.701 289.938 203.584C290.248 205.348 287.049 207.779 283.922 208.875C277.642 211.068 275.661 206.516 265.896 206.945C262.434 207.112 259.211 207.85 256.991 205.753Z" fill="#161616" stroke="#161616" stroke-width="3" stroke-miterlimit="10"/>
<path d="M213.92 166.857C214.397 169.812 215.138 174.603 215.902 180.514C218.814 202.726 217.644 205.968 221.13 210.591C229.176 221.269 247.106 219.457 248.515 219.29C258.733 218.123 265.657 212.76 268.427 210.353C266.851 207.612 265.275 204.895 263.699 202.154C255.821 202.226 247.942 202.321 240.039 202.393C241.734 196.291 243.716 186.043 242.021 173.578C240.732 164.045 237.771 156.513 235.288 151.461C228.794 151.937 221.297 153.01 213.132 155.179C209.193 156.227 205.54 157.419 202.173 158.658C202.006 163.163 201.791 169.574 201.672 177.296C201.266 206.516 202.937 212.522 207.139 215.572C209.193 217.05 212.774 217.169 219.841 217.312C232.137 217.574 242.546 214.357 254.699 210.591C257.444 209.733 259.665 208.994 261.025 208.542C260.333 203.084 259.617 197.65 258.924 192.192C254.078 193.503 249.016 194.742 243.764 195.934C238.726 197.054 233.832 198.055 229.081 198.913" fill="#195C99"/>
<path d="M211.317 170.623C213.8 171.552 214.23 174.674 214.469 176.962C214.803 180.037 214.994 183.111 215.185 186.21C215.567 192.24 215.973 198.293 217.477 204.156C217.597 204.609 218.289 204.418 218.17 203.966C216.451 197.268 216.188 190.357 215.734 183.517C215.543 180.585 215.472 177.558 214.851 174.674C214.421 172.672 213.538 170.718 211.508 169.955C211.079 169.789 210.888 170.48 211.317 170.623Z" fill="#281472"/>
<path d="M222.658 211.854C224.497 213.451 226.287 215.31 228.34 216.669C230.322 217.98 232.71 218.456 235.025 218.885C235.479 218.981 235.67 218.289 235.216 218.194C232.972 217.765 230.656 217.336 228.699 216.049C226.717 214.738 224.974 212.927 223.16 211.354C222.825 211.044 222.3 211.568 222.658 211.854Z" fill="#281472"/>
<path d="M240.445 199.938C243.047 199.986 245.578 200.462 248.013 201.344C248.443 201.511 248.634 200.82 248.204 200.653C245.698 199.747 243.095 199.271 240.445 199.223C239.968 199.199 239.968 199.914 240.445 199.938Z" fill="#281472"/>
<path opacity="0.58" d="M202.006 174.984C202.15 172.768 203.678 170.79 205.731 169.884C207.88 168.955 210.554 169.574 212.201 170.885C215.066 173.125 214.827 177.344 214.947 182.444C215.162 191.763 215.424 202.941 220.915 210.401C222.181 212.117 224.473 214.667 228.627 216.86C226.478 217.884 222.634 219.362 217.788 219.1C215.687 218.981 210.028 218.623 205.97 214.5C203.988 212.498 202.269 209.447 201.744 194.742C201.577 189.713 201.529 182.969 202.006 174.984Z" fill="#474747"/>
<path opacity="0.59" d="M241.066 196.72C247.011 195.195 252.956 193.67 258.901 192.144C259.259 195.433 259.593 198.746 259.951 202.035C257.253 201.296 254.197 200.605 250.879 200.057C247.035 199.437 243.501 199.128 240.35 199.008C240.588 198.246 240.827 197.483 241.066 196.72Z" fill="#474747"/>
<path d="M203.654 99.6234C203.582 97.9551 203.773 96.1199 204.871 95.5002C208.811 93.3076 223.207 107.441 230.274 123.099C233.044 129.248 236.434 139.52 235.694 153.606C224.759 155.608 213.848 157.634 202.914 159.636C201.051 156.514 197.9 151.771 193.053 146.766C188.207 141.761 186.368 141.379 184.291 137.733C179.85 129.916 182.238 121.026 182.835 118.785C183.623 115.878 185.342 109.633 191.31 104.795C196.109 100.887 201.266 99.9094 203.654 99.6234Z" fill="white" stroke="#161616" stroke-width="3" stroke-miterlimit="10"/>
<path opacity="0.36" d="M203.248 103.437C206.089 105.391 215.997 112.66 220.008 126.555C224.377 141.761 218.576 154.178 217.143 157.014C223.399 155.965 229.678 154.941 235.933 153.892C236.315 147.838 236.172 137.161 231.444 125.077C225.523 109.967 215.591 100.934 210.673 97.0017C208.19 99.1467 205.731 101.292 203.248 103.437Z" fill="#828181"/>
<path opacity="0.4" d="M228.317 119.834C228.723 122.146 229.2 125.53 229.391 129.677C229.725 136.994 229.988 142.214 227.409 147.552C226.407 149.65 224.186 153.368 219.364 156.752C224.831 155.751 230.274 154.774 235.742 153.773C236.004 148.792 235.79 141.832 233.76 133.896C232.256 128.2 230.227 123.457 228.317 119.834Z" fill="#828181"/>
<path d="M157.265 97.6452C158.936 100.076 160.44 102.078 161.658 103.604C164.642 107.393 165.788 108.37 167.388 108.704C168.749 108.99 170.038 108.752 170.802 108.585C172.927 108.156 173.786 107.298 175.195 106.63C177.057 105.772 177.797 106.201 183.838 106.273C188.207 106.321 187.729 106.082 191.645 106.154C195.083 106.225 197.924 106.44 199.929 106.63C199.356 106.178 198.783 105.749 198.234 105.296C197.446 105.081 195.154 104.366 193.364 102.126C191.883 100.267 191.525 98.3602 191.406 97.5022C191.907 97.3592 192.791 97.0017 193.364 96.1675C194.557 94.4039 193.316 91.9967 192.886 91.1864C192.361 90.1854 191.406 88.374 190.093 88.517C189.114 88.6124 188.183 89.7564 187.896 91.3055C185.652 92.0205 182.262 92.6879 178.752 91.5439C172.139 89.375 170.778 82.511 167.173 82.4157C164.833 82.3918 161.514 85.1089 157.265 97.6452Z" fill="white"/>
<path d="M156.62 96.5488C158.506 100.863 161.371 104.676 164.976 107.703C165.334 107.989 165.836 107.488 165.478 107.202C161.896 104.199 159.103 100.457 157.217 96.1913C157.05 95.7861 156.429 96.1436 156.62 96.5488Z" fill="#161616"/>
<path d="M168.08 101.697C168.295 102.912 168.558 104.104 168.868 105.296C169.154 106.321 169.369 107.56 169.895 108.489C170.635 109.8 172.998 108.18 173.762 107.584C174.12 107.298 173.619 106.797 173.261 107.083C172.736 107.488 171.685 108.299 170.969 108.203C170.181 108.108 169.99 106.559 169.799 105.963C169.369 104.509 169.035 103.032 168.772 101.53C168.677 101.053 167.985 101.244 168.08 101.697Z" fill="#161616"/>
<path d="M164.809 101.84C163.902 101.077 162.732 100.1 163.162 98.7653C162.971 98.813 162.756 98.8607 162.565 98.9322C163.496 99.8378 164.212 100.91 164.666 102.126C164.738 101.983 164.833 101.84 164.905 101.697C164.761 101.578 164.594 101.458 164.451 101.363C164.332 100.91 163.639 101.101 163.759 101.554C163.926 102.197 164.451 102.483 165.096 102.388C165.287 102.364 165.406 102.102 165.334 101.959C164.833 100.624 164.069 99.4565 163.042 98.4555C162.851 98.2648 162.517 98.3602 162.446 98.6223C161.944 100.219 163.138 101.458 164.284 102.388C164.642 102.626 165.167 102.126 164.809 101.84Z" fill="#161616"/>
<path d="M162.565 99.1943C163.138 100.076 163.711 100.958 164.284 101.84C164.523 102.221 165.143 101.864 164.905 101.482C164.332 100.6 163.759 99.7186 163.186 98.8368C162.947 98.4316 162.326 98.7891 162.565 99.1943Z" fill="#161616"/>
<path d="M173.357 98.1933C172.927 97.6928 172.473 97.1208 172.258 96.4773C172.187 96.2866 172.163 96.0721 172.163 95.8815C172.211 95.5716 172.282 95.5478 172.425 95.7861C172.664 95.8815 172.879 96.3343 173.022 96.5488C173.357 97.0493 173.667 97.5975 173.834 98.1456C173.93 98.4555 174.049 98.5031 173.715 98.3601C173.404 98.2171 173.118 97.8835 172.903 97.6451C172.593 97.2876 172.091 97.812 172.402 98.1456C172.784 98.5746 174.025 99.8378 174.526 98.8606C174.98 97.9788 173.858 96.4296 173.357 95.7861C172.927 95.238 171.9 94.1416 171.494 95.3571C171.088 96.5726 172.115 97.8358 172.831 98.67C173.142 99.0513 173.643 98.5508 173.357 98.1933Z" fill="#161616"/>
<path d="M171.781 95.9053C172.33 96.7871 172.879 97.669 173.428 98.5508C173.667 98.9321 174.287 98.5746 174.049 98.1933C173.547 97.383 173.118 96.5726 172.712 95.7146C172.521 95.8576 172.33 96.0006 172.139 96.1436C172.688 96.668 173.094 97.2876 173.356 98.0026C173.523 98.4316 174.216 98.241 174.049 97.812C173.738 96.9778 173.285 96.2628 172.64 95.6431C172.33 95.3571 171.9 95.7146 172.067 96.0721C172.473 96.9301 172.903 97.7643 173.404 98.5508C173.619 98.4316 173.81 98.3125 174.025 98.1933C173.476 97.3115 172.927 96.4296 172.377 95.5478C172.163 95.1665 171.542 95.524 171.781 95.9053Z" fill="#161616"/>
<path d="M190.905 99.6947C191.645 101.649 191.573 103.699 190.618 105.558C190.403 105.963 191.024 106.32 191.239 105.915C192.265 103.889 192.409 101.625 191.597 99.5041C191.43 99.0989 190.737 99.2657 190.905 99.6947Z" fill="#161616"/>
<path d="M153.755 82.2488C153.373 82.7731 149.911 87.6113 151.749 93.6888C153.564 99.6948 158.984 101.84 159.604 102.078C159.342 100.6 158.912 96.954 160.679 92.9023C162.78 88.0165 166.647 85.7285 167.889 85.0611C168.677 86.2051 171.661 90.2568 177.343 91.8536C182.429 93.2598 186.631 91.8536 188.016 91.3293C188.278 90.9003 189.281 89.4226 190.546 89.4703C192.361 89.5418 194.151 92.8308 193.077 95.0711C192.409 96.4773 190.833 96.954 190.403 97.0731C190.666 98.098 191.215 99.6471 192.409 101.196C194.414 103.842 197.04 104.867 198.544 105.462C200.025 106.034 212.129 110.634 219.34 103.055C223.231 98.9798 225.093 91.9966 222.539 87.2061C220.462 83.3451 216.809 83.3213 206.948 78.9598C195.13 73.7165 196.754 72.1196 189.758 69.9031C186.106 68.7353 172.664 64.4691 162.159 71.7621C157.36 75.075 154.925 79.5556 153.755 82.2488Z" fill="#EC615B"/>
<path d="M148.55 122.718C148.455 121.335 148.407 117.355 151.009 113.709C154.996 108.132 161.872 108.013 163.042 107.989C165.119 107.941 167.865 108.299 174.216 111.778C178.346 114.042 184.005 117.594 190.045 123.147C191.573 123.242 194.104 123.576 196.706 125.077C199.476 126.65 204.609 130.797 203.51 135.254C202.89 137.78 200.335 140.235 197.9 140.116C193.984 139.925 191.454 133.204 190.642 133.61C189.997 133.919 191.955 137.923 191.095 138.472C190.308 138.972 187.204 136.565 185.771 133.3C184.601 130.678 184.792 128.199 185.031 126.793C179.301 124.1 169.847 120.716 158.148 121.312C154.567 121.526 151.367 122.05 148.55 122.718Z" fill="white" stroke="#161616" stroke-width="3" stroke-miterlimit="10"/>
<path opacity="0.34" d="M148.598 122.241C149.457 117.617 151.487 115.496 152.657 114.567C159.986 108.656 173.882 115.782 178.012 117.88C182.882 120.358 186.535 123.385 188.302 124.934C191.836 128.056 190.952 128.247 195.775 132.823C199.094 135.969 201.457 137.757 200.98 139.044C200.574 140.092 198.568 140.188 198.377 140.188C193.722 140.354 190.522 133.157 190.379 132.823C191.525 136.994 191.31 138.257 190.785 138.519C189.782 139.044 186.822 136.279 185.58 133.014C184.601 130.44 184.888 128.033 185.174 126.674C181.617 125.077 177.105 123.48 171.781 122.432C162.207 120.573 154.041 121.288 148.598 122.241Z" fill="#828181"/>
<path d="M128.925 124.672C128.161 128.747 127.206 137.351 131.097 146.742C138.403 164.402 156.524 169.598 158.96 170.241C159.031 173.03 159.127 175.842 159.198 178.631C154.758 180.728 148.192 184.398 141.65 190.619C136.804 195.242 128.352 203.489 125.081 217.002C123.075 225.273 123.672 232.732 124.842 238.357C153.683 238.834 182.5 239.31 211.341 239.787C212.272 234.353 213.299 223.533 208.691 211.497C200.454 189.975 180.757 181.61 176.985 180.084C176.914 176.319 176.818 172.577 176.746 168.811C180.447 168.001 189.018 165.618 196.205 158.015C208.19 145.359 206.375 128.795 206.065 126.364C180.328 125.792 154.614 125.244 128.925 124.672Z" fill="white" stroke="#161616" stroke-width="3" stroke-miterlimit="10"/>
<path d="M133.533 151.151C135.896 152.438 138.427 153.415 141.125 153.796C143.083 154.059 144.945 153.892 146.903 153.677C149.386 153.391 151.845 153.177 154.304 152.748C156.811 152.319 159.198 151.58 161.681 151.032C162.35 150.889 162.971 150.817 163.639 150.96C164.952 151.222 165.716 152.033 166.719 152.795C168.104 153.844 169.894 153.773 171.327 152.915C172.091 152.438 172.783 151.842 173.547 151.389C174.669 150.722 175.911 150.388 177.224 150.293C178.633 150.198 180.065 150.293 181.45 150.555C183.097 150.865 184.554 151.532 186.129 152.033C189.233 153.034 190.188 149.721 192.6 148.601C195.488 147.242 199.476 147.385 202.508 148.029C202.961 148.124 203.152 147.433 202.699 147.338C200.072 146.766 197.494 146.789 194.844 147.242C193.722 147.433 192.647 147.695 191.668 148.291C190.546 148.982 189.902 150.031 188.947 150.889C187.562 152.128 185.962 151.175 184.506 150.627C183.193 150.15 181.808 149.84 180.399 149.673C178.06 149.387 175.577 149.483 173.452 150.627C171.709 151.58 170.205 153.487 168.008 152.676C167.053 152.319 166.456 151.437 165.597 150.936C164.905 150.507 164.069 150.245 163.257 150.174C161.705 150.055 160.106 150.722 158.602 151.103C155.76 151.818 152.848 152.295 149.911 152.605C147.619 152.843 145.255 153.272 142.94 153.201C139.74 153.105 136.684 152.033 133.915 150.507C133.485 150.293 133.127 150.913 133.533 151.151Z" fill="#161616"/>
<path d="M159.318 175.771C159.7 176.676 160.082 177.63 160.726 178.392C161.132 178.893 161.753 179.274 162.016 179.918C162.278 180.585 162.278 181.467 162.374 182.182C162.684 184.637 163.018 187.092 164.045 189.38C164.236 189.809 164.857 189.427 164.666 189.022C163.544 186.567 163.329 183.898 162.971 181.252C162.851 180.394 162.804 179.513 162.183 178.845C161.228 177.797 160.583 176.939 160.01 175.58C159.843 175.151 159.151 175.342 159.318 175.771Z" fill="#161616"/>
<path d="M174.932 177.844C173.882 177.034 173.07 178.535 172.688 179.346C172.306 180.108 172.019 180.895 171.828 181.705C171.614 182.635 171.661 183.707 171.232 184.565C170.826 185.447 170.157 186.186 169.775 187.092C169.417 187.902 169.154 188.76 168.916 189.618C168.367 191.763 168.056 193.979 167.674 196.148C167.603 196.601 168.295 196.792 168.367 196.339C168.94 193.074 169.226 189.427 170.873 186.496C171.255 185.828 171.757 185.256 172.019 184.541C172.21 184.041 172.234 183.517 172.306 183.016C172.378 182.492 173.715 177.797 174.431 178.345C174.765 178.631 175.29 178.13 174.932 177.844Z" fill="#161616"/>
<path d="M167.268 205.92C167.053 205.539 166.838 205.086 166.934 204.657C167.077 203.989 167.817 203.894 168.056 204.538C168.342 205.3 167.889 206.182 167.363 206.683C167.507 206.659 167.65 206.635 167.793 206.635C167.507 206.42 167.22 206.206 166.958 206.015C166.576 205.729 166.241 206.373 166.599 206.635C166.886 206.849 167.172 207.064 167.435 207.255C167.554 207.35 167.769 207.302 167.865 207.207C168.724 206.373 169.512 204.132 168.008 203.465C167.411 203.203 166.743 203.513 166.409 204.061C165.979 204.776 166.265 205.634 166.647 206.301C166.862 206.683 167.483 206.325 167.268 205.92Z" fill="#161616"/>
<path d="M165.382 214.119C165.215 213.785 164.952 213.332 165.024 212.927C165.072 212.689 165.382 212.355 165.621 212.569C165.86 212.76 165.883 213.332 165.812 213.594C165.74 213.833 165.334 214.238 165.119 213.928C164.857 213.57 164.236 213.928 164.499 214.285C164.881 214.834 165.669 214.881 166.17 214.405C166.719 213.88 166.671 212.832 166.265 212.236C165.86 211.64 165.072 211.735 164.642 212.236C164.021 212.903 164.403 213.833 164.761 214.524C164.976 214.881 165.597 214.524 165.382 214.119Z" fill="#161616"/>
<path d="M168.844 216.955C168.534 216.716 168.844 215.93 169.274 216.168C169.465 216.264 169.584 216.55 169.536 216.764C169.465 217.074 169.059 217.026 168.892 216.859C168.558 216.526 168.056 217.05 168.39 217.36C168.892 217.837 169.823 217.837 170.157 217.169C170.42 216.621 170.181 215.93 169.704 215.596C169.178 215.239 168.51 215.453 168.199 216.001C167.889 216.55 167.985 217.217 168.51 217.574C168.844 217.837 169.202 217.217 168.844 216.955Z" fill="#161616"/>
<path d="M145.375 238.762C147.356 237.166 149.338 235.569 151.32 233.972C152.275 233.209 153.182 232.399 154.208 231.732C155.235 231.064 156.357 230.754 157.503 230.325C161.084 228.943 164.236 223.009 168.342 226.727C169.679 227.918 170.778 228.967 172.521 229.539C174.502 230.182 176.46 230.564 178.346 231.493C181.975 233.281 184.936 236.165 186.917 239.668C187.132 240.073 187.753 239.716 187.538 239.311C186.01 236.57 183.909 234.234 181.33 232.423C180.089 231.541 178.728 230.802 177.319 230.23C175.696 229.563 174.001 229.301 172.353 228.705C169.393 227.632 167.865 223.867 164.26 224.963C162.803 225.416 161.634 226.393 160.511 227.394C159.843 227.99 159.174 228.586 158.41 229.062C157.432 229.682 156.309 229.896 155.259 230.349C153.588 231.064 152.203 232.327 150.794 233.448C148.813 235.044 146.831 236.641 144.849 238.238C144.515 238.548 145.017 239.048 145.375 238.762Z" fill="#161616"/>
<path d="M176.317 174.174C176.054 176.104 175.768 178.011 175.505 179.942C175.267 181.681 175.243 183.731 174.455 185.352C174.622 185.304 174.789 185.256 174.956 185.233C174.288 184.78 174.741 182.539 174.741 181.872C174.765 180.704 174.789 179.56 174.813 178.392C174.813 177.94 174.097 177.94 174.097 178.392C174.049 180.085 174.025 181.777 173.977 183.493C173.953 184.351 173.786 185.304 174.574 185.852C174.717 185.948 174.98 185.9 175.076 185.733C175.84 184.16 175.911 182.325 176.15 180.609C176.436 178.535 176.747 176.462 177.033 174.388C177.057 173.912 176.365 173.721 176.317 174.174Z" fill="#161616"/>
<path d="M158.983 171.147C158.601 173.173 158.888 175.127 159.795 176.962C160.01 177.368 160.607 177.01 160.416 176.605C159.604 174.937 159.342 173.149 159.676 171.338C159.747 170.885 159.055 170.694 158.983 171.147Z" fill="#161616"/>
<path d="M145.852 161.042C150.198 164.212 155.569 165.427 160.106 168.216C160.488 168.454 160.87 167.834 160.464 167.596C155.904 164.807 150.532 163.592 146.21 160.422C145.828 160.136 145.47 160.756 145.852 161.042Z" fill="#161616"/>
<path d="M159.771 164.736C161.92 166.047 163.424 168.049 164.069 170.504C164.188 170.956 164.881 170.766 164.761 170.313C164.093 167.691 162.469 165.522 160.153 164.116C159.747 163.878 159.389 164.498 159.771 164.736Z" fill="#161616"/>
<path d="M172.162 173.745C173.308 170.599 174.813 167.429 177.606 165.427C177.988 165.165 177.63 164.545 177.248 164.807C174.287 166.952 172.688 170.194 171.47 173.554C171.327 174.007 172.019 174.174 172.162 173.745Z" fill="#161616"/>
<path d="M150.627 237.094C153.063 234.425 156.19 232.589 159.7 231.731C160.153 231.636 159.962 230.945 159.509 231.04C155.88 231.898 152.633 233.829 150.126 236.57C149.816 236.951 150.317 237.451 150.627 237.094Z" fill="#161616"/>
<path d="M156.118 234.854C157.837 234.091 159.556 233.328 161.275 232.566C161.705 232.375 161.323 231.755 160.917 231.946C159.198 232.709 157.479 233.471 155.76 234.234C155.354 234.425 155.713 235.044 156.118 234.854Z" fill="#161616"/>
<path d="M170.372 225.964C172.473 227.894 175.863 227.227 177.797 229.324C178.107 229.658 178.609 229.157 178.298 228.824C176.317 226.679 172.974 227.37 170.873 225.463C170.539 225.13 170.038 225.654 170.372 225.964Z" fill="#161616"/>
<path d="M124.866 240.883C147.428 240.883 169.99 240.883 192.576 240.883C198.926 240.883 205.301 240.883 211.652 240.883C214.421 240.883 214.421 236.593 211.652 236.593C189.09 236.593 166.528 236.593 143.942 236.593C137.592 236.593 131.217 236.593 124.866 236.593C122.097 236.593 122.097 240.883 124.866 240.883Z" fill="#161616"/>
<path d="M128.257 126.15C148.598 126.15 168.94 126.15 189.281 126.15C195.011 126.15 200.717 126.15 206.447 126.15C209.217 126.15 209.217 121.86 206.447 121.86C186.106 121.86 165.764 121.86 145.423 121.86C139.693 121.86 133.987 121.86 128.257 121.86C125.487 121.86 125.487 126.15 128.257 126.15Z" fill="#161616"/>
<path d="M122.431 121.86C120.76 121.86 119.088 121.86 117.417 121.86C114.648 121.86 114.648 126.15 117.417 126.15C119.088 126.15 120.76 126.15 122.431 126.15C125.2 126.15 125.2 121.86 122.431 121.86Z" fill="#161616"/>
<path d="M108.034 125.673C108.679 125.673 109.324 125.673 109.968 125.673C111.09 125.673 112.165 124.696 112.117 123.528C112.069 122.36 111.162 121.383 109.968 121.383C109.324 121.383 108.679 121.383 108.034 121.383C106.912 121.383 105.838 122.36 105.886 123.528C105.933 124.672 106.817 125.673 108.034 125.673Z" fill="#161616"/>
<path d="M216.642 240.574C220.032 240.574 223.446 240.574 226.836 240.574C229.606 240.574 229.606 236.284 226.836 236.284C223.446 236.284 220.032 236.284 216.642 236.284C213.872 236.284 213.872 240.574 216.642 240.574Z" fill="#161616"/>
<path d="M234.142 241.05C234.739 241.05 235.336 241.05 235.933 241.05C237.055 241.05 238.129 240.073 238.081 238.905C238.034 237.737 237.126 236.76 235.933 236.76C235.336 236.76 234.739 236.76 234.142 236.76C233.02 236.76 231.945 237.737 231.993 238.905C232.041 240.073 232.924 241.05 234.142 241.05Z" fill="#161616"/>
<path d="M158.96 170.408C158.793 172.053 158.649 173.721 158.984 175.342C159.342 177.058 160.416 178.273 161.204 179.799C162.111 181.515 162.374 183.588 162.804 185.447C163.257 187.425 163.711 189.403 164.164 191.382C164.379 192.287 165.74 191.906 165.549 191C165.119 189.094 164.666 187.187 164.236 185.28C163.83 183.517 163.544 181.658 162.875 179.989C162.278 178.488 161.061 177.272 160.559 175.723C160.01 174.007 160.225 172.148 160.392 170.408C160.488 169.503 159.055 169.503 158.96 170.408Z" fill="#161616"/>
<path d="M155.713 169.693C157.026 170.313 158.363 170.504 159.795 170.265C160.703 170.122 160.321 168.74 159.413 168.883C158.387 169.05 157.36 168.907 156.429 168.454C155.593 168.049 154.877 169.288 155.713 169.693Z" fill="#161616"/>
<path d="M173.404 177.916C172.258 178.726 171.685 179.894 171.422 181.229C171.231 182.134 171.184 183.064 170.921 183.969C170.658 184.875 170.229 185.709 169.799 186.567C168.199 189.785 166.6 193.193 167.053 196.863C167.173 197.769 168.605 197.769 168.486 196.863C168.056 193.407 169.536 190.285 171.04 187.282C171.685 185.995 172.282 184.732 172.521 183.326C172.783 181.872 172.807 180.085 174.12 179.155C174.884 178.607 174.168 177.368 173.404 177.916Z" fill="#161616"/>
<path d="M159.461 209.852C160.392 209.852 160.392 208.422 159.461 208.422C158.554 208.422 158.554 209.852 159.461 209.852Z" fill="#161616"/>
<path d="M156.883 221.65C157.814 221.65 157.814 220.22 156.883 220.22C155.952 220.22 155.952 221.65 156.883 221.65Z" fill="#161616"/>
<path d="M164.26 194.313C164.332 194.79 164.403 195.29 164.475 195.767C164.523 196.148 165.024 196.363 165.358 196.267C165.764 196.148 165.907 195.767 165.86 195.386C165.788 194.909 165.716 194.408 165.645 193.932C165.597 193.55 165.096 193.336 164.761 193.431C164.356 193.55 164.212 193.932 164.26 194.313Z" fill="#161616"/>
<path d="M167.984 200.414C167.984 200.462 167.984 200.534 167.984 200.581C167.984 200.963 168.319 201.32 168.701 201.296C169.083 201.272 169.417 200.986 169.417 200.581C169.417 200.534 169.417 200.462 169.417 200.414C169.417 200.033 169.083 199.676 168.701 199.699C168.319 199.723 167.984 200.009 167.984 200.414Z" fill="#161616"/>
<path d="M187.681 152.486C189.973 151.628 191.788 149.959 193.984 148.934C196.682 147.695 199.523 149.197 202.197 148.172C203.057 147.838 202.675 146.456 201.815 146.789C200.359 147.338 198.879 147.028 197.351 146.932C196.085 146.837 194.892 147.004 193.722 147.481C191.43 148.41 189.591 150.221 187.275 151.103C186.464 151.437 186.822 152.819 187.681 152.486Z" fill="#161616"/>
<path d="M192.05 194.694C189.878 195.624 191.716 197.912 192.719 198.913C194.772 200.963 196.611 203.227 198.21 205.634C201.338 210.329 203.51 215.596 204.68 221.102C204.776 221.555 205.468 221.364 205.373 220.911C204.37 216.24 202.651 211.735 200.263 207.588C199.117 205.586 197.804 203.68 196.348 201.892C195.608 200.986 194.844 200.105 194.032 199.247C193.316 198.508 190.451 196.148 192.409 195.314C192.838 195.123 192.456 194.504 192.05 194.694Z" fill="#161616"/>
<path d="M194.701 196.53C201.935 202.536 204.871 211.711 207.521 220.387C207.665 220.816 208.357 220.649 208.214 220.196C205.516 211.402 202.532 202.107 195.202 196.005C194.844 195.719 194.342 196.22 194.701 196.53Z" fill="#161616"/>
<path d="M204.991 223.485C205.444 224.128 205.993 224.891 206.853 224.963C207.521 225.01 208.238 224.629 208.333 223.914C208.405 223.461 207.712 223.271 207.641 223.723C207.569 224.176 207.092 224.343 206.686 224.2C206.208 224.033 205.874 223.533 205.611 223.128C205.349 222.746 204.728 223.104 204.991 223.485Z" fill="#161616"/>
<path d="M206.399 233.543C207.474 234.019 208.811 233.686 209.384 232.613C209.933 231.588 209.503 230.182 208.5 229.61C207.474 229.038 206.065 229.443 205.468 230.444C204.871 231.493 205.301 232.828 206.256 233.471C206.638 233.733 206.996 233.114 206.614 232.852C205.97 232.423 205.683 231.493 206.089 230.802C206.471 230.135 207.45 229.849 208.142 230.23C208.835 230.587 209.121 231.565 208.763 232.256C208.405 232.971 207.45 233.233 206.757 232.923C206.352 232.732 205.97 233.352 206.399 233.543Z" fill="#161616"/>
<path d="M133.27 129.796C133.509 140.831 138.117 151.532 145.995 159.254C146.33 159.588 146.831 159.064 146.497 158.754C138.737 151.151 134.201 140.64 133.986 129.796C133.962 129.343 133.246 129.343 133.27 129.796Z" fill="#161616"/>
<path d="M134.034 129.486C133.414 128.867 132.53 128.891 131.862 129.439C130.978 130.178 131.074 131.512 131.169 132.561C131.408 135.683 132.029 138.758 132.96 141.737C134.822 147.647 137.95 153.129 142.08 157.729C142.391 158.063 142.892 157.562 142.582 157.228C139.215 153.487 136.541 149.197 134.703 144.525C133.819 142.333 133.151 140.045 132.65 137.733C132.387 136.47 132.172 135.206 132.029 133.943C131.957 133.347 131.886 132.775 131.862 132.18C131.838 131.917 131.814 131.655 131.838 131.417C131.862 130.845 132.482 128.938 133.533 130.011C133.867 130.321 134.369 129.796 134.034 129.486Z" fill="#161616"/>
<path opacity="0.25" d="M206.566 126.531C206.59 127.294 186.01 128.533 144.85 130.297C144.133 133.538 143.656 137.971 144.85 142.881C148.67 158.73 165.907 164.831 167.626 165.403C167.841 171.505 168.08 177.63 168.295 183.731C166.456 184.422 164.045 185.471 161.395 187.068C159.7 188.093 155.665 190.714 151.917 194.98C149.792 197.411 142.963 205.229 142.414 217.074C142.08 224.105 144.109 229.777 145.733 233.185C165.119 234.282 184.53 235.402 203.916 236.498C177.511 236.713 151.129 236.951 124.723 237.165C123.887 231.851 123.099 221.674 127.373 210.234C128.161 208.16 134.703 191.429 152.155 181.967C154.925 180.466 157.336 179.489 159.007 178.869C158.936 175.914 158.864 172.982 158.793 170.027C156.381 169.407 152.8 168.263 148.837 166.047C146.521 164.76 131.145 155.846 128.256 138.448C127.803 135.683 127.421 131.322 128.471 125.864C180.519 125.459 206.543 125.673 206.566 126.531Z" fill="#474747"/>
<path opacity="0.3" d="M171.852 125.935C159.461 127.675 147.07 129.415 134.679 131.131C135.013 135.254 136.302 143.763 142.152 152.39C149.386 163.044 159.198 167.429 162.995 168.907C163.209 173.435 163.448 177.963 163.663 182.492C155.569 184.065 150.245 187.354 147.333 189.499C145.399 190.929 127.922 203.703 129.88 222.079C130.214 225.249 131.36 230.683 135.753 236.689C131.981 236.736 128.233 236.784 124.46 236.808C123.696 230.969 123.004 218.933 129.259 206.516C134.034 197.078 140.862 191.286 144.826 187.997C150.15 183.588 155.235 180.728 158.96 178.94C159.079 176.009 159.222 173.078 159.342 170.146C154.591 169.145 145.112 166.404 137.806 157.967C137.281 157.371 135.467 155.226 133.652 152.009C128.352 142.619 127.994 132.799 128.495 126.388C142.987 126.221 157.432 126.078 171.852 125.935Z" fill="#474747"/>
<path d="M158.411 115.711C150.938 121.145 145.184 127.842 145.733 128.509C145.996 128.843 147.452 128.414 152.848 124.958C151.917 125.506 149.72 126.913 148.574 129.653C148.24 130.464 147.142 132.728 148.144 134.206C149.219 135.755 152.06 135.612 153.898 134.992C157.456 133.8 159.151 130.106 159.342 130.249C159.628 130.44 155.665 136.088 156.238 136.541C156.835 137.042 163.042 131.775 167.794 124.386C169.25 122.122 170.253 120.144 170.921 118.69C175.147 118.785 180.376 119.143 186.297 120.12C196.993 121.86 201.075 124.148 208.357 122.956C212.822 122.241 220.056 119.953 220.319 116.569C220.653 112.374 210.196 108.513 207.927 107.679C190.69 101.316 174.526 107.202 171.9 108.203C165.358 110.706 160.846 113.947 158.411 115.711Z" fill="white" stroke="#161616" stroke-width="3" stroke-miterlimit="10"/>
<path d="M147.547 133.824C147.667 134.063 147.738 134.11 147.953 134.253C148.073 134.349 148.288 134.301 148.383 134.206C150.747 131.393 152.8 128.128 156.166 126.388C156.572 126.174 156.214 125.554 155.808 125.769C152.37 127.532 150.293 130.821 147.882 133.705C148.025 133.681 148.168 133.657 148.311 133.657C148.264 133.586 148.216 133.538 148.168 133.467C147.953 133.062 147.333 133.419 147.547 133.824Z" fill="#161616"/>
<path d="M149.792 135.659C151.248 135.993 152.585 134.015 153.445 133.085C154.853 131.56 156.19 130.035 158.029 128.986C158.435 128.748 158.076 128.152 157.671 128.366C156.286 129.153 155.164 130.202 154.089 131.346C153.54 131.941 153.015 132.537 152.442 133.133C151.917 133.705 150.818 135.159 149.983 134.968C149.529 134.873 149.338 135.564 149.792 135.659Z" fill="#161616"/>
<path opacity="0.33" d="M147.643 131.179C153.373 127.151 154.758 126.221 154.782 126.269C154.829 126.317 152.537 127.699 150.556 130.345C149.553 131.703 148.908 132.99 148.502 133.944C148.574 134.087 148.789 134.468 149.219 134.706C149.768 135.016 150.269 134.944 150.436 134.921C150.58 134.849 150.794 134.73 151.033 134.563C151.869 134.015 152.37 133.372 152.561 133.157C152.657 133.038 154.161 131.155 154.853 130.416C155.474 129.749 156.524 128.891 158.243 128.271C156.835 130.416 155.402 132.585 153.994 134.73C155.45 134.015 156.405 133.205 157.002 132.585C157.599 131.989 157.79 131.632 158.864 130.297C159.867 129.058 160.607 128.271 160.894 127.937C163.4 125.077 167.149 118.261 169.536 115.973C174.646 111.04 182.882 115.067 199.141 115.187C207.354 115.258 214.159 114.233 218.838 113.304C219.244 113.59 220.008 114.233 220.295 115.282C220.295 115.282 220.653 116.593 219.745 118.237C218.743 120.096 213.729 123.433 203.057 123.147C194.342 122.909 191.692 120.525 180.017 119.215C176.102 118.786 172.879 118.666 170.826 118.619C168.892 123.195 166.671 126.555 164.928 128.819C161.085 133.848 156.739 137.352 156.095 136.875C156.047 136.851 155.928 136.732 155.856 136.518C155.689 136.041 156.047 135.493 156.238 135.207C156.596 134.635 157.05 133.872 157.623 132.776C157.241 133.252 156.62 133.896 155.713 134.444C153.254 135.945 149.243 136.422 147.882 134.468C147.691 134.23 147.07 133.229 147.643 131.179Z" fill="#828181"/>
<path opacity="0.51" d="M174.168 118.595C174.192 118.38 179.659 118.523 185.7 118.833C201.386 119.643 205.492 120.787 211.556 118.595C215.376 117.212 218.098 115.187 219.578 113.947C220.032 114.829 220.509 116.14 220.151 117.451C219.268 120.644 214.135 121.693 210.816 122.36C208.978 122.742 205.85 123.195 200.908 122.766C196.515 122.408 194.772 121.693 190.117 120.716C180.805 118.785 174.144 118.809 174.168 118.595Z" fill="#828181"/>
<path d="M168.676 95.2955C169.538 93.6797 171.159 92.6537 172.591 92.7319C172.918 92.7409 173.064 92.174 172.75 92.148C171.08 92.0479 169.198 93.3073 168.215 95.1554C168.026 95.5254 168.487 95.6655 168.676 95.2955Z" fill="#161616"/>
<path d="M160.57 97.3001C161.346 96.3974 162.579 95.8978 163.993 95.9105C164.377 95.9095 164.272 95.4381 163.888 95.4391C162.333 95.4251 160.927 96.0145 160.08 97.0036C159.868 97.247 160.358 97.5435 160.57 97.3001Z" fill="#161616"/>
<path d="M173.241 103.485C173.257 103.485 173.273 103.485 173.305 103.485C173.434 103.485 173.546 103.372 173.546 103.243C173.546 103.113 173.434 103 173.305 103C173.289 103 173.273 103 173.241 103C173.112 103 173 103.113 173 103.243C173.016 103.372 173.112 103.485 173.241 103.485Z" fill="#161616"/>
<path d="M176.241 104.485C176.257 104.485 176.273 104.485 176.305 104.485C176.434 104.485 176.546 104.372 176.546 104.243C176.546 104.113 176.434 104 176.305 104C176.289 104 176.273 104 176.241 104C176.112 104 176 104.113 176 104.243C176.016 104.372 176.112 104.485 176.241 104.485Z" fill="#161616"/>
<path d="M165.241 106.485C165.257 106.485 165.273 106.485 165.305 106.485C165.434 106.485 165.546 106.372 165.546 106.243C165.546 106.113 165.434 106 165.305 106C165.289 106 165.273 106 165.241 106C165.112 106 165 106.113 165 106.243C165.016 106.372 165.112 106.485 165.241 106.485Z" fill="#161616"/>
<path d="M167.241 105.485C167.257 105.485 167.273 105.485 167.305 105.485C167.434 105.485 167.546 105.372 167.546 105.243C167.546 105.113 167.434 105 167.305 105C167.289 105 167.273 105 167.241 105C167.112 105 167 105.113 167 105.243C167.016 105.372 167.112 105.485 167.241 105.485Z" fill="#161616"/>
<path d="M177.241 102.485C177.257 102.485 177.273 102.485 177.305 102.485C177.434 102.485 177.546 102.372 177.546 102.243C177.546 102.113 177.434 102 177.305 102C177.289 102 177.273 102 177.241 102C177.112 102 177 102.113 177 102.243C177.016 102.372 177.112 102.485 177.241 102.485Z" fill="#161616"/>
<path d="M168.241 107.485C168.257 107.485 168.273 107.485 168.305 107.485C168.434 107.485 168.546 107.372 168.546 107.243C168.546 107.113 168.434 107 168.305 107C168.289 107 168.273 107 168.241 107C168.112 107 168 107.113 168 107.243C168.016 107.372 168.112 107.485 168.241 107.485Z" fill="#161616"/>
</g>
<defs>
<clipPath id="clip0">
<rect width="382" height="286" fill="white"/>
</clipPath>
</defs>
</svg>
