<svg width="409" height="306" viewBox="0 0 409 306" fill="none" xmlns="http://www.w3.org/2000/svg">
<path d="M350.615 260.151C338.038 260.712 325.462 260.992 312.885 260.967C312.399 260.967 312.399 260.202 312.885 260.202C325.462 260.227 338.038 259.947 350.615 259.386C351.101 259.36 351.101 260.125 350.615 260.151Z" fill="#E8E8E8"/>
<path d="M312.118 241.179C310.15 248.548 308.309 255.969 306.622 263.415C306.52 263.899 305.779 263.695 305.881 263.211C307.594 255.765 309.408 248.344 311.377 240.975C311.505 240.516 312.246 240.72 312.118 241.179Z" fill="#E8E8E8"/>
<path d="M277.864 241.74C278.58 248.752 279.296 255.79 279.986 262.803C280.037 263.287 279.27 263.287 279.219 262.803C278.503 255.79 277.788 248.752 277.098 241.74C277.072 241.255 277.839 241.255 277.864 241.74Z" fill="#E8E8E8"/>
<path d="M306.418 264.103C301.944 264.894 297.42 265.251 292.869 265.123C288.524 264.996 283.769 264.664 279.628 263.287C279.168 263.134 279.372 262.395 279.833 262.548C283.948 263.899 288.575 264.231 292.869 264.358C297.343 264.486 301.816 264.129 306.213 263.364C306.699 263.262 306.903 264.001 306.418 264.103Z" fill="#E8E8E8"/>
<path d="M311.811 241.434C306.52 242.913 300.768 242.938 295.298 242.964C289.419 243.015 283.539 242.683 277.711 242.02C277.225 241.969 277.225 241.204 277.711 241.255C283.386 241.918 289.086 242.224 294.787 242.199C300.334 242.173 306.213 242.173 311.607 240.694C312.093 240.567 312.297 241.306 311.811 241.434Z" fill="#E8E8E8"/>
<path d="M314.01 238.807C313.959 239.292 313.908 239.802 313.856 240.286C313.831 240.592 313.831 240.975 313.703 241.255C313.396 241.918 312.374 241.689 311.786 241.689C311.3 241.689 311.3 240.924 311.786 240.924C312.067 240.924 312.348 240.924 312.655 240.924C313.038 240.924 313.038 240.847 313.064 240.465C313.115 239.904 313.166 239.368 313.217 238.807C313.294 238.323 314.061 238.297 314.01 238.807Z" fill="#E8E8E8"/>
<path d="M313.498 239.215C307.108 239.955 300.692 240.312 294.25 240.363C291.08 240.388 287.91 240.337 284.715 240.235C283.13 240.184 281.545 240.108 279.96 240.031C279.219 240.006 278.197 239.751 277.455 239.904C276.561 240.057 276.612 240.822 276.51 241.612C276.433 241.459 276.331 241.306 276.254 241.153C276.586 241.153 276.919 241.153 277.251 241.153C277.737 241.051 277.941 241.791 277.455 241.893C276.944 241.995 276.561 241.995 276.075 241.893C275.845 241.842 275.768 241.612 275.819 241.434C275.947 240.541 275.845 239.419 276.919 239.19C277.558 239.037 278.35 239.215 279.015 239.241C279.858 239.292 280.676 239.317 281.52 239.368C285.099 239.521 288.703 239.623 292.307 239.623C299.414 239.623 306.494 239.292 313.55 238.45C313.984 238.399 313.984 239.164 313.498 239.215Z" fill="#E8E8E8"/>
<path d="M307.951 257.754C305.906 260.431 303.504 262.752 300.794 264.741C300.385 265.021 300.001 264.358 300.41 264.078C303.018 262.165 305.344 259.921 307.312 257.346C307.594 256.963 308.258 257.346 307.951 257.754Z" fill="#E8E8E8"/>
<path d="M309.664 249.976C305.676 255.714 300.769 260.737 295.094 264.843C294.685 265.123 294.301 264.46 294.71 264.18C300.257 260.151 305.089 255.204 309 249.594C309.281 249.186 309.945 249.568 309.664 249.976Z" fill="#E8E8E8"/>
<path d="M311.223 243.142C304.321 251.302 296.653 258.927 287.501 264.588C287.092 264.843 286.683 264.18 287.118 263.925C296.218 258.315 303.836 250.741 310.687 242.607C310.993 242.224 311.53 242.785 311.223 243.142Z" fill="#E8E8E8"/>
<path d="M303.887 242.709C297.317 250.333 290.032 257.575 281.903 263.542C281.494 263.823 281.111 263.16 281.52 262.879C289.597 256.963 296.832 249.721 303.35 242.173C303.682 241.791 304.219 242.326 303.887 242.709Z" fill="#E8E8E8"/>
<path d="M295.502 243.244C291.055 248.676 285.942 253.521 280.267 257.677C279.858 257.958 279.475 257.295 279.884 257.014C285.507 252.909 290.569 248.089 294.966 242.709C295.272 242.326 295.809 242.862 295.502 243.244Z" fill="#E8E8E8"/>
<path d="M288.652 242.964C285.789 246.177 282.517 248.931 278.887 251.251C278.478 251.506 278.094 250.843 278.503 250.588C282.082 248.319 285.303 245.565 288.115 242.428C288.447 242.046 288.984 242.581 288.652 242.964Z" fill="#E8E8E8"/>
<path d="M324.03 200.94C322.369 204.433 321.244 208.105 320.605 211.93C320.579 212.109 320.4 212.211 320.247 212.211C320.094 212.211 319.276 212.185 319.224 212.44C319.199 212.542 319.71 213.129 319.761 213.256C319.915 213.664 319.915 214.149 319.761 214.557C319.557 215.041 319.173 215.373 318.713 215.551C318.56 215.628 318.381 215.653 318.202 215.679C318.049 215.704 317.895 215.704 317.742 215.679C317.537 215.653 317.563 215.679 317.793 215.781C318.049 216.163 318.406 216.214 318.509 216.775C318.585 217.311 318.33 217.821 318.125 218.28C317.282 220.065 316.796 221.952 316.106 223.813C313.729 230.137 309.178 235.365 304.04 239.674C303.657 239.98 303.12 239.445 303.504 239.139C308.795 234.702 313.498 229.27 315.722 222.615C316.004 221.748 316.259 220.881 316.566 220.039C316.822 219.3 317.307 218.535 317.537 217.795C317.793 217.387 317.767 216.928 317.435 216.469C317.333 216.393 317.231 216.316 317.128 216.24C317.052 216.112 316.898 216.036 316.822 215.883C316.719 215.602 316.796 215.347 317.001 215.143C317.333 214.812 317.844 214.99 318.279 214.863C319.94 214.378 318.585 213.256 318.458 212.44C318.279 211.369 319.608 211.497 320.324 211.446C320.196 211.548 320.068 211.624 319.966 211.726C320.605 207.85 321.781 204.102 323.468 200.557C323.57 200.098 324.235 200.481 324.03 200.94Z" fill="#E8E8E8"/>
<path d="M323.749 200.761C315.441 202.98 308.156 208.615 302.864 215.296C297.241 222.385 293.739 230.902 291.847 239.7C291.745 240.184 291.003 239.98 291.106 239.496C293.023 230.571 296.602 221.952 302.302 214.761C307.67 208.003 315.083 202.291 323.519 200.047C324.03 199.894 324.235 200.634 323.749 200.761Z" fill="#E8E8E8"/>
<path d="M320.733 203.923C310.559 213.792 302.711 225.904 297.88 239.241C297.701 239.7 296.96 239.496 297.139 239.037C302.021 225.598 309.92 213.358 320.196 203.388C320.528 203.031 321.091 203.566 320.733 203.923Z" fill="#E8E8E8"/>
<path d="M316.208 219.963C314.061 220.192 311.965 220.677 309.971 221.467C308.028 222.232 305.906 223.201 304.679 224.961C304.398 225.369 303.734 224.986 304.015 224.578C305.242 222.819 307.159 221.824 309.102 221.008C311.377 220.039 313.754 219.453 316.234 219.198C316.694 219.147 316.694 219.912 316.208 219.963Z" fill="#E8E8E8"/>
<path d="M312.399 205.989C312.425 208.921 311.939 211.803 310.993 214.582C310.84 215.041 310.099 214.837 310.252 214.378C311.172 211.675 311.633 208.87 311.633 205.989C311.633 205.504 312.399 205.504 312.399 205.989Z" fill="#E8E8E8"/>
<path d="M298.365 219.861C297.113 215.194 292.946 212.415 289.393 209.559C285.61 206.524 281.954 203.286 278.478 199.92C278.682 199.792 278.912 199.665 279.117 199.537C280.267 202.623 280.497 205.861 280.446 209.125C280.395 212.389 279.654 216.138 280.702 219.3C280.574 219.198 280.446 219.121 280.344 219.019C281.162 219.07 281.98 219.147 282.798 219.198C283.053 219.223 283.309 219.529 283.13 219.784C282.542 220.575 281.852 220.83 281.878 222.003C281.878 222.819 282.082 223.762 282.363 224.527C282.644 225.318 283.386 225.853 283.641 226.593C283.846 227.256 283.335 227.817 283.335 228.48C283.309 229.576 284.101 230.494 284.664 231.361C285.201 232.177 285.686 233.019 286.121 233.886C286.99 235.594 287.68 237.354 288.191 239.19C288.319 239.674 287.578 239.878 287.45 239.394C286.811 237.124 285.891 234.931 284.689 232.891C283.871 231.514 282.338 229.908 282.517 228.174C282.593 227.485 282.951 227.281 282.644 226.491C282.619 226.465 282.159 225.853 282.133 225.802C281.647 225.012 281.417 224.119 281.264 223.227C281.162 222.564 280.957 221.748 281.06 221.085C281.213 220.141 281.929 220.065 282.465 219.351C282.568 219.555 282.696 219.733 282.798 219.937C281.98 219.886 281.162 219.81 280.344 219.759C280.165 219.733 280.037 219.657 279.986 219.478C279.015 216.52 279.602 213.078 279.705 210.018C279.807 206.524 279.679 203.005 278.427 199.69C278.273 199.308 278.81 199.078 279.066 199.308C282.772 202.903 286.658 206.346 290.722 209.559C294.199 212.313 297.956 215.118 299.158 219.606C299.234 220.141 298.493 220.345 298.365 219.861Z" fill="#E8E8E8"/>
<path d="M281.315 203.235C283.821 207.595 286.377 211.905 288.78 216.316C291.029 220.396 293.023 224.629 293.969 229.194C294.071 229.678 293.33 229.882 293.228 229.398C292.256 224.731 290.186 220.447 287.885 216.291C285.533 212.032 283.054 207.85 280.651 203.617C280.421 203.209 281.085 202.801 281.315 203.235Z" fill="#E8E8E8"/>
<path d="M288.856 210.324C288.524 211.777 288.371 213.231 288.422 214.71C288.447 215.194 287.68 215.194 287.655 214.71C287.604 213.154 287.757 211.65 288.115 210.12C288.243 209.635 288.959 209.839 288.856 210.324Z" fill="#E8E8E8"/>
<path d="M284.69 205.453C284.408 206.55 284.357 207.621 284.485 208.717C284.536 209.202 283.769 209.202 283.718 208.717C283.565 207.544 283.642 206.397 283.948 205.249C284.076 204.79 284.817 204.994 284.69 205.453Z" fill="#E8E8E8"/>
<path d="M284.511 210.528C283.002 209.635 281.443 208.845 279.833 208.182C279.373 208.003 279.577 207.264 280.037 207.442C281.724 208.131 283.335 208.947 284.92 209.865C285.329 210.12 284.945 210.783 284.511 210.528Z" fill="#E8E8E8"/>
<path d="M291.106 223.329C290.134 222.513 289.163 221.722 288.166 220.957C287.118 220.141 285.968 219.045 284.69 218.535C284.229 218.356 284.434 217.617 284.894 217.795C286.044 218.229 286.99 219.07 287.962 219.835C289.214 220.804 290.441 221.773 291.643 222.793C292.026 223.099 291.489 223.635 291.106 223.329Z" fill="#E8E8E8"/>
<path d="M320.707 209.023C318.918 209.202 317.128 209.38 315.339 209.533C314.853 209.584 314.853 208.819 315.339 208.768C317.128 208.59 318.918 208.411 320.707 208.258C321.193 208.207 321.193 208.972 320.707 209.023Z" fill="#E8E8E8"/>
<path d="M273.8 259.896C241.77 259.896 209.766 259.896 177.736 259.896C168.713 259.896 159.689 259.896 150.665 259.896C150.18 259.896 150.18 259.131 150.665 259.131C182.695 259.131 214.699 259.131 246.729 259.131C255.753 259.131 264.776 259.131 273.8 259.131C274.311 259.131 274.311 259.896 273.8 259.896Z" fill="#E8E8E8"/>
<path d="M165.466 197.421C165.466 201.144 165.466 204.867 165.466 208.59C165.466 209.074 164.699 209.074 164.699 208.59C164.699 204.867 164.699 201.144 164.699 197.421C164.699 196.936 165.466 196.936 165.466 197.421Z" fill="#E8E8E8"/>
<path d="M183.104 210.298C170.707 210.298 158.309 210.298 145.911 210.298C145.425 210.298 145.425 209.533 145.911 209.533C158.309 209.533 170.707 209.533 183.104 209.533C183.59 209.533 183.616 210.298 183.104 210.298Z" fill="#E8E8E8"/>
<path d="M174.771 210.502C174.771 213.715 174.771 216.928 174.771 220.167C174.771 220.651 174.004 220.651 174.004 220.167C174.004 216.954 174.004 213.741 174.004 210.502C174.004 209.992 174.771 209.992 174.771 210.502Z" fill="#E8E8E8"/>
<path d="M155.599 210.298C155.599 213.129 155.599 215.985 155.599 218.815C155.599 219.3 154.832 219.3 154.832 218.815C154.832 215.985 154.832 213.129 154.832 210.298C154.832 209.814 155.599 209.814 155.599 210.298Z" fill="#E8E8E8"/>
<path d="M167.741 220.906C158.257 220.906 148.774 220.906 139.29 220.906C138.804 220.906 138.804 220.141 139.29 220.141C148.774 220.141 158.257 220.141 167.741 220.141C168.227 220.141 168.227 220.906 167.741 220.906Z" fill="#E8E8E8"/>
<path d="M189.188 267.291C168.252 267.291 147.317 267.291 126.381 267.291C125.895 267.291 125.895 266.526 126.381 266.526C147.317 266.526 168.252 266.526 189.188 266.526C189.674 266.526 189.674 267.291 189.188 267.291Z" fill="#E8E8E8"/>
<path d="M102.608 260.686C82.0556 260.686 61.4778 260.686 40.9256 260.686C35.1484 260.686 29.3713 260.686 23.5942 260.686C23.1085 260.686 23.1085 259.921 23.5942 259.921C44.1465 259.921 64.7243 259.921 85.2765 259.921C91.0536 259.921 96.8308 259.921 102.608 259.921C103.094 259.921 103.094 260.686 102.608 260.686Z" fill="#E8E8E8"/>
<path d="M357.44 273.742C336.377 273.742 315.288 273.742 294.224 273.742C293.739 273.742 293.739 272.977 294.224 272.977C315.288 272.977 336.377 272.977 357.44 272.977C357.926 272.977 357.926 273.742 357.44 273.742Z" fill="#E8E8E8"/>
<path d="M314.955 281.392C297.752 281.392 280.548 281.392 263.345 281.392C262.859 281.392 262.859 280.627 263.345 280.627C280.548 280.627 297.752 280.627 314.955 280.627C315.467 280.627 315.467 281.392 314.955 281.392Z" fill="#E8E8E8"/>
<path d="M53.4255 63.3674C53.4255 56.2529 53.4255 49.1639 53.4255 42.0494C53.4255 41.5649 54.1924 41.5649 54.1924 42.0494C54.1924 49.1639 54.1924 56.2529 54.1924 63.3674C54.1924 63.8519 53.4255 63.8519 53.4255 63.3674Z" fill="#E8E8E8"/>
<path d="M53.5535 41.8964C44.3254 41.8964 35.0973 41.8964 25.8692 41.8964C25.3835 41.8964 25.3835 41.1313 25.8692 41.1313C35.0973 41.1313 44.3254 41.1313 53.5535 41.1313C54.0391 41.1313 54.0391 41.8964 53.5535 41.8964Z" fill="#E8E8E8"/>
<path d="M26.2527 41.5648C26.3038 48.7813 26.355 55.9978 26.4316 63.2143C26.4316 63.6988 25.6647 63.6988 25.6647 63.2143C25.6136 55.9978 25.5625 48.7813 25.4858 41.5648C25.4858 41.0803 26.2527 41.0803 26.2527 41.5648Z" fill="#E8E8E8"/>
<path d="M53.4258 63.7499C44.3255 63.7499 35.2253 63.7499 26.125 63.7499C25.6393 63.7499 25.6393 62.9849 26.125 62.9849C35.2253 62.9849 44.3255 62.9849 53.4258 62.9849C53.9115 62.9849 53.9115 63.7499 53.4258 63.7499Z" fill="#E8E8E8"/>
<path d="M52.6843 43.5284C52.6843 49.5209 52.6843 55.4879 52.6843 61.4804C52.6843 61.9649 51.9175 61.9649 51.9175 61.4804C51.9175 55.4879 51.9175 49.5209 51.9175 43.5284C51.9175 43.0439 52.6843 43.0439 52.6843 43.5284Z" fill="#E8E8E8"/>
<path d="M52.1219 43.9108C44.0442 43.9108 35.9919 43.9108 27.9141 43.9108C27.4284 43.9108 27.4284 43.1458 27.9141 43.1458C35.9919 43.1458 44.0442 43.1458 52.1219 43.1458C52.6332 43.1458 52.6332 43.9108 52.1219 43.9108Z" fill="#E8E8E8"/>
<path d="M28.3232 43.7069C28.3488 49.5719 28.3743 55.4369 28.3999 61.3274C28.3999 61.8119 27.633 61.8119 27.633 61.3274C27.6074 55.4624 27.5819 49.5974 27.5563 43.7069C27.5563 43.2224 28.3232 43.2224 28.3232 43.7069Z" fill="#E8E8E8"/>
<path d="M51.9685 61.965C44.0185 61.965 36.0686 61.965 28.1186 61.965C27.6329 61.965 27.6329 61.2 28.1186 61.2C36.0686 61.2 44.0185 61.2 51.9685 61.2C52.4542 61.2 52.4542 61.965 51.9685 61.965Z" fill="#E8E8E8"/>
<path d="M52.1221 56.6863C49.1824 55.6663 46.0893 56.5843 43.2263 57.4258C40.3122 58.2674 37.4492 59.2874 34.6629 60.4604C34.2028 60.6389 33.9983 59.8994 34.4584 59.7209C37.5515 58.4204 40.7212 57.3238 43.9421 56.4313C46.6773 55.6918 49.5658 54.9778 52.3266 55.9468C52.7867 56.0998 52.5822 56.8393 52.1221 56.6863Z" fill="#E8E8E8"/>
<path d="M42.4083 57.5532C37.577 57.2727 33.0524 55.3347 28.2723 54.7992C27.7866 54.7482 27.7866 53.9832 28.2723 54.0342C33.0524 54.5697 37.577 56.4822 42.4083 56.7882C42.9196 56.8392 42.9196 57.6042 42.4083 57.5532Z" fill="#E8E8E8"/>
<path d="M33.2567 48.2204C34.3303 47.6084 33.359 45.5939 32.2087 46.0784C31.5952 46.3334 31.4673 47.0729 31.7997 47.6084C32.1575 48.1949 32.8988 48.2969 33.5123 48.1184C33.998 47.9909 34.2025 48.7304 33.7168 48.8579C32.6943 49.1384 31.544 48.8324 31.0328 47.8379C30.5727 46.9454 30.9305 45.7724 31.9019 45.3644C33.8958 44.5229 35.5318 47.8379 33.6401 48.8834C33.2311 49.1129 32.8221 48.4499 33.2567 48.2204Z" fill="#E8E8E8"/>
<path d="M41.0788 41.3863C41.0533 40.9528 41.0277 40.5193 40.8999 40.1113C40.7977 39.7798 40.542 38.9893 40.1586 38.8363C39.4684 38.5813 39.2128 41.0038 39.1616 41.4628C39.1105 41.9473 38.3436 41.9473 38.3947 41.4628C38.4714 40.5703 38.676 37.7653 40.1075 37.9693C40.721 38.0458 41.1556 38.7343 41.3856 39.2443C41.6924 39.9073 41.7946 40.6468 41.8202 41.3608C41.8457 41.8708 41.0788 41.8708 41.0788 41.3863Z" fill="#E8E8E8"/>
<path d="M36.7844 160.344C36.7844 163.404 36.7844 166.489 36.7844 169.549C36.7844 170.034 36.0176 170.034 36.0176 169.549C36.0176 166.489 36.0176 163.404 36.0176 160.344C36.0176 159.859 36.7844 159.859 36.7844 160.344Z" fill="#E8E8E8"/>
<path d="M46.0637 170.671C39.1107 170.671 32.1321 170.671 25.1791 170.671C24.6934 170.671 24.6934 169.906 25.1791 169.906C32.1321 169.906 39.1107 169.906 46.0637 169.906C46.5494 169.906 46.5494 170.671 46.0637 170.671Z" fill="#E8E8E8"/>
<path d="M43.1238 170.901C43.1238 172.354 43.1238 173.782 43.1238 175.236C43.1238 175.72 42.3569 175.72 42.3569 175.236C42.3569 173.782 42.3569 172.354 42.3569 170.901C42.3569 170.416 43.1238 170.416 43.1238 170.901Z" fill="#E8E8E8"/>
<path d="M31.9531 171.13C31.9531 172.839 31.9531 174.573 31.9531 176.281C31.9531 176.766 31.1862 176.766 31.1862 176.281C31.1862 174.573 31.1862 172.839 31.1862 171.13C31.1862 170.62 31.9531 170.62 31.9531 171.13Z" fill="#E8E8E8"/>
<path d="M37.3723 177.276C32.541 177.276 27.7097 177.276 22.8784 177.276C22.3927 177.276 22.3927 176.511 22.8784 176.511C27.7097 176.511 32.541 176.511 37.3723 176.511C37.858 176.511 37.858 177.276 37.3723 177.276Z" fill="#E8E8E8"/>
<path d="M214.239 251.838C206.187 246.407 202.148 243.678 201.1 243.347C198.544 242.531 190.262 239.904 183.028 244.316C177.838 247.478 173.058 254.337 175.052 258.927C176.484 262.191 180.855 263.211 184.817 264.155C190.671 265.532 195.681 264.767 198.493 264.104C199.592 265.175 201.356 266.603 203.836 267.546C207.951 269.127 212.706 268.847 212.936 267.903C213.038 267.419 212.016 266.475 207.056 264.537C207.644 263.9 208.513 263.135 209.74 262.599C213.37 260.942 217 262.548 217.69 262.88C214.137 264.945 213.37 266.016 213.549 266.603C214.009 268.082 221.244 268.566 223.186 265.175C223.391 264.843 223.953 263.696 223.493 261.528C222.573 257.55 219.25 255.23 214.239 251.838Z" fill="#161616"/>
<path d="M179.168 257.499C178.35 255.816 174.669 256.224 173.237 256.377C171.397 256.581 169.761 256.759 168.278 258.06C167.153 259.029 165.517 261.145 166.105 262.854C166.642 264.486 168.661 264.358 172.573 266.271C173.237 266.602 179.628 269.739 179.193 271.804C179.014 272.646 177.864 272.62 174.209 274.176C171.039 275.502 169.173 276.318 167.613 278.103C166.847 278.995 165.313 280.755 165.722 282.54C166.489 285.829 173.339 286.39 173.518 285.88C173.672 285.447 168.866 284.248 168.815 282.004C168.764 280.296 171.448 278.919 173.135 278.026C178.094 275.451 181.443 276.369 182.746 273.895C183.488 272.493 183.079 270.988 183.002 270.708C182.619 269.331 181.545 268.158 176.305 265.531C171.524 263.134 169.403 262.573 169.428 261.502C169.454 260.508 171.294 259.692 172.419 259.411C175.589 258.57 177.915 260.559 178.989 259.437C179.449 258.927 179.423 258.06 179.168 257.499Z" fill="#161616"/>
<path d="M222.828 245.157C221.218 246.355 219.607 247.554 217.997 248.752C215.696 248.523 213.421 248.319 211.121 248.089C209.689 246.712 208.258 245.31 206.826 243.933C206.724 244.8 206.519 246.763 206.443 247.707C205.548 256.198 205.471 256.938 206.008 257.907C207.772 261.043 213.728 262.318 217.153 260.125C218.815 259.054 219.454 257.448 220.656 254.362C222.113 250.639 222.624 247.375 222.828 245.157Z" fill="#161616"/>
<path d="M216.336 253.98C216.719 254.77 217.563 255.255 218.432 255.102C218.662 255.051 218.764 255.433 218.534 255.459C217.486 255.637 216.438 255.127 216.003 254.158C215.901 253.954 216.208 253.75 216.336 253.98Z" fill="white"/>
<path d="M212.782 253.725C211.939 254.541 210.814 254.898 209.664 254.719C209.408 254.694 209.536 254.311 209.766 254.362C210.789 254.515 211.786 254.184 212.527 253.47C212.706 253.291 212.961 253.546 212.782 253.725Z" fill="white"/>
<path d="M214.137 256.147C214.214 256.147 214.265 256.122 214.342 256.122C214.316 256.096 214.316 256.045 214.291 256.02C214.24 256.071 214.163 256.122 214.112 256.173C214.112 256.122 214.137 256.096 214.137 256.045C214.214 255.816 214.572 255.918 214.495 256.147C214.367 256.708 214.163 257.575 214.853 257.856C215.083 257.958 214.981 258.315 214.751 258.213C213.831 257.83 213.933 256.836 214.112 256.02C214.239 256.045 214.367 256.096 214.47 256.122C214.47 256.173 214.444 256.198 214.444 256.249C214.418 256.326 214.342 256.402 214.265 256.402C213.6 256.351 214.137 255.433 214.444 255.969C214.572 256.147 214.265 256.351 214.137 256.147Z" fill="white"/>
<path d="M214.393 256.326C214.265 256.759 214.239 257.244 213.958 257.626C213.728 257.932 213.37 258.085 212.987 258.009C212.757 257.958 212.859 257.601 213.089 257.652C213.805 257.805 213.907 256.683 214.035 256.224C214.086 255.994 214.444 256.096 214.393 256.326Z" fill="white"/>
<path d="M215.62 256.683C216.361 256.351 217.128 256.198 217.946 256.249C218.202 256.275 218.202 256.657 217.946 256.632C217.205 256.581 216.489 256.708 215.824 257.014C215.594 257.116 215.39 256.785 215.62 256.683Z" fill="white"/>
<path d="M216.284 257.193C216.924 257.244 217.486 257.499 217.92 257.932C218.099 258.111 217.818 258.366 217.639 258.213C217.256 257.856 216.796 257.626 216.259 257.575C216.054 257.55 216.054 257.167 216.284 257.193Z" fill="white"/>
<path d="M212.629 256.505C211.888 256.224 211.146 256.122 210.354 256.199C210.098 256.224 210.098 255.842 210.354 255.816C211.172 255.74 211.964 255.867 212.731 256.148C212.961 256.224 212.885 256.607 212.629 256.505Z" fill="white"/>
<path d="M212.118 257.193C211.555 257.117 211.019 257.168 210.482 257.372C210.252 257.448 210.15 257.091 210.38 257.015C210.942 256.811 211.53 256.76 212.118 256.836C212.373 256.836 212.373 257.244 212.118 257.193Z" fill="white"/>
<path d="M218.151 252.858C217.767 252.628 217.307 252.628 216.924 252.858C216.719 252.985 216.515 252.654 216.719 252.526C217.23 252.246 217.818 252.246 218.33 252.526C218.56 252.654 218.355 252.985 218.151 252.858Z" fill="white"/>
<path d="M212.783 252.348C212.399 252.144 211.965 252.093 211.504 252.144C211.274 252.169 211.147 251.812 211.402 251.787C211.939 251.71 212.476 251.787 212.961 252.042C213.217 252.118 213.013 252.45 212.783 252.348Z" fill="white"/>
<path d="M218.892 244.341C218.1 244.009 217.307 243.678 216.54 243.321C216.694 243.219 216.821 243.117 216.975 242.989C217.282 243.958 217.742 244.825 218.355 245.641C218.509 245.845 218.253 246.151 218.023 246.075C217.154 245.743 216.285 245.437 215.415 245.106C215.083 244.978 215.211 244.417 215.569 244.545C216.438 244.876 217.307 245.182 218.176 245.514C218.074 245.667 217.972 245.794 217.844 245.947C217.179 245.106 216.719 244.188 216.387 243.168C216.31 242.913 216.591 242.76 216.821 242.836C217.614 243.168 218.406 243.499 219.173 243.856C219.531 244.009 219.224 244.494 218.892 244.341Z" fill="#161616"/>
<path d="M217.614 239.7C217.077 239.394 216.54 239.19 215.952 239.062C216.054 238.909 216.157 238.782 216.285 238.629C216.515 239.139 216.796 239.649 217.128 240.108C217.256 240.312 217.077 240.516 216.872 240.541C216.182 240.592 215.543 240.414 215.006 240.006C214.725 239.776 215.006 239.292 215.288 239.521C215.748 239.878 216.259 240.031 216.847 239.98C216.77 240.133 216.694 240.261 216.591 240.414C216.259 239.929 215.978 239.445 215.748 238.935C215.645 238.705 215.824 238.45 216.08 238.501C216.719 238.629 217.333 238.858 217.895 239.19C218.227 239.394 217.946 239.878 217.614 239.7Z" fill="#161616"/>
<path d="M213.396 245.871C214.239 245.029 212.782 244.545 212.629 243.805C212.476 242.938 213.498 242.122 212.348 241.459C212.016 241.281 212.322 240.771 212.629 240.975C213.038 241.204 213.37 241.561 213.473 242.046C213.626 242.862 212.91 243.346 213.524 244.086C213.805 244.443 214.137 244.545 214.239 245.029C214.342 245.514 214.137 245.922 213.805 246.279C213.524 246.534 213.115 246.126 213.396 245.871Z" fill="#161616"/>
<path d="M142.818 173.068C206.903 177.684 270.988 182.274 335.048 186.889C336.786 140.53 338.524 94.1714 340.237 47.8124C275.87 46.9454 211.504 46.0784 147.138 45.2114C145.706 87.8219 144.275 130.432 142.818 173.068Z" fill="white" stroke="#161616" stroke-width="3.5" stroke-miterlimit="10"/>
<path d="M285.789 70.38C273.365 70.38 260.916 70.38 248.493 70.38C248.007 70.38 248.007 69.615 248.493 69.615C260.916 69.615 273.365 69.615 285.789 69.615C286.274 69.615 286.274 70.38 285.789 70.38Z" fill="#161616"/>
<path d="M271.832 73.5165C259.025 73.5165 246.218 73.5165 233.411 73.5165C232.926 73.5165 232.926 72.7515 233.411 72.7515C246.218 72.7515 259.025 72.7515 271.832 72.7515C272.343 72.7515 272.343 73.5165 271.832 73.5165Z" fill="#161616"/>
<path d="M332.466 148.333C332.006 158.992 331.545 169.677 331.085 180.336C331.06 180.82 330.293 180.82 330.318 180.336C330.779 169.677 331.239 158.992 331.699 148.333C331.724 147.849 332.491 147.849 332.466 148.333Z" fill="#161616"/>
<path d="M276.152 142.111C275.052 142.111 273.953 142.111 272.828 142.111C272.343 142.111 272.343 141.346 272.828 141.346C273.928 141.346 275.027 141.346 276.152 141.346C276.637 141.346 276.637 142.111 276.152 142.111Z" fill="#161616"/>
<path d="M269.94 142.111C267.102 142.111 264.291 142.111 261.453 142.111C260.967 142.111 260.967 141.346 261.453 141.346C264.291 141.346 267.102 141.346 269.94 141.346C270.426 141.346 270.426 142.111 269.94 142.111Z" fill="#161616"/>
<path d="M255.037 141.703C251.663 141.703 248.289 141.703 244.889 141.703C244.403 141.703 244.403 140.938 244.889 140.938C248.263 140.938 251.637 140.938 255.037 140.938C255.523 140.938 255.523 141.703 255.037 141.703Z" fill="#161616"/>
<path d="M271.576 147.466C267.435 147.466 263.294 147.466 259.153 147.466C258.667 147.466 258.667 146.701 259.153 146.701C263.294 146.701 267.435 146.701 271.576 146.701C272.087 146.701 272.087 147.466 271.576 147.466Z" fill="#161616"/>
<path d="M265.594 144.585C260.763 144.585 255.932 144.585 251.1 144.585C250.615 144.585 250.615 143.82 251.1 143.82C255.932 143.82 260.763 143.82 265.594 143.82C266.08 143.82 266.08 144.585 265.594 144.585Z" fill="#161616"/>
<path d="M239.93 171.844C231.801 171.844 223.646 171.844 215.517 171.844C215.032 171.844 215.032 171.079 215.517 171.079C223.646 171.079 231.801 171.079 239.93 171.079C240.415 171.079 240.415 171.844 239.93 171.844Z" fill="#161616"/>
<path d="M219.863 173.91C215.594 173.91 211.3 173.91 207.031 173.91C206.545 173.91 206.545 173.145 207.031 173.145C211.3 173.145 215.594 173.145 219.863 173.145C220.349 173.145 220.349 173.91 219.863 173.91Z" fill="#161616"/>
<path d="M208.692 170.799C204.474 170.799 200.282 170.799 196.064 170.799C195.579 170.799 195.579 170.034 196.064 170.034C200.282 170.034 204.474 170.034 208.692 170.034C209.178 170.034 209.178 170.799 208.692 170.799Z" fill="#161616"/>
<path d="M187.169 101.669C179.372 101.669 171.576 101.669 163.779 101.669C163.293 101.669 163.293 100.904 163.779 100.904C171.576 100.904 179.372 100.904 187.169 100.904C187.654 100.904 187.654 101.669 187.169 101.669Z" fill="#161616"/>
<path d="M194.403 102.892C191.923 102.892 189.444 102.892 186.964 102.892C186.478 102.892 186.478 102.127 186.964 102.127C189.444 102.127 191.923 102.127 194.403 102.127C194.914 102.127 194.914 102.892 194.403 102.892Z" fill="#161616"/>
<path d="M192.971 104.958C184.638 104.958 176.279 104.958 167.946 104.958C167.46 104.958 167.46 104.193 167.946 104.193C176.279 104.193 184.638 104.193 192.971 104.193C193.457 104.193 193.457 104.958 192.971 104.958Z" fill="#161616"/>
<path d="M162.117 103.097C160.532 103.097 158.948 103.097 157.363 103.097C156.877 103.097 156.877 102.332 157.363 102.332C158.948 102.332 160.532 102.332 162.117 102.332C162.629 102.332 162.629 103.097 162.117 103.097Z" fill="#161616"/>
<path d="M168.329 134.257C165.977 134.257 163.651 134.257 161.299 134.257C160.814 134.257 160.814 133.492 161.299 133.492C163.651 133.492 165.977 133.492 168.329 133.492C168.84 133.492 168.84 134.257 168.329 134.257Z" fill="#161616"/>
<path d="M172.879 136.323C170.323 136.323 167.767 136.323 165.236 136.323C164.75 136.323 164.75 135.558 165.236 135.558C167.792 135.558 170.348 135.558 172.879 135.558C173.39 135.558 173.39 136.323 172.879 136.323Z" fill="#161616"/>
<path d="M169.173 138.388C164.137 138.388 159.101 138.388 154.065 138.388C153.579 138.388 153.579 137.623 154.065 137.623C159.101 137.623 164.137 137.623 169.173 137.623C169.658 137.623 169.658 138.388 169.173 138.388Z" fill="#161616"/>
<path d="M159.638 135.915C158.13 135.915 156.596 135.915 155.088 135.915C154.602 135.915 154.602 135.15 155.088 135.15C156.596 135.15 158.13 135.15 159.638 135.15C160.149 135.15 160.149 135.915 159.638 135.915Z" fill="#161616"/>
<path d="M264.93 104.116C261.351 104.116 257.798 104.116 254.219 104.116C253.733 104.116 253.733 103.351 254.219 103.351C257.798 103.351 261.351 103.351 264.93 103.351C265.415 103.351 265.415 104.116 264.93 104.116Z" fill="#161616"/>
<path d="M257.133 106.309C251.867 106.309 246.576 106.309 241.31 106.309C240.824 106.309 240.824 105.544 241.31 105.544C246.576 105.544 251.867 105.544 257.133 105.544C257.619 105.544 257.644 106.309 257.133 106.309Z" fill="#161616"/>
<path d="M243.253 103.377C240.262 103.377 237.245 103.377 234.255 103.377C233.769 103.377 233.769 102.612 234.255 102.612C237.245 102.612 240.262 102.612 243.253 102.612C243.738 102.612 243.738 103.377 243.253 103.377Z" fill="#161616"/>
<path d="M334.741 62.679C334.179 82.0336 333.616 101.414 333.054 120.768C332.9 126.276 332.747 131.759 332.568 137.267C332.543 137.751 331.776 137.751 331.801 137.267C332.364 117.912 332.926 98.5321 333.488 79.1776C333.642 73.6695 333.795 68.187 333.974 62.679C333.974 62.1945 334.741 62.1945 334.741 62.679Z" fill="#161616"/>
<path d="M148.927 125.944C148.544 138.745 148.16 151.521 147.777 164.322C147.751 164.806 146.984 164.806 147.01 164.322C147.393 151.521 147.777 138.745 148.16 125.944C148.16 125.46 148.927 125.46 148.927 125.944Z" fill="#161616"/>
<path d="M201.867 120.08C201.714 121.635 201.56 123.216 201.432 124.772C199.95 124.389 198.493 123.981 197.01 123.599C197.215 122.043 197.393 120.462 197.598 118.907C199.029 119.289 200.435 119.697 201.867 120.08Z" fill="#EC615B"/>
<path d="M202.762 131.988C201.228 131.784 199.72 131.606 198.186 131.402C197.982 133.263 197.803 135.125 197.598 136.986C198.979 137.037 200.359 137.088 201.714 137.139C202.072 135.405 202.404 133.697 202.762 131.988Z" fill="#EC615B"/>
<path d="M197.164 143.284C196.678 144.891 196.192 146.523 195.681 148.129C194.301 147.492 192.92 146.854 191.565 146.217C192 144.789 192.46 143.386 192.895 141.958C194.301 142.417 195.732 142.851 197.164 143.284Z" fill="#EC615B"/>
<path d="M298.212 158.483C297.88 163.43 297.548 168.377 297.215 173.298C288.524 172.737 279.833 172.202 271.142 171.641C270.988 167.204 270.809 162.741 270.656 158.304C279.833 158.381 289.035 158.432 298.212 158.483Z" fill="#195C99"/>
<path d="M190.159 57.8339C189.157 57.8339 188.344 57.1604 188.344 56.3294C188.344 55.4985 189.157 54.825 190.159 54.825C191.162 54.825 191.974 55.4985 191.974 56.3294C191.974 57.1604 191.162 57.8339 190.159 57.8339Z" fill="#195C99"/>
<path d="M313.498 69.105C312.665 69.105 311.99 68.6597 311.99 68.1105C311.99 67.5612 312.665 67.116 313.498 67.116C314.331 67.116 315.007 67.5612 315.007 68.1105C315.007 68.6597 314.331 69.105 313.498 69.105Z" fill="#EC615B"/>
<path d="M289.495 97.9457C288.846 97.9457 288.319 97.3292 288.319 96.5687C288.319 95.8082 288.846 95.1917 289.495 95.1917C290.145 95.1917 290.671 95.8082 290.671 96.5687C290.671 97.3292 290.145 97.9457 289.495 97.9457Z" fill="#EC615B"/>
<path opacity="0.21" d="M300.283 63.597C299.823 63.5205 298.928 67.779 296.73 75.5055C293.841 85.68 290.978 93.891 288.907 99.501C292.052 101.439 299.081 105.136 308.667 105.264C315.441 105.34 320.784 103.606 323.954 102.28C317.742 102.969 312.732 102.79 309.23 102.459C303.683 101.949 304.654 101.362 300.462 101.158C298.723 101.082 296.448 101.082 294.122 99.6795C293.279 99.1695 292.665 98.6085 292.256 98.2005C293.892 94.8345 295.988 89.8875 297.675 83.691C300.359 73.6185 300.947 63.7245 300.283 63.597Z" fill="#6D6C6C"/>
<path opacity="0.25" d="M276.33 91.2646C275.921 94.5031 275.18 98.1241 273.953 102C270.451 113.016 264.546 120.87 260.098 125.715C262.757 127.679 266.054 129.719 270.017 131.427C282.031 136.604 293.253 135.839 299.26 134.921C299.49 133.569 299.72 132.218 299.95 130.866C297.394 130.943 294.684 130.892 291.847 130.739C281.724 130.101 273.033 127.832 266.105 125.307C268.304 121.584 269.889 118.371 270.988 115.949C273.646 110.16 275.615 105.8 276.305 99.9091C276.739 96.3136 276.561 93.2791 276.33 91.2646Z" fill="#6D6C6C"/>
<path opacity="0.14" d="M195.067 108.146C194.812 113.96 194.198 118.779 193.661 122.247C192.409 130.203 191.489 135.711 188.217 141.908C186.172 145.758 183.871 148.589 182.209 150.425C185.098 152.898 188.983 155.703 193.968 157.947C206.494 163.634 218.253 162.486 223.748 161.568C224.03 160.319 224.311 159.069 224.592 157.794C223.902 157.845 222.828 157.896 221.525 157.922C217.179 158.024 208.13 158.177 197.751 154.709C194.837 153.74 190.747 152.108 186.146 149.405C187.961 146.982 189.75 144.101 191.31 140.76C197.47 127.577 196.243 114.776 195.067 108.146Z" fill="#6D6C6C"/>
<path opacity="0.18" d="M175.487 50.9492C174.975 53.3207 174.234 56.9417 173.493 61.4552C172.112 70.1762 172.215 73.3382 170.604 78.4892C169.761 81.1667 168.252 84.9662 165.415 89.3012C167.792 91.2392 170.757 93.2537 174.413 94.9367C186.376 100.47 197.828 98.9147 203.094 97.8182C203.043 96.7982 202.992 95.7782 202.941 94.7837C202.276 94.9622 201.279 95.1917 200.052 95.3957C198.442 95.6507 192.486 96.5177 181.289 93.7127C178.196 92.9477 174.029 91.7237 169.249 89.7602C170.17 88.1282 171.524 85.5782 172.751 82.3142C176.33 72.8537 176.305 64.6427 176.253 60.4097C176.228 58.0892 176.074 54.8507 175.487 50.9492Z" fill="#6D6C6C"/>
<path d="M328.299 62.1436C330.83 75.5056 328.274 89.0206 325.717 102.179C325.615 102.663 324.874 102.459 324.976 101.975C327.507 88.9696 330.037 75.5821 327.558 62.3476C327.481 61.8886 328.223 61.6591 328.299 62.1436Z" fill="#161616"/>
<path d="M327.583 62.0414C323.928 64.4894 319.506 64.9229 315.186 64.6169C310.252 64.2599 305.37 63.2144 300.487 62.3984C300.001 62.3219 300.206 61.5824 300.692 61.6589C305.37 62.4239 310.048 63.4184 314.777 63.8009C319.097 64.1579 323.519 63.8264 327.2 61.3529C327.609 61.0979 327.992 61.7609 327.583 62.0414Z" fill="#161616"/>
<path d="M300.998 62.9339C300.283 75.1229 298.442 87.5669 292.256 98.2769C292 98.7104 291.336 98.3279 291.591 97.8944C297.701 87.2864 299.516 74.9699 300.232 62.9339C300.257 62.4494 301.024 62.4494 300.998 62.9339Z" fill="#161616"/>
<path d="M325.078 102.383C319.276 104.066 313.039 103.046 307.134 102.561C301.893 102.128 296.27 101.924 291.771 98.8636C291.362 98.5831 291.745 97.9201 292.154 98.2006C296.679 101.286 302.353 101.388 307.619 101.822C313.294 102.281 319.276 103.224 324.874 101.618C325.36 101.516 325.564 102.255 325.078 102.383Z" fill="#161616"/>
<path d="M315.262 68.2636C315.774 68.0341 315.211 67.5496 314.904 67.4731C314.521 67.3711 313.78 67.3201 313.601 67.7536C313.473 68.0851 313.677 68.5186 313.984 68.6461C314.47 68.8756 315.007 68.5951 315.339 68.2636C315.697 67.9066 316.234 68.4421 315.876 68.7991C315.237 69.4366 314.189 69.7681 313.396 69.1816C312.757 68.7226 312.527 67.7026 313.064 67.0906C313.677 66.4021 314.981 66.4786 315.671 66.9886C316.285 67.4476 316.413 68.5441 315.62 68.9011C315.186 69.1306 314.802 68.4676 315.262 68.2636Z" fill="#161616"/>
<path d="M305.012 102.485C306.852 111.792 304.884 121.202 302.89 130.331C302.788 130.815 302.046 130.611 302.149 130.127C304.117 121.151 306.06 111.869 304.27 102.689C304.168 102.204 304.909 102 305.012 102.485Z" fill="#161616"/>
<path d="M294.455 92.718C288.55 91.596 282.568 91.188 276.586 91.4175C276.714 91.29 276.842 91.1625 276.97 91.035C278.171 103.326 272.905 115.03 266.515 125.205C266.259 125.613 265.595 125.23 265.85 124.822C272.164 114.75 277.404 103.198 276.203 91.035C276.177 90.831 276.407 90.6525 276.586 90.6525C282.645 90.423 288.703 90.8565 294.659 91.9785C295.145 92.0805 294.94 92.82 294.455 92.718Z" fill="#161616"/>
<path d="M302.481 130.866C290.058 132.32 277.455 130.458 265.952 125.562C265.492 125.358 265.901 124.721 266.336 124.899C277.685 129.744 290.211 131.529 302.481 130.101C302.967 130.05 302.967 130.815 302.481 130.866Z" fill="#161616"/>
<path d="M289.649 95.8546C289.649 95.8291 289.572 95.7016 289.572 95.6506C289.546 95.5486 289.47 95.4466 289.393 95.3701C289.24 95.2426 289.061 95.1406 288.856 95.1151C288.473 95.0641 288.115 95.2681 288.013 95.6506C287.936 95.9566 288.064 96.3646 288.422 96.4156C288.754 96.4666 289.061 96.2371 289.112 95.9056C289.189 95.4211 289.93 95.6251 289.853 96.1096C289.725 97.0021 288.575 97.4356 287.834 97.0021C287.016 96.5176 287.067 95.2681 287.757 94.6816C288.524 94.0441 289.802 94.3756 290.237 95.2426C290.441 95.6761 290.441 96.2626 289.955 96.5176C289.572 96.7216 289.01 96.5431 288.907 96.0586C288.831 95.5741 289.572 95.3701 289.649 95.8546Z" fill="#161616"/>
<path d="M325.769 76.0156C318.969 76.9591 312.221 75.5566 305.702 73.6951C305.216 73.5676 305.421 72.8281 305.907 72.9556C312.297 74.7661 318.918 76.1941 325.564 75.2761C326.05 75.1996 326.254 75.9391 325.769 76.0156Z" fill="#161616"/>
<path d="M324.49 81.0137C320.963 81.3962 317.435 81.0392 314.035 79.9682C313.575 79.8152 313.754 79.0757 314.24 79.2287C317.563 80.2742 321.014 80.6057 324.49 80.2487C324.976 80.1977 324.976 80.9627 324.49 81.0137Z" fill="#161616"/>
<path d="M324.49 87.1845C317.742 87.975 310.942 87.4905 304.398 85.782C303.913 85.6545 304.117 84.915 304.603 85.0425C311.096 86.751 317.819 87.21 324.49 86.4195C324.976 86.343 324.976 87.108 324.49 87.1845Z" fill="#161616"/>
<path d="M299.235 126.327C292.461 126.633 285.687 125.817 279.194 123.879C278.734 123.751 278.913 123.012 279.398 123.139C285.84 125.052 292.512 125.868 299.235 125.562C299.746 125.536 299.746 126.301 299.235 126.327Z" fill="#161616"/>
<path d="M297.931 120.488C294.915 120.386 291.898 120.156 288.882 119.825C288.396 119.774 288.396 119.009 288.882 119.06C291.898 119.391 294.889 119.621 297.931 119.723C298.417 119.748 298.417 120.513 297.931 120.488Z" fill="#161616"/>
<path d="M295.477 109.981C293.483 110.236 291.413 109.726 289.444 109.446C287.271 109.114 285.124 108.808 282.951 108.477C282.466 108.4 282.67 107.661 283.156 107.737C285.15 108.043 287.169 108.349 289.163 108.63C291.234 108.936 293.381 109.497 295.477 109.216C295.963 109.14 295.963 109.905 295.477 109.981Z" fill="#161616"/>
<path d="M205.139 52.8107C207.925 66.4532 208.207 80.4782 205.983 94.2227C205.906 94.7072 205.165 94.5032 205.241 94.0187C207.44 80.4272 207.133 66.5042 204.398 53.0147C204.295 52.5302 205.037 52.3262 205.139 52.8107Z" fill="#161616"/>
<path d="M204.27 52.9891C194.991 50.8726 185.405 50.4391 175.947 51.7141C175.461 51.7906 175.257 51.0511 175.742 50.9746C185.328 49.6741 195.042 50.1076 204.475 52.2496C204.935 52.3771 204.73 53.1166 204.27 52.9891Z" fill="#161616"/>
<path d="M176.177 51.0257C176.458 64.1582 176.279 78.0302 169.607 89.7857C169.352 90.2192 168.713 89.8367 168.943 89.4032C175.538 77.7752 175.691 64.0307 175.41 51.0257C175.384 50.5412 176.151 50.5412 176.177 51.0257Z" fill="#161616"/>
<path d="M205.395 94.6306C202.532 95.4976 199.464 95.5486 196.499 95.5741C193.304 95.5996 190.108 95.3956 186.913 94.9621C180.804 94.1461 174.847 92.4886 169.147 90.0916C168.687 89.9131 169.096 89.2502 169.53 89.4287C175.231 91.8256 181.238 93.4576 187.373 94.2481C190.236 94.6051 193.125 94.8091 196.013 94.7836C199.055 94.7836 202.25 94.7581 205.165 93.8656C205.676 93.7636 205.855 94.5031 205.395 94.6306Z" fill="#161616"/>
<path d="M189.75 53.8052C190.619 54.1112 191.003 55.1057 190.696 55.9471C190.338 56.8906 189.239 57.1202 188.421 56.5592C187.629 55.9982 187.373 54.8762 188.14 54.1622C188.805 53.5502 189.955 53.5247 190.568 54.1877C190.901 54.5447 190.364 55.0802 190.032 54.7232C189.265 53.9072 187.757 55.0547 188.805 55.8707C189.214 56.1767 189.802 56.1766 189.98 55.6412C190.108 55.2332 189.98 54.6722 189.546 54.5192C189.086 54.3662 189.29 53.6267 189.75 53.8052Z" fill="#161616"/>
<path d="M204.756 64.668C197.777 64.8465 190.824 64.719 183.871 64.26C183.385 64.2345 183.385 63.4695 183.871 63.495C190.824 63.954 197.803 64.107 204.756 63.903C205.267 63.903 205.267 64.668 204.756 64.668Z" fill="#161616"/>
<path d="M204.066 68.5442C201.458 68.6462 198.851 68.7482 196.269 68.8502C195.783 68.8757 195.783 68.1107 196.269 68.0852C198.876 67.9832 201.484 67.8812 204.066 67.7792C204.577 67.7537 204.577 68.5187 204.066 68.5442Z" fill="#161616"/>
<path d="M204.781 73.9499C198.212 74.3069 191.565 74.6129 185.098 73.1849C184.612 73.0829 184.817 72.3434 185.303 72.4454C191.719 73.8479 198.288 73.5419 204.781 73.1849C205.267 73.1594 205.267 73.9244 204.781 73.9499Z" fill="#161616"/>
<path d="M300.078 156.851C300.666 161.951 300.871 167.076 300.692 172.202C300.666 172.686 299.899 172.686 299.925 172.202C300.104 167.076 299.899 161.951 299.311 156.851C299.26 156.366 300.027 156.366 300.078 156.851Z" fill="#161616"/>
<path d="M299.823 157.156C290.722 157.156 281.597 157.029 272.496 156.749C272.011 156.723 272.011 155.958 272.496 155.984C281.597 156.264 290.722 156.392 299.823 156.392C300.308 156.392 300.308 157.156 299.823 157.156Z" fill="#161616"/>
<path d="M272.573 156.391C272.496 160.828 272.42 165.24 272.343 169.677C272.343 170.161 271.576 170.161 271.576 169.677C271.653 165.24 271.729 160.828 271.806 156.391C271.806 155.907 272.598 155.907 272.573 156.391Z" fill="#161616"/>
<path d="M300.768 171.641C300.717 173.298 297.829 172.559 296.883 172.508C294.173 172.329 291.464 172.151 288.78 171.947C283.284 171.564 277.788 171.207 272.292 170.825C271.806 170.799 271.806 170.034 272.292 170.06C276.97 170.366 281.622 170.697 286.3 171.003C288.524 171.156 290.748 171.309 292.972 171.462C293.636 171.513 300.001 172.125 300.027 171.641C300.001 171.156 300.768 171.156 300.768 171.641Z" fill="#161616"/>
<path d="M297.752 160.599C291.617 160.319 285.482 160.548 279.398 161.313C278.913 161.364 278.913 160.599 279.398 160.548C285.482 159.783 291.617 159.554 297.752 159.834C298.263 159.86 298.263 160.625 297.752 160.599Z" fill="#161616"/>
<path d="M297.522 164.475C294.097 164.22 290.646 163.94 287.22 163.685C286.735 163.659 286.735 162.894 287.22 162.92C290.646 163.175 294.097 163.455 297.522 163.71C298.008 163.736 298.008 164.501 297.522 164.475Z" fill="#161616"/>
<path d="M296.372 168.377C291.438 167.739 286.07 166.439 281.111 167.331C280.625 167.408 280.421 166.694 280.906 166.592C285.968 165.674 291.336 166.949 296.372 167.612C296.832 167.688 296.857 168.453 296.372 168.377Z" fill="#161616"/>
<path d="M229.884 113.45C233.948 127.883 233.437 143.336 228.452 157.488C228.299 157.947 227.557 157.743 227.711 157.284C232.644 143.259 233.156 127.959 229.142 113.654C229.014 113.169 229.756 112.965 229.884 113.45Z" fill="#161616"/>
<path d="M229.372 113.705C217.997 113.654 206.673 112.175 195.655 109.293C195.17 109.166 195.374 108.426 195.86 108.554C206.801 111.41 218.048 112.889 229.372 112.94C229.884 112.94 229.884 113.705 229.372 113.705Z" fill="#161616"/>
<path d="M195.86 108.834C196.32 115.923 196.013 123.063 194.735 130.076C194.096 133.62 193.329 137.165 191.923 140.48C190.517 143.769 188.575 146.753 186.299 149.481C185.993 149.864 185.43 149.328 185.763 148.946C188.089 146.166 190.057 143.081 191.438 139.715C192.741 136.502 193.457 133.059 194.045 129.668C195.272 122.808 195.553 115.796 195.119 108.834C195.067 108.35 195.834 108.35 195.86 108.834Z" fill="#161616"/>
<path d="M228.35 157.896C213.881 158.916 198.774 157.284 186.095 149.838C185.66 149.583 186.044 148.92 186.478 149.175C199.081 156.57 214.035 158.126 228.35 157.131C228.836 157.08 228.836 157.845 228.35 157.896Z" fill="#161616"/>
<path d="M212.961 116C213.396 115.26 212.526 114.342 211.785 114.929C210.993 115.566 211.836 116.586 212.68 116.255C213.14 116.076 213.344 116.816 212.884 116.994C212.194 117.275 211.351 116.969 210.942 116.357C210.482 115.668 210.686 114.801 211.325 114.317C212.705 113.22 214.444 114.929 213.626 116.382C213.37 116.816 212.705 116.433 212.961 116Z" fill="#161616"/>
<path d="M229.117 124.797C221.474 124.67 213.83 124.134 206.213 123.216C205.727 123.165 205.727 122.4 206.213 122.451C213.805 123.395 221.448 123.905 229.117 124.032C229.602 124.058 229.602 124.823 229.117 124.797Z" fill="#161616"/>
<path d="M203.478 119.671C203.248 120.844 203.017 122.043 202.787 123.216C202.685 123.7 201.944 123.496 202.046 123.012C202.276 121.839 202.506 120.64 202.736 119.467C202.813 118.983 203.554 119.187 203.478 119.671Z" fill="#161616"/>
<path d="M202.966 119.57C201.56 119.366 200.154 119.162 198.723 118.932C198.237 118.856 198.442 118.116 198.927 118.193C200.333 118.397 201.739 118.601 203.171 118.83C203.656 118.907 203.452 119.646 202.966 119.57Z" fill="#161616"/>
<path d="M198.953 118.703C198.748 119.799 198.569 120.896 198.365 121.967C198.288 122.451 197.547 122.247 197.624 121.763C197.828 120.666 198.007 119.57 198.212 118.499C198.288 118.04 199.03 118.244 198.953 118.703Z" fill="#161616"/>
<path d="M202.148 123.803C200.64 123.497 199.208 123.089 197.777 122.528C197.317 122.349 197.521 121.61 197.981 121.788C199.413 122.324 200.87 122.757 202.353 123.063C202.838 123.165 202.634 123.905 202.148 123.803Z" fill="#161616"/>
<path d="M202.02 120.437C201.739 121.074 201.356 121.584 200.793 122.018C200.589 122.171 200.206 122.171 200.154 121.839C199.95 120.462 199.464 119.238 198.646 118.091C198.365 117.683 199.03 117.3 199.311 117.708C200.154 118.881 200.691 120.207 200.896 121.635C200.691 121.584 200.461 121.533 200.257 121.457C200.742 121.074 201.1 120.615 201.356 120.029C201.56 119.595 202.225 119.978 202.02 120.437Z" fill="#161616"/>
<path d="M201.739 131.376C202.148 133.212 201.969 134.997 201.228 136.706C201.024 137.165 200.385 136.757 200.563 136.323C201.228 134.819 201.356 133.187 200.998 131.58C200.896 131.096 201.637 130.892 201.739 131.376Z" fill="#161616"/>
<path d="M201.228 131.631C199.694 131.376 198.161 131.147 196.627 130.892C196.78 130.739 196.934 130.586 197.087 130.433C197.343 132.065 197.164 133.62 196.525 135.15C196.346 135.609 195.604 135.405 195.783 134.946C196.371 133.569 196.576 132.116 196.346 130.637C196.294 130.331 196.499 130.127 196.806 130.178C198.34 130.407 199.873 130.662 201.407 130.917C201.918 130.968 201.714 131.708 201.228 131.631Z" fill="#161616"/>
<path d="M200.896 136.731C199.208 136.68 197.598 136.349 196.013 135.788C195.553 135.609 195.757 134.87 196.218 135.048C197.726 135.609 199.285 135.915 200.896 135.966C201.381 135.966 201.381 136.731 200.896 136.731Z" fill="#161616"/>
<path d="M200.666 133.187C200.435 133.85 200.052 134.309 199.439 134.666C199.157 134.819 198.902 134.615 198.851 134.334C198.697 132.983 198.339 131.682 197.777 130.433C197.572 129.999 198.237 129.591 198.442 130.05C199.055 131.427 199.439 132.855 199.617 134.334C199.413 134.232 199.234 134.105 199.03 134.003C199.464 133.748 199.72 133.442 199.899 132.957C200.078 132.524 200.819 132.728 200.666 133.187Z" fill="#161616"/>
<path d="M200.154 143.208C199.975 144.917 199.515 146.523 198.748 148.053C198.544 148.487 197.879 148.104 198.084 147.671C198.774 146.268 199.208 144.764 199.362 143.208C199.439 142.724 200.205 142.724 200.154 143.208Z" fill="#161616"/>
<path d="M199.797 143.132C197.828 143.31 195.988 142.953 194.224 142.086C194.403 142.01 194.607 141.933 194.786 141.856C194.454 143.412 193.764 144.764 192.69 145.962C192.358 146.319 191.821 145.784 192.153 145.427C193.125 144.33 193.738 143.106 194.045 141.678C194.096 141.423 194.403 141.347 194.607 141.449C196.243 142.239 197.982 142.545 199.797 142.392C200.282 142.341 200.282 143.106 199.797 143.132Z" fill="#161616"/>
<path d="M198.058 148.334C196.064 147.594 194.096 146.804 192.179 145.937C191.719 145.733 192.128 145.07 192.562 145.274C194.428 146.115 196.345 146.88 198.263 147.594C198.723 147.773 198.518 148.512 198.058 148.334Z" fill="#161616"/>
<path d="M198.467 144.483C197.854 145.018 196.448 146.854 195.732 145.503C195.4 144.891 195.476 144.049 195.272 143.361C194.965 142.392 194.454 141.499 193.789 140.734C193.483 140.352 194.019 139.816 194.326 140.199C195.042 141.04 195.604 141.958 195.937 143.029C196.09 143.514 196.218 144.024 196.294 144.534C196.397 145.171 196.576 145.018 197.061 144.712C197.368 144.508 197.649 144.202 197.93 143.947C198.288 143.616 198.825 144.151 198.467 144.483Z" fill="#161616"/>
<path d="M228.427 137.267C221.269 137.19 214.137 136.604 207.082 135.482C206.596 135.405 206.801 134.666 207.286 134.742C214.29 135.839 221.346 136.425 228.427 136.476C228.912 136.502 228.912 137.267 228.427 137.267Z" fill="#161616"/>
<path d="M229.244 126.914C224.618 127.041 220.016 126.888 215.415 126.506C214.929 126.455 214.929 125.69 215.415 125.741C220.016 126.123 224.643 126.251 229.244 126.149C229.73 126.123 229.73 126.888 229.244 126.914Z" fill="#161616"/>
<path d="M228.145 138.771C223.288 139.001 218.432 138.822 213.626 138.21C213.14 138.159 213.14 137.394 213.626 137.445C218.457 138.032 223.314 138.236 228.145 138.006C228.631 137.981 228.631 138.746 228.145 138.771Z" fill="#161616"/>
<path d="M211.99 137.853C210.609 137.879 209.255 137.7 207.925 137.267C207.465 137.114 207.67 136.374 208.13 136.527C209.382 136.935 210.66 137.114 211.99 137.088C212.475 137.088 212.475 137.853 211.99 137.853Z" fill="#161616"/>
<path d="M225.538 148.359C219.71 148.002 213.907 147.467 208.13 146.676C207.644 146.6 207.644 145.835 208.13 145.911C213.907 146.676 219.71 147.237 225.538 147.594C226.049 147.62 226.049 148.385 225.538 148.359Z" fill="#161616"/>
<path d="M224.873 150.144C222.956 150.144 221.039 150.144 219.122 150.144C218.636 150.144 218.636 149.379 219.122 149.379C221.039 149.379 222.956 149.379 224.873 149.379C225.359 149.379 225.359 150.144 224.873 150.144Z" fill="#161616"/>
<path d="M223.212 151.852C220.221 151.674 217.23 151.393 214.239 151.036C211.837 150.73 209.255 150.603 207.184 149.2C206.775 148.92 207.159 148.257 207.568 148.537C209.74 150.016 212.655 150.093 215.185 150.373C217.844 150.679 220.528 150.909 223.186 151.087C223.698 151.113 223.723 151.878 223.212 151.852Z" fill="#161616"/>
<path d="M194.019 131.249C189.367 131.019 184.74 130.407 180.164 129.438C180.318 129.362 180.471 129.26 180.625 129.183C178.477 135.558 175.308 141.5 171.243 146.88C170.962 147.263 170.272 146.88 170.579 146.498C174.592 141.194 177.736 135.303 179.883 129.005C179.96 128.801 180.139 128.699 180.343 128.75C184.842 129.719 189.393 130.305 193.994 130.535C194.531 130.509 194.531 131.274 194.019 131.249Z" fill="#161616"/>
<path d="M193.227 152.771C192.537 153.74 191.974 154.76 191.489 155.856C191.438 156.009 191.208 156.086 191.054 156.035C187.296 154.785 183.59 153.408 179.96 151.853C178.119 151.062 176.305 150.246 174.49 149.379C173.62 148.971 172.751 148.538 171.908 148.104C171.397 147.849 170.809 147.696 170.63 147.135C170.579 146.982 170.655 146.778 170.809 146.702C171.039 146.574 171.166 146.574 171.397 146.702C171.55 146.778 171.627 146.982 171.575 147.135C171.575 147.161 171.55 147.186 171.55 147.212C171.422 147.696 170.681 147.492 170.809 147.008C170.809 146.982 170.834 146.957 170.834 146.931C170.885 147.084 170.962 147.212 171.013 147.365C171.064 147.365 171.141 147.365 171.192 147.365C171.243 147.212 171.32 147.084 171.371 146.931C171.524 147.39 173.135 147.875 173.569 148.104C174.285 148.461 175.001 148.793 175.742 149.15C177.455 149.966 179.193 150.731 180.957 151.47C184.331 152.898 187.782 154.173 191.259 155.321C191.105 155.372 190.977 155.448 190.824 155.499C191.284 154.403 191.872 153.383 192.562 152.414C192.844 151.98 193.508 152.363 193.227 152.771Z" fill="#161616"/>
<path d="M188.779 133.238C188.83 132.906 188.217 132.6 187.987 132.83C187.68 133.136 188.191 133.697 188.549 133.569C189.009 133.391 189.214 134.13 188.753 134.309C187.654 134.717 186.581 133.136 187.424 132.294C187.808 131.912 188.396 131.937 188.856 132.167C189.341 132.422 189.597 132.906 189.495 133.442C189.444 133.926 188.702 133.697 188.779 133.238Z" fill="#161616"/>
<path d="M302.047 112.838C299.209 112.889 296.346 112.761 293.534 112.379C290.595 111.971 287.68 111.129 284.69 111.257C284.204 111.282 284.204 110.517 284.69 110.492C287.425 110.39 290.083 111.078 292.767 111.486C295.835 111.971 298.953 112.149 302.072 112.073C302.532 112.073 302.532 112.838 302.047 112.838Z" fill="#161616"/>
<path d="M301.637 104.397C297.292 104.729 292.946 104.346 288.728 103.25C288.243 103.122 288.447 102.383 288.933 102.51C293.1 103.581 297.343 103.964 301.637 103.632C302.123 103.607 302.123 104.372 301.637 104.397Z" fill="#161616"/>
<path d="M203.273 82.9262C203.708 85.7312 204.066 88.7657 202.302 91.2137C202.021 91.6217 201.356 91.2392 201.637 90.8312C203.273 88.5617 202.915 85.7312 202.532 83.1302C202.455 82.6457 203.196 82.4417 203.273 82.9262Z" fill="#161616"/>
<path d="M203.043 82.9006C196.959 83.1301 190.875 82.5436 184.945 81.1411C185.098 81.0646 185.251 80.9626 185.405 80.8861C184.868 83.5126 183.845 85.9605 182.414 88.2045C182.158 88.6125 181.494 88.23 181.749 87.822C183.155 85.629 184.127 83.2321 184.663 80.6821C184.715 80.4781 184.945 80.3761 185.124 80.4271C190.977 81.8041 196.985 82.3906 203.017 82.1611C203.529 82.1101 203.529 82.8751 203.043 82.9006Z" fill="#161616"/>
<path d="M201.662 91.1881C195.067 90.9841 188.549 90.0151 182.209 88.2811C181.724 88.1536 181.928 87.4141 182.414 87.5416C188.702 89.2756 195.144 90.2446 201.662 90.4231C202.174 90.4486 202.174 91.2136 201.662 91.1881Z" fill="#161616"/>
<path d="M111.529 269.305C111.529 272.187 111.529 275.043 111.529 277.924C131.979 286.008 136.146 288.889 135.839 289.935C135.762 290.19 135.226 290.955 124.489 289.705C113.855 288.456 105.241 286.645 99.2592 285.166C100.307 279.276 101.381 273.385 102.429 267.495C105.471 268.107 108.513 268.719 111.529 269.305Z" fill="#161616"/>
<path d="M102.352 147.339C102.94 148.435 103.145 149.328 103.196 149.532C106.851 165.036 111.632 174.19 114.75 192.168C120.706 226.797 115.568 266.143 115.082 269.841C113.446 270.555 110.302 271.626 106.289 271.473C102.761 271.32 100.026 270.274 98.4669 269.535C99.0548 258.238 98.4669 244.29 94.5558 228.913C89.7756 210.069 83.7173 203.821 78.2725 181.789C74.2336 165.469 69.5557 146.472 77.6334 140.836C83.8195 136.45 98.3135 139.663 102.352 147.339Z" fill="#195C99"/>
<path opacity="0.2" d="M88.2162 155.473C92.3062 174.088 96.1151 193.927 99.3359 214.914C102.378 234.651 104.653 253.546 106.34 271.498C103.758 270.963 101.202 270.427 98.6202 269.892C98.9525 261.961 98.5946 255.204 98.0834 250.027C97.4699 243.601 95.9106 228.633 89.6477 213.69C88.8297 211.777 87.7817 209.457 86.069 205.096C83.1804 197.88 81.0843 191.709 80.1385 188.802C75.6906 174.93 73.4666 158.839 72.7765 153.535C77.9401 154.147 83.0782 154.81 88.2162 155.473Z" fill="#6D6C6C"/>
<path opacity="0.19" d="M79.7807 187.884C89.8012 200.915 94.4791 212.721 96.8309 220.652C98.9781 227.868 99.9239 234.243 101.151 242.505C102.889 254.235 103.554 264.129 103.835 271.167C102.148 270.759 100.486 270.326 98.7992 269.918C99.0804 260.049 98.3902 251.609 97.5466 245.03C96.5241 237.227 95.3482 228.174 91.2582 217.286C89.7756 213.333 89.0599 212.211 85.6856 203.669C83.0783 196.988 81.0844 191.505 79.7807 187.884Z" fill="#6D6C6C"/>
<path d="M56.3144 266.373C54.8829 269.917 53.4258 273.462 51.9943 277.032C64.0087 284.656 69.6836 289.093 69.0445 290.394C68.2521 292 57.8737 288.813 37.9094 280.882C40.0311 273.997 42.1528 267.138 44.2745 260.253C48.2878 262.293 52.3011 264.333 56.3144 266.373Z" fill="#161616"/>
<path d="M66.1814 147.645C59.9186 153.357 60.1231 161.364 59.3307 174.624C59.3307 174.624 57.3879 207.238 50.8695 233.452C49.2335 240.006 46.2682 250.18 40.7723 262.369C41.6926 263.542 44.1977 266.398 48.5944 267.903C53.0934 269.433 56.9278 268.617 58.3593 268.234C66.1815 254.923 71.7285 243.576 75.3073 235.722C91.8973 199.461 93.2266 180.361 93.2266 170.391C93.2266 160.14 93.0476 147.849 85.4044 143.743C79.6529 140.658 71.2173 143.055 66.1814 147.645Z" fill="#195C99"/>
<path opacity="0.15" d="M83.9219 151.546C81.0844 162.435 78.0169 173.502 74.7449 184.722C66.2071 213.843 56.9279 241.357 47.1886 267.163C46.2428 266.679 45.0925 266.016 43.9166 265.123C42.7152 264.205 41.7693 263.287 41.0536 262.471C42.3828 259.386 44.2233 254.923 46.1661 249.441C49.1058 241.051 53.886 225.624 56.3655 205.071C58.7428 185.334 59.9443 175.465 59.842 169.243C59.7653 164.118 59.3052 153.688 65.9514 148.078C67.3318 146.931 68.6866 146.242 69.6324 145.834C74.4126 147.747 79.1673 149.659 83.9219 151.546Z" fill="#6D6C6C"/>
<path opacity="0.22" d="M59.5351 175.873C60.711 187.731 61.0944 203.617 58.2314 221.977C55.3428 240.439 50.1025 255.51 45.3734 266.475C43.9164 265.276 42.4593 264.078 41.0023 262.854C42.7405 258.748 45.0156 253.036 47.2906 246.049C51.6618 232.611 53.5535 222.13 55.1895 212.721C56.851 203.082 58.5893 190.612 59.5351 175.873Z" fill="#6D6C6C"/>
<path d="M179.219 54.4937C180.241 55.0037 181.647 55.8962 182.746 57.4261C183.334 58.2166 184.05 59.2621 184.152 60.7411C184.178 61.3276 184.254 62.6026 183.436 63.4441C183.206 63.6991 182.593 64.1836 179.577 64.0816C176.893 63.9796 175.538 63.9286 174.848 63.2146C173.518 61.8376 174.004 59.2366 174.848 57.6811C176.177 55.2077 178.784 54.5957 179.219 54.4937Z" fill="white" stroke="#161616" stroke-width="2" stroke-miterlimit="10"/>
<path d="M163.779 60.8941C160.175 64.9996 154.398 67.4476 143.789 71.8081C130.42 77.3161 123.723 80.0701 115.798 81.0391C107.235 82.0846 102.659 80.9881 101.074 83.7676C99.0036 87.3631 103.86 94.0951 108.871 99.7306C112.603 98.9146 116.463 97.8946 120.45 96.5686C142.306 89.3521 158.104 76.6531 168.482 66.0961C169.786 66.3766 172.01 66.6571 174.541 65.8921C176.714 65.2546 179.781 63.6226 179.602 62.3221C179.372 60.7411 173.825 60.4606 173.493 60.4351C175.18 59.7466 177.608 58.5736 180.241 56.6611C181.008 56.1001 185.405 52.8616 184.868 51.8416C184.408 50.9491 180.42 52.1731 176.662 53.3206C173.237 54.3661 170.86 55.1056 168.252 56.8906C165.747 58.5736 164.29 60.3076 163.779 60.8941Z" fill="white" stroke="#161616" stroke-width="2" stroke-miterlimit="10"/>
<path d="M181.468 54.7741C180.855 55.4626 180.727 56.3806 180.19 57.0946C179.73 57.7321 179.065 58.1911 178.375 58.5736C176.305 59.7211 174.106 60.6646 171.985 61.7101C171.627 61.8886 171.167 61.4041 171.524 61.0981C172.624 60.1546 173.799 59.3131 175.026 58.5481C175.435 58.2931 175.844 58.9561 175.41 59.2111C174.234 59.9506 173.109 60.7411 172.061 61.6336C171.908 61.4296 171.754 61.2256 171.601 61.0216C173.621 60.0526 175.64 59.1091 177.634 58.0636C178.58 57.5791 179.423 57.0181 179.909 56.0491C180.241 55.3861 180.42 54.7486 180.931 54.1876C181.264 53.8816 181.801 54.4171 181.468 54.7741Z" fill="white"/>
<path d="M179.474 57.4515C178.298 57.9615 177.174 58.6245 176.151 59.415C175.768 59.721 175.231 59.1855 175.614 58.8795C176.688 58.038 177.838 57.3495 179.091 56.7885C179.551 56.5845 179.934 57.2475 179.474 57.4515Z" fill="white"/>
<path d="M182.491 54.3151C181.519 55.8706 180.241 57.1456 178.733 58.1656C178.324 58.4461 177.941 57.7831 178.35 57.5026C179.756 56.5591 180.931 55.3606 181.826 53.9071C182.082 53.5246 182.746 53.9071 182.491 54.3151Z" fill="white"/>
<path d="M181.34 56.4061C180.829 57.0946 180.267 57.7321 179.628 58.2931C179.168 58.7011 177.148 60.1546 178.196 60.8941C178.401 61.0216 178.196 61.3531 177.992 61.2256C177.276 60.7411 177.557 59.8741 177.992 59.2876C178.324 58.8541 178.784 58.5226 179.219 58.1401C179.883 57.5536 180.471 56.9161 181.008 56.2276C181.161 55.9981 181.494 56.2021 181.34 56.4061Z" fill="#161616"/>
<path d="M181.877 59.0581C181.11 60.1036 179.653 61.5826 178.222 61.1491C177.992 61.0726 178.094 60.7156 178.324 60.7921C179.551 61.1746 180.906 59.7721 181.545 58.8796C181.698 58.6756 182.031 58.8541 181.877 59.0581Z" fill="#161616"/>
<path d="M183.002 60.8432C182.158 61.9907 180.931 62.6537 179.5 62.7302C179.244 62.7557 179.244 62.3732 179.5 62.3477C180.778 62.2712 181.903 61.6592 182.67 60.6392C182.823 60.4352 183.155 60.6392 183.002 60.8432Z" fill="#161616"/>
<path d="M183.82 63.1382C182.618 64.3877 180.625 64.4132 179.423 63.1382C179.244 62.9597 179.525 62.6792 179.704 62.8577C180.752 63.9797 182.491 63.9542 183.539 62.8577C183.718 62.6792 183.999 62.9597 183.82 63.1382Z" fill="#161616"/>
<path d="M183.564 54.2642C180.727 56.1257 178.682 59.2622 175.129 59.8742C174.899 59.9252 174.771 59.5427 175.026 59.5172C178.529 58.9307 180.573 55.7942 183.36 53.9582C183.59 53.7797 183.769 54.1112 183.564 54.2642Z" fill="#161616"/>
<path opacity="0.2" d="M183.871 62.6026C184.791 61.3531 184.025 58.6756 181.801 56.1511C179.295 57.6046 176.816 59.0836 174.311 60.5371C174.771 60.5371 178.81 60.5881 179.091 61.8376C179.142 62.0416 179.091 62.3476 178.708 62.7811C177.429 63.3931 175.282 64.2091 172.521 64.2856C171.09 64.3111 169.837 64.1326 168.866 63.9031C163.651 69.1561 154.474 77.0866 140.977 82.8496C129.116 87.8986 118.482 89.3521 111.453 89.7601C111.683 92.7691 111.913 95.7526 112.143 98.7616C123.723 95.7016 139.418 89.8876 155.011 78.2086C160.328 74.2306 164.878 70.1251 168.764 66.1726C172.342 66.7591 174.566 66.1471 175.972 65.4331C177.174 64.8211 177.941 64.0561 179.526 63.9286C180.574 63.8521 181.468 64.1071 182.619 63.5461C182.746 63.4951 183.488 63.1126 183.871 62.6026Z" fill="#6D6C6C"/>
<path opacity="0.14" d="M150.947 80.6057C147.368 82.5182 143.227 84.4562 138.498 86.1137C128.196 89.7602 118.866 90.9077 111.734 91.1627C111.836 93.7637 111.913 96.3902 112.015 98.9912C119.428 97.2572 128.733 94.2227 138.6 88.7147C143.329 86.0882 147.419 83.3087 150.947 80.6057Z" fill="#6D6C6C"/>
<path d="M110.532 87.873C111.989 91.1625 112.066 93.891 112.194 98.787C112.296 102.484 112.041 106.462 110.047 116.917C107.618 129.565 106.468 131.605 106.084 138.312C105.778 143.565 106.187 147.874 106.57 150.73C103.349 152.49 97.9556 154.887 90.9003 155.422C78.4258 156.366 69.1978 150.883 66.028 148.792C65.6446 140.785 65.2611 132.753 64.8521 124.746C66.2581 117.912 67.9197 112.557 69.1211 109.038C72.9043 97.9455 76.432 92.6925 74.1825 87.1335C72.9299 84.048 70.4503 82.161 68.7377 81.1155C69.9391 80.1975 82.5414 70.89 96.294 75.7095C97.7255 76.194 106.775 79.3815 110.532 87.873Z" fill="white" stroke="#161616" stroke-width="2" stroke-miterlimit="10"/>
<path opacity="0.19" d="M96.3452 75.684C92.5108 81.804 90.3636 87.21 89.1366 90.984C89.1366 90.984 83.1294 109.191 87.5261 133.62C88.472 138.822 90.1591 146.217 93.4822 154.683C92.2041 154.964 90.6703 155.193 88.9321 155.27C88.9321 155.27 86.248 155.397 83.2316 155.015C79.5506 154.53 73.2367 152.567 65.798 148.793C65.6702 140.25 65.5424 131.733 65.4145 123.191C67.3062 115.974 69.2234 110.186 70.6549 106.131C74.1058 96.4665 76.5342 91.9275 74.5404 87.1335C73.2367 83.997 70.5782 82.059 68.5076 80.937C71.2172 79.152 76.2275 76.3725 83.0783 75.3015C88.7276 74.4345 93.38 75.0465 96.3452 75.684Z" fill="#6D6C6C"/>
<path opacity="0.11" d="M92.8433 75.0974C88.7277 80.1464 83.9219 87.5159 80.9567 97.2314C72.5466 124.975 86.376 149.302 89.5713 154.632C86.8872 154.606 83.743 154.377 80.3176 153.714C74.2082 152.541 69.3257 150.45 65.8237 148.588C65.6958 140.632 65.568 132.676 65.4402 124.746C67.613 117.376 69.658 110.389 72.4444 100.903C74.336 94.4009 75.8186 89.0714 73.0323 84.8129C71.6775 82.7474 69.7859 81.5999 68.3544 80.9369C76.5088 78.9734 84.6888 77.0354 92.8433 75.0974Z" fill="#6D6C6C"/>
<path d="M94.7347 127.194C94.8114 121.737 94.8625 116.306 94.9392 110.849C81.8257 110.186 68.7121 109.523 55.573 108.86C55.1129 113.909 54.6527 118.958 54.1671 124.007C67.6896 125.078 81.2121 126.123 94.7347 127.194Z" fill="white" stroke="#161616" stroke-width="2" stroke-miterlimit="10"/>
<path d="M98.7224 125.409C98.7224 123.42 98.7224 121.431 98.7224 119.442C81.8767 118.193 65.0311 116.918 48.1854 115.668C48.0576 118.116 47.9298 120.59 47.7764 123.038C64.7499 123.803 81.7489 124.619 98.7224 125.409Z" fill="white" stroke="#161616" stroke-width="2" stroke-miterlimit="10"/>
<path d="M97.3164 116.433C97.1119 119.366 96.9074 122.273 96.7285 125.205C81.1354 123.956 65.5678 122.681 49.9746 121.431C49.8468 118.779 49.719 116.127 49.5656 113.45C65.4911 114.444 81.4165 115.439 97.3164 116.433Z" fill="white" stroke="#161616" stroke-width="2" stroke-miterlimit="10"/>
<path d="M101.125 123.012C100.665 134.64 100.205 146.268 99.7193 157.896C82.3368 155.958 64.9543 154.046 47.5718 152.108C47.035 140.684 46.4982 129.26 45.9614 117.836C64.3664 119.57 82.7458 121.278 101.125 123.012Z" fill="white" stroke="#161616" stroke-width="2" stroke-miterlimit="10"/>
<path d="M98.1601 127.551C90.2612 126.506 82.3624 125.766 74.4124 125.307C74.0546 125.282 74.0546 124.721 74.4124 124.721C82.3624 125.18 90.2868 125.919 98.1601 126.965C98.5179 127.016 98.5179 127.602 98.1601 127.551Z" fill="#161616"/>
<path d="M89.341 129.107C83.2826 128.342 77.2243 127.551 71.1404 126.786C70.7826 126.735 70.7826 126.174 71.1404 126.2C77.1988 126.965 83.2571 127.755 89.341 128.52C89.6988 128.597 89.6988 129.158 89.341 129.107Z" fill="#161616"/>
<path d="M60.2251 145.426C60.3274 147.033 60.3274 148.665 60.174 150.271C60.1485 150.628 59.5605 150.628 59.5861 150.271C59.7395 148.665 59.7651 147.033 59.6372 145.426C59.6117 145.069 60.1996 145.069 60.2251 145.426Z" fill="#161616"/>
<path d="M59.9697 145.478C56.7999 145.554 53.6557 145.376 50.5115 144.968C50.6138 144.866 50.716 144.764 50.7927 144.687C50.8439 146.166 50.7928 147.62 50.6905 149.073C50.6649 149.43 50.077 149.43 50.1026 149.073C50.2304 147.62 50.2559 146.141 50.2048 144.687C50.2048 144.534 50.3326 144.381 50.486 144.407C53.6302 144.815 56.7744 144.968 59.9441 144.917C60.3531 144.891 60.3531 145.452 59.9697 145.478Z" fill="#161616"/>
<path d="M59.7396 150.731C56.5955 150.782 53.5024 150.45 50.4349 149.762C50.077 149.685 50.2304 149.124 50.5883 149.201C53.6046 149.864 56.6466 150.195 59.7396 150.144C60.0975 150.144 60.0975 150.705 59.7396 150.731Z" fill="#161616"/>
<path d="M58.5382 147.263C56.5955 147.39 54.6783 147.288 52.7355 146.982C52.3776 146.931 52.531 146.37 52.8889 146.421C54.755 146.727 56.6466 146.804 58.5382 146.676C58.8961 146.651 58.8961 147.237 58.5382 147.263Z" fill="#161616"/>
<path d="M57.311 148.869C55.2916 148.818 53.3488 148.436 51.4316 147.747C51.0993 147.62 51.2272 147.059 51.585 147.186C53.4256 147.875 55.3427 148.232 57.311 148.308C57.6689 148.283 57.6945 148.869 57.311 148.869Z" fill="#161616"/>
<path opacity="0.2" d="M92.8687 156.57C92.4085 145.809 91.9484 135.048 91.5138 124.262C76.5853 123.063 61.6312 121.89 46.7027 120.692C47.035 130.892 47.3929 141.092 47.7252 151.292C62.7815 153.051 77.8123 154.811 92.8687 156.57Z" fill="#6D6C6C"/>
<path opacity="0.2" d="M52.3264 113.73C52.2497 116.688 52.4031 120.207 53.17 124.108C55.0616 133.696 59.6117 140.607 62.7048 144.508C60.6087 147.288 58.5125 150.067 56.3908 152.847C62.807 153.586 69.2232 154.326 75.6394 155.065C74.6169 143.386 73.5944 131.707 72.5719 120.054C72.9042 118.524 73.2621 116.994 73.5944 115.464C66.5136 114.852 59.4072 114.291 52.3264 113.73Z" fill="#6D6C6C"/>
<path d="M70.118 80.4268C64.7754 79.7128 58.4104 91.9528 55.8797 100.75C52.9655 110.874 54.2437 119.62 55.2917 124.236C57.3367 133.288 61.5801 139.663 64.2386 143.106C63.8296 144.457 62.8838 148.129 64.4431 152.158C66.7437 158.049 72.981 160.879 73.4667 160.344C73.62 160.165 73.3133 159.426 70.8849 156.646C71.3961 157.182 75.0771 160.828 79.2182 159.961C79.934 159.808 80.8286 159.63 81.3399 158.916C82.5413 157.182 80.5475 153.255 76.3041 148.894C80.9309 150.042 82.1579 149.736 82.388 149.226C82.9759 148.002 78.2468 144.534 76.5342 143.259C74.0035 141.397 71.7284 140.122 70.1691 139.332C65.7979 130.279 66.028 123.216 66.4114 119.901C66.9738 115.005 68.8143 109.675 69.1721 108.655C70.1946 105.723 70.6803 105.06 72.7253 99.7813C76.0229 91.3153 76.0229 89.8618 75.8951 88.7398C75.435 85.3738 73.1599 80.8348 70.118 80.4268Z" fill="white" stroke="#161616" stroke-width="2" stroke-miterlimit="10"/>
<path d="M81.2377 158.202C78.4002 156.595 75.9206 154.53 73.8501 152.031C73.5433 151.648 74.0801 151.113 74.3869 151.495C76.4063 153.943 78.8348 155.983 81.6211 157.564C82.0557 157.768 81.6722 158.431 81.2377 158.202Z" fill="#161616"/>
<path d="M78.7325 159.91C75.9206 158.457 73.5177 156.442 71.575 153.943C71.2682 153.561 71.9329 153.178 72.2396 153.561C74.0801 155.958 76.4319 157.87 79.116 159.247C79.5505 159.477 79.1671 160.14 78.7325 159.91Z" fill="#161616"/>
<path opacity="0.17" d="M72.2653 81.6509C77.3522 86.0624 56.5955 105.417 60.1487 127.398C62.5771 142.468 72.6487 152.311 72.6487 152.311C75.4606 155.116 80.752 158.559 80.113 159.757C79.6528 160.624 76.4575 159.834 75.3072 159.477C73.1344 158.814 71.6262 157.692 70.7827 156.952C72.0608 158.38 73.5178 160.14 73.2111 160.497C72.7765 160.956 69.1467 159.069 66.8716 156.417C62.935 151.827 63.4974 145.452 63.8808 142.851C62.9605 141.652 61.7591 139.969 60.5321 137.827C59.4074 135.915 56.1609 129.948 54.755 121.839C52.2754 107.482 57.3624 96.1604 59.4074 91.7234C61.2479 87.7709 64.3665 81.2174 69.0955 80.9369C69.709 80.8604 71.2683 80.7839 72.2653 81.6509Z" fill="#6D6C6C"/>
<path opacity="0.22" d="M55.0361 121.431C56.4165 125.434 58.0524 129.642 59.9952 134.053C61.3756 137.19 62.7815 140.122 64.213 142.902C64.9287 145.197 66.2836 148.639 68.9676 152.184C71.7795 155.907 74.8726 158.176 76.9431 159.477C76.3552 159.502 75.6394 159.451 74.847 159.247C72.8531 158.788 71.5239 157.692 70.8592 157.029C71.6261 157.998 72.4186 158.941 73.1854 159.91C72.5719 159.808 71.6006 159.63 70.5269 159.145C64.9032 156.621 63.7273 149.761 63.6506 149.302C63.4461 148.053 63.3183 145.911 64.0852 143.259C62.2447 141.091 59.9185 137.853 58.0525 133.492C55.9819 128.698 55.2917 124.389 55.0361 121.431Z" fill="#6D6C6C"/>
<path d="M116.411 63.6478C120.527 68.3398 117.69 74.8933 117.306 75.7858C115.875 79.1008 112.168 83.8183 107.465 83.4358C104.039 83.1298 101.866 80.2483 101.33 79.4833C97.5463 74.0518 98.7989 63.6733 105.189 60.9958C108.717 59.5168 113.574 60.3838 116.411 63.6478Z" fill="#EC615B"/>
<path d="M106.033 67.8299C105.854 69.8444 103.732 70.2779 102.301 73.5929C101.278 75.9899 101.278 78.3359 101.457 80.0189C99.7958 80.1719 96.7283 80.2484 93.2518 78.9224C90.5166 77.8769 88.5994 76.3724 87.4491 75.3269C87.9859 74.1284 88.7784 72.3689 89.7242 70.2779C93.8142 61.3784 94.4788 60.6134 95.4758 60.2309C99.4635 58.7264 106.365 64.0814 106.033 67.8299Z" fill="white" stroke="#161616" stroke-width="2" stroke-miterlimit="10"/>
<path d="M120.757 41.4883C121.626 42.7123 122.163 44.2168 122.24 50.6683C122.291 56.1763 121.984 61.1998 121.473 65.6623C120.322 64.9993 119.172 64.3363 118.022 63.6733C117.511 64.9228 116.641 66.6313 115.159 68.2888C112.219 71.5783 108.64 72.7003 107.055 73.1083C105.394 72.7003 101.253 71.4253 98.1086 67.5238C96.038 64.9228 95.3734 62.3473 95.22 61.7608C94.2742 57.9103 95.1944 54.7228 95.6801 53.3968C95.0666 53.1163 94.1208 52.5808 93.4051 51.6118C91.8969 49.5718 91.4879 45.9253 93.3539 44.7013C94.7343 43.7833 97.1883 44.3188 99.0288 46.2058C99.4378 45.2623 100.077 43.9618 101.099 42.6103C101.355 42.2788 103.272 39.7798 105.624 38.4793C110.149 35.8783 117.638 37.1023 120.757 41.4883Z" fill="white" stroke="#161616" stroke-width="2" stroke-miterlimit="10"/>
<path d="M122.623 49.4954C123.646 49.3169 125.537 48.7814 126.432 47.2259C127.966 44.5994 125.716 40.5959 125.154 39.6014C124.694 38.7599 123.467 36.7454 118.252 33.0989C114.29 30.3194 112.296 28.9424 110.149 28.2794C102.531 26.0099 95.5525 29.9369 94.2488 30.6764C91.5136 32.2319 89.7754 33.9149 88.395 35.2409C86.2733 37.2809 83.896 39.6269 81.2375 42.3299C74.4123 51.1529 72.0094 59.2109 71.038 64.0304C69.9388 69.4874 68.8141 75.0463 72.0861 78.3103C75.3581 81.5743 81.3397 80.9114 84.9952 79.3559C90.0821 77.1884 92.2549 72.5983 93.942 69.0538C96.805 62.9848 96.984 57.1708 96.7028 53.3969C94.1465 52.6574 92.8428 50.2604 93.4308 48.4499C93.8909 47.0219 95.6036 45.5939 97.3674 46.1039C98.7222 46.4864 99.6936 47.8889 99.6169 49.5209C100.844 49.4954 104.116 49.2149 107.235 46.8689C109.51 45.1604 110.66 43.1204 111.197 41.9984C112.603 42.1769 115.415 42.6869 118.252 44.7269C120.629 46.3589 121.959 48.3224 122.623 49.4954Z" fill="#EC615B"/>
<path opacity="0.24" d="M105.701 54.3657C102.633 58.0632 101.662 61.9647 101.662 61.9647C100.665 66.3507 102.096 70.0737 102.736 71.5782C101.125 70.3542 99.4891 69.1302 97.8786 67.9062C96.7539 71.6292 95.6547 75.3267 94.5299 79.0497C93.6864 78.9732 91.9481 78.6672 90.2099 77.4432C88.8806 76.4997 88.0882 75.4032 87.6536 74.7147C89.7242 72.8022 93.6864 68.5692 95.5013 61.9137C96.3704 58.7007 96.4982 55.8447 96.396 53.7027C94.0698 52.7592 92.8684 50.4897 93.354 48.6027C93.7119 47.2257 95.1179 45.5682 96.9328 45.8232C98.441 46.0527 99.6936 47.5317 99.668 49.3422C100.818 49.3422 103.528 49.2147 106.365 47.5062C109.305 45.7467 110.711 43.2987 111.248 42.2532C111.12 47.1492 109.612 49.9797 108.257 51.6627C107.362 52.8102 106.953 52.8612 105.701 54.3657Z" fill="#6D6C6C"/>
<path d="M117.587 53.295C117.868 54.315 117.843 55.3605 117.459 56.355C117.332 56.712 116.846 56.7375 116.718 56.355C116.411 55.437 116.411 54.468 116.693 53.55C116.846 53.091 117.587 53.2695 117.434 53.754C117.178 54.57 117.204 55.3605 117.459 56.1765C117.204 56.1765 116.974 56.1765 116.718 56.1765C117.05 55.3095 117.102 54.417 116.846 53.5245C116.718 53.0145 117.434 52.8105 117.587 53.295Z" fill="#161616"/>
<path d="M118.508 51.7139C117.843 51.3059 117.025 51.3824 116.463 51.9179C116.105 52.2494 115.568 51.7139 115.926 51.3824C116.718 50.6174 117.945 50.4644 118.891 51.0509C119.3 51.3059 118.917 51.9689 118.508 51.7139Z" fill="#161616"/>
<path d="M115.747 58.1908C115.261 58.1908 115.261 57.4258 115.747 57.4258C116.258 57.4258 116.258 58.1908 115.747 58.1908Z" fill="#161616"/>
<path d="M114.06 55.9723C114.06 55.9978 114.06 56.0233 114.06 56.0488C114.06 56.2528 113.881 56.4313 113.676 56.4313C113.472 56.4313 113.293 56.2528 113.293 56.0488C113.293 56.0233 113.293 55.9978 113.293 55.9723C113.293 55.7683 113.472 55.5898 113.676 55.5898C113.881 55.5898 114.06 55.7428 114.06 55.9723Z" fill="#161616"/>
<path d="M113.983 57.8849C113.497 57.8849 113.497 57.1199 113.983 57.1199C114.469 57.1199 114.469 57.8849 113.983 57.8849Z" fill="#161616"/>
<path d="M124.515 54.468C124.822 55.488 124.796 56.5335 124.438 57.528C124.31 57.885 123.825 57.885 123.697 57.528C123.39 56.61 123.365 55.641 123.62 54.723C123.748 54.2385 124.489 54.4424 124.362 54.927C124.131 55.743 124.157 56.5335 124.438 57.324C124.183 57.324 123.953 57.324 123.697 57.324C124.004 56.457 124.055 55.5645 123.774 54.672C123.646 54.1874 124.387 53.9835 124.515 54.468Z" fill="#161616"/>
<path d="M124.949 52.5553C124.412 52.2748 123.671 52.4023 123.313 52.9123C123.032 53.2948 122.367 52.9123 122.649 52.5298C123.288 51.6883 124.387 51.4078 125.333 51.8923C125.767 52.1218 125.384 52.7848 124.949 52.5553Z" fill="#161616"/>
<path d="M116.335 66.4273C114.366 66.0703 112.654 65.0248 111.376 63.4693C111.146 63.1888 111.555 62.7808 111.785 63.0613C112.986 64.5403 114.597 65.5093 116.488 65.8663C116.846 65.9428 116.693 66.5038 116.335 66.4273Z" fill="#161616"/>
<path d="M112.347 63.1124C111.887 63.2654 111.504 63.4949 111.171 63.8264C110.916 64.0814 110.507 63.6734 110.762 63.4184C111.171 63.0104 111.657 62.7299 112.194 62.5514C112.552 62.4494 112.705 63.0104 112.347 63.1124Z" fill="#161616"/>
<path opacity="0.45" d="M96.4216 29.7583C93.1752 34.2463 89.0085 40.5958 85.0463 48.7048C80.8541 57.2728 77.7866 63.7243 80.1639 66.2743C83.3081 69.6658 94.1721 64.2853 95.9104 63.3928C95.5525 65.7133 94.6578 69.4108 92.0249 73.1083C90.6956 74.9698 88.3695 78.2593 84.075 79.7893C81.4932 80.7073 79.1925 80.6563 78.2979 80.5798C77.0964 80.5033 75.716 80.4013 74.2079 79.5853C74.2079 79.5853 72.2395 78.5398 70.9103 76.3978C68.8909 73.1338 69.9645 68.7223 71.396 63.1888C73.1087 56.5588 75.4093 52.1473 77.6588 47.7868C78.2212 46.7158 78.8858 45.4663 79.9594 44.0128C81.033 42.5338 81.8255 41.7433 85.1486 38.5558C90.0821 33.7873 90.849 33.0988 92.3316 32.1043C93.9676 30.9823 95.4247 30.2428 96.4216 29.7583Z" fill="#8D3633"/>
<path opacity="0.43" d="M102.582 73.1338C102.378 73.7203 101.918 75.3778 102.582 77.2138C103.579 79.9423 106.34 80.8603 106.774 80.9878C109.919 82.0078 113.881 80.4013 116.539 76.9078C116.181 77.8258 115.389 79.4578 113.753 80.8858C112.935 81.5998 110.711 83.5123 107.567 83.2828C107.03 83.2318 103.579 82.9768 101.994 79.9933C100.844 77.8768 101.1 75.2248 102.582 73.1338Z" fill="#8D3633"/>
</svg>
