<svg width="400" height="300" viewBox="0 0 400 300" fill="none" xmlns="http://www.w3.org/2000/svg">
<path d="M93.2251 251.35C117.3 251.35 141.4 251.35 165.475 251.35C172.275 251.35 179.1 251.35 185.9 251.35C186.375 251.35 186.375 250.6 185.9 250.6C161.825 250.6 137.725 250.6 113.65 250.6C106.85 250.6 100.025 250.6 93.2251 250.6C92.7501 250.6 92.7501 251.35 93.2251 251.35Z" fill="#E8E8E8"/>
<path d="M190.75 251.35C215.35 251.35 239.925 251.35 264.525 251.35C271.5 251.35 278.475 251.35 285.45 251.35C285.925 251.35 285.925 250.6 285.45 250.6C260.85 250.6 236.275 250.6 211.675 250.6C204.7 250.6 197.725 250.6 190.75 250.6C190.275 250.6 190.275 251.35 190.75 251.35Z" fill="#E8E8E8"/>
<path d="M208.575 258.225C227.875 258.225 247.15 258.225 266.45 258.225C266.925 258.225 266.925 257.475 266.45 257.475C247.15 257.475 227.875 257.475 208.575 257.475C208.075 257.475 208.075 258.225 208.575 258.225Z" fill="#E8E8E8"/>
<path d="M149.075 259.85C160.275 259.85 171.475 259.85 182.675 259.85C183.15 259.85 183.15 259.1 182.675 259.1C171.475 259.1 160.275 259.1 149.075 259.1C148.6 259.1 148.6 259.85 149.075 259.85Z" fill="#E8E8E8"/>
<path d="M298.4 250.95C307.3 250.95 316.2 250.95 325.1 250.95C325.575 250.95 325.575 250.2 325.1 250.2C316.2 250.2 307.3 250.2 298.4 250.2C297.925 250.2 297.925 250.95 298.4 250.95Z" fill="#E8E8E8"/>
<path d="M103.75 203.675C106.95 209.25 107.625 215.975 105.625 222.075C105.55 222.275 105.7 222.475 105.875 222.525C106.625 222.775 107.4 223.1 107.925 223.675C108.6 224.425 108.75 225.925 107.6 226.375C107.375 226.475 107.175 226.8 107.425 227C109.375 228.525 109.6 231.075 109.75 233.375C109.9 235.65 110.125 237.9 110.675 240.1C111.75 244.35 113.85 248.3 117.375 250.975C117.75 251.275 118.125 250.625 117.75 250.325C113.85 247.375 111.85 242.75 111 238.05C110.325 234.4 111.225 229.05 107.925 226.475C107.875 226.675 107.825 226.9 107.75 227.1C108.8 226.675 109.325 225.6 109.1 224.475C108.8 223 107.325 222.225 106 221.8C106.075 221.95 106.175 222.1 106.25 222.25C108.325 215.95 107.6 209 104.3 203.275C104.15 202.875 103.5 203.25 103.75 203.675Z" fill="#E8E8E8"/>
<path d="M103.975 203.075C109.075 206.2 113.15 210.6 116.5 215.5C118.125 217.85 119.6 220.325 120.975 222.825C122.125 224.925 124.75 228.675 122.575 230.9C122.375 231.1 122.475 231.45 122.75 231.525C124.45 231.975 125.15 233.9 125.775 235.375C126.425 236.925 126.95 238.525 127.35 240.15C128.2 243.525 128.55 247 128.4 250.475C128.375 250.95 129.125 250.95 129.15 250.475C129.3 246.475 128.85 242.475 127.7 238.625C127.175 236.875 126.55 235.15 125.75 233.525C125.15 232.3 124.325 231.175 122.95 230.8C123 231 123.05 231.225 123.125 231.425C124.975 229.55 123.95 226.8 122.9 224.775C121.375 221.8 119.7 218.9 117.85 216.125C114.275 210.725 109.925 205.825 104.35 202.425C103.95 202.175 103.575 202.825 103.975 203.075Z" fill="#E8E8E8"/>
<path d="M104.325 203.3C115.725 216.525 122.975 233.1 124.925 250.45C124.975 250.925 125.725 250.925 125.675 250.45C124.125 236.775 119.35 223.5 111.8 212C109.675 208.775 107.35 205.7 104.825 202.775C104.525 202.4 104 202.95 104.325 203.3Z" fill="#E8E8E8"/>
<path d="M106.475 221.05C112.75 223.775 118.025 228.35 121.6 234.175C121.85 234.575 122.5 234.2 122.25 233.8C118.625 227.875 113.25 223.175 106.85 220.4C106.425 220.225 106.05 220.85 106.475 221.05Z" fill="#E8E8E8"/>
<path d="M116.35 214.925C116.55 217.575 116.85 220.175 117.325 222.8C117.4 223.275 118.125 223.075 118.05 222.6C117.6 220.05 117.3 217.5 117.1 214.925C117.05 214.45 116.3 214.45 116.35 214.925Z" fill="#E8E8E8"/>
<path d="M109.85 234.8C115.625 237.4 120.675 241.425 124.475 246.5C124.75 246.875 125.4 246.5 125.125 246.125C121.25 240.95 116.15 236.825 110.225 234.15C109.8 233.975 109.425 234.6 109.85 234.8Z" fill="#E8E8E8"/>
<path d="M119.825 219.175C119.75 213.025 120.725 206.925 122.675 201.1C122.5 201.175 122.3 201.25 122.125 201.325C122.575 201.55 123 201.775 123.45 201.975C123.7 202.1 124 201.95 124.025 201.65C124.125 197.85 125.225 194.225 127.275 191.025C127.05 191 126.825 190.975 126.6 190.925C128.3 195.775 130 200.6 131.7 205.45C132.525 207.8 133.35 210.125 134.175 212.475C134.8 214.25 137.375 219.325 134.1 219.875C133.8 219.925 133.75 220.325 133.925 220.5C135.65 222.35 136.3 224.825 136.625 227.275C136.95 229.8 137 232.35 136.9 234.875C136.675 240.175 135.575 245.375 133.675 250.325C133.5 250.775 134.225 250.975 134.4 250.525C136.425 245.25 137.55 239.625 137.675 233.975C137.775 229.4 137.8 223.55 134.45 220C134.4 220.2 134.35 220.425 134.275 220.625C136.2 220.3 136.675 218.25 136.325 216.575C135.7 213.7 134.375 210.85 133.4 208.075C131.375 202.3 129.325 196.525 127.3 190.725C127.2 190.425 126.8 190.35 126.625 190.625C124.5 193.925 123.35 197.7 123.275 201.625C123.475 201.525 123.65 201.4 123.85 201.3C123.4 201.075 122.975 200.85 122.525 200.65C122.3 200.525 122.05 200.625 121.975 200.875C120 206.775 119.025 212.925 119.1 219.15C119.075 219.65 119.825 219.65 119.825 219.175Z" fill="#E8E8E8"/>
<path d="M125.875 191.7C129.8 211.175 127.125 231.2 130.35 250.75C130.425 251.225 131.15 251.025 131.075 250.55C127.875 231 130.55 210.95 126.6 191.5C126.5 191.025 125.775 191.225 125.875 191.7Z" fill="#E8E8E8"/>
<path d="M120.225 207.625C121.7 214.775 124.975 221.325 128.225 227.825C128.45 228.25 129.1 227.875 128.875 227.45C125.65 221.025 122.425 214.525 120.95 207.45C120.85 206.95 120.125 207.15 120.225 207.625Z" fill="#E8E8E8"/>
<path d="M132.775 207.725C130.95 211.175 129.475 214.8 128.325 218.525C128.175 218.975 128.9 219.175 129.05 218.725C130.175 215.05 131.65 211.5 133.425 208.1C133.65 207.675 133 207.3 132.775 207.725Z" fill="#E8E8E8"/>
<path d="M243.425 250.325C244.15 244.05 244.875 237.775 245.6 231.5C245.475 231.625 245.35 231.75 245.225 231.875C245.975 231.825 246.55 231.975 247.175 232.45C247.425 232.65 247.8 232.525 247.825 232.175C247.9 230.8 247.95 229.45 248.025 228.075C247.875 228.2 247.7 228.325 247.55 228.425C249.375 228.75 250.35 227.05 251.025 225.65C252.05 223.5 253.35 221.625 254.85 219.8C257.575 216.5 260.675 213.275 261.7 208.975C261.45 208.975 261.225 208.975 260.975 208.975C262.375 213.4 263.825 217.9 264.05 222.575C264.225 226.175 263.825 231.4 259.875 232.95C259.65 233.05 259.525 233.275 259.65 233.5C261.825 237.55 256.15 240.3 253.675 242.3C250.9 244.55 248.625 247.35 246.925 250.475C246.7 250.9 247.35 251.275 247.575 250.85C249.75 246.875 252.775 243.75 256.475 241.175C259.025 239.4 262.1 236.5 260.3 233.125C260.225 233.3 260.15 233.5 260.075 233.675C263.725 232.225 264.725 228 264.825 224.45C264.95 219.075 263.3 213.85 261.7 208.775C261.6 208.425 261.075 208.4 260.975 208.775C260.05 212.7 257.3 215.7 254.775 218.7C253.6 220.1 252.45 221.525 251.5 223.075C250.725 224.375 249.7 228.05 247.725 227.7C247.475 227.65 247.275 227.8 247.25 228.05C247.175 229.425 247.125 230.775 247.05 232.15C247.275 232.05 247.475 231.975 247.7 231.875C246.95 231.275 246.175 231.025 245.2 231.075C244.975 231.1 244.85 231.225 244.825 231.45C244.1 237.725 243.375 244 242.65 250.275C242.625 250.8 243.375 250.8 243.425 250.325Z" fill="#E8E8E8"/>
<path d="M260.95 209.975C260.525 217.075 259.2 224.3 255.4 230.425C253.55 233.425 251.1 236.05 249.125 238.975C247.225 241.775 245.8 244.85 244.8 248.075C244.65 248.525 245.375 248.725 245.525 248.275C246.625 244.75 248.25 241.45 250.4 238.45C252.5 235.525 254.925 232.85 256.7 229.7C260.05 223.7 261.275 216.775 261.675 209.975C261.725 209.5 260.975 209.5 260.95 209.975Z" fill="#E8E8E8"/>
<path d="M252.675 221.95C252.725 225.45 253.25 228.9 254.275 232.25C254.425 232.7 255.15 232.525 255 232.05C254 228.775 253.475 225.4 253.425 221.95C253.4 221.475 252.65 221.45 252.675 221.95Z" fill="#E8E8E8"/>
<path d="M259.05 224.4C261.025 223.475 262.775 222.2 264.275 220.625C264.6 220.275 264.075 219.75 263.75 220.1C262.275 221.625 260.6 222.85 258.675 223.75C258.225 223.95 258.625 224.6 259.05 224.4Z" fill="#E8E8E8"/>
<path d="M256.325 250.525C256.1 247.775 255.8 245.025 255.45 242.3C255.4 241.825 254.625 241.825 254.7 242.3C255.05 245.025 255.35 247.775 255.575 250.525C255.6 251 256.35 251 256.325 250.525Z" fill="#E8E8E8"/>
<path d="M264.975 219.725C267.7 214.575 270.025 209.2 271.925 203.675C271.675 203.675 271.45 203.675 271.2 203.675C272.625 209.5 274.025 215.325 275.45 221.15C275.525 221 275.625 220.85 275.7 220.7C274.7 221 273.7 221.3 272.7 221.6C272.525 221.65 272.425 221.8 272.425 221.95C272.375 222.55 272.7 222.9 273.15 223.25C274.2 224.125 274.475 224.825 274.4 226.2C274.325 227.45 274.2 228.675 274.1 229.9C274.025 230.85 274.075 233.3 272.6 233.225C272.375 233.225 272.15 233.475 272.25 233.7C273.375 236.825 272.125 240.05 270.65 242.825C269.2 245.55 267.425 248.075 265.375 250.4C265.05 250.75 265.575 251.3 265.9 250.925C268.175 248.35 270.15 245.5 271.7 242.425C273.075 239.675 274.075 236.525 273 233.5C272.875 233.65 272.75 233.825 272.65 233.975C275 234.1 274.85 230.475 274.975 228.975C275.075 227.6 275.375 226.1 275.15 224.725C275.075 224.275 274.925 223.85 274.65 223.5C274.275 223.025 273.2 222.6 273.25 221.95C273.15 222.075 273.075 222.2 272.975 222.3C273.975 222 274.975 221.7 275.975 221.4C276.175 221.35 276.275 221.15 276.225 220.95C274.8 215.125 273.4 209.3 271.975 203.475C271.875 203.1 271.375 203.15 271.25 203.475C269.375 208.95 267.1 214.225 264.375 219.35C264.1 219.775 264.75 220.15 264.975 219.725Z" fill="#E8E8E8"/>
<path d="M270.95 205.3C273.3 220.275 262.8 233.15 260.1 247.3C260 247.775 260.725 247.975 260.825 247.5C263.55 233.175 274.05 220.275 271.675 205.1C271.6 204.625 270.875 204.825 270.95 205.3Z" fill="#E8E8E8"/>
<path d="M265.85 216.075C266.425 219.05 266.975 222.025 267.55 225.025C267.65 225.5 268.375 225.3 268.275 224.825C267.7 221.85 267.15 218.875 266.575 215.875C266.475 215.4 265.775 215.6 265.85 216.075Z" fill="#E8E8E8"/>
<path d="M270.4 219.9C271.55 218.225 272.85 216.675 274.275 215.225C274.625 214.875 274.075 214.35 273.75 214.7C272.275 216.175 270.95 217.8 269.75 219.525C269.475 219.925 270.125 220.3 270.4 219.9Z" fill="#E8E8E8"/>
<path d="M68.6251 180.5C87.0251 176.45 106.325 176.925 124.5 181.925C133.775 184.475 142.525 188.45 151.475 191.95C160.3 195.4 169.325 198.275 178.525 200.575C188.8 203.15 199.25 205 209.8 206.125C210.275 206.175 210.275 205.425 209.8 205.375C190.7 203.325 171.85 198.85 153.875 192.05C144.8 188.625 136 184.5 126.7 181.75C117.875 179.15 108.725 177.625 99.5251 177.175C89.1001 176.65 78.6251 177.55 68.4501 179.775C67.9751 179.875 68.1751 180.6 68.6251 180.5Z" fill="#E8E8E8"/>
<path d="M168.625 191.625C188.325 196.475 208.8 194.45 228.475 190.5C248.75 186.425 268.575 180.2 289.025 177C300.625 175.175 312.425 174.4 324.15 175.575C324.625 175.625 324.625 174.875 324.15 174.825C303.65 172.775 283.25 176.75 263.4 181.5C243.4 186.3 223.5 191.95 202.9 193.425C191.475 194.225 179.975 193.675 168.825 190.925C168.35 190.775 168.15 191.5 168.625 191.625Z" fill="#E8E8E8"/>
<path d="M109.1 159.375C120.95 157 132.7 160.85 144.075 163.75C155.6 166.7 167.325 168.05 179.2 166.875C191 165.7 202.4 162.35 213.95 159.8C225.875 157.15 238 155.325 250.175 154.375C263.675 153.3 277.25 153.3 290.775 154.325C291.25 154.35 291.25 153.6 290.775 153.575C266.775 151.775 242.55 153.25 218.95 158C207.075 160.4 195.425 163.95 183.4 165.65C171.125 167.375 158.8 166.625 146.775 163.7C134.4 160.675 121.75 156.1 108.875 158.675C108.425 158.725 108.625 159.45 109.1 159.375Z" fill="#E8E8E8"/>
<path d="M233.725 143.975C247.075 145.35 260.275 142.4 273.2 139.425C279.8 137.9 286.425 136.375 293.125 135.375C300.05 134.35 307.075 133.975 314.075 134.3C321.975 134.675 329.8 135.9 337.45 137.975C337.925 138.1 338.125 137.375 337.65 137.25C324.275 133.625 310.25 132.55 296.5 134.175C283.075 135.75 270.125 139.825 256.825 142.075C249.2 143.375 241.475 144 233.75 143.2C233.25 143.175 233.25 143.925 233.725 143.975Z" fill="#E8E8E8"/>
<path d="M72.5502 144.9C82.6252 146.65 92.5502 143.125 102.575 142.575C113.15 141.975 123.675 143.7 134.05 145.425C134.525 145.5 134.725 144.775 134.25 144.7C124.1 143.025 113.85 141.35 103.525 141.775C93.2752 142.2 83.0252 145.975 72.7252 144.175C72.2752 144.1 72.0752 144.825 72.5502 144.9Z" fill="#E8E8E8"/>
<path d="M119.25 286.5C131.2 286.5 143.15 286.5 155.125 286.5C155.6 286.5 155.6 285.75 155.125 285.75C143.175 285.75 131.225 285.75 119.25 285.75C118.775 285.75 118.775 286.5 119.25 286.5Z" fill="#161616"/>
<path d="M147.075 291.25C158.175 291.25 169.275 291.25 180.375 291.25C180.85 291.25 180.85 290.5 180.375 290.5C169.275 290.5 158.175 290.5 147.075 290.5C146.6 290.5 146.6 291.25 147.075 291.25Z" fill="#161616"/>
<path d="M90.3501 285.4C84.1251 285.4 77.9001 285.4 71.6751 285.4C71.2001 285.4 71.2001 286.15 71.6751 286.15C77.9001 286.15 84.1251 286.15 90.3501 286.15C90.8251 286.15 90.8251 285.4 90.3501 285.4Z" fill="#161616"/>
<path d="M172.7 272.6C192.225 272.6 211.75 272.6 231.25 272.6C231.725 272.6 231.725 271.85 231.25 271.85C211.725 271.85 192.2 271.85 172.7 271.85C172.225 271.85 172.2 272.6 172.7 272.6Z" fill="#161616"/>
<path d="M266.4 267.1C273.725 267.1 281.05 267.1 288.35 267.1C288.825 267.1 288.825 266.35 288.35 266.35C281.025 266.35 273.7 266.35 266.4 266.35C265.9 266.35 265.9 267.1 266.4 267.1Z" fill="#161616"/>
<path d="M304.45 269.675C315.675 269.675 326.9 269.675 338.125 269.675C338.6 269.675 338.6 268.925 338.125 268.925C326.9 268.925 315.675 268.925 304.45 268.925C303.975 268.925 303.975 269.675 304.45 269.675Z" fill="#161616"/>
<path d="M84.575 263.05C84.475 264.475 84.4 265.875 84.3 267.3C83.675 267.475 83.075 267.675 82.45 267.85C82.425 268.9 82.4 269.95 82.35 271C81.4 271 80.45 271 79.475 271C79.65 272.45 79.85 273.9 80.025 275.35C81.65 275.375 83.3 275.4 84.925 275.45C85.1 276.625 85.3 277.8 85.475 278.975C84.325 278.975 83.125 278.95 81.875 278.875C80.4 278.8 79.025 278.675 77.725 278.5C77.675 280.05 77.6 281.575 77.55 283.125C81.65 283.075 85.75 283 89.85 282.95C89.975 284.025 90.1 285.1 90.225 286.175C97.85 287.025 106.575 287.325 116.125 286.45C118.75 286.2 121.275 285.9 123.7 285.525C123.7 284.3 123.7 283.05 123.7 281.825C122.825 282.175 121.775 282.5 120.55 282.75C118.5 283.15 116.725 283.15 115.375 283.025C115.525 282.05 115.675 281.05 115.825 280.075C116.025 279.425 116.225 278.625 116.275 277.675C116.325 277.05 116.3 276.5 116.275 276C113.9 276.025 111.525 276.05 109.15 276.1C109.1 274.475 109.025 272.825 108.975 271.2C111.175 271.025 113.35 270.825 115.55 270.65C115.6 269.775 115.675 268.925 115.725 268.05C114.625 267.9 113.5 267.75 112.4 267.6C112.35 265.925 112.275 264.275 112.225 262.6C103.025 262.75 93.8 262.9 84.575 263.05Z" fill="#195C99"/>
<path d="M285.15 231.475C285.125 232.5 285.1 233.525 285.075 234.525C287.35 234.675 289.625 234.825 291.9 234.95C291.9 235.9 291.9 236.875 291.9 237.825C291.05 238.025 290.2 238.225 289.375 238.425C289.325 239.525 289.25 240.65 289.2 241.75C286.55 241.775 283.9 241.8 281.25 241.825C281.175 242.925 281.075 244.05 281 245.15C284.125 245.2 287.25 245.275 290.35 245.325C290.35 246.675 290.35 248 290.35 249.35C287.175 249.425 284 249.525 280.825 249.6C280.775 250.875 280.7 252.175 280.65 253.45C281.675 253.525 282.7 253.625 283.7 253.7C283.725 254.825 283.75 255.975 283.775 257.1C282.4 257.225 281.025 257.325 279.675 257.45C279.725 258.925 279.8 260.425 279.85 261.9C281.5 261.875 283.175 261.85 284.825 261.825C284.825 263.4 284.825 264.975 284.825 266.55C288.55 266.75 292.425 266.875 296.45 266.9C302.75 266.925 308.725 266.7 314.3 266.3C314.575 265.1 314.825 263.775 315 262.375C315.225 260.6 315.325 258.95 315.35 257.475C316.05 257.35 316.75 257.25 317.45 257.125C317.475 256.05 317.5 254.975 317.525 253.9C315.775 253.875 314.025 253.85 312.275 253.825C312.35 252.4 312.45 250.975 312.525 249.55C315.175 249.475 317.825 249.375 320.475 249.3C320.5 248.05 320.525 246.8 320.55 245.55C318.325 245.55 316.125 245.55 313.9 245.55C313.975 244.525 314.075 243.5 314.15 242.5C316.575 242.35 319 242.2 321.4 242.075C321.425 240.825 321.45 239.575 321.475 238.325C322.55 238.325 323.625 238.325 324.7 238.325C324.65 237.2 324.575 236.05 324.525 234.925C321.875 234.975 319.225 235.05 316.575 235.1C316.65 233.725 316.75 232.35 316.825 231C313.6 230.25 309.85 229.65 305.625 229.425C297.375 228.925 290.3 230.125 285.15 231.475Z" fill="#EC615B"/>
<path d="M89.7751 282.975C89.8001 284.025 89.8501 285.1 89.8751 286.15C89.8751 286.375 90.0501 286.5 90.2501 286.525C101.275 287.275 112.325 287.2 123.325 286.275C123.475 286.25 123.65 286.175 123.675 286C124 284.625 124.075 283.3 123.925 281.9C123.875 281.425 123.125 281.425 123.175 281.9C123.325 283.225 123.25 284.5 122.95 285.8C123.075 285.7 123.2 285.625 123.3 285.525C112.3 286.425 101.225 286.525 90.2251 285.775C90.3501 285.9 90.4751 286.025 90.6001 286.15C90.5751 285.1 90.5251 284.025 90.5001 282.975C90.5001 282.5 89.7501 282.5 89.7751 282.975Z" fill="#161616"/>
<path d="M77.3 278.4C77.3 279.875 77.3 281.35 77.3 282.825C77.3 283.3 78.0501 283.3 78.0501 282.825C78.0501 281.35 78.0501 279.875 78.0501 278.4C78.0501 277.9 77.3 277.9 77.3 278.4Z" fill="#161616"/>
<path d="M78.125 283.5C90.5 283.5 102.875 283.5 115.25 283.5C115.725 283.5 115.725 282.75 115.25 282.75C102.875 282.75 90.5 282.75 78.125 282.75C77.65 282.75 77.65 283.5 78.125 283.5Z" fill="#161616"/>
<path d="M92.35 283.575C92.45 284.4 92.475 285.2 92.4251 286.025C92.4001 286.5 93.15 286.5 93.175 286.025C93.225 285.2 93.225 284.4 93.1 283.575C93.05 283.1 92.3 283.1 92.35 283.575Z" fill="#161616"/>
<path d="M94.7251 283.675C94.8751 284.3 94.9001 284.925 94.8751 285.55C94.8501 286.025 95.6001 286.025 95.6251 285.55C95.6751 284.85 95.6251 284.15 95.4501 283.475C95.3501 283.025 94.6251 283.225 94.7251 283.675Z" fill="#161616"/>
<path d="M115.75 283.075C116 282.1 116.125 281.1 116.1 280.075C116.1 279.6 115.35 279.6 115.35 280.075C115.375 281.025 115.275 281.95 115.025 282.875C114.9 283.325 115.625 283.525 115.75 283.075Z" fill="#161616"/>
<path d="M78.175 278.875C90.525 280.6 103 280.925 115.425 279.85C115.9 279.8 115.9 279.05 115.425 279.1C103.075 280.175 90.65 279.875 78.375 278.15C77.9 278.075 77.7 278.8 78.175 278.875Z" fill="#161616"/>
<path d="M116.025 283.25C118.5 283.475 120.95 283.175 123.325 282.425C123.775 282.275 123.575 281.55 123.125 281.7C120.8 282.45 118.45 282.725 116.025 282.5C115.55 282.475 115.55 283.225 116.025 283.25Z" fill="#161616"/>
<path d="M111.375 283.575C111.375 284.45 111.375 285.3 111.375 286.175C111.375 286.65 112.125 286.65 112.125 286.175C112.125 285.3 112.125 284.45 112.125 283.575C112.125 283.1 111.375 283.1 111.375 283.575Z" fill="#161616"/>
<path d="M117.025 283.075C117.175 284 117.3 284.925 117.45 285.825C117.525 286.3 118.25 286.1 118.175 285.625C118.025 284.7 117.9 283.775 117.75 282.875C117.675 282.4 116.975 282.6 117.025 283.075Z" fill="#161616"/>
<path d="M120.475 282.925C120.55 283.425 120.5 283.925 120.375 284.4C120.25 284.875 120.975 285.075 121.1 284.6C121.275 283.975 121.3 283.35 121.2 282.725C121.125 282.25 120.4 282.45 120.475 282.925Z" fill="#161616"/>
<path d="M80.925 279C80.975 280.325 81.025 281.65 81.075 282.975C81.1 283.45 81.85 283.45 81.825 282.975C81.775 281.65 81.725 280.325 81.675 279C81.65 278.525 80.9001 278.525 80.925 279Z" fill="#161616"/>
<path d="M85.9001 279.45C86.0001 280.475 86.1001 281.5 86.2001 282.5C86.2501 282.975 87.0001 282.975 86.9501 282.5C86.8501 281.475 86.7501 280.45 86.6501 279.45C86.6001 278.975 85.8501 278.975 85.9001 279.45Z" fill="#161616"/>
<path d="M88.7752 280.075C88.7002 280.675 88.7502 281.275 88.9252 281.85C89.0502 282.325 89.7752 282.125 89.6502 281.65C89.5002 281.125 89.4752 280.6 89.5252 280.075C89.5752 279.6 88.8252 279.6 88.7752 280.075Z" fill="#161616"/>
<path d="M84.7751 275.65C84.8001 276.825 84.9001 277.975 85.1001 279.1C85.1751 279.575 85.9001 279.375 85.8251 278.9C85.6251 277.825 85.5251 276.725 85.5251 275.65C85.5251 275.15 84.7751 275.15 84.7751 275.65Z" fill="#161616"/>
<path d="M85.625 275.7C95.825 275.9 106.025 276.125 116.225 276.325C116.1 276.225 115.975 276.15 115.875 276.05C116.05 277.1 116.05 278.125 115.925 279.2C115.875 279.675 116.625 279.675 116.675 279.2C116.8 278.075 116.775 276.975 116.6 275.85C116.575 275.675 116.4 275.575 116.25 275.575C106.05 275.375 95.85 275.15 85.65 274.95C85.15 274.95 85.15 275.7 85.625 275.7Z" fill="#161616"/>
<path d="M78.975 271.3C79.225 272.625 79.4 273.975 79.55 275.325C79.6 275.8 80.35 275.8 80.3 275.325C80.15 273.9 79.95 272.5 79.7 271.1C79.625 270.625 78.9 270.825 78.975 271.3Z" fill="#161616"/>
<path d="M79.8001 271.3C84.6501 271.6 89.5251 271.4 94.3751 271.35C99.2751 271.325 104.175 271.275 109.075 271.25C108.95 271.125 108.825 271 108.7 270.875C108.75 272.15 108.8 273.425 108.825 274.7C108.85 275.175 109.6 275.175 109.575 274.7C109.525 273.425 109.475 272.15 109.45 270.875C109.45 270.675 109.275 270.5 109.075 270.5C104.175 270.525 99.2751 270.575 94.3751 270.6C89.5251 270.625 84.6501 270.825 79.8001 270.55C79.3251 270.525 79.3251 271.275 79.8001 271.3Z" fill="#161616"/>
<path d="M80.1251 275.825C81.9001 275.775 83.7001 275.725 85.4751 275.675C85.9501 275.65 85.9501 274.9 85.4751 274.925C83.7001 274.975 81.9001 275.025 80.1251 275.075C79.6501 275.075 79.6251 275.825 80.1251 275.825Z" fill="#161616"/>
<path d="M81.4001 267.95C81.5501 268.975 81.7001 269.975 81.8751 271C81.9501 271.475 82.6751 271.275 82.6001 270.8C82.4501 269.775 82.3001 268.775 82.1251 267.75C82.0501 267.275 81.3251 267.475 81.4001 267.95Z" fill="#161616"/>
<path d="M82.075 268.15C93.25 266.45 104.625 266.525 115.775 268.425C116.25 268.5 116.45 267.775 115.975 267.7C104.7 265.8 93.175 265.7 81.875 267.425C81.4 267.5 81.6 268.225 82.075 268.15Z" fill="#161616"/>
<path d="M108.875 271.525C110.425 271.45 111.95 271.375 113.5 271.325C114.25 271.3 115.15 271.45 115.65 270.8C115.95 270.425 115.3 270.05 115 270.425C114.7 270.825 112.475 270.625 112.05 270.65C111 270.7 109.95 270.75 108.9 270.8C108.375 270.8 108.375 271.55 108.875 271.525Z" fill="#161616"/>
<path d="M115.3 267.575C115.15 268.325 115.05 269.075 115.025 269.825C115 270.3 115.75 270.3 115.775 269.825C115.8 269.125 115.875 268.45 116.025 267.775C116.125 267.3 115.4 267.1 115.3 267.575Z" fill="#161616"/>
<path d="M84.7251 267.225C84.7251 265.8 84.7251 264.4 84.7251 262.975C84.7251 262.5 83.9751 262.5 83.9751 262.975C83.9751 264.4 83.9751 265.8 83.9751 267.225C83.9751 267.725 84.7251 267.725 84.7251 267.225Z" fill="#161616"/>
<path d="M84.95 263.325C94.075 262.875 103.225 262.7 112.35 262.775C112.825 262.775 112.825 262.025 112.35 262.025C103.225 261.95 94.075 262.125 84.95 262.575C84.475 262.6 84.475 263.35 84.95 263.325Z" fill="#161616"/>
<path d="M111.975 262.7C112.075 264.125 112.175 265.525 112.275 266.95C112.3 267.425 113.05 267.425 113.025 266.95C112.925 265.525 112.825 264.125 112.725 262.7C112.7 262.2 111.95 262.2 111.975 262.7Z" fill="#161616"/>
<path d="M85.5752 267.825C85.6752 268.75 85.7502 269.675 85.8502 270.625C85.9002 271.1 86.6502 271.1 86.6002 270.625C86.5002 269.7 86.4252 268.775 86.3252 267.825C86.3002 267.35 85.5252 267.35 85.5752 267.825Z" fill="#161616"/>
<path d="M88.6751 267.375C88.6501 268.15 88.7251 268.9 88.8751 269.675C88.9501 270.15 89.6751 269.95 89.6001 269.475C89.4751 268.775 89.4251 268.075 89.4251 267.375C89.4251 266.9 88.6751 266.9 88.6751 267.375Z" fill="#161616"/>
<path d="M93.9001 271.775C94.0001 272.8 94.0751 273.825 94.1751 274.85C94.2251 275.325 94.9751 275.325 94.9251 274.85C94.8251 273.825 94.7501 272.8 94.6501 271.775C94.6251 271.3 93.8751 271.3 93.9001 271.775Z" fill="#161616"/>
<path d="M97.0751 271.475C97.1751 272.5 97.2501 273.525 97.3501 274.55C97.4001 275.025 98.1502 275.025 98.1002 274.55C98.0002 273.525 97.9252 272.5 97.8252 271.475C97.7752 271 97.0251 271 97.0751 271.475Z" fill="#161616"/>
<path d="M102.3 271.35C102.4 272.525 102.5 273.7 102.6 274.875C102.65 275.35 103.4 275.35 103.35 274.875C103.25 273.7 103.15 272.525 103.05 271.35C103.025 270.85 102.275 270.85 102.3 271.35Z" fill="#161616"/>
<path d="M103.75 276.025C103.875 277.2 103.975 278.375 104.1 279.55C104.15 280.025 104.9 280.025 104.85 279.55C104.725 278.375 104.625 277.2 104.5 276.025C104.45 275.55 103.7 275.55 103.75 276.025Z" fill="#161616"/>
<path d="M107 276.125C107.175 277.2 107.2 278.3 107.15 279.4C107.125 279.875 107.875 279.875 107.9 279.4C107.975 278.225 107.925 277.075 107.725 275.925C107.65 275.45 106.925 275.65 107 276.125Z" fill="#161616"/>
<path d="M110.95 275.875C111.05 277 111.05 278.125 110.9 279.25C110.85 279.725 111.6 279.725 111.65 279.25C111.775 278.125 111.8 277 111.7 275.875C111.675 275.4 110.925 275.4 110.95 275.875Z" fill="#161616"/>
<path d="M99.4002 280.275C99.3252 281 99.2751 281.75 99.2001 282.475C99.1501 282.95 99.9001 282.95 99.9501 282.475C100.025 281.75 100.075 281 100.15 280.275C100.2 279.8 99.4502 279.8 99.4002 280.275Z" fill="#161616"/>
<path d="M101.3 280.675C101.55 281.275 101.625 281.85 101.55 282.475C101.5 282.95 102.25 282.95 102.3 282.475C102.375 281.775 102.275 281.1 102.025 280.475C101.85 280.025 101.125 280.225 101.3 280.675Z" fill="#161616"/>
<path d="M99.7751 266.65C99.8751 267.825 99.9001 269 99.9251 270.175C99.9251 270.65 100.675 270.65 100.675 270.175C100.675 269 100.625 267.825 100.525 266.65C100.5 266.175 99.7501 266.175 99.7751 266.65Z" fill="#161616"/>
<path d="M102.75 267.05C102.9 267.85 102.95 268.625 102.9 269.45C102.875 269.925 103.625 269.925 103.65 269.45C103.725 268.575 103.65 267.725 103.475 266.85C103.375 266.375 102.65 266.575 102.75 267.05Z" fill="#161616"/>
<path d="M91.6 262.65C91.9 263.825 91.975 265 91.9 266.2C91.85 266.675 92.6 266.675 92.65 266.2C92.75 264.925 92.65 263.675 92.325 262.45C92.2 261.975 91.475 262.175 91.6 262.65Z" fill="#161616"/>
<path d="M94.6751 262.65C94.8501 263.625 95.0001 264.6 95.1751 265.575C95.2501 266.05 95.9751 265.85 95.9001 265.375C95.7251 264.4 95.5751 263.425 95.4001 262.45C95.3251 261.975 94.6001 262.175 94.6751 262.65Z" fill="#161616"/>
<path d="M105.525 262.8C105.675 263.775 105.725 264.775 105.675 265.775C105.65 266.25 106.4 266.25 106.425 265.775C106.5 264.7 106.425 263.65 106.25 262.6C106.175 262.125 105.45 262.325 105.525 262.8Z" fill="#161616"/>
<path d="M284.4 262.55C284.425 264 284.45 265.45 284.475 266.875C284.475 267.075 284.65 267.25 284.85 267.25C291.1 267.3 297.325 267.25 303.575 267.075C306.6 267 309.65 266.875 312.675 266.75C313.4 266.725 314.6 266.9 315.025 266.1C315.2 265.775 315.175 265.275 315.175 264.95C315.225 264.2 315.25 263.425 315.275 262.65C315.3 262.175 314.55 262.175 314.525 262.65C314.5 263.25 314.475 263.875 314.45 264.475C314.4 265.35 314.325 265.775 313.4 265.95C312.075 266.2 310.575 266.075 309.225 266.125C306.525 266.225 303.8 266.3 301.1 266.375C295.675 266.5 290.25 266.525 284.85 266.475C284.975 266.6 285.1 266.725 285.225 266.85C285.2 265.4 285.175 263.95 285.15 262.525C285.125 262.075 284.375 262.075 284.4 262.55Z" fill="#161616"/>
<path d="M279.2 257.775C279.25 259.125 279.3 260.475 279.35 261.85C279.375 262.325 280.125 262.325 280.1 261.85C280.05 260.5 280 259.15 279.95 257.775C279.95 257.3 279.2 257.3 279.2 257.775Z" fill="#161616"/>
<path d="M279.9 262.375C291.675 262.375 303.45 262.375 315.225 262.375C315.7 262.375 315.7 261.625 315.225 261.625C303.45 261.625 291.675 261.625 279.9 261.625C279.425 261.625 279.425 262.375 279.9 262.375Z" fill="#161616"/>
<path d="M280.175 257.75C292 257.75 303.825 257.75 315.625 257.75C316.1 257.75 316.1 257 315.625 257C303.8 257 291.975 257 280.175 257C279.7 257 279.7 257.75 280.175 257.75Z" fill="#161616"/>
<path d="M314.975 257.5C314.975 259 314.975 260.5 314.975 261.975C314.975 262.45 315.725 262.45 315.725 261.975C315.725 260.475 315.725 258.975 315.725 257.5C315.725 257.025 314.975 257.025 314.975 257.5Z" fill="#161616"/>
<path d="M284.05 257.225C284.05 256.1 284.05 254.975 284.05 253.85C284.05 253.375 283.3 253.375 283.3 253.85C283.3 254.975 283.3 256.1 283.3 257.225C283.3 257.7 284.05 257.7 284.05 257.225Z" fill="#161616"/>
<path d="M283.95 254.225C295.3 254.225 306.65 254.225 318 254.225C318.475 254.225 318.475 253.475 318 253.475C306.65 253.475 295.3 253.475 283.95 253.475C283.475 253.475 283.475 254.225 283.95 254.225Z" fill="#161616"/>
<path d="M317.075 253.85C317.075 254.925 317.075 256 317.075 257.075C317.075 257.55 317.825 257.55 317.825 257.075C317.825 256 317.825 254.925 317.825 253.85C317.825 253.375 317.075 253.375 317.075 253.85Z" fill="#161616"/>
<path d="M315.225 257.6C315.925 257.6 316.625 257.6 317.325 257.6C317.8 257.6 317.8 256.85 317.325 256.85C316.625 256.85 315.925 256.85 315.225 256.85C314.725 256.85 314.725 257.6 315.225 257.6Z" fill="#161616"/>
<path d="M280.225 249.925C280.225 250.95 280.225 251.975 280.225 253C280.225 253.475 280.975 253.475 280.975 253C280.975 251.975 280.975 250.95 280.975 249.925C280.975 249.45 280.225 249.45 280.225 249.925Z" fill="#161616"/>
<path d="M280.75 250.025C291.35 250.025 301.95 250.025 312.575 250.025C313.05 250.025 313.05 249.275 312.575 249.275C301.975 249.275 291.375 249.275 280.75 249.275C280.25 249.275 280.25 250.025 280.75 250.025Z" fill="#161616"/>
<path d="M312.025 249.8C312.025 250.925 312.025 252.05 312.025 253.175C312.025 253.65 312.775 253.65 312.775 253.175C312.775 252.05 312.775 250.925 312.775 249.8C312.775 249.325 312.025 249.3 312.025 249.8Z" fill="#161616"/>
<path d="M280.75 253.825C291.175 253.825 301.575 253.825 312 253.825C312.475 253.825 312.475 253.075 312 253.075C301.575 253.075 291.175 253.075 280.75 253.075C280.25 253.075 280.25 253.825 280.75 253.825Z" fill="#161616"/>
<path d="M290.65 249.225C290.65 248.15 290.65 247.075 290.65 246C290.65 245.525 289.9 245.525 289.9 246C289.9 247.075 289.9 248.15 289.9 249.225C289.9 249.725 290.65 249.725 290.65 249.225Z" fill="#161616"/>
<path d="M290.4 246.1C300.45 246.1 310.5 246.1 320.525 246.1C321 246.1 321 245.35 320.525 245.35C310.475 245.35 300.425 245.35 290.4 245.35C289.925 245.35 289.925 246.1 290.4 246.1Z" fill="#161616"/>
<path d="M312.275 249.75C314.75 249.75 317.225 249.75 319.7 249.75C320.175 249.75 320.175 249 319.7 249C317.225 249 314.75 249 312.275 249C311.8 249 311.8 249.75 312.275 249.75Z" fill="#161616"/>
<path d="M320.175 245.875C320.175 246.95 320.175 248.025 320.175 249.1C320.175 249.575 320.925 249.575 320.925 249.1C320.925 248.025 320.925 246.95 320.925 245.875C320.925 245.4 320.175 245.4 320.175 245.875Z" fill="#161616"/>
<path d="M281.45 245.675C292.3 245.675 303.125 245.675 313.975 245.675C314.45 245.675 314.45 244.925 313.975 244.925C303.125 244.925 292.3 244.925 281.45 244.925C280.95 244.925 280.95 245.675 281.45 245.675Z" fill="#161616"/>
<path d="M281.525 245.175C281.525 244.2 281.525 243.225 281.525 242.225C281.525 241.75 280.775 241.75 280.775 242.225C280.775 243.2 280.775 244.175 280.775 245.175C280.775 245.65 281.525 245.65 281.525 245.175Z" fill="#161616"/>
<path d="M281.3 242.475C292.225 242.475 303.175 242.475 314.1 242.475C314.575 242.475 314.575 241.725 314.1 241.725C303.175 241.725 292.225 241.725 281.3 241.725C280.825 241.725 280.825 242.475 281.3 242.475Z" fill="#161616"/>
<path d="M313.85 242.1C313.85 243 313.85 243.875 313.85 244.775C313.85 245.25 314.6 245.25 314.6 244.775C314.6 243.875 314.6 243 314.6 242.1C314.6 241.6 313.85 241.6 313.85 242.1Z" fill="#161616"/>
<path d="M289.675 241.8C289.675 240.725 289.675 239.65 289.675 238.575C289.675 238.1 288.925 238.1 288.925 238.575C288.925 239.65 288.925 240.725 288.925 241.8C288.925 242.3 289.675 242.3 289.675 241.8Z" fill="#161616"/>
<path d="M289.575 238.675C300.175 238.675 310.775 238.675 321.4 238.675C321.875 238.675 321.875 237.925 321.4 237.925C310.8 237.925 300.2 237.925 289.575 237.925C289.075 237.925 289.075 238.675 289.575 238.675Z" fill="#161616"/>
<path d="M321 238.45C321 238.975 321 239.475 321 240C321 240.475 321.75 240.475 321.75 240C321.75 239.475 321.75 238.975 321.75 238.45C321.75 237.95 321 237.95 321 238.45Z" fill="#161616"/>
<path d="M313.95 242.475C316.425 242.475 318.9 242.475 321.375 242.475C321.85 242.475 321.85 241.725 321.375 241.725C318.9 241.725 316.425 241.725 313.95 241.725C313.475 241.725 313.475 242.475 313.95 242.475Z" fill="#161616"/>
<path d="M321 238.875C321 239.8 321 240.75 321 241.675C321 242.15 321.75 242.15 321.75 241.675C321.75 240.75 321.75 239.8 321.75 238.875C321.75 238.375 321 238.375 321 238.875Z" fill="#161616"/>
<path d="M292.175 237.75C292.175 236.85 292.175 235.975 292.175 235.075C292.175 234.6 291.425 234.6 291.425 235.075C291.425 235.975 291.425 236.85 291.425 237.75C291.425 238.225 292.175 238.225 292.175 237.75Z" fill="#161616"/>
<path d="M291.675 235.325C302.55 235.325 313.45 235.325 324.325 235.325C324.8 235.325 324.8 234.575 324.325 234.575C313.45 234.575 302.55 234.575 291.675 234.575C291.2 234.575 291.175 235.325 291.675 235.325Z" fill="#161616"/>
<path d="M324.325 235.325C324.8 235.325 324.8 234.575 324.325 234.575C323.85 234.575 323.85 235.325 324.325 235.325Z" fill="#161616"/>
<path d="M324.225 234.95C324.225 235.85 324.225 236.725 324.225 237.625C324.225 238.1 324.975 238.1 324.975 237.625C324.975 236.725 324.975 235.85 324.975 234.95C324.975 234.45 324.225 234.45 324.225 234.95Z" fill="#161616"/>
<path d="M321.25 238.55C322.375 238.55 323.5 238.55 324.625 238.55C325.1 238.55 325.1 237.8 324.625 237.8C323.5 237.8 322.375 237.8 321.25 237.8C320.75 237.8 320.75 238.55 321.25 238.55Z" fill="#161616"/>
<path d="M284.7 231.725C284.7 232.7 284.7 233.675 284.7 234.675C284.7 235.15 285.45 235.15 285.45 234.675C285.45 233.7 285.45 232.725 285.45 231.725C285.45 231.225 284.7 231.225 284.7 231.725Z" fill="#161616"/>
<path d="M285.075 235.025C287.75 235.025 290.4 235.025 293.075 235.025C293.55 235.025 293.55 234.275 293.075 234.275C290.4 234.275 287.75 234.275 285.075 234.275C284.6 234.275 284.6 235.025 285.075 235.025Z" fill="#161616"/>
<path d="M285.15 231.65C295.525 229.45 306.25 229.275 316.7 231.15C317.175 231.225 317.375 230.5 316.9 230.425C306.325 228.525 295.475 228.7 284.95 230.925C284.475 231.025 284.675 231.75 285.15 231.65Z" fill="#161616"/>
<path d="M316.525 231.025C316.525 232 316.525 232.975 316.525 233.975C316.525 234.45 317.275 234.45 317.275 233.975C317.275 233 317.275 232.025 317.275 231.025C317.275 230.525 316.525 230.525 316.525 231.025Z" fill="#161616"/>
<path d="M287.2 231.85C288.975 232.4 290.925 232.175 292.75 232.15C294.8 232.125 296.85 232.075 298.9 232.05C303.075 231.975 307.25 231.9 311.425 231.85C311.9 231.85 311.9 231.1 311.425 231.1C307.4 231.175 303.4 231.225 299.375 231.3C297.4 231.325 295.45 231.375 293.475 231.4C291.5 231.425 289.3 231.75 287.375 231.15C286.925 231 286.725 231.725 287.2 231.85Z" fill="#161616"/>
<path d="M290.725 232.125C290.725 232.975 290.725 233.8 290.725 234.65C290.725 235.125 291.475 235.125 291.475 234.65C291.475 233.8 291.475 232.975 291.475 232.125C291.475 231.65 290.725 231.65 290.725 232.125Z" fill="#161616"/>
<path d="M293.275 232.275C293.35 232.875 293.425 233.5 293.5 234.1C293.55 234.575 294.3 234.575 294.25 234.1C294.175 233.5 294.1 232.875 294.025 232.275C293.975 231.8 293.225 231.8 293.275 232.275Z" fill="#161616"/>
<path d="M302.9 232.15C302.975 232.9 303.05 233.65 303.15 234.4C303.2 234.875 303.95 234.875 303.9 234.4C303.825 233.65 303.75 232.9 303.65 232.15C303.6 231.675 302.85 231.65 302.9 232.15Z" fill="#161616"/>
<path d="M305.875 232.425C305.875 232.975 305.875 233.55 305.875 234.1C305.875 234.575 306.625 234.575 306.625 234.1C306.625 233.55 306.625 232.975 306.625 232.425C306.625 231.925 305.875 231.925 305.875 232.425Z" fill="#161616"/>
<path d="M303.925 235.35C303.85 236.175 303.9 237 304.025 237.85C304.1 238.325 304.825 238.125 304.75 237.65C304.625 236.9 304.625 236.125 304.675 235.35C304.7 234.875 303.95 234.875 303.925 235.35Z" fill="#161616"/>
<path d="M306.7 235.35C306.775 236.025 306.75 236.7 306.625 237.35C306.55 237.825 307.25 238.025 307.35 237.55C307.475 236.825 307.525 236.075 307.45 235.35C307.4 234.875 306.65 234.875 306.7 235.35Z" fill="#161616"/>
<path d="M291.3 238.725C291.3 239.75 291.3 240.775 291.3 241.8C291.3 242.275 292.05 242.275 292.05 241.8C292.05 240.775 292.05 239.75 292.05 238.725C292.05 238.25 291.3 238.25 291.3 238.725Z" fill="#161616"/>
<path d="M293.95 238.875C293.95 239.65 294.025 240.425 294.15 241.225C294.225 241.7 294.95 241.5 294.875 241.025C294.775 240.325 294.725 239.6 294.725 238.875C294.7 238.375 293.95 238.375 293.95 238.875Z" fill="#161616"/>
<path d="M297.425 235.375C297.475 236.25 297.55 237.15 297.6 238.025C297.625 238.5 298.375 238.5 298.35 238.025C298.3 237.15 298.225 236.25 298.175 235.375C298.15 234.875 297.4 234.875 297.425 235.375Z" fill="#161616"/>
<path d="M311.675 235.075C311.775 235.925 311.85 236.75 311.95 237.6C312 238.075 312.75 238.075 312.7 237.6C312.6 236.75 312.525 235.925 312.425 235.075C312.375 234.6 311.625 234.6 311.675 235.075Z" fill="#161616"/>
<path d="M318.15 235.225C318.175 235.875 318.2 236.525 318.225 237.2C318.25 237.675 319 237.675 318.975 237.2C318.95 236.55 318.925 235.9 318.9 235.225C318.875 234.725 318.125 234.725 318.15 235.225Z" fill="#161616"/>
<path d="M306.7 238.575C306.7 239.55 306.7 240.525 306.7 241.525C306.7 242 307.45 242 307.45 241.525C307.45 240.55 307.45 239.575 307.45 238.575C307.45 238.1 306.7 238.1 306.7 238.575Z" fill="#161616"/>
<path d="M299.575 238.175C299.575 238.975 299.575 239.775 299.575 240.55C299.575 241.025 300.325 241.025 300.325 240.55C300.325 239.75 300.325 238.95 300.325 238.175C300.325 237.675 299.575 237.675 299.575 238.175Z" fill="#161616"/>
<path d="M285 242.375C284.95 243.35 285 244.3 285.175 245.275C285.25 245.75 285.975 245.55 285.9 245.075C285.75 244.175 285.7 243.275 285.75 242.375C285.775 241.875 285.025 241.875 285 242.375Z" fill="#161616"/>
<path d="M290.175 242.5C290.175 243.35 290.175 244.175 290.175 245.025C290.175 245.5 290.925 245.5 290.925 245.025C290.925 244.175 290.925 243.35 290.925 242.5C290.925 242.025 290.175 242.025 290.175 242.5Z" fill="#161616"/>
<path d="M296.375 242.875C296.5 243.55 296.525 244.2 296.475 244.875C296.425 245.35 297.175 245.35 297.225 244.875C297.3 244.125 297.25 243.4 297.1 242.675C297 242.2 296.275 242.4 296.375 242.875Z" fill="#161616"/>
<path d="M303.075 242.5C303 243.2 303.05 243.875 303.175 244.575C303.275 245.05 304 244.85 303.9 244.375C303.775 243.75 303.75 243.125 303.825 242.5C303.875 242.025 303.125 242.025 303.075 242.5Z" fill="#161616"/>
<path d="M309.525 242.375C309.525 242.975 309.525 243.6 309.525 244.2C309.525 244.675 310.275 244.675 310.275 244.2C310.275 243.6 310.275 242.975 310.275 242.375C310.275 241.875 309.525 241.875 309.525 242.375Z" fill="#161616"/>
<path d="M293.1 246.15C293.15 247.175 293.15 248.2 293.05 249.25C293 249.725 293.75 249.725 293.8 249.25C293.9 248.225 293.925 247.2 293.85 246.15C293.825 245.675 293.075 245.675 293.1 246.15Z" fill="#161616"/>
<path d="M294.75 246.15C294.825 247.225 294.85 248.3 294.8 249.375C294.775 249.85 295.525 249.85 295.55 249.375C295.6 248.3 295.575 247.225 295.5 246.15C295.45 245.675 294.7 245.675 294.75 246.15Z" fill="#161616"/>
<path d="M299.725 245.725C299.675 246.975 299.6 248.25 299.55 249.5C299.525 249.975 300.275 249.975 300.3 249.5C300.35 248.25 300.425 246.975 300.475 245.725C300.5 245.25 299.75 245.25 299.725 245.725Z" fill="#161616"/>
<path d="M301 246C301.125 247.075 301.175 248.15 301.1 249.225C301.075 249.7 301.825 249.7 301.85 249.225C301.925 248.15 301.875 247.075 301.75 246C301.7 245.525 300.95 245.525 301 246Z" fill="#161616"/>
<path d="M306.725 245.875C306.65 247.05 306.7 248.175 306.875 249.325C306.95 249.8 307.675 249.6 307.6 249.125C307.45 248.05 307.425 246.95 307.475 245.85C307.5 245.4 306.75 245.4 306.725 245.875Z" fill="#161616"/>
<path d="M313.125 245.875C313.225 246.85 313.325 247.825 313.425 248.825C313.475 249.3 314.225 249.3 314.175 248.825C314.075 247.85 313.975 246.875 313.875 245.875C313.825 245.4 313.075 245.4 313.125 245.875Z" fill="#161616"/>
<path d="M315.525 246.3C315.575 246.975 315.575 247.65 315.475 248.3C315.4 248.775 316.125 248.975 316.2 248.5C316.325 247.775 316.35 247.025 316.275 246.3C316.225 245.825 315.475 245.8 315.525 246.3Z" fill="#161616"/>
<path d="M281.9 250.225C281.9 251.2 281.9 252.175 281.9 253.175C281.9 253.65 282.65 253.65 282.65 253.175C282.65 252.2 282.65 251.225 282.65 250.225C282.65 249.725 281.9 249.725 281.9 250.225Z" fill="#161616"/>
<path d="M283.575 250.075C283.675 251.1 283.75 252.125 283.85 253.15C283.9 253.625 284.65 253.625 284.6 253.15C284.5 252.125 284.425 251.1 284.325 250.075C284.3 249.6 283.55 249.6 283.575 250.075Z" fill="#161616"/>
<path d="M287.425 249.8C287.5 250.7 287.575 251.575 287.65 252.475C287.7 252.95 288.45 252.95 288.4 252.475C288.325 251.575 288.25 250.7 288.175 249.8C288.125 249.325 287.375 249.3 287.425 249.8Z" fill="#161616"/>
<path d="M291.05 249.95C291.175 250.975 291.325 252 291.45 253.025C291.525 253.5 292.275 253.5 292.2 253.025C292.075 252 291.925 250.975 291.8 249.95C291.75 249.475 291 249.475 291.05 249.95Z" fill="#161616"/>
<path d="M303.075 250.075C303.075 251.3 303.075 252.5 303.075 253.725C303.075 254.2 303.825 254.2 303.825 253.725C303.825 252.5 303.825 251.3 303.825 250.075C303.825 249.6 303.075 249.6 303.075 250.075Z" fill="#161616"/>
<path d="M308.95 249.8C308.95 250.825 308.95 251.85 308.95 252.875C308.95 253.35 309.7 253.35 309.7 252.875C309.7 251.85 309.7 250.825 309.7 249.8C309.7 249.325 308.95 249.3 308.95 249.8Z" fill="#161616"/>
<path d="M286.4 254.25C286.55 255.15 286.55 256.075 286.375 256.975C286.3 257.45 287 257.65 287.1 257.175C287.3 256.125 287.3 255.1 287.125 254.05C287.025 253.575 286.325 253.775 286.4 254.25Z" fill="#161616"/>
<path d="M288.225 254.55C288.275 255.4 288.35 256.225 288.4 257.075C288.425 257.55 289.175 257.55 289.15 257.075C289.1 256.225 289.025 255.4 288.975 254.55C288.925 254.075 288.175 254.075 288.225 254.55Z" fill="#161616"/>
<path d="M295.375 254.275C295.325 255.3 295.375 256.3 295.55 257.325C295.625 257.8 296.35 257.6 296.275 257.125C296.125 256.175 296.075 255.25 296.125 254.275C296.15 253.8 295.4 253.8 295.375 254.275Z" fill="#161616"/>
<path d="M297.425 254.425C297.475 255.275 297.525 256.1 297.6 256.95C297.625 257.425 298.375 257.425 298.35 256.95C298.3 256.1 298.25 255.275 298.175 254.425C298.15 253.95 297.4 253.95 297.425 254.425Z" fill="#161616"/>
<path d="M299.05 254.55C299.1 255.15 299.15 255.775 299.225 256.375C299.275 256.85 300.025 256.85 299.975 256.375C299.925 255.775 299.875 255.15 299.8 254.55C299.775 254.075 299.025 254.075 299.05 254.55Z" fill="#161616"/>
<path d="M305.75 254C305.825 255.025 305.9 256.05 305.975 257.1C306 257.575 306.75 257.575 306.725 257.1C306.65 256.075 306.575 255.05 306.5 254C306.45 253.525 305.7 253.525 305.75 254Z" fill="#161616"/>
<path d="M310.45 254.15C310.5 255 310.55 255.825 310.625 256.675C310.65 257.15 311.4 257.15 311.375 256.675C311.325 255.825 311.275 255 311.2 254.15C311.175 253.675 310.425 253.65 310.45 254.15Z" fill="#161616"/>
<path d="M314.25 254.175C314.125 255.05 314.075 255.925 314.15 256.8C314.2 257.275 314.95 257.275 314.9 256.8C314.825 255.975 314.85 255.175 314.975 254.375C315.05 253.9 314.325 253.7 314.25 254.175Z" fill="#161616"/>
<path d="M281.625 257.75C281.825 259.15 281.95 260.575 282 262C282.025 262.475 282.775 262.475 282.75 262C282.7 260.5 282.575 259.025 282.35 257.55C282.3 257.075 281.575 257.275 281.625 257.75Z" fill="#161616"/>
<path d="M283.9 257.775C283.775 259.05 283.85 260.275 284.125 261.525C284.225 262 284.95 261.8 284.85 261.325C284.6 260.15 284.525 258.975 284.65 257.775C284.7 257.3 283.95 257.3 283.9 257.775Z" fill="#161616"/>
<path d="M289.725 257.65C289.85 258.85 289.9 260.075 289.9 261.3C289.9 261.775 290.65 261.775 290.65 261.3C290.65 260.075 290.6 258.875 290.475 257.65C290.425 257.175 289.675 257.175 289.725 257.65Z" fill="#161616"/>
<path d="M300.1 257.375C300.25 258.775 300.3 260.175 300.275 261.575C300.275 262.05 301.025 262.05 301.025 261.575C301.05 260.175 301 258.775 300.85 257.375C300.8 256.9 300.05 256.875 300.1 257.375Z" fill="#161616"/>
<path d="M302.1 258.075C302.025 259.2 302.125 260.3 302.375 261.4C302.475 261.875 303.2 261.675 303.1 261.2C302.875 260.175 302.775 259.125 302.85 258.075C302.875 257.575 302.125 257.575 302.1 258.075Z" fill="#161616"/>
<path d="M304.35 257.775C304.275 259.05 304.325 260.3 304.475 261.55C304.525 262.025 305.275 262.025 305.225 261.55C305.05 260.3 305.025 259.025 305.1 257.775C305.125 257.3 304.375 257.3 304.35 257.775Z" fill="#161616"/>
<path d="M311.3 257.925C311.35 259 311.425 260.075 311.475 261.15C311.5 261.625 312.25 261.625 312.225 261.15C312.175 260.075 312.1 259 312.05 257.925C312.025 257.45 311.275 257.45 311.3 257.925Z" fill="#161616"/>
<path d="M287.225 262.55C287.225 263.8 287.225 265.075 287.225 266.325C287.225 266.8 287.975 266.8 287.975 266.325C287.975 265.075 287.975 263.8 287.975 262.55C287.975 262.075 287.225 262.075 287.225 262.55Z" fill="#161616"/>
<path d="M292.875 262.4C293 263.7 293.025 265.025 292.95 266.325C292.925 266.8 293.675 266.8 293.7 266.325C293.775 265.025 293.75 263.7 293.625 262.4C293.575 261.925 292.825 261.925 292.875 262.4Z" fill="#161616"/>
<path d="M296.35 262.55C296.275 263.725 296.325 264.9 296.45 266.05C296.5 266.525 297.25 266.525 297.2 266.05C297.075 264.875 297.025 263.725 297.1 262.55C297.125 262.075 296.375 262.075 296.35 262.55Z" fill="#161616"/>
<path d="M306.675 262.55C306.725 263.775 306.8 264.975 306.85 266.2C306.875 266.675 307.625 266.675 307.6 266.2C307.55 264.975 307.475 263.775 307.425 262.55C307.4 262.075 306.65 262.075 306.675 262.55Z" fill="#161616"/>
<path d="M309.15 263.075C309.325 264.075 309.3 265.1 309.125 266.1C309.025 266.575 309.75 266.775 309.85 266.3C310.075 265.15 310.075 264.025 309.875 262.875C309.775 262.4 309.05 262.6 309.15 263.075Z" fill="#161616"/>
<path d="M109.95 40.3999C109.475 43.3249 110.775 46.0749 112.5 48.3499C114.25 50.6499 116.625 52.5249 119.55 52.9499C120.025 53.0249 120.225 52.2999 119.75 52.2249C117.225 51.8749 115.125 50.3749 113.525 48.4499C111.75 46.2999 110.2 43.4999 110.675 40.6249C110.75 40.1249 110.025 39.9249 109.95 40.3999Z" fill="#161616"/>
<path d="M110.6 40.4001C111.325 39.8501 112.15 39.4751 113.05 39.3001C113.525 39.2001 113.325 38.4751 112.85 38.5751C111.825 38.7751 110.9 39.2251 110.075 39.8501C109.7 40.1751 110.225 40.7001 110.6 40.4001Z" fill="#161616"/>
<path d="M113.175 39.35C115.4 39.95 117.425 42.55 118.7 44.35C120.025 46.225 121.025 48.3 121.7 50.475C121.85 50.925 122.575 50.75 122.425 50.275C121.65 47.775 120.475 45.4 118.875 43.325C117.525 41.55 115.6 39.225 113.375 38.625C112.9 38.5 112.7 39.225 113.175 39.35Z" fill="#161616"/>
<path d="M119.7 53C120.65 52.525 121.5 51.85 122.175 51C122.475 50.625 121.95 50.1 121.65 50.475C121.025 51.275 120.25 51.9 119.35 52.35C118.875 52.575 119.275 53.2 119.7 53Z" fill="#161616"/>
<path d="M111.775 39.4C111.7 42.2749 113.3 45.1499 115 47.3749C116.6 49.4749 118.85 51.0749 121.6 51.0249C122.075 51.0249 122.075 50.2749 121.6 50.2749C118.825 50.3249 116.675 48.5249 115.175 46.3499C113.8 44.3249 112.475 41.9249 112.525 39.4C112.525 38.925 111.775 38.925 111.775 39.4Z" fill="#161616"/>
<path d="M110.975 43.825C111.35 43.375 111.8 43.025 112.325 42.75C112.75 42.55 112.375 41.9 111.95 42.1C111.375 42.375 110.85 42.775 110.45 43.275C110.15 43.65 110.675 44.2 110.975 43.825Z" fill="#161616"/>
<path d="M110.575 42.1247C111.05 41.7747 111.525 41.5247 112.1 41.3747C112.575 41.2497 112.375 40.5247 111.9 40.6497C111.3 40.8247 110.725 41.0997 110.2 41.4747C109.825 41.7497 110.175 42.3997 110.575 42.1247Z" fill="#161616"/>
<path d="M113.225 48.4499C113.75 48.0249 114.3 47.5999 114.825 47.1749C115.2 46.8749 114.675 46.3499 114.3 46.6499C113.775 47.0749 113.225 47.4999 112.7 47.9249C112.3 48.2249 112.85 48.7499 113.225 48.4499Z" fill="#161616"/>
<path d="M114.725 50.0998C115.15 49.7748 115.575 49.4498 116 49.1248C116.15 48.9998 116.25 48.7998 116.125 48.5998C116.025 48.4498 115.775 48.3498 115.6 48.4748C115.175 48.7998 114.75 49.1248 114.325 49.4498C114.175 49.5748 114.075 49.7748 114.2 49.9748C114.3 50.1248 114.55 50.2248 114.725 50.0998Z" fill="#161616"/>
<path d="M117.375 51.9748C117.8 51.5498 118.25 51.1498 118.675 50.7248C119.025 50.3998 118.5 49.8498 118.15 50.1998C117.725 50.6248 117.275 51.0248 116.85 51.4498C116.5 51.7748 117.025 52.3248 117.375 51.9748Z" fill="#161616"/>
<path d="M113.3 40.9497C113.775 41.3747 114.225 41.8247 114.7 42.2497C114.675 42.0997 114.65 41.9497 114.65 41.7997C114.15 42.5997 113.875 43.6247 114.55 44.4247C114.775 44.6997 115.125 44.9247 115.5 44.9997C115.675 45.0247 115.825 44.9997 116 44.9997C116.125 44.9747 116.225 44.9247 116.35 44.8997C117.725 44.6747 117.975 45.1997 117.075 46.4497C116.625 46.6247 116.825 47.3497 117.275 47.1747C118.2 46.8247 118.85 45.7997 118.3 44.8497C118.05 44.3997 117.525 44.0747 117.025 44.0497C116.85 44.0247 116.675 44.0747 116.5 44.0747C115.9 44.3997 115.375 44.1497 114.925 43.3747C114.95 42.9497 115.075 42.5747 115.325 42.2497C115.4 42.1247 115.375 41.8997 115.275 41.7997C114.8 41.3747 114.35 40.9247 113.875 40.4997C113.475 40.0997 112.95 40.6247 113.3 40.9497Z" fill="#161616"/>
<path d="M117.675 46.9749C118.1 47.4749 118.5 47.95 118.925 48.45C119.225 48.825 119.775 48.275 119.45 47.925C119.025 47.425 118.625 46.95 118.2 46.45C117.9 46.075 117.375 46.6249 117.675 46.9749Z" fill="#161616"/>
<path d="M134.375 35.3249C132.175 33.5999 130.825 28.6999 132.675 26.3749C134.85 23.6999 139.175 22.5499 141.6 25.3999C143.625 27.7749 143.75 31.4999 142.225 34.1749C141.3 35.7999 139.95 36.5749 138.075 36.5999C136.45 36.6249 134.9 35.9999 133.775 34.7999C133.45 34.4499 132.925 34.9749 133.25 35.3249C135.075 37.2749 138.35 37.9999 140.775 36.7499C143.3 35.4249 144.25 31.8249 143.95 29.1999C143.65 26.5499 142.025 23.6999 139.275 22.9999C136.625 22.3249 132.7 24.2249 131.525 26.6999C130.8 28.2249 131.075 30.0499 131.45 31.6499C131.825 33.2499 132.475 34.7749 133.8 35.7999C134.2 36.1499 134.75 35.6249 134.375 35.3249Z" fill="#161616"/>
<path d="M136.475 25.9249C136.475 25.8999 136.45 25.8499 136.45 25.8249C136.4 25.9749 136.325 26.0999 136.275 26.2499C136.05 26.1749 136.025 26.1999 136.175 26.3999C136.325 26.6499 136.425 26.8999 136.525 27.1749C136.6 27.0249 136.7 26.8749 136.775 26.7249C135.8 27.0249 134.575 27.6999 134.925 28.9249C135.025 29.2999 135.275 29.6249 135.65 29.7499C135.95 29.8749 136.125 29.7499 136.425 29.7249C136.875 29.4999 137.35 29.5749 137.8 29.9749C138.175 31.0749 137.875 31.6249 136.875 31.6999C136.575 31.6999 136.425 32.0249 136.55 32.2749C136.775 32.6999 136.95 33.1249 137.1 33.5749C137.25 34.0249 137.975 33.8499 137.825 33.3749C137.675 32.8499 137.475 32.3749 137.2 31.8999C137.1 32.0999 136.975 32.2749 136.875 32.4749C138.075 32.4499 139.225 31.3249 138.725 30.0749C138.5 29.4999 137.975 29.0499 137.375 28.9249C137.025 28.8499 136.725 28.9999 136.4 28.9999C135.775 28.9999 135.6 28.8749 135.925 28.2749C136.225 27.7249 136.4 27.6499 136.975 27.4749C137.15 27.4249 137.3 27.1999 137.225 27.0249C137.05 26.5249 136.875 25.8249 136.375 25.5749C136.25 25.5249 136.1 25.4999 136 25.5749C135.975 25.5999 135.925 25.6249 135.9 25.6499C135.75 25.7499 135.7 25.8999 135.725 26.0749C135.725 26.0999 135.75 26.1499 135.75 26.1749C135.85 26.5749 136.575 26.3749 136.475 25.9249Z" fill="#161616"/>
<path d="M138.825 23.7998C142.625 22.8248 144.6 26.9248 144.675 30.0498C144.7 31.4748 144.575 33.0748 143.725 34.2748C142.8 35.5748 141.15 35.9748 139.775 36.5748C139.325 36.7748 139.725 37.4248 140.15 37.2248C141.8 36.4998 143.6 36.0248 144.575 34.3498C145.5 32.7498 145.575 30.6248 145.35 28.8248C144.95 25.5248 142.325 22.1248 138.65 23.0748C138.175 23.1998 138.375 23.9248 138.825 23.7998Z" fill="#161616"/>
<path d="M143 33.925C143.35 33.85 143.7 33.775 144.05 33.7C144.525 33.6 144.325 32.875 143.85 32.975C143.5 33.05 143.15 33.125 142.8 33.2C142.325 33.3 142.525 34.025 143 33.925Z" fill="#161616"/>
<path d="M143.9 31.0499C144.3 30.9249 144.7 30.7999 145.075 30.6499C145.525 30.4999 145.325 29.7749 144.875 29.9249C144.475 30.0499 144.075 30.1749 143.7 30.3249C143.25 30.4749 143.45 31.1999 143.9 31.0499Z" fill="#161616"/>
<path d="M143.65 28.8249C143.9 28.7749 144.175 28.7249 144.425 28.6749C144.625 28.6499 144.725 28.3999 144.675 28.2249C144.625 28.0249 144.425 27.9249 144.225 27.9749C143.975 28.0249 143.7 28.0749 143.45 28.1249C143.25 28.1499 143.15 28.3999 143.2 28.5749C143.25 28.7749 143.45 28.8499 143.65 28.8249Z" fill="#161616"/>
<path d="M142.15 25.6749C142.625 25.7499 143.075 25.7249 143.525 25.5749C143.975 25.4249 143.775 24.6999 143.325 24.8499C143 24.9499 142.675 24.9999 142.35 24.9499C142.15 24.9249 141.95 24.9999 141.9 25.1999C141.825 25.3749 141.95 25.6499 142.15 25.6749Z" fill="#161616"/>
<path d="M138 72.9749C134.725 72.0249 132.6 68.8249 132.55 65.4749C132.475 61.6499 135.8 58.3749 139.6 60.0749C142.8 61.4999 144.025 65.2499 144.125 68.5249C144.175 70.0999 143.9 71.9999 142.475 72.9249C141 73.8999 139.075 73.5249 137.5 73.0249C137.05 72.8749 136.85 73.5999 137.3 73.7499C139.85 74.5749 143.075 74.6249 144.35 71.7749C145.575 69.0499 144.8 65.1499 143.4 62.6499C142 60.1249 139 58.1749 136.025 59.0499C132.925 59.9749 131.525 63.3499 131.875 66.3499C132.25 69.7249 134.525 72.7749 137.825 73.7249C138.275 73.8499 138.475 73.1249 138 72.9749Z" fill="#161616"/>
<path d="M136.35 61.8997C136.975 62.5747 137.425 63.2747 137.75 64.1247C137.9 63.9747 138.05 63.8247 138.2 63.6747C137 63.4247 136.375 64.4497 136.45 65.5497C136.475 65.9247 136.55 66.3747 136.925 66.5747C137.2 66.7247 137.6 66.6247 137.875 66.6247C138.175 66.5997 138.45 66.5747 138.75 66.5997C140.075 66.6997 140.25 67.2747 139.3 68.3247C139.05 68.3497 138.8 68.6247 138.975 68.8997C139.425 69.5997 139.85 70.3247 140.2 71.0747C140.4 71.4997 141.05 71.1247 140.85 70.6997C140.475 69.9497 140.075 69.2247 139.625 68.5247C139.525 68.7247 139.4 68.8997 139.3 69.0997C140.35 68.9747 141.225 67.9997 140.675 66.9247C140.425 66.4497 139.95 66.1497 139.475 65.9997C139.1 65.8747 138.725 65.8747 138.35 65.8747C138.05 65.8997 137.775 65.9247 137.475 65.9497C137 65.3747 137.175 64.8747 138.025 64.4497C138.275 64.4997 138.6 64.2747 138.475 63.9997C138.1 63.0247 137.6 62.1997 136.875 61.4497C136.55 61.0247 136.025 61.5497 136.35 61.8997Z" fill="#161616"/>
<path d="M133.75 60.2248C130.525 62.9998 129.525 67.7748 131.95 71.3998C134.3 74.9248 139.025 75.9498 142.6 73.6498C143 73.3998 142.625 72.7498 142.225 72.9998C138.875 75.1498 134.45 74.1248 132.4 70.6998C130.4 67.3498 131.425 63.2248 134.3 60.7498C134.65 60.4498 134.125 59.9248 133.75 60.2248Z" fill="#161616"/>
<path opacity="0.14" d="M135.75 59.8999C135.3 60.8999 134.725 62.5999 134.8 64.7499C134.825 65.3999 135 69.0249 137.625 71.4749C139.425 73.1499 141.325 73.2499 141.25 73.8249C141.15 74.4499 138.8 74.9499 136.675 74.4249C134.35 73.8499 132.275 71.9999 131.375 69.5749C131.15 68.9499 130.25 66.4499 131.5 63.7249C132.775 60.9999 135.275 60.0499 135.75 59.8999Z" fill="#3F3F3F"/>
<path opacity="0.15" d="M112.175 39.325C112.275 40.275 112.525 41.75 113.175 43.425C113.825 45.025 114.95 47.9 117.875 49.55C118.6 49.95 119.975 50.6 121.975 50.7C121.8 51.05 121.375 51.725 120.575 52.25C120.05 52.575 119.575 52.725 119.225 52.8C118.2 52.5 116.65 51.9 115.05 50.725C114.025 49.95 111.65 48.125 110.625 44.8C110.05 42.925 110.1 41.225 110.3 39.95C110.9 39.725 111.525 39.525 112.175 39.325Z" fill="#3F3F3F"/>
<path opacity="0.14" d="M139.25 23.25C140 23.65 141.3 24.5 142.2 26.075C143.475 28.25 143.2 30.4 143.075 31.45C142.95 32.4 142.775 33.8 141.725 35.15C141.175 35.875 140.55 36.35 140.1 36.625C140.65 36.6 142.05 36.425 143.2 35.35C144.1 34.5 144.375 33.525 144.675 32.45C145.15 30.75 145 29.375 144.95 28.9C144.75 27.45 144.225 26.425 144.075 26.15C143.6 25.25 142.975 24.1 141.65 23.525C140.675 23.1 139.75 23.175 139.25 23.25Z" fill="#3F3F3F"/>
<path d="M160.425 227.475C159.7 233.025 158.975 238.575 158.25 244.15C144.325 247.2 137.425 249.3 137.575 250.475C137.775 251.9 148.2 251.95 168.9 250.65C169.8 243.2 170.675 235.75 171.575 228.325C167.85 228.05 164.15 227.75 160.425 227.475Z" fill="#161616"/>
<path d="M190.675 131.15C190.925 133.575 191.175 137.6 190.725 142.55C190.05 149.95 188.15 155.325 187.5 157.25C182.175 172.85 179.6 193.325 178.4 203.025C177.55 209.9 176.6 220.175 176.825 232.975C175.425 233.75 170.775 236.125 164.675 235.15C159.025 234.25 155.5 231.075 154.3 229.9C153.675 210.675 155.3 195.275 157 184.5C158.8 172.95 161.375 161.25 164.325 149.45C166.075 142.4 167.825 135.375 169.6 128.325C176.6 129.25 183.65 130.2 190.675 131.15Z" fill="#195C99"/>
<path opacity="0.13" d="M190.425 138.675C189.6 141.95 188.275 146.85 186.475 152.7C180.525 171.85 175.175 181.8 171.15 192.45C167.55 201.95 163.55 215.9 162.4 234.5C163.725 234.925 165.6 235.35 167.85 235.325C171.975 235.275 175.075 233.75 176.6 232.85C176.775 220.55 177.575 210.225 178.425 202.35C179.1 196 179.775 189.8 181.4 181.575C183.35 171.675 184.325 166.725 186.35 160.95C187.725 157.1 189.375 153.175 190.15 147.1C190.525 143.6 190.5 140.675 190.425 138.675Z" fill="#3F3F3F"/>
<path opacity="0.19" d="M180.7 185.025C178.875 189.5 177.125 194.175 175.425 199.05C170.975 211.825 167.65 224 165.2 235.325C166.525 235.45 168.2 235.475 170.15 235.15C173.05 234.675 175.3 233.65 176.75 232.85C176.625 227.875 176.675 222.65 176.925 217.175C177.425 205.35 178.85 194.575 180.7 185.025Z" fill="#3F3F3F"/>
<path d="M206.25 226.325C207.525 230.5 208.8 234.65 210.075 238.825C200.1 245.875 195.425 250 196.075 251.15C196.9 252.625 206.175 249.4 223.9 241.475C221.35 234.375 218.8 227.25 216.225 220.15C212.925 222.2 209.575 224.25 206.25 226.325Z" fill="#161616"/>
<path d="M200.725 125.899C201.775 128.099 203.4 131.799 204.675 136.599C206.575 143.774 206.6 149.474 206.65 151.499C206.95 167.999 211.525 188.124 213.675 197.624C215.2 204.399 217.825 214.349 222.4 226.324C221.35 227.524 217.775 231.324 211.7 232.524C206.075 233.624 201.675 231.824 200.175 231.124C193.05 213.249 189.325 198.224 187.225 187.524C184.975 176.049 183.425 164.174 182.15 152.074C181.4 144.849 180.65 137.624 179.9 130.424C186.85 128.899 193.8 127.399 200.725 125.899Z" fill="#195C99"/>
<path opacity="0.17" d="M188.1 128.775C191.475 142.9 194.825 157.025 198.15 171.15C202.95 191.525 207.675 211.925 212.325 232.325C213.45 232.1 214.825 231.7 216.275 231C219.2 229.6 221.125 227.675 222.2 226.375C220.475 221.8 218.375 215.75 216.275 208.575C212.2 194.7 210.275 183.7 209.525 179.05C208.15 170.6 207.325 165.525 207.05 158.275C206.875 153.375 207.1 150.95 206.4 145.9C206.1 143.75 205.225 138.375 202.925 131.725C202.075 129.275 201.25 127.25 200.625 125.8C196.475 126.8 192.3 127.8 188.1 128.775Z" fill="#3F3F3F"/>
<path opacity="0.15" d="M206.075 153.2C206 171.875 207.475 192.7 211.675 215.05C212.725 220.625 213.875 226 215.15 231.2C215.9 230.975 216.75 230.675 217.625 230.2C219.85 229.05 221.35 227.525 222.25 226.4C219.675 219.175 217.2 211.425 215 203.15C210.125 184.95 207.45 168.075 206.075 153.2Z" fill="#3F3F3F"/>
<path d="M172.525 73.6751C169.05 76.4751 167.525 79.9501 166.625 82.0251C163.8 88.5001 164.4 94.4251 164.75 97.5751C165.65 105.65 168.425 106.975 169.8 114.575C170.525 118.65 170.8 124.025 169.225 130.725C170.3 131.675 178.575 138.75 189.55 136.625C196.025 135.375 200.175 131.55 201.8 129.85C202.375 113.725 201.45 100.425 200.35 90.6501C199.075 79.2751 197.75 74.4001 193.575 71.5751C187.725 67.6251 178.275 69.0501 172.525 73.6751Z" fill="white" stroke="black" stroke-width="2" stroke-miterlimit="10"/>
<path opacity="0.14" d="M184.325 68.925C185.9 72.0751 187.825 76.475 189.425 81.9501C193.475 95.8251 192.65 107.3 192.225 111.3C191.075 122.55 187.6 131.35 184.8 137.025C186.55 137.075 188.825 136.925 191.4 136.2C196.625 134.725 200.025 131.625 201.625 129.925C201.85 121.3 201.775 114.05 201.625 108.65C201.625 108.65 201.425 100.725 199.975 87.7001C198.975 78.65 198.275 75.7001 195.85 73.1751C192.3 69.525 187.15 68.975 184.325 68.925Z" fill="#3F3F3F"/>
<path opacity="0.17" d="M198.675 80.7999C198.25 80.8249 198.775 87.1999 198.175 99.0999C197.4 114.5 195.625 120.825 195.05 122.85C193.35 128.65 191.175 133.15 189.6 136.05C190.95 135.95 192.75 135.675 194.7 134.9C198.4 133.425 200.7 130.975 201.8 129.625C201.95 124.65 202.025 117.35 201.625 108.525C200.975 94.2249 199.275 80.7499 198.675 80.7999Z" fill="#3F3F3F"/>
<path d="M167.4 91.3003C165.525 93.1253 164.55 95.0753 164.075 96.2253C162.95 98.9253 162.925 101.225 162.925 102.45C162.925 105.75 163.825 108.125 164.8 110.775C165.5 112.625 166.625 115.175 168.5 118C168.9 118.125 169.5 118.275 170.225 118.3C170.925 118.3 171.475 118.2 171.9 118.075C171.65 116.5 171.425 114.95 171.175 113.375C171.6 113.475 172.25 113.6 173.05 113.725C176.825 114.3 179.9 113.9 181.725 113.65C182.575 113.525 183.775 113.35 185.2 113C185.075 113.95 184.95 114.875 184.85 115.825C186.225 116.6 186.825 116.3 187.025 116.175C187.425 115.925 187.475 115.475 187.975 113.925C188.2 113.2 188.425 112.625 188.55 112.25C189.1 112.025 189.65 111.825 190.225 111.6C190.075 112.125 189.925 112.65 189.8 113.2C190.225 113.3 190.925 113.425 191.75 113.275C192.225 113.2 192.6 113.05 192.9 112.925C193.225 111.75 193.575 110.575 193.9 109.375C194.85 108.35 195.75 107.875 196.425 107.65C197.175 107.375 197.425 107.475 198.025 107.15C199.25 106.45 199.675 105.125 199.75 104.825C199.85 104.5 200.175 103.275 199.6 102.075C199.275 101.4 199.05 101.5 198.375 100.475C197.8 99.6253 197.825 99.3253 197.3 98.3753C197.025 97.9253 196.6 97.2503 195.925 96.5003C196.4 95.1003 196.825 94.4503 197.15 94.1253C197.225 94.0503 197.45 93.8253 197.45 93.5503C197.45 93.3003 197.225 93.0753 196.875 92.8253C196.025 92.2253 195.5 91.8753 194.775 91.9503C193.85 92.0753 193.3 92.8003 193.175 92.9503C192.8 92.3253 192.25 91.4503 191.45 90.5753C188.925 87.8003 185.9 86.7503 184.575 86.3753C179.55 84.9753 175.25 86.8253 172.65 87.9753C171.225 88.5753 169.3 89.4253 167.4 91.3003Z" fill="white"/>
<path d="M164.95 110.375C163.45 106.325 162.85 101.85 164.1 97.65C165.3 93.675 167.975 90.525 171.75 88.8C175.55 87.05 180.15 85.775 184.275 86.825C187.875 87.75 190.975 90.1 192.8 93.35C193.025 93.775 193.675 93.4 193.45 92.975C190.375 87.475 184.05 84.775 177.95 86.025C174.5 86.725 170.75 87.95 168.025 90.225C165.55 92.3 163.875 95.275 163.125 98.4C162.175 102.475 162.775 106.7 164.225 110.575C164.4 111 165.125 110.825 164.95 110.375Z" fill="black"/>
<path d="M186.45 100.725C186.35 99.7002 186.4 97.1252 187.775 96.9252C188.625 96.8002 189.175 97.9002 190.125 97.8252C190.6 97.7752 190.6 97.0252 190.125 97.0752C189.475 97.1502 189.025 96.4752 188.45 96.2252C187.9 96.0002 187.375 96.1002 186.925 96.4752C185.775 97.4252 185.6 99.3502 185.725 100.725C185.75 101.2 186.5 101.2 186.45 100.725Z" fill="black"/>
<path d="M189.575 97.2001C191 96.6001 191.925 98.1501 190.575 98.9001C190.125 99.1501 189.575 99.3001 189.075 99.4751C188.075 99.8251 187.05 100.175 186.05 100.525C185.6 100.675 185.8 101.4 186.25 101.25C187.55 100.8 188.875 100.375 190.175 99.8751C190.85 99.6251 191.65 99.2751 191.95 98.5501C192.675 96.7751 190.55 95.9751 189.225 96.5501C188.775 96.7251 189.15 97.3751 189.575 97.2001Z" fill="black"/>
<path d="M193.825 92.0999C193.15 92.4999 192.375 93.1249 192.575 94.0249C192.65 94.4 192.9 94.675 193.25 94.85C193.775 95.125 194.3 95.275 194.8 95.65C195.175 95.95 195.7 95.425 195.325 95.125C194.875 94.775 194.4 94.525 193.9 94.3C193.525 94.125 193.2 93.9499 193.4 93.4749C193.55 93.1249 193.925 92.9249 194.225 92.7499C194.625 92.4999 194.25 91.8499 193.825 92.0999Z" fill="black"/>
<path d="M193.3 94.625C193.1 95.9 193.95 97.3751 195.425 97.0751C196.025 96.9501 196.4 96.5 196.65 95.975C196.925 95.35 196.975 94.475 197.6 94.1C198 93.85 197.625 93.2 197.225 93.45C196.575 93.85 196.375 94.5 196.15 95.175C196 95.625 195.825 96.175 195.325 96.325C194.425 96.6 193.9 95.575 194.025 94.825C194.075 94.35 193.35 94.125 193.3 94.625Z" fill="black"/>
<path d="M193.85 93.0001C194.925 91.8251 196.375 93.0251 197.15 93.875C197.475 94.225 198 93.7 197.675 93.3501C196.6 92.1751 194.675 90.9751 193.325 92.4751C193 92.8251 193.525 93.3501 193.85 93.0001Z" fill="black"/>
<path d="M192.65 101.1C192.6 101.1 192.6 101.1 192.65 101.1C192.6 101.075 192.6 101.075 192.65 101.1C192.625 101.1 192.6 101.075 192.6 101.05C192.625 101.075 192.625 101.075 192.6 101.05C192.575 101.025 192.575 101 192.6 101.025C192.6 101.05 192.6 101.05 192.6 101C192.6 100.95 192.6 100.95 192.6 101C192.6 100.975 192.6 100.95 192.6 100.925C192.6 100.975 192.6 100.975 192.6 100.925C192.575 100.975 192.575 100.975 192.6 100.925C192.55 100.95 192.65 100.925 192.575 100.95C192.625 100.925 192.625 100.925 192.575 100.95C192.625 100.95 192.625 100.95 192.575 100.95C192.6 100.95 192.625 100.95 192.65 100.95C192.625 100.95 192.6 100.95 192.625 100.95C192.65 100.95 192.65 100.95 192.675 100.975C192.65 100.95 192.65 100.975 192.675 100.975C192.7 101 192.725 101 192.675 100.975C192.7 101 192.7 101.025 192.675 101C192.675 100.975 192.675 100.975 192.675 101.025C192.675 101 192.675 100.975 192.675 100.975C192.65 101.025 192.675 101.025 192.675 100.975C192.65 101 192.65 101.025 192.675 100.975C192.65 101 192.65 101 192.625 101.025C192.675 100.975 192.575 101.05 192.625 101.025C192.6 101.025 192.575 101.05 192.55 101.05C192.6 101.05 192.6 101.05 192.55 101.05C192.575 101.075 192.575 101.05 192.55 101.05C192.15 100.8 191.75 101.45 192.175 101.7C192.575 101.95 193.1 101.775 193.325 101.375C193.575 100.925 193.3 100.4 192.825 100.275C192.4 100.15 191.925 100.375 191.8 100.825C191.7 101.25 191.95 101.725 192.4 101.85C192.925 101.95 193.125 101.225 192.65 101.1Z" fill="black"/>
<path d="M196.125 98.95C196.175 98.975 196.225 99 196.25 99.05C196.225 99 196.275 99.125 196.25 99.075C196.25 99.025 196.25 99.175 196.25 99.1C196.25 99.025 196.225 99.2 196.25 99.1C196.275 99.025 196.2 99.175 196.25 99.1C196.275 99.05 196.2 99.15 196.225 99.125C196.175 99.175 196.125 99.2 196.05 99.175C196 99.15 195.975 99.125 195.95 99.1C195.925 99.075 195.925 99.075 195.95 99.1C195.95 99.075 195.925 99.075 195.925 99.05C195.95 99.125 195.925 98.95 195.925 99.025C195.925 99.1 195.95 98.95 195.925 99.025C195.9 99.1 195.95 98.975 195.925 99C195.9 99.05 195.925 99 195.95 98.975C195.925 99 195.925 99 195.95 98.975C195.975 98.95 196 98.95 196.025 98.95C195.975 98.975 196.1 98.95 196.125 98.95C195.925 98.9 195.7 99 195.675 99.2C195.625 99.4 195.725 99.625 195.925 99.65C196.25 99.725 196.55 99.525 196.65 99.2C196.725 98.875 196.6 98.525 196.25 98.425C195.925 98.325 195.6 98.575 195.525 98.875C195.425 99.2 195.6 99.525 195.925 99.65C196.1 99.7 196.35 99.575 196.375 99.4C196.425 99.2 196.325 99.025 196.125 98.95Z" fill="black"/>
<path d="M195.725 96.6751C196.55 97.6251 197.075 98.7501 197.3 100C197.4 100.475 198.125 100.275 198.025 99.8001C197.775 98.4251 197.15 97.2001 196.25 96.1501C195.925 95.7751 195.4 96.3251 195.725 96.6751Z" fill="black"/>
<path d="M197.55 100.475C197.875 100.775 198.275 101 198.725 101.1C199.2 101.2 199.4 100.475 198.925 100.375C198.6 100.3 198.325 100.175 198.075 99.9501C197.725 99.6001 197.2 100.125 197.55 100.475Z" fill="black"/>
<path d="M198.8 100.6C197.025 100.775 195.5 101.8 194.875 103.525C194.35 105 194.55 107.175 196.3 107.7C197.825 108.15 199.225 107.05 199.775 105.675C200.325 104.3 200.5 101.575 199 100.7C198.575 100.45 198.2 101.1 198.625 101.35C199.65 101.95 199.45 104.225 199.15 105.175C198.8 106.3 197.775 107.375 196.5 106.95C195.025 106.45 195.2 104.45 195.775 103.325C196.375 102.175 197.525 101.525 198.775 101.375C199.275 101.3 199.3 100.55 198.8 100.6Z" fill="black"/>
<path d="M196.95 104.65C196.95 104.6 196.95 104.55 196.95 104.5C196.95 104.3 196.775 104.125 196.575 104.125C196.375 104.125 196.2 104.3 196.2 104.5C196.2 104.55 196.2 104.6 196.2 104.65C196.2 104.85 196.375 105.025 196.575 105.025C196.775 105.025 196.95 104.875 196.95 104.65Z" fill="black"/>
<path d="M198.95 103.275C198.9 103.225 198.85 103.175 198.825 103.125C198.7 102.975 198.425 102.975 198.3 103.125C198.15 103.275 198.15 103.5 198.3 103.65C198.35 103.7 198.4 103.75 198.425 103.8C198.55 103.95 198.825 103.95 198.95 103.8C199.1 103.65 199.075 103.425 198.95 103.275Z" fill="black"/>
<path d="M190.5 104.125C190.975 104.65 191.825 104.525 192.225 103.975C192.35 103.8 192.25 103.55 192.1 103.45C191.9 103.35 191.7 103.425 191.575 103.575C191.45 103.75 191.15 103.7 191.025 103.55C190.725 103.225 190.175 103.775 190.5 104.125Z" fill="black"/>
<path d="M191.325 104.2C191.875 105.8 193.725 106.575 195.25 105.85C195.675 105.65 195.3 105 194.875 105.2C193.8 105.7 192.45 105.1 192.05 104C191.875 103.55 191.15 103.725 191.325 104.2Z" fill="black"/>
<path d="M196.2 107.1C195.35 107.775 194.475 108.45 193.625 109.125C193.25 109.425 193.775 109.95 194.15 109.65C195 108.975 195.875 108.3 196.725 107.625C197.125 107.35 196.575 106.825 196.2 107.1Z" fill="black"/>
<path d="M193.5 109.45C193.05 110.6 192.7 111.775 192.45 112.975C192.35 113.45 193.075 113.65 193.175 113.175C193.425 111.975 193.775 110.8 194.225 109.65C194.4 109.2 193.675 109 193.5 109.45Z" fill="black"/>
<path d="M164.025 109.7C164.625 112.2 165.625 114.6 167.1 116.725C167.525 117.35 168.025 118.225 168.75 118.525C169.675 118.925 170.95 118.6 171.9 118.45C172.05 118.425 172.2 118.225 172.175 118.1C172.025 116.525 171.775 114.975 171.45 113.425C171.35 112.95 170.625 113.15 170.725 113.625C171.05 115.1 171.275 116.6 171.425 118.1C171.525 117.975 171.6 117.85 171.7 117.75C170.625 117.925 169.4 118.2 168.525 117.4C167.85 116.775 167.275 115.7 166.825 114.9C165.85 113.2 165.175 111.4 164.725 109.5C164.625 109.025 163.9 109.225 164.025 109.7Z" fill="black"/>
<path d="M171.375 113.725C173.75 114.25 176.175 114.5 178.6 114.45C180.65 114.4 183.35 114.35 185.15 113.3C185.575 113.05 185.2 112.4 184.775 112.65C182.95 113.7 180.175 113.675 178.125 113.7C175.925 113.725 173.725 113.475 171.55 113C171.1 112.9 170.9 113.625 171.375 113.725Z" fill="black"/>
<path d="M184.9 111.825C184.7 112.975 184.45 114.175 184.425 115.35C184.4 116.1 184.8 116.5 185.55 116.525C186.175 116.55 187.425 116.5 187.8 115.95C188.1 115.475 188.175 114.65 188.325 114.125C188.5 113.525 188.7 112.9 188.875 112.3C189.025 111.825 188.3 111.65 188.15 112.1C187.775 113.325 187.425 114.525 187.075 115.75C187.15 115.675 187.25 115.575 187.325 115.5C186.9 115.625 186.4 115.8 185.95 115.775C185.2 115.75 185.15 115.35 185.225 114.725C185.325 113.825 185.45 112.925 185.625 112.025C185.7 111.55 184.975 111.35 184.9 111.825Z" fill="black"/>
<path d="M188.4 112.6C189.65 112.275 190.75 111.625 191.65 110.675C191.975 110.325 191.45 109.8 191.125 110.15C190.325 111 189.35 111.575 188.2 111.875C187.75 112 187.925 112.725 188.4 112.6Z" fill="black"/>
<path d="M189.625 111.575C189.4 112.2 189.3 112.825 189.325 113.475C189.325 113.675 189.5 113.85 189.7 113.85C190.525 113.85 191.35 113.75 192.175 113.6C192.65 113.5 192.45 112.8 191.975 112.875C191.225 113.025 190.475 113.075 189.7 113.1C189.825 113.225 189.95 113.35 190.075 113.475C190.05 112.875 190.125 112.325 190.325 111.775C190.525 111.325 189.8 111.125 189.625 111.575Z" fill="black"/>
<path d="M171.025 91.725C174.275 90.45 177.675 89.75 181.15 89.6C181.625 89.575 181.625 88.825 181.15 88.85C177.6 88.975 174.125 89.7 170.825 91C170.375 91.175 170.575 91.9 171.025 91.725Z" fill="black"/>
<path d="M171.2 90.8249C171.175 90.7999 171.175 90.7999 171.15 90.7749C171.175 90.9249 171.2 91.0749 171.2 91.2249C171.5 90.5249 173.05 90.3749 173.7 90.2499C174.55 90.0749 175.4 89.9249 176.25 89.7999C178.15 89.4999 180.075 89.2999 181.975 89.1749C182.45 89.1499 182.45 88.3999 181.975 88.4249C179.75 88.5749 177.55 88.8249 175.35 89.1999C174.2 89.3999 171.1 89.5749 170.55 90.8499C170.475 90.9999 170.475 91.1749 170.6 91.2999C170.625 91.3249 170.625 91.3249 170.65 91.3499C171 91.6749 171.55 91.1499 171.2 90.8249Z" fill="black"/>
<path opacity="0.12" d="M192.6 92.2C192.5 94.925 191.65 96.35 190.85 97.125C190.425 97.55 190.25 97.55 188.625 98.875C186.325 100.725 186.175 101.125 186.1 101.4C185.825 102.725 187.25 103.325 187.35 104.875C187.475 106.65 185.75 108.15 184.825 108.925C180.2 112.9 170.8 112.075 169.25 111.925C169.6 114.025 169.95 116.125 170.325 118.2C170.775 118.325 171.4 118.425 171.675 118.1C171.95 117.8 171.775 117.3 171.575 116.275C171.3 114.825 171.175 114.075 171.375 113.75C171.925 112.9 174.275 113.7 176.3 114.05C178.225 114.375 181.05 114.45 184.725 113.275C184.8 114.125 184.85 114.95 184.925 115.8C185.775 115.8 186.6 115.8 187.45 115.8C187.75 114.7 188.025 113.6 188.325 112.5C188.9 112.175 189.475 111.85 190.075 111.525C189.95 112.175 189.825 112.825 189.7 113.45C190.6 113.425 191.5 113.375 192.4 113.35C192.425 112.625 192.625 111.125 193.65 109.675C194.025 109.15 194.7 108.225 195.875 107.75C196.625 107.45 196.85 107.625 197.625 107.275C197.975 107.125 198.925 106.6 199.55 105.525C200.15 104.5 200.5 102.85 199.75 101.75C199.35 101.175 199.1 101.4 198.4 100.675C197.625 99.875 197.8 99.45 196.85 97.675C196.2 96.45 195.975 96.4 195.975 95.925C196.025 94.725 197.55 94.35 197.425 93.5C197.3 92.475 194.95 92.075 194.825 92.05C193.9 91.95 193.125 92.075 192.6 92.2Z" fill="#3F3F3F"/>
<path opacity="0.14" d="M191.925 98C191.825 98.55 191.575 99.475 190.85 100.325C190.45 100.8 189.95 101.375 189.1 101.475C188.175 101.6 187.45 101.05 187.275 100.9C188.85 99.925 190.375 98.975 191.925 98Z" fill="#3F3F3F"/>
<path d="M187.675 111.475C187.15 111.775 186.75 112.425 186.8 112.975C186.925 114.15 189.2 114.7 189.125 114.95C189.05 115.175 187.425 114.475 185.7 115.1C185.425 115.2 184.525 115.525 184.45 116.1C184.4 116.55 184.9 116.675 185.025 117.4C185.125 117.9 184.9 117.95 184.875 118.85C184.85 119.45 184.85 119.825 185.075 120.2C185.375 120.675 185.725 120.575 186 121.025C186.325 121.55 185.9 121.875 186.15 122.525C186.4 123.2 187.125 123.625 187.7 123.775C188.35 123.95 188.7 123.725 188.9 123.975C189.2 124.35 188.5 125 188.75 125.625C188.975 126.175 189.8 126.325 190.1 126.35C192.175 126.5 194 121.75 194.1 121.475C194.875 121.475 195.8 121.4 196.8 121.15C199.125 120.55 200.6 119.225 202.4 117.625C203.325 116.8 204.475 115.75 205.675 114.1C207.3 111.85 208.025 109.85 208.675 108.075C209.225 106.525 210.025 104.175 210.275 101.025C210.5 97.7748 210 95.3498 209.55 93.2248C208.425 87.9748 206.4 84.4248 205.925 83.6248C205.85 83.4998 204.35 81.5498 201.35 77.6498C199.825 75.6748 198.45 73.9498 196.825 74.0248C196.65 74.0248 196.325 74.0498 195.95 74.2748C194.775 74.9498 194.675 76.8998 194.75 78.6998C195.025 84.8998 197.2 89.3998 197.2 89.3998C198.975 93.0498 200.4 93.9998 201.05 97.3998C201.4 99.1748 201.4 100.825 201.375 101.15C201.375 102.425 201.325 104.125 200.65 106.175C200.275 107.25 199.45 109.675 197.125 111.625C195.725 112.8 194.725 113.65 193.45 113.5C191.675 113.3 190.2 111.3 188.475 111.275C188.275 111.275 187.975 111.3 187.675 111.475Z" fill="white"/>
<path d="M195.875 74.0497C202.175 77.9497 206.875 84.2247 208.8 91.3997C210.95 99.4247 209.5 107.725 204.7 114.5C202.325 117.85 198.85 121.1 194.475 120.925C194 120.9 194 121.65 194.475 121.675C198.2 121.825 201.325 119.65 203.7 116.975C206.4 113.925 208.5 110.15 209.6 106.225C211.85 98.1497 210.1 89.1747 205.45 82.2497C203.05 78.6997 199.925 75.6747 196.275 73.4247C195.825 73.1497 195.45 73.7997 195.875 74.0497Z" fill="black"/>
<path d="M200.425 105.85C199.075 109.075 196.95 112.45 193.225 113.075C192.75 113.15 192.95 113.875 193.425 113.8C197.4 113.125 199.675 109.5 201.125 106.05C201.325 105.625 200.6 105.425 200.425 105.85Z" fill="black"/>
<path d="M193.375 113.025C191.675 112.725 188.725 109.65 187 111.35C186.375 111.975 186.45 113.025 186.825 113.75C187.375 114.825 188.575 115.2 189.65 115.475C190.125 115.6 190.325 114.875 189.85 114.75C188.9 114.525 187.75 114.225 187.4 113.175C187.2 112.8 187.275 112.45 187.6 112.175C187.75 111.65 188.1 111.475 188.65 111.7C189.05 111.775 189.425 111.95 189.775 112.125C190.925 112.7 191.875 113.525 193.175 113.75C193.65 113.85 193.85 113.125 193.375 113.025Z" fill="black"/>
<path d="M194.075 121.075C193.25 122.275 192.45 123.5 191.625 124.7C191.425 124.975 191.25 125.25 191 125.5C190.775 125.775 190.475 125.975 190.125 126.1C189.775 125.575 189.45 125.05 189.1 124.525C189.25 124.075 190.3 123.475 190.65 123.15C191.025 122.825 190.475 122.3 190.125 122.625C189.4 123.275 188.075 124 188.025 125.1C188 125.95 188.65 126.75 189.475 126.875C190.5 127.025 191.325 126.325 191.9 125.575C192.925 124.275 193.775 122.825 194.725 121.45C195 121.05 194.35 120.675 194.075 121.075Z" fill="black"/>
<path d="M189.675 114.725C188.225 115.15 186.75 114.8 185.3 115.05C184.55 115.175 183.9 115.575 183.975 116.425C184.225 118.825 187.525 118.45 189.1 118.1C189.575 118 189.375 117.275 188.9 117.375C188.175 117.55 187.425 117.7 186.675 117.65C185.725 117.575 183.675 116.375 185.65 115.75C186.325 115.55 187.225 115.725 187.9 115.7C188.575 115.7 189.225 115.625 189.875 115.425C190.35 115.3 190.15 114.575 189.675 114.725Z" fill="black"/>
<path d="M185.25 117.5C184.15 118.275 184.05 120 185.1 120.875C186.35 121.9 188.25 121.25 189.525 120.625C189.95 120.4 189.575 119.75 189.15 119.975C188.325 120.4 187.225 120.825 186.275 120.6C185.2 120.375 184.625 118.85 185.65 118.15C186.025 117.875 185.65 117.225 185.25 117.5Z" fill="black"/>
<path d="M185.7 121.075C185.375 122.05 185.8 123.2 186.65 123.8C187.725 124.55 189.075 124.175 190.05 123.425C190.425 123.125 190.05 122.475 189.675 122.775C188.975 123.3 188.025 123.75 187.2 123.25C186.525 122.85 186.2 122 186.45 121.275C186.575 120.825 185.85 120.625 185.7 121.075Z" fill="black"/>
<path d="M196.275 73.0248C193.075 77.5748 194.175 83.3998 196.225 88.1498C198.8 94.1248 203.15 100.125 201.825 106.975C201.725 107.45 202.45 107.65 202.55 107.175C203.7 101.2 200.725 95.7498 198.175 90.5748C195.6 85.3498 193.175 78.7248 196.925 73.3998C197.2 72.9998 196.55 72.6248 196.275 73.0248Z" fill="black"/>
<path d="M201.125 98.7498C201 101.425 200.675 104.075 200.15 106.7C200.05 107.175 200.775 107.375 200.875 106.9C201.4 104.2 201.75 101.5 201.875 98.7498C201.9 98.2748 201.15 98.2748 201.125 98.7498Z" fill="black"/>
<path opacity="0.12" d="M200.65 77.2747C201.9 79.6997 203.4 83.2247 204.35 87.6747C205.6 93.5747 205.25 98.2997 205.025 100.425C204.5 105.325 204.05 109.55 200.875 113.725C199.55 115.5 196.85 119.05 192.375 120.225C189.325 121 186.25 120.475 185.875 121.675C185.7 122.3 186.275 123.1 186.875 123.475C187.675 123.95 188.75 123.875 189.675 123.25C188.775 123.875 188.35 124.75 188.55 125.375C188.725 125.925 189.35 126.225 189.775 126.275C191.825 126.55 193.875 121.825 194.025 121.475C194.825 121.5 196.025 121.45 197.375 121.025C200.175 120.175 201.875 118.3 203.75 116.225C204.525 115.375 205.925 113.775 207.225 111.425C210.55 105.35 210.275 99.2496 210.125 96.9996C209.7 89.5997 206.575 84.4997 205.75 83.2497C204.05 80.4497 202.1 78.5247 200.65 77.2747Z" fill="#3F3F3F"/>
<path opacity="0.11" d="M210.275 98.6248C209.375 101.425 207.975 104.8 205.8 108.35C202.025 114.525 197.5 118.575 194.275 121C195.1 121.05 196.35 121.025 197.75 120.675C202.5 119.425 205.025 115.275 206.025 113.625C207.325 111.475 207.825 109.675 208.7 106.575C209.625 103.325 210.05 100.55 210.275 98.6248Z" fill="#3F3F3F"/>
<path d="M170.65 75C170.25 74.525 166.975 76.65 164.75 78.325C162.05 80.35 159.725 82.1 157.5 85.275C154.55 89.475 153.65 93.55 153.35 95.225C153.125 96.525 152.425 101.075 153.975 106.625C155.275 111.3 157.475 114.125 160.2 117.625C161.95 119.9 163.3 121.15 165.175 121.975C166.9 122.75 168.475 122.9 169.525 122.9C170.075 123.7 170.7 124.6 171.4 125.6C172 126.45 172.35 126.925 172.95 127.475C173.525 128 174.425 128.775 175.125 128.5C175.5 128.375 175.7 127.975 176.05 127.35C176.4 126.7 176.325 126.575 176.575 126.325C177.1 125.775 177.65 126.125 178.35 125.7C179.05 125.25 178.725 124.65 179.6 123.425C180.275 122.475 180.65 122.55 180.85 121.875C181.05 121.125 180.6 120.875 180.75 119.9C180.9 118.925 181.45 118.6 181.275 118.25C181.075 117.875 180.3 118.025 179.2 118.05C177.2 118.075 175.475 117.575 175.475 117.325C175.475 117.05 177.25 117.3 178.175 116.175C178.7 115.525 178.925 114.425 178.475 113.9C177.95 113.25 176.575 113.575 174.85 114C172.525 114.575 172.4 115.05 171.425 115.15C168.425 115.425 165.725 111.125 164.8 109.65C164.3 108.875 162.75 106.25 162.2 102.5C161.65 98.725 162.375 95.6 162.925 93.275C163.075 92.6 163.025 92.925 164.075 89.325C165.925 82.925 165.8 82.95 166.25 81.85C168.1 77.4 171.05 75.45 170.65 75Z" fill="white"/>
<path d="M169.975 74.7501C162.425 78.0751 156.2 84.4001 153.75 92.3751C151.075 101 153.25 109.975 158.85 116.95C161.55 120.3 165.175 123.075 169.6 123.325C170.075 123.35 170.075 122.6 169.6 122.575C165.65 122.35 162.375 119.925 159.875 117C157.175 113.825 155 109.925 154.025 105.875C152.025 97.7501 154.5 89.0501 160.025 82.8501C162.9 79.6251 166.45 77.1251 170.4 75.3751C170.8 75.2001 170.425 74.5751 169.975 74.7501Z" fill="black"/>
<path d="M162.85 107C164.4 110.85 166.9 114.525 171.15 115.575C171.625 115.7 171.825 114.975 171.35 114.85C167.375 113.875 165.025 110.4 163.575 106.8C163.4 106.375 162.675 106.55 162.85 107Z" fill="black"/>
<path d="M171.3 115.525C172.8 115.425 174 114.675 175.4 114.225C176.325 113.925 177.9 113.6 178.075 114.875C178.3 116.425 176.325 116.75 175.2 116.875C174.725 116.925 174.725 117.675 175.2 117.625C176.325 117.5 177.575 117.325 178.35 116.425C178.95 115.7 179.15 114.575 178.5 113.825C176.775 111.825 173.225 114.65 171.3 114.775C170.825 114.825 170.825 115.575 171.3 115.525Z" fill="black"/>
<path d="M169.325 123.125C170.3 124.575 171.2 126.125 172.275 127.5C172.925 128.35 173.8 129.15 174.95 129.075C175.8 129 176.6 128.35 176.6 127.45C176.625 126.275 175.125 125.375 174.375 124.7C174.025 124.375 173.475 124.9 173.85 125.225C174.275 125.6 175.325 126.275 175.525 126.775C175.55 127.2 175.55 127.6 175.575 128.025C174.8 128.4 174.15 128.35 173.65 127.875C173.25 127.575 172.975 127.225 172.675 126.8C171.725 125.475 170.875 124.1 169.975 122.75C169.7 122.325 169.05 122.7 169.325 123.125Z" fill="black"/>
<path d="M175.075 117.575C176.5 118.1 178 118.025 179.475 118.275C179.725 118.3 179.975 118.35 180.225 118.425C180.35 118.8 180.475 119.175 180.575 119.55C180.475 120 179.075 120.125 178.775 120.125C177.825 120.15 176.9 119.85 176 119.6C175.525 119.475 175.35 120.175 175.8 120.325C177.25 120.75 181.475 121.7 181.625 119.05C181.675 118.125 180.775 117.775 180.025 117.625C178.45 117.3 176.8 117.425 175.275 116.875C174.825 116.7 174.625 117.425 175.075 117.575Z" fill="black"/>
<path d="M179.75 120.775C180.275 121.175 180.45 121.9 180.125 122.45C179.8 123 179.175 123.15 178.575 123.15C177.55 123.125 176.525 122.65 175.625 122.175C175.2 121.95 174.825 122.6 175.25 122.825C176.625 123.575 178.8 124.525 180.275 123.45C181.425 122.6 181.225 120.925 180.15 120.125C179.725 119.825 179.35 120.475 179.75 120.775Z" fill="black"/>
<path d="M178.7 123.85C178.95 124.7 178.375 125.575 177.525 125.8C176.6 126.05 175.675 125.575 174.975 125.025C174.6 124.725 174.075 125.25 174.45 125.55C175.45 126.35 176.775 126.925 178.05 126.4C179.125 125.95 179.8 124.775 179.45 123.65C179.3 123.175 178.575 123.375 178.7 123.85Z" fill="black"/>
<path opacity="0.11" d="M165.75 77.6001C164.3 79.6751 162.475 82.6751 160.95 86.5501C158.475 92.8501 158.125 98.1501 158.05 100.075C157.825 105.6 157.7 108.825 159.625 112.275C162.075 116.675 166.45 118.85 171.925 121.55C174.725 122.925 177.125 123.825 178.75 124.35C178.75 124.5 178.75 125.575 177.975 126.15C177.125 126.75 175.65 126.525 174.725 125.375C175.925 126.15 176.475 127.2 176.175 127.825C175.925 128.4 174.95 128.7 174.15 128.5C172.6 128.075 172.75 125.9 170.45 123.8C169.925 123.325 169.45 123 169.1 122.8C167.625 122.65 165.1 122.15 162.6 120.45C162.15 120.15 160.45 118.925 158.125 115.425C156.65 113.2 154.825 110.425 153.75 106.25C153.4 104.9 151.7 97.7001 154.975 89.9251C155.3 89.1251 156.15 87.2751 157.65 85.1251C160.45 81.1751 163.675 78.8501 165.75 77.6001Z" fill="#3F3F3F"/>
<path d="M167.35 37.2249C164.6 39.1749 163.725 41.9499 162.025 47.4249C159.875 54.3249 158.325 59.2999 160.975 63.1749C163.6 66.9749 169.375 68.3249 175.35 67.3499C175.725 67.4999 176.25 67.7749 176.625 68.2749C177.125 68.9499 177.05 69.6249 177.2 70.6999C177.4 72.1249 177.55 73.3249 178.25 73.8249C179.4 74.6749 181.825 73.4999 183.225 72.4249C185.4 70.7749 186.325 68.5749 186.7 67.6749C190.575 58.0999 192.5 53.3249 191.45 48.7999C191.15 47.5249 190.175 43.5499 186.7 40.2249C181.625 35.4249 172.75 33.3999 167.35 37.2249Z" fill="white"/>
<path d="M163.55 42.9499C160.5 49.3499 161.6 58.7999 166.85 63.8499C171.35 68.1499 178.95 67.7499 183.1 63.1999C183.425 62.8499 182.9 62.2999 182.575 62.6749C178.575 67.0499 171.275 67.3249 167.1 63.0499C162.35 58.1999 161.325 49.3499 164.175 43.3499C164.4 42.8999 163.75 42.5249 163.55 42.9499Z" fill="#161616"/>
<path d="M176.225 66.4251C176.2 69.0251 176.75 71.5251 177.825 73.9001C178.025 74.3501 178.675 73.9501 178.475 73.5251C177.45 71.2751 176.95 68.9001 176.975 66.4251C176.975 65.9501 176.225 65.9501 176.225 66.4251Z" fill="#161616"/>
<path d="M177.8 74.0751C180.3 75.5251 183.475 73.3001 185.275 71.6251C185.625 71.3001 185.1 70.7751 184.75 71.1001C183.25 72.5001 180.3 74.6751 178.2 73.4501C177.75 73.2001 177.375 73.8501 177.8 74.0751Z" fill="#161616"/>
<path d="M167.65 55.9C171.5 58.35 176.7 55 178.6 51.55C178.825 51.125 178.175 50.75 177.95 51.175C176.25 54.275 171.525 57.475 168.025 55.25C167.625 55 167.25 55.65 167.65 55.9Z" fill="#161616"/>
<path d="M177.05 50.8999C177.7 51.2249 178.2 51.7499 178.4 52.4499C178.55 52.8999 179.275 52.7249 179.125 52.2499C178.85 51.3749 178.25 50.6499 177.425 50.2499C177 50.0499 176.625 50.6999 177.05 50.8999Z" fill="#161616"/>
<path d="M170.075 41.9749C169.15 44.5749 168.025 47.0999 166.675 49.5C166.45 49.925 167.075 50.3 167.325 49.875C168.7 47.4 169.85 44.8249 170.8 42.1499C170.95 41.7249 170.225 41.5249 170.075 41.9749Z" fill="#161616"/>
<path d="M166.775 50.1749C167.55 51.2499 168.775 51.8749 170.1 51.7749C170.575 51.7499 170.575 50.9999 170.1 51.0249C169.05 51.0999 168.05 50.6499 167.425 49.7999C167.15 49.3999 166.5 49.7749 166.775 50.1749Z" fill="#161616"/>
<path d="M166.7 46.25C166.625 45.675 166.7 45.1 166.925 44.575C166.675 44.575 166.45 44.575 166.2 44.575C166.4 45.25 166.3 45.925 165.925 46.525C166.15 46.55 166.375 46.575 166.6 46.625C166.5 46.15 166.525 45.675 166.675 45.2C166.825 44.75 166.1 44.55 165.95 45C165.75 45.6 165.725 46.2 165.875 46.825C165.95 47.15 166.4 47.175 166.55 46.925C167.025 46.175 167.15 45.25 166.9 44.4C166.8 44.025 166.3 44.075 166.175 44.4C165.9 45.075 165.85 45.775 165.95 46.475C166.05 46.925 166.75 46.725 166.7 46.25Z" fill="#161616"/>
<path d="M176.275 44.675C176.025 44.05 176.125 43.4 176.6 42.95C176.4 42.9 176.175 42.85 175.975 42.775C176.15 43.5 176.05 44.2 175.675 44.85C175.9 44.875 176.125 44.9 176.35 44.95C176.25 44.475 176.3 44.05 176.45 43.6C176.6 43.15 175.875 42.95 175.725 43.4C175.525 43.975 175.5 44.55 175.625 45.15C175.7 45.475 176.15 45.5 176.3 45.25C176.775 44.425 176.9 43.5 176.675 42.6C176.6 42.3249 176.25 42.25 176.05 42.425C175.4 43.075 175.175 44.05 175.525 44.9C175.75 45.325 176.475 45.125 176.275 44.675Z" fill="#161616"/>
<path d="M165.425 42.275C165.85 41.35 167.025 41.025 167.825 41.625C168.225 41.9 168.6 41.25 168.2 40.975C167.075 40.15 165.325 40.625 164.775 41.9C164.575 42.35 165.225 42.725 165.425 42.275Z" fill="#161616"/>
<path d="M163.675 48.3C163.625 48.35 163.575 48.4 163.525 48.45C163.375 48.6 163.375 48.825 163.525 48.975C163.675 49.125 163.9 49.125 164.05 48.975C164.1 48.925 164.15 48.875 164.2 48.825C164.35 48.675 164.35 48.45 164.2 48.3C164.05 48.15 163.825 48.15 163.675 48.3Z" fill="#161616"/>
<path d="M165.875 48.2001C165.875 48.2001 165.875 48.1751 165.875 48.2001C165.875 48.2501 165.9 48.3001 165.925 48.3751C165.925 48.3751 165.925 48.3751 165.925 48.3501C165.9 48.4251 165.9 48.4751 165.875 48.5501C165.7 48.7501 165.525 48.7501 165.35 48.5501C165.325 48.4751 165.325 48.4251 165.3 48.3501C165.3 48.3501 165.3 48.3501 165.3 48.3751C165.325 48.3001 165.325 48.2501 165.35 48.1751C165.35 48.1751 165.35 48.1751 165.35 48.2001C165.275 48.3751 165.3 48.6001 165.475 48.7251C165.625 48.8251 165.9 48.7751 166 48.6001C166.075 48.4251 166.075 48.2501 165.95 48.1001C165.875 48.0251 165.75 47.9751 165.625 47.9751C165.5 47.9751 165.375 48.0251 165.3 48.1001C165.15 48.2501 165.175 48.4251 165.25 48.6001C165.325 48.7751 165.6 48.8251 165.775 48.7251C165.925 48.6001 165.95 48.3751 165.875 48.2001Z" fill="#161616"/>
<path d="M164.575 50.825C164.6 50.825 164.65 50.825 164.675 50.825C165.15 50.825 165.15 50.075 164.675 50.075C164.65 50.075 164.6 50.075 164.575 50.075C164.1 50.075 164.1 50.825 164.575 50.825C164.6 50.825 164.65 50.825 164.675 50.825C165.15 50.825 165.15 50.075 164.675 50.075C164.65 50.075 164.6 50.075 164.575 50.075C164.1 50.075 164.1 50.825 164.575 50.825Z" fill="#161616"/>
<path d="M175.375 47.1249C175.375 47.0749 175.375 47.0249 175.35 46.9749C175.325 46.7749 175.2 46.5999 174.975 46.5999C174.8 46.5999 174.575 46.7749 174.6 46.9749C174.6 47.0249 174.6 47.0749 174.625 47.1249C174.65 47.3249 174.775 47.4999 175 47.4999C175.175 47.4999 175.4 47.3499 175.375 47.1249Z" fill="#161616"/>
<path d="M177.075 46.7249C177.125 46.7249 177.175 46.7249 177.225 46.7249C177.425 46.7249 177.6 46.5499 177.6 46.3499C177.6 46.1499 177.425 45.9749 177.225 45.9749C177.175 45.9749 177.125 45.9749 177.075 45.9749C176.875 45.9749 176.7 46.1499 176.7 46.3499C176.7 46.5499 176.85 46.7249 177.075 46.7249Z" fill="#161616"/>
<path d="M176.225 48.0752C176.225 48.1252 176.225 48.1752 176.225 48.2252C176.225 48.4252 176.4 48.6002 176.6 48.6002C176.8 48.6002 176.975 48.4252 176.975 48.2252C176.975 48.1752 176.975 48.1252 176.975 48.0752C176.975 47.8752 176.8 47.7002 176.6 47.7002C176.4 47.7252 176.225 47.8752 176.225 48.0752Z" fill="#161616"/>
<path d="M174.675 40.7001C175.825 40.1501 177.2 40.3001 178.2 41.1251C178.575 41.4251 179.1 40.9001 178.725 40.6001C177.45 39.5501 175.775 39.3501 174.3 40.0751C173.85 40.2751 174.25 40.9251 174.675 40.7001Z" fill="#161616"/>
<path d="M185.775 44.625C186.075 44.325 186.375 44.05 186.7 43.75C186.9 43.775 187.1 43.8 187.3 43.825C187.75 43.925 188.1 44.15 188.425 44.425C189.15 45.05 189.525 45.95 189.6 46.9C189.75 48.475 189.125 50.575 187.225 50.525C186.75 50.525 186.75 51.275 187.225 51.275C190.375 51.35 191 47.175 189.8 44.975C189.2 43.85 188 42.975 186.675 43C185.65 43.025 184.6 43.7 185.025 44.825C185.225 45.25 185.95 45.075 185.775 44.625Z" fill="#161616"/>
<path d="M168.351 33.425C167.851 33.55 166.076 34 163.976 35.675C159.451 39.325 158.126 45.075 157.701 46.975C156.876 50.725 157.751 50.85 156.801 53.9C155.501 58.1 153.651 58.5 152.226 62.175C151.751 63.375 149.676 68.725 152.126 73.15C154.626 77.65 160.551 78.95 164.651 78.525C169.376 78.05 174.776 74.95 176.051 70.125C176.401 68.825 176.376 67.625 176.276 66.75C175.101 66.825 172.976 66.825 170.576 65.875C169.951 65.625 167.601 64.625 165.551 62.175C163.801 60.1 163.176 58.075 162.726 56.6C162.301 55.15 161.351 51.85 162.301 47.725C163.176 43.975 165.126 41.6 165.526 41.125C167.951 38.275 170.801 37.1 172.151 36.65C173.351 38.2 174.526 39.35 175.401 40.125C177.301 41.8 179.326 43.575 182.326 44.15C183.451 44.375 184.376 44.375 184.976 44.325C185.126 44.1 185.576 43.525 186.376 43.3C187.701 42.925 188.826 43.925 189.026 44.1C189.8 44.775 190 45.625 190.151 46.15C190.25 46.525 190.551 47.8 189.951 49.15C189.801 49.475 189.576 49.95 189.101 50.35C188.201 51.125 187.076 51.075 186.751 51.05C185.826 52.05 184.551 53.7 183.576 55.975C181.976 59.725 182.176 63.025 182.226 63.925C182.401 66.175 182.701 70.325 186.026 73.1C190.201 76.6 195.776 75.075 196.426 74.9C202.876 73.05 204.975 66.475 205.15 65.85C206.925 59.925 203.851 54.725 202.351 52.2C200.276 48.675 199.251 49.075 194.626 43.925C187.851 36.375 187.8 33.025 183.776 31.5C181.626 30.7 178.026 30.275 172.251 33.3C171.401 33.175 169.976 33.05 168.351 33.425Z" fill="#EC615B"/>
<path d="M176.725 67.2001C178.2 67.0251 179.75 66.0001 180.925 65.1251C181.3 64.8501 180.925 64.2001 180.55 64.4751C180 64.9001 179.4 65.2501 178.775 65.5751C178.125 65.9251 177.45 66.3501 176.7 66.4501C176.25 66.5001 176.25 67.2501 176.725 67.2001Z" fill="#161616"/>
<path d="M176.95 67.5251C177.9 67.3751 178.75 66.8251 179.575 66.3501C180.375 65.8751 181.1 65.3501 181.75 64.6751C182.075 64.3251 181.55 63.8001 181.225 64.1501C180.15 65.3001 178.325 66.5501 176.75 66.8251C176.275 66.9001 176.475 67.6251 176.95 67.5251Z" fill="#161616"/>
<path opacity="0.25" d="M192.45 41.9001C193.925 44.3751 195.9 48.1251 197.475 53.0251C199.4 59.0001 200.55 62.4751 198.65 65.2001C196.775 67.9001 192.5 68.9751 188.925 67.7751C185.35 66.5751 182.825 63.2501 182.6 59.3501C182.275 60.7751 181.925 63.2001 182.475 66.1251C182.85 68.0501 183.325 70.5001 185.4 72.5501C187.875 75.0001 191.025 75.2501 192.175 75.3501C193.35 75.4501 196.45 75.5251 199.55 73.6001C202.625 71.7001 203.85 68.9751 204.35 67.8751C205.725 64.7751 205.525 62.0251 205.4 60.6251C205.075 56.6751 203.375 53.9251 202.6 52.6751C202.275 52.1501 201.525 51.0001 197.925 47.3001C195.7 44.9751 193.8 43.1251 192.45 41.9001Z" fill="#3F3F3F"/>
<path opacity="0.15" d="M152.675 61.4248C152.375 62.4498 151.925 64.6498 152.8 67.0498C154.225 70.9748 158.675 73.7998 163.225 73.1248C166.95 72.5748 170.075 69.7748 171.175 65.9748C172.925 66.1998 174.675 66.4498 176.45 66.6748C176.5 67.5248 176.45 68.8248 175.975 70.2998C175.125 72.9998 173.425 74.5748 172.7 75.2248C169.375 78.1998 165.375 78.4248 163.8 78.4998C161.725 78.5998 158.35 78.7998 155.25 76.4998C152.65 74.5998 151.675 72.0248 151.4 71.1248C149.8 66.2748 152.275 62.0998 152.675 61.4248Z" fill="#3F3F3F"/>
<path opacity="0.15" d="M183.8 51.0249C182.85 54.4249 181.575 58.9999 178.65 61.6749C177.4 62.8249 174.425 64.8999 168.225 64.4749C168.975 64.9999 170.65 65.9999 173.025 66.2249C175.4 66.4499 177.225 65.7749 178.05 65.3999C178.975 68.1749 179.925 70.9499 180.85 73.6999C182.175 72.9499 183.5 72.2249 184.825 71.4749C183.925 70.0749 182.225 66.9999 182.125 62.8249C181.975 55.9749 186.25 51.4499 187.15 50.5499C187.5 50.4999 188.725 50.2249 189.5 49.1499C190.525 47.6999 190.1 45.5999 188.925 44.4749C188.7 44.2499 187.7 43.2999 186.7 43.5499C185.1 43.8999 184.9 47.0249 183.8 51.0249Z" fill="#3F3F3F"/>
</svg>
