<svg width="28" height="28" viewBox="0 0 28 28" fill="none" xmlns="http://www.w3.org/2000/svg">
<path d="M4.95825 2.33334C3.51888 2.33334 2.33325 3.51897 2.33325 4.95834V20.125C2.33325 21.5644 3.51888 22.75 4.95825 22.75H20.1249C21.5643 22.75 22.7499 21.5644 22.7499 20.125V4.95834C22.7499 3.51897 21.5643 2.33334 20.1249 2.33334H4.95825ZM4.95825 4.08334H20.1249C20.6187 4.08334 20.9999 4.46455 20.9999 4.95834V20.125C20.9999 20.6188 20.6187 21 20.1249 21H4.95825C4.46446 21 4.08325 20.6188 4.08325 20.125V4.95834C4.08325 4.46455 4.46446 4.08334 4.95825 4.08334ZM23.9166 5.41066V20.7083C23.9166 22.477 22.4775 23.9167 20.7083 23.9167H5.41056C5.77281 24.9328 6.73567 25.6667 7.87492 25.6667H20.7083C23.4423 25.6667 25.6666 23.4424 25.6666 20.7083V7.87501C25.6666 6.73576 24.9328 5.77349 23.9166 5.41066ZM16.6078 8.74204C16.3806 8.74866 16.1648 8.84346 16.0063 9.00636L11.3749 13.6377L9.66024 11.923C9.57961 11.8391 9.48304 11.772 9.37618 11.7258C9.26931 11.6796 9.15431 11.6552 9.0379 11.6541C8.92149 11.6529 8.80602 11.6749 8.69824 11.7189C8.59046 11.7629 8.49254 11.828 8.41023 11.9103C8.32791 11.9926 8.26284 12.0906 8.21884 12.1983C8.17484 12.3061 8.15278 12.4216 8.15396 12.538C8.15515 12.6544 8.17955 12.7694 8.22573 12.8763C8.27192 12.9831 8.33896 13.0797 8.42293 13.1603L10.7563 15.4937C10.9204 15.6577 11.1429 15.7498 11.3749 15.7498C11.6069 15.7498 11.8295 15.6577 11.9936 15.4937L17.2436 10.2437C17.3698 10.1207 17.456 9.96254 17.4908 9.78981C17.5257 9.61708 17.5076 9.43786 17.4389 9.27559C17.3702 9.11333 17.2541 8.97558 17.1058 8.88038C16.9575 8.78518 16.784 8.73696 16.6078 8.74204Z" fill="#EC615B"/>
</svg>
