<svg width="70" height="70" viewBox="0 0 70 70" fill="none" xmlns="http://www.w3.org/2000/svg">
<circle cx="35" cy="35" r="34" fill="#EC615B" stroke="black" stroke-width="2"/>
<circle cx="35" cy="35" r="29.5" fill="#E5E5E5" stroke="black"/>
<path d="M19.3536 44.3536L34.2071 29.5H34.7929L49.6464 44.3536C49.7894 44.4966 50.0045 44.5393 50.1913 44.4619C50.3782 44.3846 50.5 44.2022 50.5 44V36C50.5 35.8674 50.4473 35.7402 50.3536 35.6464L35.3536 20.6464C35.2598 20.5527 35.1326 20.5 35 20.5H34C33.8674 20.5 33.7402 20.5527 33.6464 20.6464L18.6464 35.6464C18.5527 35.7402 18.5 35.8674 18.5 36V44C18.5 44.2022 18.6218 44.3846 18.8087 44.4619C18.9955 44.5393 19.2106 44.4966 19.3536 44.3536Z" fill="#EC615B" stroke="black" stroke-linejoin="round"/>
</svg>
