<svg width="36" height="36" viewBox="0 0 36 36" fill="none" xmlns="http://www.w3.org/2000/svg">
<path d="M18 36C27.9411 36 36 27.9411 36 18C36 8.05889 27.9411 0 18 0C8.05889 0 0 8.05889 0 18C0 27.9411 8.05889 36 18 36Z" fill="#EC615B"/>
<path d="M7.49148 17.8438C7.49148 17.8438 16.4915 14.1502 19.6128 12.8496C20.8094 12.3294 24.8672 10.6646 24.8672 10.6646C24.8672 10.6646 26.74 9.93636 26.5839 11.7051C26.5319 12.4335 26.1157 14.9826 25.6995 17.7398C25.0752 21.6416 24.3989 25.9074 24.3989 25.9074C24.3989 25.9074 24.2949 27.104 23.4105 27.3121C22.5261 27.5201 21.0694 26.5838 20.8094 26.3756C20.6012 26.2196 16.9076 23.8785 15.555 22.734C15.1909 22.4219 14.7747 21.7977 15.607 21.0693C17.4799 19.3525 19.7169 17.2196 21.0694 15.867C21.6938 15.2427 22.318 13.7861 19.7169 15.5548C16.0233 18.104 12.3816 20.497 12.3816 20.497C12.3816 20.497 11.5492 21.0172 9.98858 20.549C8.42784 20.0809 6.60703 19.4566 6.60703 19.4566C6.60703 19.4566 5.35855 18.6762 7.49148 17.8438Z" fill="#E5E5E5"/>
</svg>
